<?xml version="1.0" encoding="UTF-8"?> <svg xmlns="http://www.w3.org/2000/svg" width="260" height="260" viewBox="0 0 260 260" fill="none"> <rect width="260" height="260" fill="white"></rect> <path d="M122.78 119.286C120.177 118.51 117.403 118.524 114.808 119.324C112.213 120.125 109.914 121.677 108.201 123.785C106.488 125.892 105.439 128.46 105.186 131.164C104.932 133.868 105.486 136.586 106.778 138.975C108.07 141.364 110.041 143.316 112.442 144.585C114.844 145.853 117.567 146.382 120.268 146.102C122.97 145.823 125.528 144.749 127.619 143.016C129.709 141.283 131.239 138.968 132.015 136.366C132.53 134.638 132.7 132.825 132.515 131.032C132.33 129.238 131.793 127.499 130.935 125.913C130.077 124.327 128.916 122.926 127.517 121.789C126.117 120.651 124.508 119.801 122.78 119.286ZM115.882 142.426C115.386 142.263 114.974 141.912 114.732 141.449C114.49 140.986 114.438 140.447 114.588 139.947C114.737 139.446 115.075 139.024 115.531 138.769C115.987 138.514 116.524 138.446 117.029 138.581C117.288 138.65 117.531 138.771 117.743 138.935C117.955 139.1 118.132 139.306 118.263 139.54C118.394 139.774 118.477 140.033 118.506 140.3C118.536 140.566 118.511 140.837 118.435 141.094C118.358 141.351 118.23 141.591 118.059 141.798C117.889 142.005 117.678 142.176 117.44 142.3C117.202 142.424 116.941 142.499 116.674 142.521C116.406 142.543 116.137 142.511 115.882 142.426ZM122.72 128.35C121.464 131.083 120.227 133.976 118.56 136.496C118.16 137.104 116.904 136.73 116.901 136.002C116.923 133.739 117.096 131.481 117.421 129.242C117.624 127.606 117.465 124.804 118.789 123.545C119.964 122.419 122.169 122.903 123.222 123.985C124.488 125.305 123.328 126.988 122.72 128.35Z" fill="#FFDF05"></path> <path d="M84.4297 149.687C83.4776 150.656 82.8341 151.885 82.5809 153.22C82.3274 154.554 82.4753 155.934 83.0062 157.185C83.5369 158.435 84.4263 159.5 85.5625 160.245C86.6985 160.99 88.0297 161.382 89.3882 161.37C90.7467 161.358 92.0711 160.944 93.1943 160.18C94.3173 159.415 95.1885 158.335 95.6976 157.076C96.2069 155.817 96.3312 154.434 96.0551 153.104C95.779 151.774 95.1144 150.556 94.1459 149.603C92.8462 148.326 91.0927 147.617 89.2707 147.633C87.4486 147.649 85.7074 148.387 84.4297 149.687ZM93.0461 158.155C92.9538 158.249 92.8438 158.324 92.7224 158.375C92.601 158.427 92.4707 158.454 92.3389 158.455C92.2071 158.456 92.0763 158.432 91.9541 158.382C91.8319 158.333 91.7206 158.26 91.6265 158.168C91.5324 158.075 91.4575 157.965 91.406 157.844C91.3543 157.723 91.3273 157.592 91.326 157.461C91.3249 157.329 91.3496 157.198 91.399 157.076C91.4482 156.954 91.5212 156.842 91.6135 156.748C91.7999 156.558 92.0545 156.45 92.3207 156.448C92.587 156.445 92.8431 156.549 93.0331 156.735C93.2232 156.922 93.3311 157.176 93.3337 157.442C93.336 157.709 93.2325 157.965 93.0461 158.155ZM88.4259 151.839C89.3385 153.035 90.3291 154.26 91.0493 155.591C91.2235 155.911 90.7659 156.371 90.4435 156.21C89.4506 155.668 88.4951 155.06 87.5835 154.39C86.9049 153.919 85.6309 153.332 85.3839 152.45C85.1603 151.67 85.9039 150.802 86.6163 150.597C87.4925 150.342 87.9631 151.249 88.4259 151.839Z" fill="#FFDF05"></path> <path d="M231.514 153.192C234.712 157.212 237.754 162.194 240.505 168.332C257.254 205.736 236.319 224.718 236.319 224.718" stroke="#FFDF05" stroke-width="1.2558" stroke-miterlimit="10"></path> <path d="M56.5734 182.851C56.5734 182.851 31.72 154.659 62.712 140.7C93.704 126.74 99.84 124.801 97.604 110.28C95.368 95.7586 112.944 80.9724 140.585 90.7432C168.225 100.514 168.779 118.927 166.819 133.162C165.706 141.277 170.31 143.227 175.919 142.819C189.082 140.019 218.79 138.242 231.79 153.53" stroke="#FFDF05" stroke-width="1.2558" stroke-miterlimit="10"></path> <path d="M229.762 236.883C229.699 238.44 229.296 239.963 228.582 241.348C228.554 241.417 228.521 241.483 228.483 241.548C227.23 243.799 225.476 245.733 223.358 247.2L223.283 247.252C221.371 248.531 219.22 249.411 216.96 249.839H241.02C241.02 249.839 237.801 203.936 208.218 181.602C179.59 159.991 152.786 170.407 151.086 171.103C151.613 172.591 151.848 174.165 151.78 175.742C151.78 175.742 153.933 176.862 154.292 180.874C154.651 184.886 155.399 196.04 148.2 198.141C148.2 198.141 141.736 197.982 140.028 195.502C138.32 193.021 137.909 193.526 137.238 194.155C136.718 194.631 133.58 196.331 132.132 197.111C132.315 197.12 132.497 197.145 132.675 197.187C132.675 197.187 133.505 204.186 143.653 215.155C143.996 215.517 144.321 215.898 144.625 216.294C146.157 217.634 147.879 219.001 149.791 220.397L161.372 228.87C161.633 229.093 161.943 229.25 162.276 229.33C162.924 229.494 163.602 229.5 164.252 229.349C165.599 229.089 174.795 228.15 180.747 227.557C180.882 227.557 181.025 227.531 181.158 227.516L181.938 227.44C182.062 227.44 182.198 227.414 182.307 227.406L183.009 227.339C183.352 227.305 183.661 227.271 183.947 227.248L184.727 227.172C185.416 227.105 185.825 227.063 185.858 227.063C187.276 227.023 188.69 226.886 190.089 226.652C191.428 226.392 192.65 225.974 192.967 225.28C193.027 225.133 193.049 224.974 193.032 224.817C192.96 224.375 192.776 223.96 192.496 223.61C191.274 221.97 188.435 220.563 188.227 220.462C188.221 220.46 188.215 220.46 188.209 220.462L188.152 220.42L171.252 207.29H171.233C171.233 207.29 173.779 180.136 196.973 186.818C196.973 186.818 197.083 186.893 197.283 187.06C198.188 187.756 201.035 190.065 205.221 194.379C205.33 194.496 205.447 194.613 205.564 194.737C206.008 195.19 206.445 195.66 206.879 196.121C209.817 199.261 213.294 203.263 217.129 208.252L217.155 208.278C221.549 213.998 224.715 219.24 226.775 223.878V223.894C229.003 228.935 229.941 233.254 229.757 236.699C229.763 236.76 229.764 236.822 229.762 236.883ZM159.804 190.211C159.117 182.299 162.968 179.434 163.184 179.275C157.708 189.181 167.864 204.365 168.22 204.953C167.929 204.708 160.49 198.12 159.804 190.211Z" fill="#2E2E2E"></path> <path d="M145.259 188.659C144.974 188.868 144.678 189.061 144.37 189.236L142.587 186.116C146.7 184.013 147.854 180.305 146.045 178.269C145.539 177.712 144.886 177.309 144.162 177.104C142.342 176.553 141.081 177.364 140.226 178.454C139.528 179.401 139.016 180.472 138.718 181.61L137.849 171.595L137.782 170.815C137.782 170.815 135.889 169.876 130.762 170.714C125.635 171.551 124.691 174.382 122.489 173.126C120.286 171.871 119.038 171.972 119.038 171.972C118.412 174.273 116.735 174.273 116.735 174.273C116.338 174.225 115.947 174.13 115.573 173.99C113.194 171.803 112.549 168.01 112.549 168.01C115.045 167.7 115.237 165.298 114.951 163.33C116.334 164.151 118.284 164.208 121.022 162.451C128.877 157.428 136.932 160.147 139.763 160.566C141.027 160.75 142.41 160.306 143.556 159.786C143.705 160.051 143.911 160.279 144.16 160.454C146.071 161.785 147.647 163.542 148.764 165.586C156.135 179.364 148.054 186.68 145.259 188.659Z" fill="#FFDF05"></path> <path d="M115.835 249.844H118.799C120.067 249.843 121.282 249.338 122.179 248.442C123.075 247.546 123.579 246.33 123.581 245.063V241.745C123.581 241.443 123.521 241.143 123.405 240.864C123.29 240.584 123.12 240.331 122.906 240.117C122.692 239.903 122.438 239.734 122.159 239.619C121.879 239.503 121.579 239.444 121.277 239.444H103.55C103.551 240.15 103.412 240.85 103.142 241.502C102.872 242.155 102.476 242.747 101.977 243.247C101.477 243.746 100.884 244.142 100.232 244.411C99.5791 244.681 98.8797 244.819 98.1735 244.818H34.1173C34.1181 246.151 34.6477 247.429 35.5902 248.371C36.5324 249.314 37.8104 249.843 39.1431 249.844H125.983C126.096 249.844 126.209 249.822 126.314 249.779C126.419 249.736 126.514 249.672 126.594 249.592C126.674 249.512 126.738 249.416 126.781 249.312C126.824 249.207 126.847 249.094 126.846 248.981V243.596C126.846 242.55 127.262 241.547 128.001 240.807C128.741 240.068 129.745 239.652 130.791 239.652C131.836 239.652 132.84 240.068 133.58 240.807C134.319 241.547 134.735 242.55 134.735 243.596V248.981C134.734 249.094 134.756 249.206 134.799 249.311C134.843 249.416 134.906 249.511 134.986 249.591C135.066 249.671 135.161 249.735 135.265 249.778C135.37 249.822 135.482 249.844 135.595 249.844H241.02C241.02 249.844 237.801 203.931 208.219 181.599C179.59 159.988 152.787 170.404 151.086 171.101L151.003 171.132" stroke="#2E2E2E" stroke-width="1.2558" stroke-miterlimit="10"></path> <path d="M121.443 182.338C121.442 182.627 121.356 182.909 121.195 183.149C121.034 183.388 120.805 183.575 120.538 183.684C120.271 183.794 119.978 183.823 119.695 183.766C119.412 183.709 119.152 183.57 118.948 183.366C118.744 183.161 118.605 182.901 118.549 182.618C118.493 182.335 118.521 182.042 118.632 181.775C118.742 181.508 118.929 181.28 119.169 181.119C119.409 180.959 119.691 180.873 119.98 180.872C120.093 180.873 120.205 180.887 120.315 180.914C120.164 180.962 120.032 181.056 119.938 181.185C119.844 181.313 119.794 181.467 119.795 181.626C119.794 181.726 119.813 181.824 119.851 181.917C119.888 182.009 119.944 182.093 120.014 182.164C120.084 182.234 120.167 182.291 120.259 182.329C120.351 182.368 120.449 182.388 120.549 182.388C120.731 182.384 120.906 182.317 121.044 182.198C121.182 182.079 121.273 181.915 121.303 181.735C121.393 181.924 121.44 182.13 121.443 182.338Z" fill="#2E2E2E"></path> <path d="M131.586 182.746C131.586 183.036 131.501 183.32 131.34 183.562C131.179 183.803 130.951 183.991 130.682 184.103C130.415 184.214 130.12 184.244 129.835 184.187C129.55 184.131 129.289 183.991 129.083 183.787C128.878 183.582 128.738 183.32 128.681 183.036C128.625 182.751 128.654 182.456 128.764 182.188C128.875 181.92 129.063 181.691 129.305 181.53C129.546 181.368 129.829 181.282 130.12 181.282C130.19 181.282 130.259 181.29 130.328 181.306C130.198 181.365 130.088 181.461 130.011 181.582C129.934 181.702 129.893 181.842 129.893 181.984C129.885 182.184 129.955 182.38 130.09 182.527C130.225 182.675 130.414 182.763 130.614 182.772C130.813 182.781 131.009 182.71 131.157 182.575C131.304 182.44 131.393 182.252 131.401 182.052C131.521 182.264 131.585 182.503 131.586 182.746Z" fill="#2E2E2E"></path> <path d="M143.283 157.726C143.114 158.864 143.325 159.863 144.162 160.456C146.073 161.787 147.65 163.544 148.767 165.588C157.56 182.017 144.37 189.248 144.37 189.248L142.587 186.128C147.722 183.507 148.247 178.375 144.162 177.116C140.078 175.858 138.718 181.622 138.718 181.622L137.782 170.819C137.782 170.819 135.889 169.881 130.762 170.718C125.635 171.555 124.691 174.386 122.489 173.131C120.286 171.875 119.038 171.976 119.038 171.976C118.412 174.277 116.735 174.277 116.735 174.277C111.821 173.651 110.666 166.852 110.666 166.852C113.16 166.54 113.352 164.137 113.069 162.172C114.449 162.993 116.402 163.053 119.14 161.293C126.994 156.27 135.049 158.992 137.878 159.41C139.833 159.694 142.077 158.498 143.283 157.726Z" stroke="#2E2E2E" stroke-width="1.2558" stroke-linecap="round" stroke-linejoin="round"></path> <path d="M147.818 239.199L149.76 238.419L151.216 242.348L150.987 249.477L149.019 249.833L141.549 249.511C141.549 249.511 142.069 245.163 143.658 243.096C145.246 241.029 147.818 239.199 147.818 239.199Z" fill="#FFDF05"></path> <path d="M113.807 176.681C113.807 176.681 115.796 173.111 119.982 173.483" stroke="#2E2E2E" stroke-width="1.2558" stroke-miterlimit="10"></path> <path d="M128.18 173.482C128.18 173.482 132.964 172.408 134.638 175.068" stroke="#2E2E2E" stroke-width="1.2558" stroke-miterlimit="10"></path> <path d="M135.593 189.643C135.593 189.643 132.733 187.987 130.64 190.772" stroke="#2E2E2E" stroke-width="1.2558" stroke-miterlimit="10"></path> <path d="M117.52 174.054C117.52 174.054 115.484 198.002 130.665 197.56C133.265 197.485 135.85 195.777 138.32 193.029" stroke="#2E2E2E" stroke-width="1.2558" stroke-miterlimit="10"></path> <path d="M144.37 195.208L138.32 193.029C138.32 193.029 139.82 197.823 147.251 198.19C154.682 198.556 157.175 181.503 151.715 174.642" stroke="#2E2E2E" stroke-width="1.2558" stroke-linejoin="round"></path> <path d="M168.025 243.251C168.025 243.251 162.479 247.752 166.247 249.845" stroke="#2E2E2E" stroke-width="1.2558" stroke-miterlimit="10"></path> <path d="M163.735 239.062C163.735 239.062 154.115 244.507 162.375 249.845" stroke="#2E2E2E" stroke-width="1.2558" stroke-miterlimit="10"></path> <path d="M160.49 234.876C160.49 234.876 147.722 240.856 157.56 249.844" stroke="#2E2E2E" stroke-width="1.2558" stroke-miterlimit="10"></path> <path d="M214.185 249.844C214.185 249.844 229.676 249.844 229.884 234.875C230.092 219.907 199.846 182.322 180.274 177.093C160.701 171.864 159.861 186.193 159.861 186.781C159.861 187.368 158.712 193.541 163.735 200.126C167.614 205.217 184.748 217.926 192.351 223.448C192.63 223.652 192.841 223.935 192.955 224.261C193.069 224.587 193.082 224.94 192.99 225.273C192.899 225.606 192.709 225.903 192.445 226.125C192.18 226.347 191.854 226.484 191.511 226.516L157.888 229.746H157.867C157.55 229.803 145.683 231.992 142.069 235.71C142.069 235.71 140.044 237.21 141.092 239.514C142.139 241.817 145.358 241.058 145.447 240.972" stroke="#2E2E2E" stroke-width="1.2558" stroke-miterlimit="10"></path> <path opacity="0.26" d="M130.122 185.466C132.434 185.466 134.308 183.592 134.308 181.28C134.308 178.968 132.434 177.094 130.122 177.094C127.81 177.094 125.936 178.968 125.936 181.28C125.936 183.592 127.81 185.466 130.122 185.466Z" fill="white"></path> <path opacity="0.26" d="M119.499 185.052C121.811 185.052 123.685 183.178 123.685 180.866C123.685 178.554 121.811 176.68 119.499 176.68C117.187 176.68 115.313 178.554 115.313 180.866C115.313 183.178 117.187 185.052 119.499 185.052Z" fill="white"></path> <path d="M155.683 238.54C154.211 238.129 151.806 237.76 149.328 238.555C148.117 238.946 146.999 239.582 146.044 240.425C145.836 240.607 145.636 240.791 145.444 240.976C145.029 241.383 144.638 241.812 144.271 242.263C144.223 242.323 144.155 242.362 144.079 242.375C143.156 242.502 137.08 243.464 137.111 246.535C137.139 249.293 140.161 249.746 141.201 249.819C141.244 249.823 141.287 249.818 141.328 249.804C141.368 249.79 141.406 249.768 141.438 249.74C141.47 249.711 141.496 249.676 141.513 249.636C141.531 249.597 141.541 249.555 141.541 249.512C141.541 248.529 141.765 245.448 144.196 242.349" stroke="#2E2E2E" stroke-width="1.2558" stroke-miterlimit="10"></path> <path d="M100.937 216.868C101.65 222.612 97.1854 225.209 92.3052 225.594" stroke="#2E2E2E" stroke-width="1.2558" stroke-miterlimit="10"></path> <path d="M85.2123 224.396C83.3515 223.39 81.8443 221.838 80.8945 219.948C79.945 218.058 79.5989 215.922 79.9031 213.829C80.6831 208.304 85.3631 204.066 89.9443 201.378C99.5643 195.733 121.243 199.818 124.886 200.65C127.678 201.289 130.013 199.105 130.959 198.05C131 198.005 131.052 197.973 131.11 197.957C131.168 197.941 131.229 197.942 131.286 197.959C131.344 197.977 131.395 198.011 131.434 198.057C131.473 198.103 131.498 198.159 131.505 198.219C133.505 209.919 156.725 225.8 162.097 229.354" stroke="#2E2E2E" stroke-width="1.2558" stroke-miterlimit="10"></path> <path d="M106.795 212.896L99.1069 217.667C98.6488 217.952 98.1358 218.138 97.6015 218.213C97.0669 218.288 96.5227 218.25 96.0038 218.101C95.4848 217.953 95.0028 217.697 94.5889 217.351C94.1747 217.005 93.838 216.576 93.6001 216.091C93.1713 215.221 93.0863 214.221 93.3619 213.291C93.6375 212.361 94.2537 211.569 95.0873 211.073L106.787 204.103" stroke="#2E2E2E" stroke-width="1.2558" stroke-miterlimit="10"></path> <path d="M130.122 185.466C132.434 185.466 134.308 183.592 134.308 181.28C134.308 178.968 132.434 177.094 130.122 177.094C127.81 177.094 125.936 178.968 125.936 181.28C125.936 183.592 127.81 185.466 130.122 185.466Z" stroke="#2E2E2E" stroke-width="1.2558" stroke-miterlimit="10"></path> <path d="M119.499 184.426C121.464 184.426 123.058 182.833 123.058 180.867C123.058 178.901 121.464 177.308 119.499 177.308C117.533 177.308 115.939 178.901 115.939 180.867C115.939 182.833 117.533 184.426 119.499 184.426Z" stroke="white" stroke-width="1.2558" stroke-miterlimit="10"></path> <path d="M119.499 185.052C121.811 185.052 123.685 183.178 123.685 180.866C123.685 178.554 121.811 176.68 119.499 176.68C117.187 176.68 115.313 178.554 115.313 180.866C115.313 183.178 117.187 185.052 119.499 185.052Z" stroke="#2E2E2E" stroke-width="1.2558" stroke-miterlimit="10"></path> <path d="M125.957 180.866H123.685" stroke="#2E2E2E" stroke-width="1.2558" stroke-miterlimit="10"></path> <path d="M125.957 186.781H124.459C124.365 186.781 124.272 186.761 124.187 186.721C124.102 186.681 124.026 186.622 123.966 186.55C123.906 186.477 123.863 186.392 123.839 186.301C123.816 186.21 123.812 186.115 123.83 186.022L124.821 180.866" stroke="#2E2E2E" stroke-width="1.2558" stroke-miterlimit="10"></path> <path d="M95.9088 201.068C95.9088 201.068 90.571 202.22 88.6886 210.28C87.5446 215.173 85.9742 221.416 84.9186 225.566C84.7831 226.098 84.7712 226.654 84.8832 227.192C84.9956 227.729 85.2293 228.234 85.5663 228.668C85.9035 229.102 86.3351 229.453 86.8283 229.694C87.3218 229.935 87.8636 230.061 88.413 230.061C89.233 230.061 90.0289 229.782 90.6688 229.269C91.3089 228.756 91.7548 228.04 91.9334 227.24L94.1668 217.22" stroke="#2E2E2E" stroke-width="1.2558" stroke-miterlimit="10"></path> <path d="M100.789 219.908C100.789 219.908 106.392 216.559 117.429 219.908C128.466 223.257 141.154 225.529 145.34 216.647" stroke="#2E2E2E" stroke-width="1.2558" stroke-miterlimit="10"></path> <path d="M149.331 238.555C149.331 238.555 153.231 243.006 150.86 249.844" stroke="#2E2E2E" stroke-width="1.2558" stroke-miterlimit="10"></path> <path d="M20.4568 183.203H82.0768C84.0616 183.201 85.9895 183.866 87.55 185.092C89.1106 186.318 90.2132 188.034 90.6802 189.963L100.49 230.591C100.755 231.687 100.767 232.829 100.527 233.931C100.286 235.033 99.7986 236.066 99.1011 236.952C98.4032 237.838 97.5138 238.554 96.4993 239.046C95.4847 239.539 94.3717 239.795 93.2438 239.795H31.7824C29.8015 239.797 27.8772 239.133 26.3185 237.911C24.7599 236.688 23.657 234.977 23.1868 233.053L13.2184 192.433C12.9492 191.336 12.933 190.191 13.1711 189.087C13.4091 187.982 13.8951 186.946 14.5924 186.057C15.2896 185.168 16.1799 184.449 17.1958 183.955C18.2118 183.46 19.3269 183.203 20.4568 183.203Z" fill="#FFDF05"></path> <path d="M22.7005 184.951H80.5142C82.3765 184.954 84.1843 185.581 85.6479 186.732C87.1116 187.884 88.1467 189.493 88.5871 191.303L97.7963 229.416C98.0449 230.445 98.0571 231.516 97.8314 232.55C97.606 233.583 97.1489 234.552 96.4945 235.384C95.8401 236.215 95.0058 236.887 94.0539 237.349C93.102 237.811 92.0579 238.051 90.9999 238.051H33.3267C31.4701 238.047 29.668 237.422 28.2076 236.276C26.7469 235.13 25.7118 233.528 25.2667 231.725L15.9067 193.609C15.654 192.579 15.6388 191.506 15.8622 190.469C16.0856 189.433 16.5419 188.461 17.1964 187.627C17.8509 186.793 18.6866 186.118 19.6402 185.654C20.5938 185.191 21.6403 184.95 22.7005 184.951Z" fill="#FFDF05"></path> <path d="M20.4568 183.203H82.0768C84.0616 183.201 85.9895 183.866 87.55 185.092C89.1106 186.318 90.2132 188.034 90.6802 189.963L100.49 230.591C100.755 231.687 100.767 232.829 100.527 233.931C100.286 235.033 99.7986 236.066 99.1011 236.952C98.4032 237.838 97.5138 238.554 96.4992 239.046C95.4847 239.539 94.3717 239.795 93.2438 239.795H31.7824C29.8015 239.797 27.8772 239.133 26.3185 237.911C24.7599 236.688 23.657 234.977 23.1868 233.053L13.2184 192.433C12.9492 191.336 12.933 190.191 13.1711 189.087C13.4091 187.982 13.8951 186.946 14.5924 186.057C15.2896 185.168 16.1799 184.449 17.1958 183.955C18.2118 183.46 19.3269 183.203 20.4568 183.203Z" stroke="#2E2E2E" stroke-width="1.2558" stroke-miterlimit="10"></path> <path d="M86.8582 222.82C86.8553 223.133 86.7292 223.433 86.5066 223.654C86.2841 223.875 85.9835 224 85.6699 224H40.1127C40.6951 223.023 40.4039 221.684 39.4471 220.729H84.2737C84.7995 220.729 85.314 220.882 85.7539 221.17C86.1941 221.458 86.5407 221.868 86.7515 222.349C86.8189 222.497 86.8553 222.657 86.8582 222.82Z" fill="#FFDF05"></path> <g opacity="0.21"> <path opacity="0.21" d="M87.4847 223.436C87.4818 223.749 87.3555 224.049 87.1329 224.269C86.9106 224.49 86.6098 224.614 86.2965 224.614H40.7419C41.3243 223.636 41.0331 222.3 40.0763 221.343H84.9003C85.4268 221.343 85.9419 221.496 86.3823 221.785C86.823 222.073 87.1698 222.483 87.3807 222.965C87.4475 223.113 87.4829 223.274 87.4847 223.436Z" fill="#FFDF05"></path> </g> <path d="M65.6954 218.125C65.4745 218.125 65.1798 218.051 65.0325 217.83C64.6642 217.462 64.6642 216.872 65.0325 216.504L67.4599 211.201L62.1564 205.897C61.7881 205.529 61.7881 204.939 62.1564 204.571C62.5247 204.203 63.1139 204.203 63.4822 204.571L69.4487 210.538C69.596 210.685 69.7433 210.98 69.7433 211.201C69.7433 211.422 69.6697 211.716 69.4487 211.863L66.3584 217.83C66.211 217.977 65.9164 218.125 65.6954 218.125Z" fill="#2E2E2E"></path> <path d="M48.248 204.245C48.469 204.245 48.7637 204.318 48.911 204.539C49.2793 204.908 49.2793 205.497 48.911 205.865L46.4836 211.169L51.7871 216.472C52.1554 216.84 52.1554 217.43 51.7871 217.798C51.4188 218.166 50.8296 218.166 50.4613 217.798L44.4948 211.832C44.3475 211.684 44.2002 211.39 44.2002 211.169C44.2002 210.948 44.2738 210.653 44.4948 210.506L47.5851 204.539C47.7324 204.392 48.0271 204.245 48.248 204.245Z" fill="#2E2E2E"></path> <path d="M54.6916 218.174C54.4886 218.229 54.3365 218.202 54.1843 218.176C53.7111 218.033 53.5088 217.549 53.6785 217.1L58.6669 204.862C58.8366 204.413 59.3611 204.205 59.8344 204.348C60.3076 204.49 60.5099 204.974 60.3402 205.423L55.3518 217.661C55.1993 217.904 54.9623 218.102 54.6916 218.174Z" fill="#2E2E2E"></path> </svg> 