<?xml version="1.0" encoding="UTF-8"?> <svg xmlns="http://www.w3.org/2000/svg" viewBox="0 0 1020 1020"> <title>Монтажная область 4</title> <g id="Слой_7" data-name="Слой 7"> <path d="M342.6,556.42s-2.55,15.86,0,28.06c0,0,33.6-3.7,55,14.42s50.65,52.87,50.65,52.87l-35.49,40.3-20-15.16s-7.76,37.71-7.76,62.85,7.41,40.3,9.81,59.52H249.4s8.13-18.12,7.39-42.88-4.91-36.23-6.39-48.43l-46.1-6.28s10.35-73.2,32.53-90.58,57.3-19.22,57.3-19.22,10.13-2.88,6.73-35.45Z" fill="#fbdc0c"></path> <path d="M363.84,599.23c-3-7.58-18.49-15.45-18.49-15.45l-51.21,8.09s-40.93-16.63-41.25-67.77c-.15-23.54,7.18-44.06,15.13-59.36a56.38,56.38,0,0,1,47.16-30.13h0s23.59-11.51,42,3.06S389.81,473,391.11,504c.48,11.62-5.07,25.34-1.17,37.35.91,2.79,3.58,6.86,6.72,11,10.76,14.29,12.57,33.66,3.92,49.32q-.38.69-.78,1.34c-8.71,14.44-30.22,12.36-35.86-3.54Z" fill="#191919"></path> <path d="M361.9,503s7-3.06,10.15,2.43-3.7,17.94-7.84,22.08c-1.49,1.49-7,4.66-7,4.66l1.3-24.13Z" fill="#fff" stroke="#191919" stroke-linecap="round" stroke-linejoin="round" stroke-width="2"></path> <path d="M286,502.1s-7.65-7-9.89,1.71,2.79,17,7.08,20.12a26.93,26.93,0,0,0,4.74,1.94s4.76-4.92,4.76-5.47S286,502.1,286,502.1Z" fill="#fff" stroke="#191919" stroke-linecap="round" stroke-linejoin="round" stroke-width="2"></path> <path d="M301.31,575a99.54,99.54,0,0,0-.45-18.57H342.6a178.24,178.24,0,0,0-.63,20.12,7.89,7.89,0,0,0,8.19,7.63h0c-.2,9.27-3.52,29.28-28,32-32,3.55-38.49-23.1-38.49-23.1h0A19.92,19.92,0,0,0,301.31,575Z" fill="#fff" stroke="#191919" stroke-linecap="round" stroke-linejoin="round" stroke-width="2"></path> <path d="M318.52,457.1c5.38,8.33,17.16,23.31,38.55,36.25a10.08,10.08,0,0,1,4.82,9.6l-1.32,13.48a68.6,68.6,0,0,1-21.75,43.75c-1.48,1.36-3,2.7-4.46,4a20.32,20.32,0,0,1-27.92-1.22l-.19-.2a68.6,68.6,0,0,1-19-42.78L285.75,499A15.37,15.37,0,0,1,290,487.28c6.43-6.65,17.62-19.09,22.55-29.77A3.39,3.39,0,0,1,318.52,457.1Z" fill="#fff" stroke="#191919" stroke-linecap="round" stroke-linejoin="round" stroke-width="2"></path> <polyline points="210.48 702.53 199.44 799.27 234.89 799.16 249.4 707.96" fill="#fff" stroke="#191919" stroke-linecap="round" stroke-linejoin="round" stroke-width="2"></polyline> <path d="M326.3,628.59c-37.05,4.14-52.94-26.68-54.46-33.16" fill="none" stroke="#191919" stroke-linecap="round" stroke-miterlimit="10" stroke-width="2"></path> <path d="M361.95,584.88s1.2,33.83-27.9,42.21" fill="none" stroke="#191919" stroke-linecap="round" stroke-miterlimit="10" stroke-width="2"></path> <line x1="439.87" y1="642.01" x2="402.26" y2="684.13" fill="none" stroke="#191919" stroke-linecap="round" stroke-miterlimit="10" stroke-width="2"></line> <line x1="248.25" y1="696.57" x2="206.66" y2="690.89" fill="none" stroke="#191919" stroke-linecap="round" stroke-miterlimit="10" stroke-width="2"></line> <path d="M256.79,756.39a157.66,157.66,0,0,0-3.06-27.2,303.89,303.89,0,0,1-5.48-45.06h0" fill="none" stroke="#191919" stroke-linecap="round" stroke-linejoin="round" stroke-width="2"></path> <path d="M396.89,663.07l-4,13.83s-9.81,37.79-7.76,62.85c1.23,15,9.81,59.52,9.81,59.52" fill="none" stroke="#191919" stroke-linecap="round" stroke-miterlimit="10" stroke-width="2"></path> <path d="M417.06,687l43,30.3a13.32,13.32,0,0,0,20.32-6.7l38.85-117.4,7.57-2a8.47,8.47,0,0,0,5.7-5l11.07-27a5.27,5.27,0,0,0-1.81-6.29h0a5.42,5.42,0,0,0-5.57-.44l-1.4.7-.56-1.54a4.89,4.89,0,0,0-4.59-3.22H527l-1.35-2.7a3.28,3.28,0,0,0-3.9-1.67l-3,.91,8.56-32.62a8.73,8.73,0,0,0,.12-3.93l-.6-3a1.29,1.29,0,0,0-2.42-.33L505,543.7,495,593.19,458.49,667,444.7,656.59" fill="#fff" stroke="#191919" stroke-linecap="round" stroke-linejoin="round" stroke-width="2"></path> <rect x="467.91" y="750.9" width="72.93" height="48.26" fill="#fff" stroke="#191919" stroke-linecap="round" stroke-linejoin="round" stroke-width="2"></rect> <rect x="539.84" y="642.01" width="74.2" height="157.15" fill="#fbdc0c"></rect> <rect x="612.76" y="569.14" width="72.93" height="230.03" fill="#fff" stroke="#191919" stroke-linecap="round" stroke-linejoin="round" stroke-width="2"></rect> <rect x="684.56" y="421.17" width="72.93" height="378.84" fill="#fbdc0c"></rect> <path d="M655.12,252.07h27.21a0,0,0,0,1,0,0v48.51a0,0,0,0,1,0,0h-6.48A34.62,34.62,0,0,1,641.23,266v0A13.89,13.89,0,0,1,655.12,252.07Z" fill="none" stroke="#191919" stroke-linecap="round" stroke-linejoin="round" stroke-width="2"></path> <path d="M791.75,252.07h6.48a0,0,0,0,1,0,0v48.51a0,0,0,0,1,0,0H771a13.89,13.89,0,0,1-13.89-13.89v0a34.62,34.62,0,0,1,34.62-34.62Z" transform="translate(1555.37 552.64) rotate(-180)" fill="none" stroke="#191919" stroke-linecap="round" stroke-linejoin="round" stroke-width="2"></path> <path d="M670.2,220S652.54,333.4,721.55,333.4,768.09,220,768.09,220Z" fill="#fbdc0c"></path> <line x1="721.55" y1="333.4" x2="721.55" y2="382.08" fill="none" stroke="#191919" stroke-linecap="round" stroke-linejoin="round" stroke-width="2"></line> <line x1="693.97" y1="382.08" x2="745.15" y2="382.08" fill="none" stroke="#191919" stroke-linecap="round" stroke-linejoin="round" stroke-width="2"></line> <line x1="675.94" y1="233.87" x2="763.36" y2="233.87" fill="none" stroke="#191919" stroke-linecap="round" stroke-linejoin="round" stroke-width="1.91"></line> <path d="M676.08,300.49C683.38,319,697,333.4,721.55,333.4c17.25,0,28.79-7.09,36.39-17.72" fill="none" stroke="#191919" stroke-linecap="round" stroke-linejoin="round" stroke-width="1.91"></path> <line x1="840.86" y1="799.16" x2="179.14" y2="799.16" fill="#fbdc0c" stroke="#191919" stroke-linecap="round" stroke-linejoin="round" stroke-width="2"></line> <line x1="697.45" y1="440.15" x2="745.54" y2="440.15" fill="#fff" stroke="#191919" stroke-linecap="round" stroke-linejoin="round" stroke-width="2"></line> <line x1="626.21" y1="588.03" x2="674.3" y2="588.03" fill="#fff" stroke="#191919" stroke-linecap="round" stroke-linejoin="round" stroke-width="2"></line> <line x1="552.89" y1="663.07" x2="600.98" y2="663.07" fill="#fff" stroke="#191919" stroke-linecap="round" stroke-linejoin="round" stroke-width="2"></line> <line x1="480.33" y1="768.43" x2="528.42" y2="768.43" fill="#fff" stroke="#191919" stroke-linecap="round" stroke-linejoin="round" stroke-width="2"></line> </g> </svg> 