<?xml version="1.0" encoding="UTF-8"?> <svg xmlns="http://www.w3.org/2000/svg" viewBox="0 0 1020 1020"> <title>Монтажная область 3</title> <g id="Слой_7" data-name="Слой 7"> <path d="M220.22,821.26l19-130.33-43.51-14.21,27.22-50.3a57.69,57.69,0,0,1,50.5-30.23c17.31-.07,42.92,2.44,64.09,5a96.14,96.14,0,0,1,61.38,32.62l22.26,25.75L385,699.36l-12.67-14.48-2.72,136.39Z" fill="#191919"></path> <path d="M274.51,576l27.32-6a19.41,19.41,0,0,0,14.91-24.52s-19.94-9.78-16-24.25,16.81-3.13,16.81-3.13l6.27-39.89s6.23-25.81-14.29-26.2-71.74,9.78-76,46.93S251,566.64,274.51,576Z" fill="#fbdc0c"></path> <path d="M278.79,596.26,274.51,576l27.32-6a19.41,19.41,0,0,0,14.91-24.52s-19.94-9.78-16-24.25,16.81-3.13,16.81-3.13l6.27-39.89s28.94,49.27,18.38,84.08c0,0-3.52,15.25-21.12,17.6l7.73,20.22Z" fill="#fff" stroke="#191919" stroke-linecap="round" stroke-linejoin="round" stroke-width="2"></path> <path d="M690.63,493.13l-12.8,18.54L682,522.74l-6,8.35s-8,13.21-3.86,29.2l22.39,30.31v17.19l62.24-19.66-12-93.33s-31.51-17.5-32.78-17.19S690.63,493.13,690.63,493.13Z" fill="#fff" stroke="#191919" stroke-linecap="round" stroke-linejoin="round" stroke-width="2"></path> <path d="M694.45,590.6V575s12-.55,21.29-27.3,15.57-30.33,22.93-26.21c5.39,3,5.37,17.56-17,29l-2.25,12.06a11.52,11.52,0,0,0,6.86,12.74l30.43,12.78s41.95-48.41,35.4-77.89c-6.4-28.78-21.23-49.74-81.66-53.11a46.46,46.46,0,0,0-15.27,1.61c-6.39,1.81-13.63,5.4-15.64,12.46-5,17.65,11.1,21.93,11.1,21.93s31.67-9.28,34.4,4.91-7.1,33.3-22.93,44.22l-15.83,10.92-14.2,7.1S662.87,590.6,694.45,590.6Z" fill="#191919" stroke="#191919" stroke-miterlimit="10" stroke-width="2"></path> <line x1="670.82" y1="521.75" x2="719.17" y2="523.83" fill="none" stroke="#191919" stroke-linecap="round" stroke-linejoin="round" stroke-width="2"></line> <line x1="670.86" y1="512.25" x2="668.3" y2="532.27" fill="none" stroke="#191919" stroke-linecap="round" stroke-linejoin="round" stroke-width="2"></line> <path d="M618.75,717.85,571.7,667.77l2.21-28.86a28.25,28.25,0,0,0-7.49-21.41l-13.26-14.25a14.7,14.7,0,0,0-9.67-4.64l-20-1.5a.78.78,0,0,0-.84.78h0a5.72,5.72,0,0,0,4.23,5.53l8.17,1.47a10.6,10.6,0,0,1,5,2.33l8.13,6.85-5.87,1.68a5.68,5.68,0,0,0-3.52,2.92l-.85,1.71h-1.16a4.3,4.3,0,0,0-4.11,3L532,625.5l-3.5.82a4.43,4.43,0,0,0-3.41,4l-.45,7.14a6.5,6.5,0,0,0,1.08,4l10.61,15.95.19,3.09a9.19,9.19,0,0,0,2.33,5.56l14.82,16.54,49.26,76.84" fill="#fff" stroke="#191919" stroke-linecap="round" stroke-linejoin="round" stroke-width="2"></path> <path d="M674.48,625.8s-18.82,12.3-18.82,20.26,5.07,76.71-4,81.05-11,4.34-31.5-13L597.4,774.16s18.81,30.21,57.5,23.22l2.28,23.45h170.7S825,647.78,799.43,630.14c0,0,6.26-5.1,6-13.35s-10.9-30.93-20.91-33.87-61.56,4.42-97.19,26.21S674.48,625.8,674.48,625.8Z" fill="#fbdc0c"></path> <path d="M597.4,774.16a40.82,40.82,0,0,0,7.6,9c29.85,27.83,78.44,16.23,93.34-21.76,5.56-14.16,8.34-32.49,5-56" fill="none" stroke="#191919" stroke-linecap="round" stroke-linejoin="round" stroke-width="2"></path> <path d="M651.68,727.12c-6,2.88-8.9,3.85-16.14-.89" fill="none" stroke="#191919" stroke-linecap="round" stroke-linejoin="round" stroke-width="2"></path> <path d="M697.09,622.85c11-1,34.71,7.29,34.71,7.29,58.69,15.29,67.63,0,67.63,0s6.26-5.1,6-13.35-10.9-30.93-20.91-33.87-61.56,4.42-97.19,26.21-12.81,16.66-12.81,16.66l10.29-3" fill="none" stroke="#191919" stroke-linecap="round" stroke-linejoin="round" stroke-width="2"></path> <line x1="635.54" y1="726.23" x2="615.99" y2="779.64" fill="none" stroke="#191919" stroke-linecap="round" stroke-linejoin="round" stroke-width="2"></line> <line x1="642.03" y1="729.3" x2="642.03" y2="745.36" fill="none" stroke="#191919" stroke-linecap="round" stroke-linejoin="round" stroke-width="2"></line> <line x1="651.85" y1="727.18" x2="656.13" y2="742.23" fill="none" stroke="#191919" stroke-linecap="round" stroke-linejoin="round" stroke-width="2"></line> <path d="M771.85,595.07s-22,3.1-49.7,4" fill="none" stroke="#191919" stroke-linecap="round" stroke-linejoin="round" stroke-width="2"></path> <line x1="536.31" y1="657.45" x2="539.2" y2="640.66" fill="none" stroke="#191919" stroke-linecap="round" stroke-linejoin="round" stroke-width="2"></line> <line x1="533.67" y1="641.66" x2="538.03" y2="647.44" fill="none" stroke="#191919" stroke-linecap="round" stroke-linejoin="round" stroke-width="2"></line> <line x1="548.13" y1="614.07" x2="553.74" y2="618.33" fill="none" stroke="#191919" stroke-linecap="round" stroke-linejoin="round" stroke-width="2"></line> <path d="M389.86,694l43,30.3a13.32,13.32,0,0,0,20.32-6.7L492,600.15l7.57-2a8.47,8.47,0,0,0,5.7-5l11.07-27a5.27,5.27,0,0,0-1.81-6.29h0a5.42,5.42,0,0,0-5.57-.44l-1.4.7-.56-1.54a4.89,4.89,0,0,0-4.59-3.22h-2.63l-1.35-2.7a3.28,3.28,0,0,0-3.9-1.67l-3,.91,8.56-32.62a8.73,8.73,0,0,0,.12-3.93l-.6-3a1.29,1.29,0,0,0-2.42-.33l-19.49,38.58-9.94,49.49-36.55,73.78L417.5,663.55" fill="#fff" stroke="#191919" stroke-linecap="round" stroke-linejoin="round" stroke-width="2"></path> <line x1="176.57" y1="779.64" x2="206.85" y2="680.37" fill="#fff" stroke="#191919" stroke-linecap="round" stroke-linejoin="round" stroke-width="2"></line> <path d="M309.49,452.06c-20.52-.39-71.74,9.78-76,46.93" fill="none" stroke="#191919" stroke-linecap="round" stroke-linejoin="round" stroke-width="2"></path> <path d="M761.51,305.7s-27.71-5.6-27.71-29.15h0a53.79,53.79,0,0,0,5.4-23.53h0a54.44,54.44,0,0,0-54.28-54.28H442.5A54.44,54.44,0,0,0,388.22,253h0A54.44,54.44,0,0,0,442.5,307.3h242.4A53.87,53.87,0,0,0,715,298.12h0S726.78,305.7,761.51,305.7Z" fill="#fbdc0c"></path> <line x1="430.78" y1="240.56" x2="696.32" y2="240.56" fill="#fff" stroke="#191919" stroke-linecap="round" stroke-linejoin="round" stroke-width="2"></line> <line x1="430.78" y1="266.94" x2="633.12" y2="266.94" fill="#fff" stroke="#191919" stroke-linecap="round" stroke-linejoin="round" stroke-width="2"></line> <path d="M646,341.63H388.1a36.62,36.62,0,0,0-36.51,36.51h0a36.3,36.3,0,0,0,.78,7.51l-.13-.15h0c0,23.55-27.71,29.15-27.71,29.15,24.93,0,38-3.9,43.43-6.1a36.23,36.23,0,0,0,20.14,6.1H646a36.62,36.62,0,0,0,36.51-36.51h0A36.62,36.62,0,0,0,646,341.63Z" fill="#fff" stroke="#191919" stroke-linecap="round" stroke-linejoin="round" stroke-width="2"></path> <line x1="640.56" y1="376.09" x2="393.05" y2="376.09" fill="#fff" stroke="#191919" stroke-linecap="round" stroke-linejoin="round" stroke-width="2"></line> <line x1="181.7" y1="821.26" x2="843.43" y2="821.26" fill="#fbdc0c" stroke="#191919" stroke-linecap="round" stroke-linejoin="round" stroke-width="2"></line> </g> </svg> 