<svg id="Capa_1" enable-background="new 0 0 512 512" height="512" viewBox="0 0 512 512" width="512" xmlns="http://www.w3.org/2000/svg"><g><path d="m474.294 503.555h-436.588c-4.902 0-8.875-3.974-8.875-8.875v-274.842h454.339v274.841c0 4.902-3.974 8.876-8.876 8.876z" fill="#365e7d"/><path d="m99.978 171.476c-.041-.222-.081-.443-.121-.665-5.239-29.366 10.838-58.298 38.296-69.953 13.941-5.917 24.383-13.2 29.225-22.665.595-1.164 2.226-1.27 3.017-.228l9.266 12.205c4.599 6.057 14.206 3.886 15.723-3.567 6.082-29.88 20.469-55.572 42.073-77.623 1.028-1.049 2.824-.465 3.052.986 2.695 17.141 6.93 32.039 13.465 43.585 3.321 5.867 11.789 6.028 15.257.247 9.816-16.36 22.022-28.586 39.766-31.236 1.188-.177 2.23.838 2.056 2.026-1.693 11.564.138 23.492 4.523 35.684 1.999 5.559 8.863 7.617 13.582 4.064 8.204-6.177 18.235-8.871 30.025-8.209.815.046 1.514.648 1.658 1.451 1.988 11.16 9.738 18.677 20.069 24.56 23.51 13.389 35.987 40.193 31.206 66.823-1.313 7.314-3.039 14.841-5.05 22.513h-307.088z" fill="#ffe07d"/><g fill="#ffd064"><path d="m225.422 53.552c3.35 5.919 11.862 5.883 15.371.057 2.461-4.086 5.075-7.909 7.886-11.39-3.645-9.408-6.285-20.281-8.169-32.256-.228-1.45-2.025-2.032-3.052-.983-7.659 7.819-14.408 16.098-20.205 24.857 2.213 7.315 4.9 13.939 8.169 19.715z"/><path d="m281.986 36.877c.427 7.669 2.19 15.477 5.038 23.396 2.021 5.619 8.921 7.546 13.705 3.972 4.172-3.117 8.817-5.332 13.921-6.672-3.706-11.252-5.163-22.272-3.597-32.979.174-1.192-.866-2.209-2.057-2.031-10.827 1.617-19.591 6.802-27.01 14.314z"/><path d="m380.914 82.141c-10.333-5.884-18.084-13.401-20.072-24.563-.143-.803-.84-1.404-1.655-1.45-9.87-.554-18.501 1.254-25.866 5.477 2.918 8.859 9.804 15.207 18.653 20.315 23.526 13.578 36.403 40.075 31.63 66.816-1.318 7.385-3.059 14.988-5.091 22.74h28.553c2.011-7.673 3.737-15.199 5.05-22.513 4.783-26.629-7.693-53.434-31.202-66.822z"/></g><g><path d="m221.081 116.596c-.54 0-1.088-.057-1.637-.177-4.15-.901-6.801-4.958-5.927-9.115.182-.865 1.948-8.679 7.778-16.358 3.434-4.524 9.078-6.707 14.719-5.701 5.623 1.004 10.139 4.987 11.788 10.394.839 2.749 1.88 2.994 2.642 3.172 4.154.975 6.731 5.133 5.757 9.288-.976 4.155-5.134 6.73-9.288 5.757-4.658-1.094-10.758-4.253-13.684-13.059-3.462 4.792-4.588 9.686-4.6 9.737-.805 3.595-4.004 6.062-7.548 6.062z" fill="#ffd064"/></g><g><path d="m329.02 145.701c-.54 0-1.088-.057-1.637-.177-4.15-.901-6.801-4.958-5.927-9.115.182-.865 1.948-8.679 7.778-16.358 3.434-4.523 9.071-6.704 14.719-5.701 5.622 1.004 10.139 4.986 11.788 10.393.839 2.751 1.881 2.995 2.642 3.173 4.154.975 6.731 5.133 5.757 9.288-.975 4.156-5.133 6.723-9.288 5.757-4.658-1.094-10.757-4.253-13.684-13.06-3.463 4.793-4.588 9.687-4.6 9.738-.806 3.595-4.004 6.062-7.548 6.062z" fill="#ffd064"/></g><path d="m483.17 424.899h-60.024v-55.476h60.024v-15.453h-29.849v-55.477h29.849v-15.453h-60.024v-63.203h-15.453v63.203h-94.156v-63.203h-15.453v63.203h-94.155v-63.203h-15.453v63.203h-94.155v-63.203h-15.453v63.203h-50.038v15.453h80.213v55.477h-80.213v15.453h50.037v55.476h-50.037v15.453h80.213v63.203h15.453v-63.203h94.156v63.203h15.453v-63.203h94.155v63.203h15.453v-63.203h94.156v63.203h15.453v-63.203h29.849v-15.453zm-139.458-126.406h94.156v55.477h-94.156zm-109.608 0h94.155v55.477h-94.155zm-109.608 0h94.156v55.477h-94.156zm63.981 126.406h-94.156v-55.476h94.156zm109.607 0h-94.155v-55.476h94.155zm109.609 0h-94.156v-55.476h94.156z" fill="#2b4d66"/><path d="m505.913 219.838h-499.826c-3.362 0-6.087-2.725-6.087-6.087v-36.188c0-3.362 2.725-6.087 6.087-6.087h499.825c3.362 0 6.087 2.725 6.087 6.087v36.188c.001 3.362-2.724 6.087-6.086 6.087z" fill="#e278b1"/><path d="m486.498 171.476v48.362h19.414c3.362 0 6.087-2.725 6.087-6.087v-36.187c0-3.362-2.725-6.087-6.087-6.087h-19.414z" fill="#dd5ca2"/></g></svg>