<svg id="Capa_1" enable-background="new 0 0 512 512" height="512" viewBox="0 0 512 512" width="512" xmlns="http://www.w3.org/2000/svg"><g><path d="m286.577 295.525h-277.629c-4.942 0-8.947-4.006-8.947-8.947v-277.63c-.001-4.942 4.005-8.948 8.947-8.948h277.63c4.942 0 8.947 4.006 8.947 8.947v277.63c0 4.942-4.006 8.948-8.948 8.948z" fill="#365e7d"/><path d="m286.577 0h-21.532c4.942 0 8.947 4.006 8.947 8.947v277.629c0 4.942-4.006 8.948-8.947 8.948h21.532c4.941 0 8.947-4.006 8.947-8.948v-277.629c.001-4.941-4.005-8.947-8.947-8.947z" fill="#2b4d66"/><path d="m244.462 57.356v113.155c0 3.688-2.998 6.686-6.696 6.686h-10.353c-3.698 0-6.686 2.988-6.686 6.686v22.509c0 3.698-2.998 6.686-6.696 6.686h-15.844c-3.698 0-6.686 2.998-6.686 6.686v18.399c0 3.698-2.998 6.696-6.696 6.696h-74.091c-3.688 0-6.686-2.998-6.686-6.696v-18.399c0-3.688-2.998-6.686-6.686-6.686h-15.855c-3.688 0-6.686-2.987-6.686-6.686v-22.509c0-3.698-2.998-6.686-6.686-6.686h-10.363c-3.688 0-6.686-2.998-6.686-6.686v-113.155c0-3.688 2.998-6.686 6.686-6.686h180.014c3.698 0 6.696 2.998 6.696 6.686z" fill="#ffe07d"/><path d="m237.77 50.67h-21.85c3.694 0 6.688 2.994 6.688 6.688v113.148c0 3.694-2.994 6.688-6.688 6.688h-10.359c-3.694 0-6.688 2.994-6.688 6.688v22.51c0 3.694-2.994 6.688-6.688 6.688h-15.851c-3.694 0-6.688 2.994-6.688 6.688v18.399c0 3.694-2.994 6.688-6.688 6.688h21.849c3.694 0 6.688-2.994 6.688-6.688v-18.399c0-3.694 2.994-6.688 6.688-6.688h15.851c3.694 0 6.688-2.994 6.688-6.688v-22.51c0-3.694 2.994-6.688 6.688-6.688h10.359c3.694 0 6.688-2.994 6.688-6.688v-113.148c.001-3.694-2.994-6.688-6.687-6.688z" fill="#ffd064"/><g><g><g><path d="m29.218 36.676h-3.335c-4.268 0-7.726-3.459-7.726-7.726s3.459-7.726 7.726-7.726h3.335c4.268 0 7.726 3.459 7.726 7.726s-3.458 7.726-7.726 7.726z" fill="#ffe07d"/></g><g><path d="m269.642 36.676h-3.335c-4.268 0-7.726-3.459-7.726-7.726s3.459-7.726 7.726-7.726h3.335c4.268 0 7.726 3.459 7.726 7.726s-3.459 7.726-7.726 7.726z" fill="#ffe07d"/></g></g><g><g><path d="m29.218 274.302h-3.335c-4.268 0-7.726-3.459-7.726-7.726s3.459-7.726 7.726-7.726h3.335c4.268 0 7.726 3.459 7.726 7.726s-3.458 7.726-7.726 7.726z" fill="#ffe07d"/></g><g><path d="m269.642 274.302h-3.335c-4.268 0-7.726-3.459-7.726-7.726s3.459-7.726 7.726-7.726h3.335c4.268 0 7.726 3.459 7.726 7.726s-3.459 7.726-7.726 7.726z" fill="#ffe07d"/></g></g></g><g><g><path d="m121.335 50.67v28.165c0 4.275-3.461 7.726-7.726 7.726-4.275 0-7.726-3.451-7.726-7.726v-28.165z" fill="#ffd064"/></g><g><path d="m155.485 50.67v28.165c0 4.275-3.451 7.726-7.726 7.726-4.265 0-7.726-3.451-7.726-7.726v-28.165z" fill="#ffd064"/></g><g><path d="m189.646 50.67v28.165c0 4.275-3.451 7.726-7.726 7.726-4.265 0-7.726-3.451-7.726-7.726v-28.165z" fill="#ffd064"/></g></g><path d="m487.506 258.442h-129.691v-134.761c0-9.091 7.369-16.46 16.46-16.46h96.771c9.091 0 16.46 7.369 16.46 16.46z" fill="#ffe07d"/><path d="m471.046 107.221h-27.585c9.09 0 16.46 7.369 16.46 16.46v134.761h27.585v-134.761c0-9.091-7.37-16.46-16.46-16.46z" fill="#ffd064"/><path d="m461.686 107.217v37.056c0 4.729-3.832 8.561-8.561 8.561h-60.925c-4.728 0-8.561-3.832-8.561-8.561v-37.056z" fill="#365e7d"/><g><g><path d="m417.192 107.217v18.79c0 4.265-3.461 7.726-7.726 7.726s-7.726-3.461-7.726-7.726v-18.79z" fill="#2b4d66"/></g><g><path d="m443.586 107.217v18.79c0 4.265-3.461 7.726-7.726 7.726-4.275 0-7.726-3.461-7.726-7.726v-18.79z" fill="#2b4d66"/></g></g><path d="m456.524 238.321-7.084-17.009c-2.068-4.966-6.92-8.201-12.299-8.201h-28.961c-5.379 0-10.231 3.235-12.299 8.201l-7.084 17.009c-2.068 4.966-6.92 8.201-12.299 8.201h-29.854c-7.358 0-13.323 5.965-13.323 13.323v74.543c0 2.281.585 4.523 1.7 6.512l34.889 62.268c2.357 4.206 6.802 6.811 11.623 6.811h82.255c4.821 0 9.266-2.605 11.623-6.811l34.889-62.268c1.115-1.99 1.7-4.232 1.7-6.512v-74.543c0-7.358-5.965-13.323-13.323-13.323h-29.854c-5.38 0-10.231-3.235-12.299-8.201z" fill="#698ed5"/><g fill="#4073c8"><path d="m424.946 221.311 7.084 17.01c2.068 4.966 6.92 8.201 12.299 8.201h24.494c-5.38 0-10.231-3.235-12.299-8.201l-7.084-17.01c-2.068-4.966-6.92-8.201-12.299-8.201h-24.494c5.379 0 10.23 3.235 12.299 8.201z"/><path d="m498.677 246.522h-24.494c7.358 0 13.323 5.965 13.323 13.323v74.543c0 2.28-.586 4.523-1.7 6.512l-34.889 62.268c-2.357 4.206-6.802 6.811-11.623 6.811h24.494c4.821 0 9.266-2.605 11.623-6.811l34.889-62.268c1.115-1.989 1.7-4.232 1.7-6.512v-74.543c0-7.358-5.965-13.323-13.323-13.323z"/></g><path d="m451.181 442.482h-55.231c-2.037 0-3.689-1.652-3.689-3.689v-28.815h62.609v28.815c0 2.038-1.652 3.689-3.689 3.689z" fill="#365e7d"/><path d="m435.77 512h-25.371c-2.037 0-3.689-1.652-3.689-3.689v-65.829h32.749v65.829c0 2.037-1.652 3.689-3.689 3.689z" fill="#2b4d66"/><g><g><path d="m441.537 338.096h-37.754c-4.268 0-7.726-3.459-7.726-7.726s3.459-7.726 7.726-7.726h37.754c4.268 0 7.726 3.459 7.726 7.726s-3.459 7.726-7.726 7.726z" fill="#4073c8"/></g><g><path d="m441.537 362.313h-37.754c-4.268 0-7.726-3.459-7.726-7.726s3.459-7.726 7.726-7.726h37.754c4.268 0 7.726 3.459 7.726 7.726s-3.459 7.726-7.726 7.726z" fill="#4073c8"/></g><g><path d="m441.537 386.53h-37.754c-4.268 0-7.726-3.459-7.726-7.726s3.459-7.726 7.726-7.726h37.754c4.268 0 7.726 3.459 7.726 7.726s-3.459 7.726-7.726 7.726z" fill="#4073c8"/></g></g></g></svg>