<svg id="Capa_1" enable-background="new 0 0 512.149 512.149" height="512" viewBox="0 0 512.149 512.149" width="512" xmlns="http://www.w3.org/2000/svg"><g><g><g><path d="m287.997 165.895c-1.919 0-3.839-.732-5.304-2.196-2.929-2.93-2.929-7.678 0-10.607l57.73-57.73c2.93-2.928 7.678-2.928 10.607 0 2.929 2.93 2.929 7.678 0 10.607l-57.73 57.73c-1.464 1.463-3.384 2.196-5.303 2.196z" fill="#e278b1"/></g><g><path d="m355.352 114.621-27.935 4.354 4.354-27.935c.457-2.931 2.756-5.23 5.687-5.687l18.712-2.916c4.562-.711 8.497 3.224 7.786 7.786l-2.916 18.712c-.458 2.931-2.757 5.23-5.688 5.686z" fill="#e278b1"/></g></g><path d="m298.114 187h-116.294c14.841 61.325 13.65 118.897-15.9 158.177h148.095c-29.55-39.28-30.741-96.852-15.901-158.177z" fill="#365e7d"/><path d="m296.32 310.461c-10.698-33.249-9.325-73.441.018-115.743l-7.719-7.718h-106.8c7.877 32.552 11.237 64.045 8.237 92.308 30.197 25.852 69.083 36.232 106.264 31.153z" fill="#2b4d66"/><path d="m332.275 504.65h-189.62v-152.802c0-3.685 2.987-6.672 6.672-6.672h176.276c3.685 0 6.672 2.987 6.672 6.672z" fill="#d0e2e7"/><path d="m325.603 345.177h-19.26c3.685 0 6.672 2.987 6.672 6.672v152.801h19.261v-152.802c-.001-3.684-2.988-6.671-6.673-6.671z" fill="#b4d0d5"/><path d="m192.271 62.837c-52.822 52.822-52.822 138.462 0 191.283 52.822 52.822 138.462 52.822 191.284 0 .028-.028.055-.057.083-.085l-191.281-191.281c-.029.028-.058.055-.086.083z" fill="#698ed5"/><path d="m364.936 269.689c6.547-4.546 12.783-9.733 18.618-15.568.028-.028.055-.057.083-.085l-191.28-191.282c-.028.028-.057.055-.085.083-5.835 5.835-11.022 12.071-15.568 18.618z" fill="#4073c8"/><g><path d="m396.188 274.085c-1.919 0-3.839-.732-5.304-2.196l-216.382-216.381c-2.929-2.93-2.929-7.678 0-10.607 2.93-2.928 7.678-2.928 10.607 0l216.382 216.381c2.929 2.93 2.929 7.678 0 10.607-1.464 1.464-3.384 2.196-5.303 2.196z" fill="#698ed5"/></g><g><g><g><path d="m254.215 67.857c-.02 0-.038 0-.058 0-4.143-.031-7.475-3.415-7.443-7.557.122-16.085 6.435-31.188 17.773-42.527 11.34-11.338 26.443-17.651 42.529-17.773h.058c4.116 0 7.468 3.32 7.499 7.443.031 4.142-3.301 7.525-7.443 7.557-12.122.092-23.499 4.844-32.034 13.38-8.537 8.537-13.289 19.914-13.381 32.034-.032 4.123-3.385 7.443-7.5 7.443z" fill="#b1e4f9"/></g><g><path d="m278.366 72.517c-.02 0-.038 0-.058 0-4.142-.031-7.475-3.415-7.443-7.557.082-10.885 4.354-21.106 12.03-28.78 7.673-7.675 17.895-11.947 28.779-12.029h.058c4.116 0 7.468 3.32 7.499 7.443.031 4.142-3.302 7.525-7.443 7.557-6.921.052-13.415 2.764-18.286 7.636-4.873 4.872-7.585 11.366-7.637 18.287-.032 4.122-3.384 7.443-7.499 7.443z" fill="#b1e4f9"/></g><g><path d="m302.511 77.175c-.02 0-.039 0-.059 0-4.143-.032-7.474-3.416-7.442-7.558.044-5.681 2.277-11.019 6.288-15.031 4.015-4.013 9.353-6.246 15.033-6.29h.059c4.115 0 7.467 3.319 7.499 7.442.031 4.142-3.3 7.525-7.442 7.558-1.718.013-3.331.687-4.541 1.897-1.209 1.208-1.883 2.821-1.896 4.539-.032 4.122-3.384 7.443-7.499 7.443z" fill="#b1e4f9"/></g></g><g><g><path d="m386.033 199.677c-4.116 0-7.468-3.32-7.499-7.443-.031-4.142 3.301-7.525 7.443-7.557 12.122-.092 23.499-4.844 32.034-13.38 8.537-8.536 13.289-19.913 13.38-32.034.031-4.122 3.383-7.443 7.499-7.443h.058c4.142.031 7.475 3.414 7.443 7.557-.121 16.084-6.433 31.188-17.772 42.528-11.339 11.339-26.442 17.65-42.528 17.772-.019 0-.04 0-.058 0z" fill="#b1e4f9"/></g><g><path d="m381.374 175.527c-4.115 0-7.467-3.32-7.499-7.442-.031-4.143 3.301-7.525 7.442-7.558 6.922-.053 13.417-2.765 18.287-7.636 4.873-4.873 7.585-11.367 7.637-18.287.031-4.123 3.384-7.443 7.499-7.443h.058c4.142.031 7.475 3.415 7.443 7.557-.082 10.884-4.354 21.104-12.029 28.78-7.673 7.673-17.894 11.945-28.779 12.029-.02 0-.039 0-.059 0z" fill="#b1e4f9"/></g><g><path d="m376.716 151.382c-4.115 0-7.467-3.319-7.499-7.442-.031-4.142 3.3-7.525 7.442-7.558 1.718-.013 3.33-.687 4.539-1.896 1.211-1.21 1.884-2.822 1.896-4.539.031-4.123 3.383-7.444 7.499-7.444h.057c4.143.031 7.475 3.414 7.444 7.556-.042 5.682-2.276 11.021-6.289 15.035-4.013 4.012-9.351 6.245-15.031 6.289-.019-.001-.038-.001-.058-.001z" fill="#b1e4f9"/></g></g></g><path d="m271.228 504.65h-67.525v-80.723c0-4.194 3.4-7.594 7.594-7.594h52.336c4.194 0 7.594 3.4 7.594 7.594v80.723z" fill="#b1e4f9"/><path d="m263.633 416.333h-19.883c4.194 0 7.594 3.4 7.594 7.594v80.723h19.883v-80.723c.001-4.194-3.4-7.594-7.594-7.594z" fill="#90d8f9"/><g><g><path d="m208.578 388.445h-33.582c-4.143 0-7.5-3.357-7.5-7.5s3.357-7.5 7.5-7.5h33.582c4.143 0 7.5 3.357 7.5 7.5s-3.358 7.5-7.5 7.5z" fill="#90d8f9"/></g><g><path d="m299.935 388.445h-33.582c-4.143 0-7.5-3.357-7.5-7.5s3.357-7.5 7.5-7.5h33.582c4.143 0 7.5 3.357 7.5 7.5s-3.357 7.5-7.5 7.5z" fill="#90d8f9"/></g></g><g><path d="m401.672 512.149h-328.414c-4.143 0-7.5-3.357-7.5-7.5s3.357-7.5 7.5-7.5h328.414c4.143 0 7.5 3.357 7.5 7.5s-3.357 7.5-7.5 7.5z" fill="#2b4d66"/></g></g></svg>