<svg id="Capa_1" enable-background="new 0 0 512 512" height="512" viewBox="0 0 512 512" width="512" xmlns="http://www.w3.org/2000/svg"><g><path d="m233.161 21.58-19.766-18.913c-1.789-1.712-4.169-2.667-6.645-2.667h-61.766c-5.309 0-9.613 4.304-9.613 9.613v133.372c0 5.309 4.304 9.613 9.613 9.613h222.032c5.309 0 9.613-4.304 9.613-9.613v-109.125c0-5.309-4.304-9.613-9.613-9.613h-127.21c-2.476 0-4.856-.955-6.645-2.667z" fill="#ffe07d"/><g fill="#ffd064"><path d="m367.016 24.247h-26.65c5.309 0 9.613 4.304 9.613 9.613v109.125c0 5.309-4.304 9.613-9.613 9.613h26.65c5.309 0 9.613-4.304 9.613-9.613v-109.125c0-5.309-4.304-9.613-9.613-9.613z"/><path d="m206.51 21.58c1.789 1.712 4.17 2.667 6.646 2.667h26.65c-2.476 0-4.857-.955-6.646-2.667l-19.765-18.913c-1.789-1.712-4.169-2.667-6.645-2.667h-26.65c2.476 0 4.857.955 6.646 2.667z"/></g><path d="m374.543 383.771h-237.086c-2.52 0-4.907-1.131-6.502-3.081l-22.787-27.848c-2.533-3.095-2.533-7.546 0-10.641l22.787-27.848c1.596-1.95 3.983-3.081 6.502-3.081h237.086c2.52 0 4.907 1.131 6.502 3.081l22.787 27.848c2.533 3.095 2.533 7.546 0 10.641l-22.787 27.848c-1.595 1.95-3.982 3.081-6.502 3.081z" fill="#365e7d"/><path d="m403.833 342.201-22.787-27.848c-1.596-1.95-3.983-3.081-6.502-3.081h-24.158c2.52 0 4.907 1.131 6.502 3.081l22.787 27.848c2.532 3.095 2.532 7.546 0 10.641l-22.787 27.848c-1.596 1.95-3.983 3.081-6.502 3.081h24.158c2.52 0 4.907-1.131 6.502-3.081l22.787-27.848c2.532-3.095 2.532-7.546 0-10.641z" fill="#2b4d66"/><path d="m374.543 484.135h-237.086c-2.52 0-4.907-1.131-6.502-3.081l-22.787-27.848c-2.533-3.095-2.533-7.546 0-10.641l22.787-27.848c1.596-1.95 3.983-3.081 6.502-3.081h237.086c2.52 0 4.907 1.131 6.502 3.081l22.787 27.848c2.533 3.095 2.533 7.546 0 10.641l-22.787 27.848c-1.595 1.95-3.982 3.081-6.502 3.081z" fill="#365e7d"/><path d="m403.833 442.565-22.787-27.848c-1.596-1.95-3.983-3.081-6.502-3.081h-24.158c2.52 0 4.907 1.131 6.502 3.081l22.787 27.848c2.532 3.095 2.532 7.546 0 10.641l-22.787 27.848c-1.596 1.95-3.983 3.081-6.502 3.081h24.158c2.52 0 4.907-1.131 6.502-3.081l22.787-27.848c2.532-3.095 2.532-7.546 0-10.641z" fill="#2b4d66"/><path d="m147.808 383.771h216.383v27.865h-216.383z" fill="#d0e2e7"/><path d="m356.352 512h-200.704c-4.33 0-7.839-3.51-7.839-7.839v-20.025h216.383v20.025c0 4.329-3.51 7.839-7.84 7.839z" fill="#d0e2e7"/><g><g><path d="m167.59 355.248h-7.044c-4.268 0-7.726-3.459-7.726-7.726s3.459-7.726 7.726-7.726h7.044c4.268 0 7.726 3.459 7.726 7.726s-3.458 7.726-7.726 7.726z" fill="#95d6a4"/></g><g><path d="m200.231 355.248h-7.044c-4.268 0-7.726-3.459-7.726-7.726s3.459-7.726 7.726-7.726h7.044c4.268 0 7.726 3.459 7.726 7.726s-3.458 7.726-7.726 7.726z" fill="#95d6a4"/></g><g><path d="m232.872 355.248h-7.044c-4.268 0-7.726-3.459-7.726-7.726s3.459-7.726 7.726-7.726h7.044c4.268 0 7.726 3.459 7.726 7.726s-3.459 7.726-7.726 7.726z" fill="#95d6a4"/></g><g><path d="m295.735 391.497c-4.268 0-7.726-3.459-7.726-7.726v-16.399c0-4.268 3.459-7.726 7.726-7.726s7.726 3.459 7.726 7.726v16.399c0 4.268-3.458 7.726-7.726 7.726z" fill="#95d6a4"/></g><g><path d="m323.594 391.497c-4.268 0-7.726-3.459-7.726-7.726v-16.399c0-4.268 3.459-7.726 7.726-7.726s7.726 3.459 7.726 7.726v16.399c.001 4.268-3.458 7.726-7.726 7.726z" fill="#95d6a4"/></g><g><path d="m351.453 391.497c-4.268 0-7.726-3.459-7.726-7.726v-16.399c0-4.268 3.459-7.726 7.726-7.726s7.726 3.459 7.726 7.726v16.399c.001 4.268-3.458 7.726-7.726 7.726z" fill="#95d6a4"/></g></g><g><g><path d="m167.59 455.612h-7.044c-4.268 0-7.726-3.459-7.726-7.726s3.459-7.726 7.726-7.726h7.044c4.268 0 7.726 3.459 7.726 7.726s-3.458 7.726-7.726 7.726z" fill="#95d6a4"/></g><g><path d="m200.231 455.612h-7.044c-4.268 0-7.726-3.459-7.726-7.726s3.459-7.726 7.726-7.726h7.044c4.268 0 7.726 3.459 7.726 7.726s-3.458 7.726-7.726 7.726z" fill="#95d6a4"/></g><g><path d="m232.872 455.612h-7.044c-4.268 0-7.726-3.459-7.726-7.726s3.459-7.726 7.726-7.726h7.044c4.268 0 7.726 3.459 7.726 7.726s-3.459 7.726-7.726 7.726z" fill="#95d6a4"/></g><g><path d="m295.735 491.862c-4.268 0-7.726-3.459-7.726-7.726v-16.399c0-4.268 3.459-7.726 7.726-7.726s7.726 3.459 7.726 7.726v16.399c0 4.267-3.458 7.726-7.726 7.726z" fill="#95d6a4"/></g><g><path d="m323.594 491.862c-4.268 0-7.726-3.459-7.726-7.726v-16.399c0-4.268 3.459-7.726 7.726-7.726s7.726 3.459 7.726 7.726v16.399c.001 4.267-3.458 7.726-7.726 7.726z" fill="#95d6a4"/></g><g><path d="m351.453 491.862c-4.268 0-7.726-3.459-7.726-7.726v-16.399c0-4.268 3.459-7.726 7.726-7.726s7.726 3.459 7.726 7.726v16.399c.001 4.267-3.458 7.726-7.726 7.726z" fill="#95d6a4"/></g></g><circle cx="356.748" cy="232.118" fill="#e278b1" r="45.338"/><path d="m356.748 186.78c-3.426 0-6.758.392-9.967 1.113 20.242 4.543 35.371 22.612 35.371 44.225s-15.129 39.682-35.371 44.225c3.208.72 6.541 1.113 9.967 1.113 25.039 0 45.338-20.298 45.338-45.338 0-25.039-20.299-45.338-45.338-45.338z" fill="#dd5ca2"/><g><g><path d="m345.535 251.058c-1.977 0-3.955-.755-5.464-2.263-3.017-3.017-3.017-7.909 0-10.927l22.426-22.426c3.018-3.017 7.909-3.017 10.928 0 3.017 3.017 3.017 7.909 0 10.927l-22.426 22.426c-1.509 1.508-3.487 2.263-5.464 2.263z" fill="#dd5ca2"/></g><g><path d="m367.96 251.058c-1.978 0-3.955-.754-5.464-2.263l-22.426-22.426c-3.017-3.017-3.017-7.909 0-10.927 3.019-3.018 7.91-3.017 10.928 0l22.426 22.426c3.017 3.017 3.017 7.909 0 10.927-1.509 1.508-3.487 2.263-5.464 2.263z" fill="#dd5ca2"/></g></g><g><g><path d="m256 274.259c-4.268 0-7.726-3.459-7.726-7.726v-78.491c0-4.267 3.459-7.726 7.726-7.726s7.726 3.459 7.726 7.726v78.491c0 4.267-3.459 7.726-7.726 7.726z" fill="#2b4d66"/></g><g><path d="m256 280.883c-1.804 0-3.607-.629-5.058-1.886l-18.618-16.124c-3.225-2.794-3.575-7.673-.782-10.899 2.794-3.225 7.674-3.574 10.898-.782l13.56 11.743 13.56-11.743c3.225-2.794 8.105-2.445 10.899.783 2.793 3.225 2.443 8.105-.783 10.898l-18.619 16.125c-1.451 1.256-3.255 1.885-5.057 1.885z" fill="#2b4d66"/></g></g></g></svg>