<svg id="Capa_1" enable-background="new 0 0 512 512" height="512" viewBox="0 0 512 512" width="512" xmlns="http://www.w3.org/2000/svg"><g><path d="m295.56 452.394h-172.228c-23.758 0-43.679-17.945-46.151-41.574l-33.954-324.523 24.834-12.071h281.068l26.536 12.071-33.954 324.523c-2.472 23.629-22.393 41.574-46.151 41.574z" fill="#d0e2e7"/><path d="m375.665 86.297-26.078-12.071h-280.816l-25.544 12.071 2.097 20.039h272.997c15.594 0 27.756 13.502 26.134 29.011l-28.822 275.473c-2.472 23.629-22.393 41.574-46.151 41.574h26.078c23.758 0 43.679-17.945 46.151-41.574l31.857-304.485z" fill="#b4d0d5"/><path d="m21.891 86.297h375.111c3.556 0 6.438-2.882 6.438-6.438v-29.616c0-3.556-2.882-6.438-6.438-6.438h-375.111c-3.556 0-6.438 2.882-6.438 6.438v29.616c0 3.555 2.882 6.438 6.438 6.438z" fill="#b3e59f"/><path d="m397.002 43.805h-23.896c3.556 0 6.438 2.882 6.438 6.438v29.616c0 3.556-2.882 6.438-6.438 6.438h23.896c3.556 0 6.438-2.882 6.438-6.438v-29.616c0-3.556-2.883-6.438-6.438-6.438z" fill="#95d6a4"/><path d="m278.842 43.805h-138.791l13.905-31.56c3.278-7.442 10.643-12.245 18.774-12.245h73.431c8.132 0 15.496 4.803 18.775 12.245z" fill="#d0e2e7"/><path d="m264.937 12.245c-3.279-7.442-10.643-12.245-18.775-12.245h-25.716c8.132 0 15.497 4.803 18.775 12.245l13.905 31.56h25.716z" fill="#b4d0d5"/><path d="m349.391 331.835c29.182 0 54.529 16.723 66.961 41.09 1.81 3.547 5.525 5.703 9.5 5.468 37.93-2.235 70.508 28.013 70.695 66.422.18 36.952-30.815 67.184-67.767 67.184h-153.295c-32.395 0-59.244-25.962-59.37-58.357-.116-29.758 22.279-55.146 52.122-58.452 4.108-.455 7.463-3.439 8.52-7.435 8.504-32.151 37.845-55.92 72.634-55.92z" fill="#b1e4f9"/><g><path d="m427.965 378.303c-5.202.143-10.099-2.665-12.593-7.232-12.752-23.357-37.546-39.235-65.982-39.235-24.991 0-47.156 12.276-60.819 31.104 12.367-8.956 27.556-14.243 43.959-14.243 27.453 0 51.513 14.801 64.618 36.843 3.497 5.881 9.834 9.515 16.675 9.606 35.931.478 65.863 29.942 65.863 66.865 0 14.133-4.421 27.247-11.935 38.057 17.384-12.084 28.795-32.188 28.795-54.917.001-37.854-31.454-67.866-68.581-66.848z" fill="#90d8f9"/></g><path d="m209.446 334.012c-10.172 0-18.419-8.246-18.419-18.419v-150.531c0-10.172 8.246-18.419 18.419-18.419 10.172 0 18.419 8.246 18.419 18.419v150.531c0 10.172-8.246 18.419-18.419 18.419z" fill="#95d6a4"/><g><g><path d="m141.18 315.826c-3.851 0-7.184-2.875-7.66-6.796l-14.466-119.056c-.515-4.235 2.502-8.087 6.738-8.602 4.23-.504 8.088 2.501 8.602 6.738l14.466 119.056c.515 4.235-2.502 8.087-6.738 8.602-.317.039-.631.058-.942.058z" fill="#95d6a4"/></g><g><path d="m277.712 315.826c-.312 0-.626-.019-.942-.057-4.236-.515-7.254-4.366-6.738-8.602l14.467-119.056c.514-4.236 4.386-7.255 8.602-6.738 4.236.515 7.254 4.366 6.738 8.602l-14.467 119.056c-.476 3.919-3.81 6.795-7.66 6.795z" fill="#95d6a4"/></g></g></g></svg>