<svg id="Capa_1" enable-background="new 0 0 512 512" height="512" viewBox="0 0 512 512" width="512" xmlns="http://www.w3.org/2000/svg"><g><g><path d="m256 355.473c-4.268 0-7.726-3.459-7.726-7.726v-82.365c0-4.268 3.459-7.726 7.726-7.726s7.726 3.459 7.726 7.726v82.365c0 4.268-3.459 7.726-7.726 7.726z" fill="#2b4d66"/></g><g><path d="m443.432 347.232c-4.268 0-7.726-3.459-7.726-7.726v-18.41c0-6.537-5.318-11.855-11.855-11.855h-335.702c-6.536 0-11.854 5.318-11.854 11.855v18.41c0 4.268-3.459 7.726-7.726 7.726-4.268 0-7.726-3.459-7.726-7.726v-18.41c0-15.057 12.249-27.308 27.307-27.308h335.702c15.057 0 27.308 12.25 27.308 27.308v18.41c-.001 4.267-3.46 7.726-7.728 7.726z" fill="#2b4d66"/></g><path d="m247.182 0c37.076 0 69.28 21.247 85.076 52.206 2.299 4.506 7.02 7.245 12.07 6.948 48.191-2.84 89.582 35.591 89.819 84.391.228 46.948-39.151 85.358-86.1 85.358h-194.763c-41.159 0-75.271-32.985-75.431-74.144-.147-37.808 28.306-70.065 66.222-74.264 5.22-.578 9.482-4.37 10.825-9.447 10.804-40.849 48.082-71.048 92.282-71.048z" fill="#b1e4f9"/><g><path d="m347.868 59.019c-7.033.122-13.681-3.426-17.082-9.583-16.268-29.449-47.644-49.436-83.604-49.436-31.751 0-59.913 15.597-77.272 39.518 15.713-11.378 35.011-18.097 55.851-18.097 34.88 0 65.448 18.805 82.099 46.81 4.404 7.407 12.344 12.109 20.961 12.201 45.751.486 83.906 37.967 83.906 84.956 0 17.956-5.616 34.618-15.163 48.352 22.087-15.353 36.585-40.896 36.585-69.773-.001-47.799-39.483-85.76-86.281-84.948z" fill="#90d8f9"/></g><g><path d="m283.071 163.928h-54.142c-4.268 0-7.726-3.459-7.726-7.726 0-4.268 3.459-7.726 7.726-7.726h54.142c4.268 0 7.726 3.459 7.726 7.726s-3.458 7.726-7.726 7.726z" fill="#90d8f9"/></g><g><path d="m354.988 272.538h-197.976c-7.983 0-14.454-6.471-14.454-14.454v-39.838c0-7.983 6.471-14.454 14.454-14.454h197.975c7.983 0 14.454 6.471 14.454 14.454v39.838c.001 7.982-6.47 14.454-14.453 14.454z" fill="#e278b1"/><path d="m353.749 203.792h-34.691c8.667 0 15.693 5.961 15.693 13.314v42.119c0 7.353-7.026 13.314-15.693 13.314h34.691c8.667 0 15.693-5.961 15.693-13.314v-42.119c0-7.354-7.026-13.314-15.693-13.314z" fill="#dd5ca2"/><g><g><g><path d="m200.64 259.238c-4.268 0-7.726-3.459-7.726-7.726v-26.694c0-4.268 3.459-7.726 7.726-7.726s7.726 3.459 7.726 7.726v26.694c.001 4.267-3.458 7.726-7.726 7.726z" fill="#2b4d66"/></g><g><path d="m191.203 255.329c-1.978 0-3.955-.755-5.464-2.264-3.017-3.017-3.017-7.909.001-10.927l18.876-18.875c3.017-3.017 7.909-3.016 10.927.001 3.017 3.017 3.017 7.909-.001 10.927l-18.876 18.875c-1.508 1.508-3.486 2.263-5.463 2.263z" fill="#2b4d66"/></g><g><path d="m213.988 245.891h-26.694c-4.268 0-7.726-3.459-7.726-7.726s3.459-7.726 7.726-7.726h26.694c4.268 0 7.726 3.459 7.726 7.726s-3.459 7.726-7.726 7.726z" fill="#2b4d66"/></g><g><path d="m210.079 255.329c-1.977 0-3.955-.755-5.463-2.263l-18.876-18.875c-3.018-3.017-3.018-7.909-.001-10.927 3.018-3.018 7.91-3.017 10.927-.001l18.876 18.875c3.018 3.017 3.018 7.909.001 10.927-1.509 1.509-3.487 2.264-5.464 2.264z" fill="#2b4d66"/></g></g><g><g><path d="m256 259.238c-4.268 0-7.726-3.459-7.726-7.726v-26.694c0-4.268 3.459-7.726 7.726-7.726s7.726 3.459 7.726 7.726v26.694c0 4.267-3.459 7.726-7.726 7.726z" fill="#2b4d66"/></g><g><path d="m246.562 255.329c-1.978 0-3.955-.755-5.464-2.264-3.017-3.017-3.017-7.909.001-10.927l18.876-18.875c3.017-3.017 7.909-3.016 10.927.001 3.017 3.017 3.017 7.909-.001 10.927l-18.876 18.875c-1.508 1.508-3.486 2.263-5.463 2.263z" fill="#2b4d66"/></g><g><path d="m269.347 245.891h-26.694c-4.268 0-7.726-3.459-7.726-7.726s3.459-7.726 7.726-7.726h26.694c4.268 0 7.726 3.459 7.726 7.726s-3.459 7.726-7.726 7.726z" fill="#2b4d66"/></g><g><path d="m265.438 255.329c-1.977 0-3.955-.755-5.463-2.263l-18.876-18.875c-3.018-3.017-3.018-7.909-.001-10.927 3.018-3.018 7.91-3.017 10.927-.001l18.876 18.875c3.018 3.017 3.018 7.909.001 10.927-1.509 1.509-3.487 2.264-5.464 2.264z" fill="#2b4d66"/></g></g><g><g><path d="m311.359 259.238c-4.268 0-7.726-3.459-7.726-7.726v-26.694c0-4.268 3.459-7.726 7.726-7.726s7.726 3.459 7.726 7.726v26.694c0 4.267-3.459 7.726-7.726 7.726z" fill="#2b4d66"/></g><g><path d="m301.921 255.329c-1.978 0-3.955-.755-5.464-2.264-3.017-3.017-3.017-7.909.001-10.927l18.876-18.875c3.017-3.017 7.909-3.016 10.927.001 3.017 3.017 3.017 7.909-.001 10.927l-18.876 18.875c-1.508 1.508-3.486 2.263-5.463 2.263z" fill="#2b4d66"/></g><g><path d="m324.706 245.891h-26.694c-4.268 0-7.726-3.459-7.726-7.726s3.459-7.726 7.726-7.726h26.694c4.268 0 7.726 3.459 7.726 7.726s-3.459 7.726-7.726 7.726z" fill="#2b4d66"/></g><g><path d="m320.797 255.329c-1.977 0-3.955-.755-5.463-2.263l-18.876-18.875c-3.018-3.017-3.018-7.909-.001-10.927 3.018-3.018 7.91-3.017 10.927-.001l18.876 18.875c3.018 3.017 3.018 7.909.001 10.927-1.509 1.509-3.487 2.264-5.464 2.264z" fill="#2b4d66"/></g></g></g></g><path d="m128.654 512h-114.75c-7.679 0-13.904-6.225-13.904-13.904v-92.726h142.558v92.726c0 7.679-6.225 13.904-13.904 13.904z" fill="#f6f9f9"/><path d="m120.101 405.369v92.726c0 7.679-6.225 13.904-13.904 13.904h22.458c7.679 0 13.904-6.225 13.904-13.904v-92.726z" fill="#dfeaef"/><path d="m127.652 362.693h-112.746c-8.232 0-14.906 6.674-14.906 14.906v27.77h142.558v-27.77c0-8.232-6.674-14.906-14.906-14.906z" fill="#e278b1"/><path d="m127.652 362.693h-22.457c8.232 0 14.906 6.674 14.906 14.906v27.77h22.458v-27.77c-.001-8.232-6.675-14.906-14.907-14.906z" fill="#dd5ca2"/><g><g><path d="m68.568 447.894h-30.997c-4.268 0-7.726-3.459-7.726-7.726 0-4.268 3.459-7.726 7.726-7.726h30.997c4.268 0 7.726 3.459 7.726 7.726s-3.458 7.726-7.726 7.726z" fill="#2b4d66"/></g><g><path d="m109.775 477.502h-72.204c-4.268 0-7.726-3.459-7.726-7.726s3.459-7.726 7.726-7.726h72.204c4.268 0 7.726 3.459 7.726 7.726s-3.458 7.726-7.726 7.726z" fill="#2b4d66"/></g></g><path d="m313.375 512h-114.75c-7.679 0-13.904-6.225-13.904-13.904v-92.726h142.558v92.726c0 7.679-6.225 13.904-13.904 13.904z" fill="#f6f9f9"/><path d="m304.821 405.369v92.726c0 7.679-6.225 13.904-13.904 13.904h22.458c7.679 0 13.904-6.225 13.904-13.904v-92.726z" fill="#dfeaef"/><path d="m312.373 362.693h-112.746c-8.232 0-14.906 6.674-14.906 14.906v27.77h142.558v-27.77c0-8.232-6.674-14.906-14.906-14.906z" fill="#ffe07d"/><path d="m312.373 362.693h-22.457c8.232 0 14.906 6.674 14.906 14.906v27.77h22.458v-27.77c-.001-8.232-6.675-14.906-14.907-14.906z" fill="#ffd064"/><g><g><path d="m253.288 447.894h-30.997c-4.268 0-7.726-3.459-7.726-7.726 0-4.268 3.459-7.726 7.726-7.726h30.997c4.268 0 7.726 3.459 7.726 7.726.001 4.267-3.458 7.726-7.726 7.726z" fill="#2b4d66"/></g><g><path d="m294.496 477.502h-72.204c-4.268 0-7.726-3.459-7.726-7.726s3.459-7.726 7.726-7.726h72.204c4.268 0 7.726 3.459 7.726 7.726s-3.459 7.726-7.726 7.726z" fill="#2b4d66"/></g></g><path d="m498.096 512h-114.75c-7.679 0-13.904-6.225-13.904-13.904v-92.726h142.558v92.726c0 7.679-6.225 13.904-13.904 13.904z" fill="#f6f9f9"/><path d="m489.542 405.369v92.726c0 7.679-6.225 13.904-13.904 13.904h22.458c7.679 0 13.904-6.225 13.904-13.904v-92.726z" fill="#dfeaef"/><path d="m497.094 362.693h-112.746c-8.232 0-14.906 6.674-14.906 14.906v27.77h142.558v-27.77c0-8.232-6.674-14.906-14.906-14.906z" fill="#b3e59f"/><path d="m497.094 362.693h-22.457c8.232 0 14.906 6.674 14.906 14.906v27.77h22.457v-27.77c0-8.232-6.674-14.906-14.906-14.906z" fill="#95d6a4"/><g><g><path d="m438.01 447.894h-30.997c-4.268 0-7.726-3.459-7.726-7.726 0-4.268 3.459-7.726 7.726-7.726h30.997c4.268 0 7.726 3.459 7.726 7.726s-3.459 7.726-7.726 7.726z" fill="#2b4d66"/></g><g><path d="m479.217 477.502h-72.204c-4.268 0-7.726-3.459-7.726-7.726s3.459-7.726 7.726-7.726h72.204c4.268 0 7.726 3.459 7.726 7.726s-3.458 7.726-7.726 7.726z" fill="#2b4d66"/></g></g></g></svg>