<svg id="Capa_1" enable-background="new 0 0 512 512" height="512" viewBox="0 0 512 512" width="512" xmlns="http://www.w3.org/2000/svg"><g><path d="m243.328 0c53.279 0 99.556 30.532 122.255 75.021 3.304 6.475 10.087 10.412 17.344 9.984 69.25-4.081 128.73 51.145 129.071 121.271.328 67.465-56.261 122.661-123.727 122.661h-279.876c-59.146 0-108.165-47.399-108.394-106.545-.211-54.332 40.676-100.684 95.162-106.719 7.501-.831 13.626-6.28 15.556-13.575 15.525-58.702 69.094-102.098 132.609-102.098z" fill="#b1e4f9"/><g><path d="m388.321 84.806c-10.411.154-20.145-5.362-25.232-14.447-23.483-41.946-68.364-70.359-119.76-70.359-45.627 0-86.095 22.413-111.041 56.787 22.58-16.351 50.311-26.005 80.259-26.005 50.123 0 94.05 27.023 117.977 67.266 6.414 10.788 18.026 17.359 30.575 17.539 65.543.941 120.12 54.709 120.12 122.077 0 25.804-8.071 49.746-21.79 69.482 31.738-22.063 52.571-58.768 52.571-100.265 0-68.583-56.564-123.071-123.679-122.075z" fill="#90d8f9"/></g><path d="m293.268 387.141h-74.536c-4.683 0-8.479-3.796-8.479-8.479v-54.729h91.493v54.729c.001 4.683-3.795 8.479-8.478 8.479z" fill="#d0e2e7"/><path d="m284.695 323.934v53.179c0 5.538-3.209 10.028-7.169 10.028h17.052c3.959 0 7.169-4.49 7.169-10.028v-53.179z" fill="#b4d0d5"/><path d="m286.052 387.141h-60.105v116.136c0 4.817 3.905 8.723 8.723 8.723h42.659c4.817 0 8.723-3.905 8.723-8.723z" fill="#365e7d"/><path d="m269.553 387.141v124.859h7.777c4.817 0 8.723-3.905 8.723-8.723v-116.136z" fill="#2b4d66"/><circle cx="256" cy="235.29" fill="#365e7d" r="115.304"/><path d="m256 119.986c-4.509 0-8.955.268-13.33.772 57.4 6.609 101.974 55.361 101.974 114.532s-44.574 107.924-101.974 114.533c4.374.504 8.82.771 13.33.771 63.68 0 115.304-51.623 115.304-115.304s-51.623-115.304-115.304-115.304z" fill="#2b4d66"/><circle cx="256" cy="235.29" fill="#f6f9f9" r="79.618"/><path d="m256 155.672c-4.89 0-9.669.465-14.316 1.309 37.136 6.746 65.303 39.228 65.303 78.31s-28.167 71.563-65.303 78.31c4.647.844 9.426 1.309 14.316 1.309 43.972 0 79.618-35.647 79.618-79.619 0-43.973-35.646-79.619-79.618-79.619z" fill="#dfeaef"/></g></svg>