<svg id="Capa_1" enable-background="new 0 0 512 512" height="512" viewBox="0 0 512 512" width="512" xmlns="http://www.w3.org/2000/svg"><g><g><g><g><path d="m493.333 268.403 17.113-11.745c2.071-1.421 2.071-4.479 0-5.9l-17.113-11.745c-1.22-.837-2.829-.837-4.049 0l-21.412 14.695 21.412 14.695c1.22.837 2.829.837 4.049 0z" fill="#e278b1"/></g><g><path d="m488.475 261.435h-47.472c-4.268 0-7.726-3.459-7.726-7.726v-80.89c0-4.268 3.459-7.726 7.726-7.726s7.726 3.459 7.726 7.726v73.164h39.745c4.268 0 7.726 3.459 7.726 7.726s-3.457 7.726-7.725 7.726z" fill="#e278b1"/></g><g><path d="m240.959 268.403-17.113-11.745c-2.071-1.421-2.071-4.479 0-5.9l17.113-11.745c1.22-.837 2.829-.837 4.049 0l21.412 14.695-21.412 14.695c-1.22.837-2.83.837-4.049 0z" fill="#e278b1"/></g><g><path d="m293.288 261.435h-47.472c-4.268 0-7.726-3.459-7.726-7.726s3.459-7.726 7.726-7.726h39.745v-73.164c0-4.268 3.459-7.726 7.726-7.726s7.726 3.459 7.726 7.726v80.89c.002 4.267-3.457 7.726-7.725 7.726z" fill="#e278b1"/></g></g><g><g><path d="m352.451 259.03 11.745 17.113c1.421 2.071 4.479 2.071 5.9 0l11.745-17.113c.837-1.22.837-2.829 0-4.049l-14.695-21.412-14.695 21.412c-.837 1.22-.837 2.83 0 4.049z" fill="#e278b1"/></g><g><path d="m367.145 261.9c-4.268 0-7.726-3.459-7.726-7.726v-81.355c0-4.268 3.459-7.726 7.726-7.726 4.268 0 7.726 3.459 7.726 7.726v81.355c.001 4.267-3.458 7.726-7.726 7.726z" fill="#e278b1"/></g></g></g><path d="m151.327 475.381 14.393 4.153c117.382 33.865 243.913 7.7 338.235-69.945 10.317-8.493 10.78-24.134.982-33.221l-.445-.413c-9.992-9.268-24.785-10.762-36.322-3.744l-47.321 28.786c-47.906 29.142-106.292 35.467-159.328 17.261-21.89-7.514-26.028-36.681-7.092-49.987l49.215-34.585c9.281-6.522 11.668-19.256 5.377-28.696-4.777-7.169-13.462-10.674-21.877-8.828l-135.817 29.796-22.404 24.193v102.675z" fill="#ffddce"/><path d="m302.466 303.037-49.215 34.585c-13.64 9.586-15.305 27.4-6.988 39.423 1.957-3.308 4.665-6.313 8.167-8.774l49.215-34.585c9.281-6.522 11.668-19.256 5.377-28.696-1.083-1.625-2.375-3.052-3.812-4.281-.838.836-1.743 1.625-2.744 2.328z" fill="#ffcbbe"/><path d="m505.171 376.609c-.735.818-1.515 1.609-2.394 2.332-94.322 77.644-220.853 103.81-338.235 69.945l-14.393-4.152-21.225-21.369v29.462l22.404 22.556 14.393 4.152c117.381 33.865 243.913 7.699 338.235-69.945 10.23-8.422 10.757-23.862 1.215-32.981z" fill="#ffcbbe"/><path d="m8.068 501.889h130.95c6.798 0 12.31-5.511 12.31-12.31v-174.823c0-6.798-5.511-12.31-12.31-12.31h-130.95c-4.456 0-8.068 3.612-8.068 8.068v183.308c0 4.456 3.612 8.067 8.068 8.067z" fill="#b3e59f"/><path d="m151.328 489.58v-174.824c0-6.798-5.511-12.31-12.31-12.31h-13.768v157.45c0 6.798-5.511 12.31-12.31 12.31h-112.94v21.616c0 4.456 3.612 8.068 8.068 8.068h130.95c6.798-.001 12.31-5.512 12.31-12.31z" fill="#95d6a4"/><g><path d="m96.656 448.601c-4.268 0-7.726-3.459-7.726-7.726v-16.758c0-4.268 3.459-7.726 7.726-7.726 4.268 0 7.726 3.459 7.726 7.726v16.758c0 4.267-3.459 7.726-7.726 7.726z" fill="#2b4d66"/></g><g><path d="m360.076 10.111c29.727 0 55.548 17.036 68.212 41.858 1.843 3.613 5.628 5.809 9.677 5.571 38.639-2.277 71.826 28.537 72.016 67.664.183 37.642-31.391 68.439-69.034 68.439h-156.158c-33.001 0-60.351-26.447-60.479-59.447-.118-30.314 22.695-56.177 53.096-59.544 4.185-.464 7.603-3.504 8.679-7.574 8.663-32.755 38.552-56.967 73.991-56.967z" fill="#b1e4f9"/><g><path d="m440.118 57.446c-5.299.145-10.287-2.714-12.828-7.368-12.991-23.793-38.248-39.968-67.215-39.968-25.458 0-48.037 12.505-61.956 31.685 12.599-9.123 28.071-14.51 44.781-14.51 27.966 0 52.475 15.077 65.826 37.531 3.562 5.991 10.018 9.692 16.987 9.785 36.602.487 67.094 30.501 67.094 68.114 0 14.397-4.503 27.756-12.158 38.768 17.709-12.31 29.333-32.79 29.333-55.943 0-38.557-32.043-69.13-69.864-68.094z" fill="#90d8f9"/></g><g><path d="m388.851 143.078h-43.409c-4.268 0-7.726-3.459-7.726-7.726s3.459-7.726 7.726-7.726h43.409c4.268 0 7.726 3.459 7.726 7.726s-3.459 7.726-7.726 7.726z" fill="#90d8f9"/></g></g></g></svg>