<svg id="Capa_1" enable-background="new 0 0 512 512" height="512" viewBox="0 0 512 512" width="512" xmlns="http://www.w3.org/2000/svg"><g><path d="m481.05 478.368h-450.1c-17.093 0-30.95-13.857-30.95-30.95v-342.03l32.92-20.604h446.16l32.92 20.605v342.03c0 17.092-13.857 30.949-30.95 30.949z" fill="#f6f9f9"/><path d="m479.08 84.785h-30.467l32.92 20.604v342.029c0 17.093-13.857 30.95-30.95 30.95h30.467c17.093 0 30.95-13.857 30.95-30.95v-342.029z" fill="#dfeaef"/><path d="m481.05 33.632h-450.1c-17.093 0-30.95 13.857-30.95 30.95v40.807h512v-40.807c0-17.093-13.857-30.95-30.95-30.95z" fill="#ffe07d"/><path d="m481.05 33.632h-30.467c17.093 0 30.95 13.857 30.95 30.95v40.807h30.467v-40.807c0-17.093-13.857-30.95-30.95-30.95z" fill="#ffd064"/><g><path d="m47.183 77.237h-11.492c-4.268 0-7.726-3.459-7.726-7.726 0-4.268 3.459-7.726 7.726-7.726h11.492c4.268 0 7.726 3.459 7.726 7.726s-3.459 7.726-7.726 7.726z" fill="#e278b1"/></g><g><path d="m93.54 77.237h-11.492c-4.268 0-7.726-3.459-7.726-7.726 0-4.268 3.459-7.726 7.726-7.726h11.492c4.268 0 7.726 3.459 7.726 7.726s-3.459 7.726-7.726 7.726z" fill="#e278b1"/></g><g><path d="m139.897 77.237h-11.491c-4.268 0-7.726-3.459-7.726-7.726 0-4.268 3.459-7.726 7.726-7.726h11.491c4.268 0 7.726 3.459 7.726 7.726s-3.458 7.726-7.726 7.726z" fill="#e278b1"/></g><g><g><path d="m370.547 313.149c-4.268 0-7.726-3.459-7.726-7.726v-13h-213.641v13c0 4.268-3.459 7.726-7.726 7.726s-7.726-3.459-7.726-7.726v-20.726c0-4.268 3.459-7.726 7.726-7.726h229.094c4.268 0 7.726 3.459 7.726 7.726v20.726c-.001 4.267-3.459 7.726-7.727 7.726z" fill="#2b4d66"/></g><g><path d="m256 313.149c-4.268 0-7.726-3.459-7.726-7.726v-35.287c0-4.268 3.459-7.726 7.726-7.726s7.726 3.459 7.726 7.726v35.287c0 4.267-3.459 7.726-7.726 7.726z" fill="#2b4d66"/></g><g><path d="m151.354 337.691h-19.801c-4.268 0-7.726-3.459-7.726-7.726s3.459-7.726 7.726-7.726h19.801c4.268 0 7.726 3.459 7.726 7.726s-3.459 7.726-7.726 7.726z" fill="#90d8f9"/></g><g><path d="m265.901 337.691h-19.802c-4.268 0-7.726-3.459-7.726-7.726s3.459-7.726 7.726-7.726h19.802c4.268 0 7.726 3.459 7.726 7.726s-3.458 7.726-7.726 7.726z" fill="#90d8f9"/></g><g><path d="m380.447 337.691h-19.802c-4.268 0-7.726-3.459-7.726-7.726s3.459-7.726 7.726-7.726h19.802c4.268 0 7.726 3.459 7.726 7.726s-3.458 7.726-7.726 7.726z" fill="#90d8f9"/></g><g><path d="m251.794 135.374c17.683 0 33.043 10.134 40.576 24.899 1.097 2.149 3.348 3.456 5.757 3.314 22.984-1.354 42.726 16.975 42.839 40.25.109 22.392-18.673 40.711-41.065 40.711h-92.891c-19.631 0-35.9-15.732-35.976-35.362-.07-18.033 13.5-33.417 31.584-35.42 2.489-.276 4.523-2.084 5.163-4.506 5.153-19.482 22.932-33.886 44.013-33.886z" fill="#b1e4f9"/><g><path d="m298.128 163.588c-2.409.142-4.66-1.165-5.757-3.314-7.534-14.766-22.893-24.899-40.576-24.899-17.152 0-32.117 9.535-39.876 23.583 7.231-4.84 15.916-7.669 25.252-7.669 17.683 0 33.043 10.134 40.576 24.899 1.097 2.149 3.348 3.456 5.757 3.314 22.984-1.354 42.726 16.975 42.839 40.25.032 6.602-1.588 12.844-4.449 18.373 11.437-7.253 19.143-19.928 19.073-34.287-.114-23.275-19.855-41.605-42.839-40.25z" fill="#90d8f9"/></g></g><g><path d="m260.95 219.749h-9.9c-4.268 0-7.726-3.459-7.726-7.726 0-4.268 3.459-7.726 7.726-7.726h9.9c4.268 0 7.726 3.459 7.726 7.726.001 4.267-3.458 7.726-7.726 7.726z" fill="#90d8f9"/></g></g><path d="m312.845 434.101h-113.69c-4.778 0-8.651-3.873-8.651-8.651v-41.864c0-4.778 3.873-8.651 8.651-8.651h113.691c4.778 0 8.651 3.873 8.651 8.651v41.864c0 4.778-3.874 8.651-8.652 8.651z" fill="#b3e59f"/><path d="m312.846 374.934h-23.69c4.778 0 8.651 3.873 8.651 8.651v41.864c0 4.778-3.873 8.651-8.651 8.651h23.69c4.778 0 8.651-3.873 8.651-8.651v-41.864c-.001-4.778-3.874-8.651-8.651-8.651z" fill="#95d6a4"/></g></svg>