<svg id="Capa_1" enable-background="new 0 0 512 512" height="512" viewBox="0 0 512 512" width="512" xmlns="http://www.w3.org/2000/svg"><g><g><path d="m196.546 75.896h-111.336c-4.204 0-7.611-3.407-7.611-7.611s3.407-7.611 7.611-7.611h111.336c4.204 0 7.611 3.407 7.611 7.611s-3.407 7.611-7.611 7.611z" fill="#e278b1"/></g><g><path d="m77.582 84.402-18.77-12.881c-2.272-1.559-2.272-4.912 0-6.471l18.77-12.881c1.338-.918 3.103-.918 4.441 0l23.484 16.117-23.484 16.116c-1.338.919-3.103.919-4.441 0z" fill="#e278b1"/></g><g><path d="m426.79 75.896h-111.336c-4.204 0-7.611-3.407-7.611-7.611s3.407-7.611 7.611-7.611h111.336c4.204 0 7.611 3.407 7.611 7.611s-3.406 7.611-7.611 7.611z" fill="#e278b1"/></g><g><path d="m434.418 84.402 18.77-12.881c2.272-1.559 2.272-4.912 0-6.471l-18.77-12.881c-1.338-.918-3.103-.918-4.441 0l-23.484 16.117 23.484 16.117c1.338.918 3.103.918 4.441-.001z" fill="#e278b1"/></g><path d="m294.231 441.696-13.886-15.625h-53.661l-8.915 15.625c4.946 24.6-9.076 50.548-26.504 62.693h129.469c-17.427-12.146-31.449-38.093-26.503-62.693z" fill="#365e7d"/><path d="m218.184 460.016h75.633c-.869-6.035-.812-12.219.414-18.32l-13.886-15.625h-53.661l-8.915 15.625c1.227 6.101 1.284 12.284.415 18.32z" fill="#2b4d66"/><g><path d="m351.925 512h-191.85c-4.204 0-7.611-3.407-7.611-7.612s3.407-7.611 7.611-7.611h191.85c4.204 0 7.612 3.407 7.612 7.611s-3.408 7.612-7.612 7.612z" fill="#2b4d66"/></g><g><path d="m256.001 487.172c-4.204 0-7.612-3.407-7.612-7.611v-8.681c0-4.204 3.407-7.612 7.612-7.612 4.204 0 7.611 3.407 7.611 7.612v8.681c0 4.203-3.407 7.611-7.611 7.611z" fill="#2b4d66"/></g><path d="m450.141 380.153-19.558-15.625h-354.288l-14.436 15.625v34.384c0 14.999 12.159 27.158 27.158 27.158h333.965c14.999 0 27.158-12.159 27.158-27.158v-34.384z" fill="#d0e2e7"/><path d="m430.583 364.528v50.009c0 14.999-12.159 27.158-27.158 27.158h19.558c14.999 0 27.158-12.159 27.158-27.158v-34.384z" fill="#b4d0d5"/><g><path d="m269.784 418.536h-27.567c-4.204 0-7.611-3.407-7.611-7.611s3.407-7.612 7.611-7.612h27.567c4.204 0 7.612 3.407 7.612 7.612s-3.408 7.611-7.612 7.611z" fill="#95d6a4"/></g><path d="m450.141 380.153h-388.282v-209.975c0-14.999 12.159-27.158 27.158-27.158h333.965c14.999 0 27.158 12.159 27.158 27.158v209.975z" fill="#365e7d"/><path d="m422.982 143.02h-19.558c14.999 0 27.158 12.159 27.158 27.158v209.975h19.558v-209.975c.001-14.999-12.158-27.158-27.158-27.158z" fill="#2b4d66"/><path d="m96.274 349.707c-2.191 0-3.968-1.777-3.968-3.968v-168.305c0-2.191 1.777-3.968 3.968-3.968h319.453c2.191 0 3.968 1.777 3.968 3.968v168.305c0 2.191-1.777 3.968-3.968 3.968z" fill="#f6f9f9"/><path d="m415.726 173.466h-21.523c2.191 0 3.968 1.777 3.968 3.968v168.305c0 2.192-1.777 3.968-3.968 3.968h21.523c2.192 0 3.968-1.776 3.968-3.968v-168.305c0-2.191-1.776-3.968-3.968-3.968z" fill="#dfeaef"/><g><path d="m256 223.277c-4.204 0-7.611-3.407-7.611-7.611v-134.773c0-4.204 3.407-7.612 7.611-7.612s7.612 3.407 7.612 7.612v134.772c-.001 4.204-3.408 7.612-7.612 7.612z" fill="#4073c8"/></g><path d="m312.774 245.139c.497.861 1.213 1.576 2.075 2.072l6.807 3.919c1.752 1.009 2.832 2.876 2.832 4.898v16.404c0 2.022-1.08 3.889-2.832 4.898l-6.807 3.919c-.862.496-1.578 1.211-2.075 2.072l-11.854 20.532c-.497.861-.758 1.839-.757 2.833l.01 7.855c.003 2.022-1.075 3.891-2.826 4.902l-14.206 8.202c-1.751 1.011-3.908 1.009-5.658-.004l-6.797-3.936c-.861-.498-1.837-.761-2.832-.761h-23.708c-.995 0-1.971.262-2.832.761l-6.797 3.936c-1.749 1.013-3.907 1.014-5.658.004l-14.206-8.202c-1.751-1.011-2.828-2.88-2.826-4.902l.01-7.855c.001-.995-.26-1.972-.757-2.833l-11.854-20.532c-.497-.861-1.213-1.576-2.075-2.072l-6.807-3.919c-1.752-1.009-2.832-2.876-2.832-4.898v-16.404c0-2.022 1.08-3.889 2.832-4.898l6.807-3.919c.862-.496 1.578-1.211 2.075-2.072l11.854-20.532c.497-.861.758-1.838.757-2.833l-.01-7.855c-.003-2.022 1.075-3.891 2.826-4.902l14.206-8.202c1.751-1.011 3.908-1.009 5.658.004l6.797 3.936c.861.498 1.838.761 2.832.761h23.708c.995 0 1.971-.262 2.832-.761l6.797-3.936c1.75-1.013 3.907-1.014 5.658-.004l14.206 8.202c1.751 1.011 2.828 2.88 2.826 4.902l-.01 7.855c-.001.994.26 1.972.757 2.833z" fill="#698ed5"/><g><path d="m315.198 247.412c-1.09-.628-1.995-1.532-2.624-2.621l-11.452-19.835c-.629-1.089-.959-2.325-.958-3.583l.011-8.336c.002-1.475-.784-2.839-2.062-3.576l-15.736-9.085c-1.277-.738-2.852-.737-4.128.003l-7.214 4.177c-1.089.63-2.324.962-3.582.962h-.925l1.42.82c4.624 2.67 7.47 7.606 7.463 12.946-.003 2.627.686 5.208 2 7.483l9.363 16.216c1.313 2.275 3.204 4.163 5.48 5.473 4.628 2.664 7.48 7.597 7.48 12.936v5.678c0 5.34-2.852 10.272-7.48 12.936-2.276 1.31-4.167 3.198-5.48 5.473l-9.363 16.216c-1.313 2.275-2.003 4.856-2 7.483.007 5.34-2.839 10.276-7.463 12.946l-1.42.82h.924c1.258 0 2.494.332 3.582.962l7.097 4.11c1.349.781 3.012.782 4.362.003l15.502-8.95c1.35-.779 2.181-2.22 2.179-3.779l-.011-8.201c-.002-1.258.329-2.494.958-3.583l11.452-19.835c.629-1.089 1.534-1.993 2.624-2.621l7.107-4.091c1.351-.778 2.184-2.218 2.184-3.776v-17.9c0-1.559-.833-2.999-2.184-3.776z" fill="#4073c8"/></g><circle cx="256" cy="264.23" fill="#d0e2e7" r="24.755"/><path d="m252.102 0c16.39 0 30.626 9.393 37.609 23.078 1.016 1.992 3.103 3.203 5.336 3.071 21.303-1.255 39.601 15.734 39.706 37.306.101 20.754-17.307 37.734-38.062 37.734h-86.098c-18.195 0-33.275-14.581-33.345-32.776-.065-16.714 12.513-30.973 29.275-32.83 2.307-.256 4.192-1.932 4.785-4.176 4.776-18.057 21.255-31.407 40.794-31.407z" fill="#b1e4f9"/><g><path d="m295.047 26.15c-2.232.132-4.319-1.079-5.336-3.071-6.983-13.686-21.219-23.079-37.609-23.079-15.898 0-29.768 8.838-36.959 21.858 6.702-4.486 14.752-7.108 23.405-7.108 16.39 0 30.626 9.393 37.609 23.078 1.016 1.992 3.103 3.203 5.336 3.071 21.303-1.255 39.601 15.734 39.706 37.306.03 6.119-1.472 11.905-4.124 17.029 10.601-6.722 17.743-18.47 17.678-31.779-.105-21.571-18.403-38.56-39.706-37.305z" fill="#90d8f9"/></g></g></svg>