<svg id="Capa_1" enable-background="new 0 0 512 512" height="512" viewBox="0 0 512 512" width="512" xmlns="http://www.w3.org/2000/svg"><g><g><path d="m256 267.752c-4.204 0-7.611-3.407-7.611-7.612v-47.391c0-4.204 3.407-7.611 7.611-7.611s7.612 3.407 7.612 7.611v47.391c-.001 4.205-3.408 7.612-7.612 7.612z" fill="#2b4d66"/></g><g><path d="m390.172 306.241c-4.204 0-7.611-3.407-7.611-7.611v-21.564c0-4.961-2.993-9.313-6.405-9.313h-240.31c-3.412 0-6.405 4.352-6.405 9.313v21.564c0 4.204-3.407 7.611-7.611 7.611s-7.611-3.407-7.611-7.611v-21.564c0-13.529 9.703-24.536 21.628-24.536h240.31c11.926 0 21.628 11.007 21.628 24.536v21.564c-.001 4.204-3.409 7.611-7.613 7.611z" fill="#2b4d66"/></g><path d="m248.378 0c32.048 0 59.883 18.365 73.537 45.125 1.987 3.895 6.068 6.263 10.433 6.005 41.654-2.454 77.432 30.764 77.637 72.945.197 40.58-33.841 73.781-74.422 73.781h-168.348c-35.577 0-65.061-28.511-65.2-64.087-.127-32.68 24.466-60.562 57.24-64.192 4.512-.5 8.196-3.777 9.357-8.166 9.34-35.308 41.561-61.411 79.766-61.411z" fill="#b1e4f9"/><g><path d="m333.4 51.076c-5.024.224-9.688-2.572-12.039-7.018-13.843-26.179-41.363-44.058-72.983-44.058-27.445 0-51.787 13.481-66.792 34.158 13.582-9.835 30.262-15.642 48.276-15.642 30.168 0 56.603 16.274 70.989 40.504 3.794 6.39 10.661 10.424 18.092 10.503 39.546.42 72.526 32.817 72.526 73.433 0 15.521-4.855 29.922-13.107 41.794 19.091-13.271 31.622-35.349 31.622-60.309.001-41.999-35.262-75.21-76.584-73.365z" fill="#90d8f9"/></g><g><path d="m279.399 142.628h-46.798c-4.204 0-7.611-3.407-7.611-7.611s3.407-7.612 7.611-7.612h46.798c4.204 0 7.611 3.407 7.611 7.612s-3.407 7.611-7.611 7.611z" fill="#90d8f9"/></g><path d="m312.394 222.898h-112.787c-5 0-9.053-4.053-9.053-9.053v-28.641c0-5 4.053-9.053 9.053-9.053h112.787c5 0 9.053 4.053 9.053 9.053v28.641c0 5-4.053 9.053-9.053 9.053z" fill="#e278b1"/><path d="m312.394 176.151h-20.014c5 0 9.053 4.053 9.053 9.053v28.641c0 5-4.053 9.053-9.053 9.053h20.014c5 0 9.053-4.053 9.053-9.053v-28.641c0-5-4.053-9.053-9.053-9.053z" fill="#dd5ca2"/><path d="m146.984 473.974-6.737-7.58h-26.033l-4.325 7.58c2.399 11.934-4.403 24.523-12.858 30.415h62.81c-8.454-5.892-15.257-18.481-12.857-30.415z" fill="#2b4d66"/><g><path d="m174.973 512h-93.073c-4.204 0-7.612-3.407-7.612-7.612s3.407-7.612 7.612-7.612h93.073c4.204 0 7.611 3.407 7.611 7.612s-3.407 7.612-7.611 7.612z" fill="#365e7d"/></g><path d="m222.621 434.222-9.488-7.58h-171.878l-7.003 7.58v26.577c0 7.277 5.899 13.175 13.175 13.175h162.018c7.277 0 13.175-5.899 13.175-13.175v-26.577z" fill="#d0e2e7"/><path d="m213.133 426.641h-20.646l9.488 7.58v26.577c0 7.277-5.899 13.175-13.175 13.175h20.646c7.277 0 13.175-5.899 13.175-13.175v-26.577z" fill="#b4d0d5"/><path d="m222.621 434.222h-188.369v-91.97c0-7.277 5.899-13.175 13.175-13.175h162.018c7.277 0 13.175 5.899 13.175 13.175v91.97z" fill="#f6f9f9"/><path d="m209.446 329.076h-20.646c7.277 0 13.175 5.899 13.175 13.175v91.97h20.646v-91.97c0-7.276-5.899-13.175-13.175-13.175z" fill="#dfeaef"/><path d="m402.111 473.974-6.737-7.58h-26.033l-4.325 7.58c2.399 11.934-4.403 24.523-12.858 30.415h62.81c-8.454-5.892-15.256-18.481-12.857-30.415z" fill="#2b4d66"/><g><path d="m430.101 512h-93.073c-4.204 0-7.612-3.407-7.612-7.612s3.407-7.612 7.612-7.612h93.073c4.204 0 7.611 3.407 7.611 7.612s-3.407 7.612-7.611 7.612z" fill="#365e7d"/></g><path d="m477.748 434.222-9.488-7.58h-171.878l-7.003 7.58v26.577c0 7.277 5.899 13.175 13.175 13.175h162.018c7.277 0 13.175-5.899 13.175-13.175v-26.577z" fill="#d0e2e7"/><path d="m468.26 426.641h-20.645l9.488 7.58v26.577c0 7.277-5.899 13.175-13.175 13.175h20.646c7.277 0 13.175-5.899 13.175-13.175v-26.577z" fill="#b4d0d5"/><path d="m477.748 434.222h-188.369v-91.97c0-7.277 5.899-13.175 13.175-13.175h162.018c7.277 0 13.175 5.899 13.175 13.175v91.97z" fill="#f6f9f9"/><path d="m464.573 329.076h-20.646c7.277 0 13.175 5.899 13.175 13.175v91.97h20.646v-91.97c0-7.276-5.899-13.175-13.175-13.175z" fill="#dfeaef"/></g></svg>