<svg id="Capa_1" enable-background="new 0 0 512 512" height="512" viewBox="0 0 512 512" width="512" xmlns="http://www.w3.org/2000/svg"><g><path d="m214.092 240.079h-203.369c-5.922 0-10.723-4.801-10.723-10.723v-193.883c0-5.922 4.801-10.723 10.723-10.723h203.37c5.922 0 10.723 4.801 10.723 10.723v193.883c-.001 5.922-4.801 10.723-10.724 10.723z" fill="#b4d0d5"/><path d="m214.093 24.75h-19.694c5.922 0 10.723 4.801 10.723 10.723v82.963c0 7.206-5.842 13.048-13.048 13.048h-36.657c-16.246 0-29.416 13.17-29.416 29.416v79.18h88.092c.37 0 .736-.019 1.096-.055 5.407-.549 9.627-5.116 9.627-10.668v-193.884c-.001-5.922-4.801-10.723-10.723-10.723z" fill="#9bb9c1"/><path d="m192.227 88.274h-159.639c-1.237 0-2.24-1.003-2.24-2.24v-30.111c0-1.237 1.003-2.24 2.24-2.24h159.639c1.237 0 2.24 1.003 2.24 2.24v30.111c0 1.237-1.003 2.24-2.24 2.24z" fill="#b1e4f9"/><path d="m192.227 53.683h-18.433c1.237 0 2.24 1.003 2.24 2.24v30.111c0 1.237-1.003 2.24-2.24 2.24h18.433c1.237 0 2.24-1.003 2.24-2.24v-30.111c0-1.237-1.003-2.24-2.24-2.24z" fill="#90d8f9"/><path d="m358.453 363.694h-203.37c-5.922 0-10.723-4.801-10.723-10.723v-193.883c0-5.922 4.801-10.723 10.723-10.723h203.37c5.922 0 10.723 4.801 10.723 10.723v193.883c-.001 5.922-4.801 10.723-10.723 10.723z" fill="#d0e2e7"/><path d="m358.453 148.365h-19.694c5.922 0 10.723 4.801 10.723 10.723v82.963c0 7.206-5.842 13.048-13.048 13.048h-36.657c-16.246 0-29.416 13.17-29.416 29.416v79.18h88.092c.37 0 .736-.019 1.096-.055 5.407-.549 9.627-5.116 9.627-10.668v-193.884c0-5.923-4.801-10.723-10.723-10.723z" fill="#b4d0d5"/><path d="m336.587 211.889h-159.639c-1.237 0-2.24-1.003-2.24-2.24v-30.111c0-1.237 1.003-2.24 2.24-2.24h159.639c1.237 0 2.24 1.003 2.24 2.24v30.111c0 1.237-1.002 2.24-2.24 2.24z" fill="#b1e4f9"/><path d="m336.588 177.298h-18.433c1.237 0 2.24 1.003 2.24 2.24v30.111c0 1.237-1.003 2.24-2.24 2.24h18.433c1.237 0 2.24-1.003 2.24-2.24v-30.111c-.001-1.238-1.003-2.24-2.24-2.24z" fill="#90d8f9"/><path d="m501.277 487.25h-203.37c-5.922 0-10.723-4.801-10.723-10.723v-193.883c0-5.922 4.801-10.723 10.723-10.723h203.37c5.922 0 10.723 4.801 10.723 10.723v193.883c0 5.922-4.801 10.723-10.723 10.723z" fill="#f6f9f9"/><path d="m501.277 271.921h-19.694c5.922 0 10.723 4.801 10.723 10.723v193.883c0 5.922-4.801 10.723-10.723 10.723h19.694c5.922 0 10.723-4.801 10.723-10.723v-193.883c0-5.922-4.801-10.723-10.723-10.723z" fill="#dfeaef"/><path d="m479.412 335.445h-159.639c-1.237 0-2.24-1.003-2.24-2.24v-30.111c0-1.237 1.003-2.24 2.24-2.24h159.639c1.237 0 2.24 1.003 2.24 2.24v30.111c0 1.237-1.003 2.24-2.24 2.24z" fill="#b1e4f9"/><path d="m479.412 300.854h-18.433c1.237 0 2.24 1.003 2.24 2.24v30.111c0 1.237-1.003 2.24-2.24 2.24h18.433c1.237 0 2.24-1.003 2.24-2.24v-30.111c0-1.237-1.003-2.24-2.24-2.24z" fill="#90d8f9"/></g></svg>