<svg id="Capa_1" enable-background="new 0 0 512 512" height="512" viewBox="0 0 512 512" width="512" xmlns="http://www.w3.org/2000/svg"><g><g><path d="m361.509 97.164h-211.018c-2.541 0-4.948-1.14-6.557-3.107l-22.977-28.08c-2.554-3.121-2.554-7.609 0-10.73l22.977-28.08c1.609-1.966 4.016-3.107 6.557-3.107h211.017c2.541 0 4.948 1.14 6.557 3.107l22.977 28.08c2.554 3.121 2.554 7.609 0 10.73l-22.977 28.08c-1.609 1.967-4.015 3.107-6.556 3.107z" fill="#365e7d"/><path d="m391.042 55.247-22.977-28.08c-1.609-1.966-4.016-3.107-6.557-3.107h-24.36c2.541 0 4.948 1.14 6.557 3.107l22.977 28.08c2.554 3.121 2.554 7.609 0 10.73l-22.977 28.08c-1.609 1.966-4.016 3.107-6.557 3.107h24.36c2.541 0 4.948-1.14 6.557-3.107l22.977-28.08c2.554-3.121 2.554-7.609 0-10.73z" fill="#2b4d66"/><path d="m361.509 198.366h-211.018c-2.541 0-4.948-1.14-6.557-3.107l-22.977-28.08c-2.554-3.121-2.554-7.609 0-10.73l22.977-28.08c1.609-1.966 4.016-3.107 6.557-3.107h211.017c2.541 0 4.948 1.14 6.557 3.107l22.977 28.08c2.554 3.121 2.554 7.609 0 10.73l-22.977 28.08c-1.609 1.966-4.015 3.107-6.556 3.107z" fill="#365e7d"/><path d="m391.042 156.449-22.977-28.08c-1.609-1.966-4.016-3.107-6.557-3.107h-24.36c2.541 0 4.948 1.14 6.557 3.107l22.977 28.08c2.554 3.121 2.554 7.609 0 10.73l-22.977 28.08c-1.609 1.966-4.016 3.107-6.557 3.107h24.36c2.541 0 4.948-1.14 6.557-3.107l22.977-28.08c2.554-3.121 2.554-7.61 0-10.73z" fill="#2b4d66"/><path d="m160.929 97.164h190.141v28.097h-190.141z" fill="#d0e2e7"/><g><g><path d="m180.876 68.403h-7.103c-4.303 0-7.791-3.488-7.791-7.791s3.488-7.791 7.791-7.791h7.103c4.303 0 7.791 3.488 7.791 7.791s-3.488 7.791-7.791 7.791z" fill="#95d6a4"/></g><g><path d="m213.789 68.403h-7.103c-4.303 0-7.791-3.488-7.791-7.791s3.488-7.791 7.791-7.791h7.103c4.303 0 7.791 3.488 7.791 7.791s-3.488 7.791-7.791 7.791z" fill="#95d6a4"/></g><g><path d="m246.702 68.403h-7.103c-4.303 0-7.791-3.488-7.791-7.791s3.488-7.791 7.791-7.791h7.103c4.303 0 7.791 3.488 7.791 7.791s-3.487 7.791-7.791 7.791z" fill="#95d6a4"/></g><g><path d="m282.043 104.956c-4.303 0-7.791-3.488-7.791-7.791v-16.538c0-4.303 3.488-7.791 7.791-7.791s7.791 3.488 7.791 7.791v16.537c0 4.304-3.488 7.792-7.791 7.792z" fill="#95d6a4"/></g><g><path d="m310.135 104.956c-4.303 0-7.791-3.488-7.791-7.791v-16.538c0-4.303 3.488-7.791 7.791-7.791s7.791 3.488 7.791 7.791v16.537c-.001 4.304-3.488 7.792-7.791 7.792z" fill="#95d6a4"/></g><g><path d="m338.226 104.956c-4.303 0-7.791-3.488-7.791-7.791v-16.538c0-4.303 3.488-7.791 7.791-7.791s7.791 3.488 7.791 7.791v16.537c0 4.304-3.488 7.792-7.791 7.792z" fill="#95d6a4"/></g></g><g><g><path d="m180.876 169.604h-7.103c-4.303 0-7.791-3.488-7.791-7.791s3.488-7.791 7.791-7.791h7.103c4.303 0 7.791 3.488 7.791 7.791s-3.488 7.791-7.791 7.791z" fill="#95d6a4"/></g><g><path d="m213.789 169.604h-7.103c-4.303 0-7.791-3.488-7.791-7.791s3.488-7.791 7.791-7.791h7.103c4.303 0 7.791 3.488 7.791 7.791s-3.488 7.791-7.791 7.791z" fill="#95d6a4"/></g><g><path d="m246.702 169.604h-7.103c-4.303 0-7.791-3.488-7.791-7.791s3.488-7.791 7.791-7.791h7.103c4.303 0 7.791 3.488 7.791 7.791s-3.487 7.791-7.791 7.791z" fill="#95d6a4"/></g><g><path d="m282.043 216.545c-4.303 0-7.791-3.488-7.791-7.791v-26.925c0-4.303 3.488-7.791 7.791-7.791s7.791 3.488 7.791 7.791v26.925c0 4.303-3.488 7.791-7.791 7.791z" fill="#95d6a4"/></g><g><path d="m310.135 216.545c-4.303 0-7.791-3.488-7.791-7.791v-26.925c0-4.303 3.488-7.791 7.791-7.791s7.791 3.488 7.791 7.791v26.925c-.001 4.303-3.488 7.791-7.791 7.791z" fill="#95d6a4"/></g><g><path d="m338.226 216.545c-4.303 0-7.791-3.488-7.791-7.791v-26.925c0-4.303 3.488-7.791 7.791-7.791s7.791 3.488 7.791 7.791v26.925c0 4.303-3.488 7.791-7.791 7.791z" fill="#95d6a4"/></g></g></g><path d="m256 487.94-188.6-41.908c-7.843-1.743-13.423-8.699-13.423-16.733v-229.168c0-1.181.958-2.139 2.139-2.139h199.884z" fill="#ffe07d"/><path d="m234.359 197.992v285.14l21.641 4.808v-289.948z" fill="#ffd064"/><path d="m256 487.94 188.6-41.908c7.843-1.743 13.423-8.699 13.423-16.733v-229.168c0-1.181-.958-2.139-2.139-2.139h-199.884z" fill="#ffe07d"/><path d="m436.09 197.992v249.931l8.51-1.891c7.843-1.743 13.423-8.699 13.423-16.733v-229.168c0-1.181-.958-2.139-2.139-2.139z" fill="#ffd064"/><path d="m53.336 198.849c.404-.539 1.038-.857 1.712-.857h200.952l-55.471 74.064c-.404.539-1.038.857-1.712.857h-196.678c-.81 0-1.551-.458-1.913-1.182s-.285-1.591.201-2.24z" fill="#ffd064"/><path d="m226.395 197.992-56.113 74.921h28.535c.674 0 1.308-.318 1.712-.857l55.471-74.064z" fill="#e7a561"/><path d="m458.664 198.849c-.404-.539-1.038-.857-1.712-.857h-200.952l55.471 74.064c.404.539 1.038.857 1.712.857h196.677c.81 0 1.551-.458 1.913-1.182s.285-1.591-.201-2.24z" fill="#ffd064"/><path d="m458.664 198.849c-.404-.539-1.038-.857-1.712-.857h-26.986l56.113 74.921h23.781c.81 0 1.551-.458 1.913-1.182s.285-1.591-.201-2.24z" fill="#e7a561"/><g><path d="m332.845 445.402c-3.572 0-6.792-2.471-7.598-6.103-.933-4.201 1.715-8.362 5.915-9.295l70.044-15.564c4.204-.936 8.363 1.715 9.295 5.915.933 4.201-1.715 8.362-5.915 9.295l-70.044 15.564c-.569.127-1.138.188-1.697.188z" fill="#ffd064"/></g></g></svg>