<svg id="Capa_1" enable-background="new 0 0 512 512" height="512" viewBox="0 0 512 512" width="512" xmlns="http://www.w3.org/2000/svg"><g><g><g><path d="m216.888 231.066 17.832-12.237c2.158-1.481 2.158-4.667 0-6.148l-17.832-12.237c-1.271-.872-2.948-.872-4.219 0l-22.311 15.311 22.311 15.311c1.271.872 2.948.872 4.219 0z" fill="#e278b1"/></g><g><path d="m210.961 223.481h-48.599c-4.268 0-7.726-3.459-7.726-7.726v-73.118c0-4.268 3.459-7.726 7.726-7.726 4.268 0 7.726 3.459 7.726 7.726v65.391h40.872c4.268 0 7.726 3.459 7.726 7.726s-3.457 7.727-7.725 7.727z" fill="#e278b1"/></g><g><path d="m37.202 231.066-17.832-12.237c-2.158-1.481-2.158-4.667 0-6.148l17.832-12.237c1.271-.872 2.948-.872 4.219 0l22.311 15.311-22.311 15.311c-1.271.872-2.948.872-4.219 0z" fill="#e278b1"/></g><g><path d="m91.727 223.481h-48.6c-4.268 0-7.726-3.459-7.726-7.726s3.459-7.726 7.726-7.726h40.873v-65.391c0-4.268 3.459-7.726 7.726-7.726 4.268 0 7.726 3.459 7.726 7.726v73.118c.001 4.266-3.457 7.725-7.725 7.725z" fill="#e278b1"/></g></g><g><path d="m127.045 201.148c-4.268 0-7.726-3.459-7.726-7.726v-50.785c0-4.268 3.459-7.726 7.726-7.726 4.268 0 7.726 3.459 7.726 7.726v50.785c0 4.267-3.458 7.726-7.726 7.726z" fill="#e278b1"/></g><g><g><path d="m474.798 511.346 17.832-12.237c2.158-1.481 2.158-4.667 0-6.148l-17.832-12.237c-1.271-.872-2.948-.872-4.219 0l-22.311 15.311 22.311 15.311c1.271.872 2.948.872 4.219 0z" fill="#e278b1"/></g><g><path d="m468.872 503.761h-48.6c-4.268 0-7.726-3.459-7.726-7.726v-73.118c0-4.268 3.459-7.726 7.726-7.726s7.726 3.459 7.726 7.726v65.391h40.873c4.268 0 7.726 3.459 7.726 7.726s-3.458 7.727-7.725 7.727z" fill="#e278b1"/></g><g><path d="m295.112 511.346-17.832-12.237c-2.158-1.481-2.158-4.667 0-6.148l17.832-12.237c1.271-.872 2.948-.872 4.219 0l22.311 15.311-22.311 15.311c-1.271.872-2.948.872-4.219 0z" fill="#e278b1"/></g><g><path d="m349.637 503.761h-48.6c-4.268 0-7.726-3.459-7.726-7.726s3.459-7.726 7.726-7.726h40.873v-65.391c0-4.268 3.459-7.726 7.726-7.726s7.726 3.459 7.726 7.726v73.118c.002 4.266-3.457 7.725-7.725 7.725z" fill="#e278b1"/></g></g><g><path d="m384.955 481.428c-4.268 0-7.726-3.459-7.726-7.726v-50.785c0-4.268 3.459-7.726 7.726-7.726 4.268 0 7.726 3.459 7.726 7.726v50.785c.001 4.267-3.458 7.726-7.726 7.726z" fill="#e278b1"/></g><path d="m120.756 0c26.441 0 49.407 15.152 60.671 37.23 1.64 3.214 5.006 5.167 8.608 4.955 34.367-2.025 63.885 25.382 64.054 60.183.163 33.481-27.921 60.873-61.402 60.873h-138.894c-29.352 0-53.679-23.523-53.793-52.875-.104-26.963 20.186-49.966 47.226-52.961 3.722-.412 6.762-3.116 7.72-6.737 7.705-29.132 34.289-50.668 65.81-50.668z" fill="#b1e4f9"/><g><path d="m193.117 42.082c-5.352.044-10.403-2.691-13.032-7.353-11.683-20.713-33.899-34.729-59.329-34.729-22.643 0-42.726 11.123-55.106 28.182 11.206-8.114 24.968-12.905 39.83-12.905 24.837 0 46.607 13.37 58.494 33.291 3.174 5.32 8.809 8.727 15.004 8.793 32.627.347 59.836 27.076 59.836 60.586 0 12.805-4.005 24.687-10.814 34.482 15.751-10.949 26.09-29.165 26.09-49.758 0-33.9-27.844-60.859-60.973-60.589z" fill="#90d8f9"/></g><g><path d="m146.35 119.121h-38.611c-4.268 0-7.726-3.459-7.726-7.726s3.459-7.726 7.726-7.726h38.611c4.268 0 7.726 3.459 7.726 7.726s-3.459 7.726-7.726 7.726z" fill="#90d8f9"/></g><path d="m378.667 280.28c26.441 0 49.407 15.152 60.671 37.23 1.64 3.214 5.006 5.167 8.608 4.955 34.367-2.025 63.885 25.382 64.054 60.183.163 33.481-27.921 60.873-61.402 60.873h-138.894c-29.352 0-53.679-23.523-53.793-52.875-.105-26.963 20.186-49.966 47.226-52.961 3.722-.412 6.762-3.116 7.72-6.737 7.704-29.132 34.289-50.668 65.81-50.668z" fill="#b1e4f9"/><g><path d="m449.875 322.382c-4.811.131-9.227-2.565-11.55-6.78-11.591-21.038-33.987-35.322-59.659-35.322-22.643 0-42.726 11.123-55.106 28.182 11.206-8.114 24.968-12.905 39.83-12.905 24.837 0 46.607 13.37 58.494 33.291 3.174 5.32 8.809 8.727 15.004 8.793 32.627.347 59.836 27.076 59.836 60.586 0 12.805-4.005 24.687-10.814 34.482 15.751-10.949 26.09-29.165 26.09-49.758 0-34.292-28.492-61.482-62.125-60.569z" fill="#90d8f9"/></g><g><path d="m404.26 399.401h-38.61c-4.268 0-7.726-3.459-7.726-7.726s3.459-7.726 7.726-7.726h38.611c4.268 0 7.726 3.459 7.726 7.726s-3.459 7.726-7.727 7.726z" fill="#90d8f9"/></g><g><g><g><g><g><path d="m325.651 140.764h-16.998c-4.268 0-7.726-3.459-7.726-7.726 0-4.268 3.459-7.726 7.726-7.726h16.998c4.268 0 7.726 3.459 7.726 7.726s-3.459 7.726-7.726 7.726z" fill="#2b4d66"/></g><g><path d="m370.904 157.762c-4.268 0-7.726-3.459-7.726-7.726v-9.272h-9.272c-4.268 0-7.726-3.459-7.726-7.726 0-4.268 3.459-7.726 7.726-7.726h16.998c4.268 0 7.726 3.459 7.726 7.726v16.998c0 4.267-3.458 7.726-7.726 7.726z" fill="#2b4d66"/></g><g><path d="m370.904 209.978c-4.268 0-7.726-3.459-7.726-7.726v-26.109c0-4.268 3.459-7.726 7.726-7.726s7.726 3.459 7.726 7.726v26.109c0 4.267-3.458 7.726-7.726 7.726z" fill="#2b4d66"/></g><g><path d="m370.904 253.085c-4.268 0-7.726-3.459-7.726-7.726v-16.999c0-4.268 3.459-7.726 7.726-7.726s7.726 3.459 7.726 7.726v16.998c0 4.268-3.458 7.727-7.726 7.727z" fill="#2b4d66"/></g></g></g></g><g><g><g><g><path d="m203.347 386.688h-16.998c-4.268 0-7.726-3.459-7.726-7.726s3.459-7.726 7.726-7.726h16.998c4.268 0 7.726 3.459 7.726 7.726s-3.459 7.726-7.726 7.726z" fill="#2b4d66"/></g><g><path d="m158.094 386.688h-16.998c-4.268 0-7.726-3.459-7.726-7.726v-16.998c0-4.268 3.459-7.726 7.726-7.726 4.268 0 7.726 3.459 7.726 7.726v9.272h9.272c4.268 0 7.726 3.459 7.726 7.726s-3.458 7.726-7.726 7.726z" fill="#2b4d66"/></g><g><path d="m141.096 343.583c-4.268 0-7.726-3.459-7.726-7.726v-26.109c0-4.268 3.459-7.726 7.726-7.726 4.268 0 7.726 3.459 7.726 7.726v26.109c.001 4.267-3.458 7.726-7.726 7.726z" fill="#2b4d66"/></g><g><path d="m141.096 291.366c-4.268 0-7.726-3.459-7.726-7.726v-16.998c0-4.268 3.459-7.726 7.726-7.726 4.268 0 7.726 3.459 7.726 7.726v16.998c.001 4.268-3.458 7.726-7.726 7.726z" fill="#2b4d66"/></g></g></g></g></g></g></svg>