<svg id="Capa_1" enable-background="new 0 0 512 512" height="512" viewBox="0 0 512 512" width="512" xmlns="http://www.w3.org/2000/svg"><g><path d="m141.956 227.836-8.483-9.545h-32.781l-5.446 9.545c3.021 15.028-5.545 30.88-16.191 38.299h79.093c-10.648-7.419-19.214-23.271-16.192-38.299z" fill="#2b4d66"/><path d="m237.201 177.779-11.948-9.545h-216.434l-8.819 9.545v33.467c0 9.163 7.428 16.591 16.591 16.591h204.019c9.163 0 16.591-7.428 16.591-16.591z" fill="#d0e2e7"/><path d="m225.253 168.233h-25.998l11.948 9.545v33.467c0 9.163-7.428 16.591-16.591 16.591h25.998c9.163 0 16.591-7.428 16.591-16.591v-33.467z" fill="#b4d0d5"/><path d="m237.201 177.779h-237.201v-115.813c0-9.163 7.428-16.591 16.591-16.591h204.019c9.163 0 16.591 7.428 16.591 16.591z" fill="#f6f9f9"/><path d="m220.61 45.375h-25.998c9.163 0 16.591 7.428 16.591 16.591v115.812h25.998v-115.812c0-9.163-7.428-16.591-16.591-16.591z" fill="#dfeaef"/><g><path d="m162.218 119.304h-87.234c-4.268 0-7.726-3.459-7.726-7.726s3.459-7.726 7.726-7.726h87.234c4.268 0 7.726 3.459 7.726 7.726s-3.458 7.726-7.726 7.726z" fill="#90d8f9"/></g><path d="m416.755 420.599-8.483-9.545h-32.782l-5.446 9.545c3.021 15.028-5.545 30.88-16.191 38.299h79.093c-10.646-7.42-19.212-23.271-16.191-38.299z" fill="#2b4d66"/><path d="m512 370.541-11.948-9.545h-216.434l-8.819 9.545v33.467c0 9.163 7.428 16.591 16.591 16.591h204.019c9.163 0 16.591-7.428 16.591-16.591z" fill="#d0e2e7"/><path d="m500.052 360.996h-25.998l11.948 9.545v33.466c0 9.163-7.428 16.591-16.591 16.591h25.998c9.163 0 16.591-7.428 16.591-16.591v-33.466z" fill="#b4d0d5"/><path d="m512 370.541h-237.201v-115.812c0-9.163 7.428-16.591 16.591-16.591h204.019c9.163 0 16.591 7.428 16.591 16.591z" fill="#f6f9f9"/><path d="m495.409 238.138h-25.998c9.163 0 16.591 7.428 16.591 16.591v115.812h25.998v-115.812c0-9.163-7.428-16.591-16.591-16.591z" fill="#dfeaef"/><g><g><path d="m373.327 159.655c-4.268 0-7.726-3.459-7.726-7.726v-41.704h-50.392c-4.268 0-7.726-3.459-7.726-7.726 0-4.268 3.459-7.726 7.726-7.726h58.119c4.268 0 7.726 3.459 7.726 7.726v49.431c-.001 4.266-3.46 7.725-7.727 7.725z" fill="#2b4d66"/></g><g><path d="m373.327 171.403c-1.918 0-3.837-.71-5.329-2.132l-18.014-17.161c-3.09-2.944-3.208-7.834-.266-10.924 2.945-3.091 7.836-3.207 10.924-.266l12.685 12.085 12.684-12.085c3.089-2.942 7.979-2.825 10.924.266 2.943 3.09 2.824 7.98-.266 10.924l-18.013 17.161c-1.492 1.421-3.411 2.132-5.329 2.132z" fill="#2b4d66"/></g><g><g><path d="m196.791 409.502h-58.118c-4.268 0-7.726-3.459-7.726-7.726v-49.431c0-4.268 3.459-7.726 7.726-7.726 4.268 0 7.726 3.459 7.726 7.726v41.704h50.391c4.268 0 7.726 3.459 7.726 7.726s-3.457 7.727-7.725 7.727z" fill="#2b4d66"/></g><g><path d="m156.687 365.484c-1.914 0-3.833-.707-5.328-2.132l-12.685-12.085-12.685 12.085c-3.088 2.943-7.979 2.826-10.924-.266-2.943-3.09-2.824-7.98.266-10.924l18.014-17.161c2.984-2.843 7.674-2.843 10.658 0l18.014 17.161c3.09 2.944 3.208 7.834.266 10.924-1.52 1.595-3.556 2.398-5.596 2.398z" fill="#2b4d66"/></g></g></g><g><path d="m176.145 273.862h-115.088c-4.268 0-7.726-3.459-7.726-7.726s3.459-7.726 7.726-7.726h115.088c4.268 0 7.726 3.459 7.726 7.726s-3.459 7.726-7.726 7.726z" fill="#365e7d"/></g><g><path d="m450.943 466.625h-115.087c-4.268 0-7.726-3.459-7.726-7.726s3.459-7.726 7.726-7.726h115.088c4.268 0 7.726 3.459 7.726 7.726s-3.459 7.726-7.727 7.726z" fill="#365e7d"/></g></g></svg>