<svg id="Capa_1" enable-background="new 0 0 512 512" height="512" viewBox="0 0 512 512" width="512" xmlns="http://www.w3.org/2000/svg"><g><path d="m306.412 407.724-18.311-20.604h-70.759l-11.755 20.604c6.521 32.438-11.969 66.654-34.949 82.669h170.722c-22.979-16.015-41.469-50.231-34.948-82.669z" fill="#365e7d"/><path d="m205.588 407.724c1.175 5.847 1.527 11.75 1.198 17.595h98.43c-.329-5.845.022-11.748 1.198-17.595l-16.727-20.604h-72.343z" fill="#2b4d66"/><g><path d="m382.49 498.119h-252.98c-4.268 0-7.726-3.459-7.726-7.726s3.459-7.726 7.726-7.726h252.98c4.268 0 7.726 3.459 7.726 7.726s-3.459 7.726-7.726 7.726z" fill="#2b4d66"/></g><g><path d="m256 465.38c-4.268 0-7.726-3.459-7.726-7.726v-16.8c0-4.268 3.459-7.726 7.726-7.726 4.268 0 7.726 3.459 7.726 7.726v16.8c0 4.267-3.459 7.726-7.726 7.726z" fill="#2b4d66"/></g><path d="m512 326.572-25.79-20.604h-467.175l-19.035 20.604v45.34c0 19.778 16.033 35.812 35.812 35.812h440.376c19.778 0 35.812-16.033 35.812-35.812z" fill="#d0e2e7"/><path d="m486.21 305.969v65.944c0 19.778-16.034 35.812-35.812 35.812h25.79c19.778 0 35.812-16.033 35.812-35.812v-45.34z" fill="#b4d0d5"/><g><path d="m274.176 374.875h-36.351c-4.268 0-7.726-3.459-7.726-7.726s3.459-7.726 7.726-7.726h36.351c4.268 0 7.726 3.459 7.726 7.726s-3.459 7.726-7.726 7.726z" fill="#95d6a4"/></g><path d="m512 326.572h-512v-276.879c0-19.778 16.033-35.812 35.812-35.812h440.376c19.778 0 35.812 16.033 35.812 35.812z" fill="#365e7d"/><path d="m476.188 13.881h-25.79c19.778 0 35.812 16.033 35.812 35.812v276.879h25.79v-276.879c0-19.779-16.034-35.812-35.812-35.812z" fill="#2b4d66"/><path d="m30.906 290.441v-240.748c0-2.71 2.197-4.906 4.906-4.906h440.376c2.71 0 4.906 2.197 4.906 4.906v240.748c0 2.886-2.34 5.226-5.226 5.226h-439.736c-2.887 0-5.226-2.34-5.226-5.226z" fill="#f6f9f9"/><path d="m476.188 44.786h-21.266c2.71 0 4.906 2.197 4.906 4.906v240.748c0 2.886-2.34 5.226-5.226 5.226h21.266c2.886 0 5.226-2.34 5.226-5.226v-240.747c0-2.71-2.196-4.907-4.906-4.907z" fill="#dfeaef"/><g><g><g><g><path d="m199.961 250.906c-.022 0-.044 0-.067 0-4.268-.037-7.696-3.526-7.66-7.793.036-4.133.072-8.724.108-13.507h-28.313c-2.733 0-5.264-1.445-6.653-3.798-1.39-2.354-1.433-5.268-.113-7.661 5.708-10.346 24.649-44.493 28.731-49.501 3.669-4.502 8.653-6.324 13.319-4.878 4.714 1.46 8.06 6.014 8.526 11.603.215 2.581.161 21.365.058 38.783h1.451c4.268 0 7.726 3.459 7.726 7.726 0 4.268-3.459 7.726-7.726 7.726h-1.553c-.045 6.146-.088 11.11-.109 13.64-.036 4.244-3.488 7.66-7.725 7.66zm-22.804-36.753h15.287c.058-10.147.099-19.932.096-26.995-4.004 6.806-9.629 16.697-15.383 26.995z" fill="#e278b1"/></g></g><g><g><path d="m338.583 250.906c-.022 0-.044 0-.067 0-4.268-.037-7.696-3.526-7.66-7.793.036-4.133.072-8.724.108-13.507h-28.313c-2.733 0-5.264-1.445-6.653-3.798-1.39-2.354-1.433-5.268-.113-7.661 5.708-10.346 24.649-44.493 28.731-49.501 3.67-4.502 8.655-6.324 13.319-4.878 4.714 1.46 8.06 6.014 8.526 11.603.215 2.581.161 21.365.058 38.783h1.451c4.268 0 7.726 3.459 7.726 7.726 0 4.268-3.459 7.726-7.726 7.726h-1.553c-.045 6.146-.088 11.11-.109 13.64-.037 4.244-3.488 7.66-7.725 7.66zm-22.805-36.753h15.287c.058-10.147.099-19.932.096-26.995-4.003 6.806-9.628 16.697-15.383 26.995z" fill="#e278b1"/></g></g><g><g><path d="m255.826 254.48c-15.769 0-28.597-12.828-28.597-28.596v-33.375c0-15.769 12.828-28.597 28.597-28.597 15.768 0 28.596 12.828 28.596 28.597v33.375c-.001 15.768-12.829 28.596-28.596 28.596zm0-75.115c-7.247 0-13.144 5.896-13.144 13.144v33.375c0 7.247 5.896 13.143 13.144 13.143 7.247 0 13.143-5.895 13.143-13.143v-33.375c-.001-7.247-5.896-13.144-13.143-13.144z" fill="#e278b1"/></g></g></g><g><g><g><path d="m190.735 119.258c-1.977 0-3.955-.755-5.464-2.263-3.017-3.018-3.017-7.909 0-10.928l17.832-17.832c3.018-3.016 7.909-3.016 10.928 0 3.017 3.018 3.017 7.909 0 10.928l-17.832 17.832c-1.509 1.508-3.487 2.263-5.464 2.263z" fill="#e278b1"/></g><g><path d="m208.567 119.258c-1.977 0-3.955-.755-5.464-2.263l-17.832-17.832c-3.017-3.018-3.017-7.909 0-10.928 3.018-3.016 7.909-3.016 10.928 0l17.832 17.832c3.017 3.018 3.017 7.909 0 10.928-1.509 1.508-3.487 2.263-5.464 2.263z" fill="#e278b1"/></g></g><g><g><path d="m303.432 119.258c-1.977 0-3.955-.755-5.464-2.263-3.017-3.018-3.017-7.909 0-10.928l17.832-17.831c3.018-3.016 7.909-3.016 10.928 0 3.017 3.018 3.017 7.909 0 10.928l-17.832 17.832c-1.509 1.507-3.487 2.262-5.464 2.262z" fill="#e278b1"/></g><g><path d="m321.264 119.258c-1.977 0-3.955-.755-5.464-2.263l-17.832-17.832c-3.017-3.018-3.017-7.909 0-10.928 3.018-3.016 7.909-3.016 10.928 0l17.832 17.832c3.017 3.018 3.017 7.909 0 10.928-1.509 1.508-3.487 2.263-5.464 2.263z" fill="#e278b1"/></g></g></g><g><path d="m227.949 147.799c-2.844 0-5.579-1.575-6.929-4.296-1.895-3.823-.333-8.459 3.49-10.355 20.895-10.36 42.083-10.36 62.979 0 3.823 1.896 5.385 6.532 3.49 10.355-1.896 3.822-6.531 5.382-10.355 3.49-16.569-8.217-32.679-8.217-49.248 0-1.103.547-2.274.806-3.427.806z" fill="#e278b1"/></g></g></g></svg>