<svg id="Capa_1" enable-background="new 0 0 512 512" height="512" viewBox="0 0 512 512" width="512" xmlns="http://www.w3.org/2000/svg"><g><g><path d="m349.63 170.076c-1.972 0-3.944-.753-5.449-2.257-3.009-3.01-3.009-7.888 0-10.898l62.891-62.891c3.01-3.008 7.888-3.008 10.898 0 3.009 3.01 3.009 7.888 0 10.898l-62.891 62.891c-1.505 1.505-3.478 2.257-5.449 2.257z" fill="#e278b1"/></g><path d="m425.564 109.157-26.915 4.195 4.195-26.915c.44-2.824 2.655-5.039 5.479-5.479l18.028-2.81c4.396-.685 8.187 3.106 7.502 7.502l-2.81 18.028c-.44 2.824-2.656 5.039-5.479 5.479z" fill="#e278b1"/><path d="m233.137 393.613-114.75-114.75c-3.722-3.722-3.722-9.756 0-13.478l145.629-145.629c3.722-3.722 9.756-3.722 13.478 0l114.75 114.75c3.722 3.722 3.722 9.756 0 13.478l-145.629 145.63c-3.722 3.721-9.756 3.721-13.478-.001z" fill="#d0e2e7"/><path d="m392.244 234.506-15.898-15.898c3.722 3.722 3.722 9.756 0 13.478l-145.63 145.63c-3.722 3.722-9.756 3.722-13.478 0l15.898 15.898c3.722 3.722 9.756 3.722 13.478 0l145.63-145.63c3.722-3.722 3.722-9.756 0-13.478z" fill="#b4d0d5"/><path d="m382.948 225.209-96.157-96.157 30.293-9.93c5.255-1.723 11.033-.343 14.944 3.567l57.282 57.282c3.911 3.911 5.29 9.688 3.567 14.944z" fill="#365e7d"/><path d="m392.877 194.916c1.723-5.255.344-11.033-3.567-14.944l-16.036-16.036c3.911 3.911 5.29 9.688 3.567 14.944l-9.93 30.293 16.036 16.036z" fill="#2b4d66"/><path d="m127.684 288.16 96.157 96.157-30.294 9.93c-5.255 1.723-11.033.343-14.944-3.567l-57.282-57.282c-3.911-3.911-5.29-9.688-3.567-14.944z" fill="#365e7d"/><path d="m207.805 368.281-30.293 9.93c-5.255 1.723-11.033.343-14.943-3.567l16.036 16.036c3.911 3.911 9.688 5.29 14.943 3.567l30.294-9.93z" fill="#2b4d66"/><path d="m137.251 246.522-126.956-126.957c-13.725-13.725-13.725-35.979 0-49.704l58.197-58.197c13.725-13.725 35.979-13.725 49.704 0l126.957 126.956z" fill="#b1e4f9"/><path d="m265.479 374.749 126.957 126.957c13.725 13.725 35.979 13.725 49.704 0l58.197-58.197c13.725-13.725 13.725-35.979 0-49.704l-126.957-126.957z" fill="#b1e4f9"/><path d="m204.326 179.447 10.898-10.898-32.997-32.997 29.928-29.928-10.898-10.898-29.928 29.928-26.56-26.56 29.929-29.928-10.898-10.898-29.929 29.928-26.56-26.56 29.928-29.929-10.898-10.898-29.929 29.928-32.996-32.997-10.899 10.898 32.997 32.997-26.248 26.248-32.997-32.997-10.898 10.899 32.997 32.997-29.928 29.928 10.898 10.898 29.928-29.929 26.56 26.56-29.929 29.928 10.898 10.898 29.929-29.928 26.56 26.56-29.929 29.929 10.898 10.898 29.929-29.929 32.997 32.997 10.898-10.898-32.997-32.997 26.248-26.247zm-134.161-81.666 26.248-26.248 26.56 26.56-26.248 26.248zm64.018 64.018-26.56-26.56 26.248-26.248 26.56 26.56z" fill="#90d8f9"/><path d="m484.362 459.483 10.898-10.898-32.997-32.997 29.928-29.929-10.898-10.898-29.928 29.929-26.56-26.56 29.928-29.928-10.898-10.898-29.928 29.928-26.56-26.56 29.929-29.928-10.898-10.898-29.929 29.928-32.997-32.997-10.898 10.898 32.997 32.997-26.248 26.247-32.997-32.997-10.898 10.898 32.997 32.997-29.929 29.929 10.898 10.898 29.929-29.929 26.56 26.56-29.929 29.929 10.898 10.898 29.929-29.929 26.56 26.56-29.928 29.929 10.898 10.898 29.928-29.929 32.997 32.997 10.898-10.899-32.997-32.997 26.248-26.248zm-134.161-81.665 26.248-26.248 26.56 26.56-26.248 26.248zm64.018 64.018-26.56-26.56 26.248-26.248 26.56 26.56z" fill="#90d8f9"/><path d="m163.847 283.794c-6.186-6.186-6.186-16.215 0-22.401l96.177-96.177c6.186-6.186 16.215-6.186 22.401 0 6.186 6.186 6.186 16.215 0 22.401l-96.177 96.177c-6.186 6.186-16.215 6.186-22.401 0z" fill="#95d6a4"/><g><path d="m207.701 312.953c-1.973 0-3.944-.753-5.449-2.257-3.009-3.01-3.009-7.888 0-10.898l96.178-96.177c3.011-3.008 7.889-3.008 10.898 0 3.009 3.01 3.009 7.888 0 10.898l-96.178 96.177c-1.505 1.504-3.478 2.257-5.449 2.257z" fill="#95d6a4"/></g><g><path d="m229.154 334.406c-1.972 0-3.944-.753-5.449-2.257-3.009-3.01-3.009-7.888 0-10.898l96.177-96.178c3.01-3.008 7.888-3.008 10.898 0 3.009 3.01 3.009 7.888 0 10.898l-96.177 96.178c-1.505 1.505-3.477 2.257-5.449 2.257z" fill="#95d6a4"/></g><g><path d="m250.608 355.859c-1.972 0-3.944-.753-5.449-2.257-3.009-3.01-3.009-7.888 0-10.898l96.177-96.177c3.01-3.008 7.888-3.008 10.898 0 3.009 3.01 3.009 7.888 0 10.898l-96.177 96.177c-1.505 1.504-3.478 2.257-5.449 2.257z" fill="#95d6a4"/></g><g><g><g><path d="m326.363 66.339c-.02 0-.039 0-.059 0-4.255-.032-7.68-3.509-7.648-7.764.118-15.624 6.249-30.295 17.264-41.31 11.015-11.014 25.686-17.145 41.31-17.265 4.256-.078 7.732 3.391 7.765 7.646.032 4.256-3.391 7.732-7.646 7.765-11.554.088-22.396 4.616-30.53 12.752-8.135 8.134-12.663 18.976-12.751 30.528-.032 4.237-3.477 7.648-7.705 7.648z" fill="#b1e4f9"/></g><g><path d="m349.631 70.828c-.02 0-.039 0-.059 0-4.256-.032-7.68-3.509-7.647-7.764.08-10.614 4.246-20.581 11.73-28.066 7.485-7.483 17.452-11.649 28.065-11.729h.059c4.229 0 7.673 3.411 7.705 7.647.032 4.255-3.391 7.732-7.647 7.764-6.541.049-12.678 2.612-17.284 7.216-4.603 4.604-7.167 10.742-7.216 17.284-.034 4.237-3.478 7.648-7.706 7.648z" fill="#b1e4f9"/></g><g><path d="m372.894 75.316c-.02 0-.039 0-.06 0-4.255-.033-7.679-3.509-7.647-7.765.043-5.6 2.245-10.863 6.2-14.818 3.957-3.955 9.22-6.157 14.819-6.2h.06c4.228 0 7.673 3.411 7.705 7.646.032 4.256-3.391 7.732-7.646 7.765-1.529.011-2.964.611-4.04 1.688-1.076 1.075-1.675 2.508-1.686 4.037-.032 4.236-3.476 7.647-7.705 7.647z" fill="#b1e4f9"/></g></g><g><g><path d="m453.366 193.344c-4.229 0-7.673-3.411-7.705-7.647-.032-4.255 3.392-7.732 7.647-7.764 11.552-.087 22.394-4.615 30.528-12.751 8.136-8.135 12.664-18.977 12.752-30.529.032-4.236 3.477-7.647 7.705-7.647h.059c4.255.032 7.68 3.509 7.647 7.764-.118 15.624-6.25 30.295-17.265 41.311-11.015 11.015-25.686 17.145-41.31 17.264-.019-.001-.039-.001-.058-.001z" fill="#b1e4f9"/></g><g><path d="m448.877 170.076c-4.229 0-7.673-3.411-7.705-7.647-.032-4.255 3.391-7.732 7.647-7.764 6.542-.049 12.679-2.613 17.284-7.217 4.604-4.604 7.167-10.742 7.216-17.283.033-4.256 3.51-7.714 7.764-7.647 4.256.032 7.68 3.509 7.647 7.764-.08 10.612-4.246 20.58-11.729 28.064-7.485 7.485-17.451 11.651-28.066 11.731-.019-.001-.039-.001-.058-.001z" fill="#b1e4f9"/></g><g><path d="m444.389 146.813c-4.228 0-7.673-3.411-7.705-7.646-.032-4.256 3.391-7.732 7.646-7.765 1.529-.011 2.963-.61 4.038-1.687 1.077-1.076 1.676-2.51 1.687-4.039.032-4.235 3.477-7.646 7.705-7.646h.06c4.255.033 7.679 3.509 7.646 7.765-.043 5.601-2.244 10.864-6.2 14.819-3.955 3.955-9.219 6.157-14.818 6.2-.019-.001-.039-.001-.059-.001z" fill="#b1e4f9"/></g></g></g></g></svg>