<svg id="Capa_1" enable-background="new 0 0 512.003 512.003" height="512" viewBox="0 0 512.003 512.003" width="512" xmlns="http://www.w3.org/2000/svg"><g><g><path d="m256.002 310.382c-4.143 0-7.5-3.357-7.5-7.5v-68.811c0-4.143 3.357-7.5 7.5-7.5s7.5 3.357 7.5 7.5v68.811c0 4.143-3.358 7.5-7.5 7.5z" fill="#2b4d66"/></g><g><path d="m396.763 355.261c-4.143 0-7.5-3.357-7.5-7.5v-25.871c0-6.781-3.798-11.508-7.206-11.508h-252.111c-3.408 0-7.205 4.727-7.205 11.508v25.871c0 4.143-3.357 7.5-7.5 7.5s-7.5-3.357-7.5-7.5v-25.871c0-14.616 9.961-26.508 22.205-26.508h252.111c12.244 0 22.206 11.892 22.206 26.508v25.871c0 4.143-3.357 7.5-7.5 7.5z" fill="#2b4d66"/></g><path d="m247.442 3.752c35.99 0 67.25 20.625 82.583 50.676 2.232 4.374 6.814 7.033 11.716 6.744 46.779-2.756 86.958 34.549 87.188 81.919.221 45.573-38.004 82.858-83.578 82.858h-189.056c-39.953 0-73.065-32.018-73.221-71.971-.143-36.701 27.476-68.012 64.282-72.089 5.067-.561 9.204-4.242 10.508-9.17 10.488-39.653 46.673-68.967 89.578-68.967z" fill="#b1e4f9"/><g><path d="m345.179 61.042c-6.963.121-13.436-3.687-16.838-9.763-15.863-28.334-46.18-47.526-80.898-47.526-30.821 0-58.158 15.14-75.008 38.36 15.253-11.045 33.985-17.566 54.215-17.566 33.858 0 63.531 18.254 79.693 45.438 4.275 7.19 11.982 11.755 20.347 11.844 44.411.472 81.448 36.855 81.448 82.467 0 17.43-5.452 33.604-14.719 46.935 21.44-14.903 35.513-39.698 35.513-67.729-.002-46.4-38.327-83.248-83.753-82.46z" fill="#90d8f9"/></g><g><path d="m282.28 162.878h-52.556c-4.143 0-7.5-3.357-7.5-7.5s3.357-7.5 7.5-7.5h52.556c4.143 0 7.5 3.357 7.5 7.5s-3.357 7.5-7.5 7.5z" fill="#90d8f9"/></g><path d="m319.333 254.072h-126.662c-5.615 0-10.167-4.552-10.167-10.167v-32.165c0-5.615 4.552-10.167 10.167-10.167h126.662c5.615 0 10.167 4.552 10.167 10.167v32.165c0 5.615-4.552 10.167-10.167 10.167z" fill="#e278b1"/><path d="m319.333 201.573h-22.476c5.615 0 10.167 4.552 10.167 10.167v32.165c0 5.615-4.552 10.167-10.167 10.167h22.476c5.615 0 10.167-4.552 10.167-10.167v-32.165c0-5.615-4.552-10.167-10.167-10.167z" fill="#dd5ca2"/><path d="m212.143 500.752h-193.804c-5.985 0-10.837-4.852-10.837-10.837v-108.809c0-5.985 4.852-10.837 10.837-10.837h193.804c5.985 0 10.837 4.852 10.837 10.837v108.809c0 5.985-4.852 10.837-10.837 10.837z" fill="#ffe07d"/><path d="m212.143 370.269h-28.482c5.985 0 10.837 4.852 10.837 10.837v108.809c0 5.985-4.852 10.837-10.837 10.837h28.482c5.985 0 10.837-4.852 10.837-10.837v-108.809c0-5.985-4.852-10.837-10.837-10.837z" fill="#ffd064"/><path d="m493.665 500.752h-193.804c-5.985 0-10.837-4.852-10.837-10.837v-108.809c0-5.985 4.852-10.837 10.837-10.837h193.804c5.985 0 10.837 4.852 10.837 10.837v108.809c0 5.985-4.852 10.837-10.837 10.837z" fill="#ffe07d"/><path d="m493.665 370.269h-28.482c5.985 0 10.837 4.852 10.837 10.837v108.809c0 5.985-4.852 10.837-10.837 10.837h28.482c5.985 0 10.837-4.852 10.837-10.837v-108.809c0-5.985-4.852-10.837-10.837-10.837z" fill="#ffd064"/><g><g><path d="m115.241 463.053c-3.455 0-6.91-.705-10.13-2.113l-100.617-44.051c-3.795-1.661-5.523-6.084-3.862-9.878s6.085-5.523 9.878-3.862l100.617 44.05c2.615 1.145 5.612 1.145 8.228 0l100.617-44.05c3.796-1.661 8.217.068 9.878 3.862s-.067 8.217-3.862 9.878l-100.617 44.05c-3.22 1.409-6.675 2.114-10.13 2.114z" fill="#ffd064"/></g><g><path d="m122.68 409.674h-14.88c-4.143 0-7.5-3.357-7.5-7.5s3.357-7.5 7.5-7.5h14.88c4.143 0 7.5 3.357 7.5 7.5s-3.357 7.5-7.5 7.5z" fill="#ffd064"/></g><g><path d="m30.037 508.251c-1.903 0-3.807-.72-5.269-2.162-2.948-2.909-2.979-7.658-.069-10.606l54.059-54.772c2.909-2.947 7.657-2.979 10.606-.069 2.948 2.909 2.979 7.658.069 10.606l-54.058 54.772c-1.467 1.486-3.403 2.231-5.338 2.231z" fill="#ffd064"/></g><g><path d="m200.445 508.251c-1.936 0-3.87-.745-5.338-2.231l-54.059-54.772c-2.91-2.948-2.879-7.697.069-10.606 2.947-2.909 7.695-2.878 10.606.069l54.059 54.772c2.91 2.948 2.879 7.697-.069 10.606-1.46 1.443-3.365 2.162-5.268 2.162z" fill="#ffd064"/></g><g><path d="m396.763 463.053c-3.455 0-6.91-.705-10.13-2.113l-100.617-44.051c-3.795-1.661-5.523-6.084-3.862-9.878s6.085-5.523 9.878-3.862l100.617 44.05c2.615 1.145 5.612 1.145 8.228 0l100.617-44.05c3.794-1.661 8.218.068 9.878 3.862 1.661 3.794-.067 8.217-3.862 9.878l-100.617 44.05c-3.219 1.409-6.675 2.114-10.13 2.114z" fill="#ffd064"/></g><g><path d="m404.203 409.674h-14.88c-4.143 0-7.5-3.357-7.5-7.5s3.357-7.5 7.5-7.5h14.88c4.143 0 7.5 3.357 7.5 7.5s-3.358 7.5-7.5 7.5z" fill="#ffd064"/></g><g><path d="m311.559 508.251c-1.903 0-3.807-.72-5.269-2.162-2.948-2.909-2.979-7.658-.069-10.606l54.059-54.772c2.909-2.947 7.657-2.979 10.606-.069 2.948 2.909 2.979 7.658.069 10.606l-54.059 54.772c-1.466 1.486-3.401 2.231-5.337 2.231z" fill="#ffd064"/></g><g><path d="m481.967 508.251c-1.936 0-3.87-.745-5.338-2.231l-54.059-54.772c-2.91-2.948-2.879-7.697.069-10.606 2.946-2.909 7.695-2.878 10.606.069l54.059 54.772c2.91 2.948 2.879 7.697-.069 10.606-1.46 1.443-3.364 2.162-5.268 2.162z" fill="#ffd064"/></g></g></g></svg>