<svg id="Capa_1" enable-background="new 0 0 512 512" height="512" viewBox="0 0 512 512" width="512" xmlns="http://www.w3.org/2000/svg"><g><g><path d="m243.328 0c53.279 0 99.556 30.532 122.255 75.021 3.304 6.475 10.087 10.412 17.344 9.984 69.25-4.081 128.73 51.145 129.071 121.271.328 67.465-56.261 122.661-123.727 122.661h-279.876c-59.146 0-108.165-47.399-108.394-106.545-.211-54.332 40.675-100.684 95.162-106.719 7.501-.831 13.626-6.28 15.556-13.575 15.525-58.702 69.094-102.098 132.609-102.098z" fill="#b1e4f9"/><g><path d="m387.437 84.822c-10.074.222-19.297-5.398-24.201-14.201-23.443-42.089-68.404-70.621-119.907-70.621-45.627 0-86.095 22.413-111.041 56.787 22.58-16.351 50.311-26.005 80.259-26.005 50.123 0 94.05 27.023 117.977 67.266 6.414 10.788 18.026 17.359 30.575 17.539 65.543.941 120.12 54.709 120.12 122.077 0 25.804-8.071 49.746-21.79 69.482 31.738-22.063 52.571-58.768 52.571-100.265 0-68.884-57.062-123.549-124.563-122.059z" fill="#90d8f9"/></g></g><path d="m411.808 421.89h-311.616c-8.067 0-14.606-6.539-14.606-14.606v-144.124c0-8.067 6.539-14.606 14.606-14.606h311.616c8.066 0 14.606 6.539 14.606 14.606v144.123c0 8.067-6.54 14.607-14.606 14.607z" fill="#365e7d"/><path d="m411.808 248.555h-22.705c8.067 0 14.606 6.539 14.606 14.606v144.124c0 8.067-6.539 14.606-14.606 14.606h22.705c8.067 0 14.606-6.539 14.606-14.606v-144.125c0-8.066-6.54-14.605-14.606-14.605z" fill="#2b4d66"/><path d="m392.116 248.555h-272.232v-23.654c0-7.165 5.808-12.974 12.974-12.974h246.285c7.165 0 12.974 5.808 12.974 12.974v23.654z" fill="#d0e2e7"/><path d="m342.678 248.555h-173.356v-92.097c0-1.593 1.292-2.885 2.885-2.885h167.585c1.593 0 2.885 1.292 2.885 2.885v92.097z" fill="#f6f9f9"/><path d="m337.635 512h-163.27c-2.785 0-5.043-2.258-5.043-5.043v-135.244h173.355v135.244c.001 2.785-2.257 5.043-5.042 5.043z" fill="#f6f9f9"/><path d="m322.144 153.573v94.982h20.534v-92.096c0-1.593-1.292-2.885-2.885-2.885h-17.649z" fill="#dfeaef"/><path d="m322.144 371.713v140.287h15.492c2.785 0 5.043-2.258 5.043-5.043v-135.244z" fill="#dfeaef"/><g><path d="m368.031 379.44h-224.062c-4.267 0-7.726-3.459-7.726-7.726s3.459-7.726 7.726-7.726h224.062c4.268 0 7.726 3.459 7.726 7.726s-3.458 7.726-7.726 7.726z" fill="#2b4d66"/></g><path d="m204.277 315.556h-68.142c-8.975 0-16.252-7.276-16.252-16.252 0-8.975 7.276-16.252 16.252-16.252h68.142c8.975 0 16.252 7.276 16.252 16.252 0 8.976-7.276 16.252-16.252 16.252z" fill="#b3e59f"/><path d="m204.277 283.053h-20.175c8.975 0 16.252 7.276 16.252 16.251 0 8.976-7.276 16.252-16.252 16.252h20.175c8.975 0 16.252-7.276 16.252-16.252 0-8.975-7.276-16.251-16.252-16.251z" fill="#95d6a4"/><g><g><path d="m388.064 290.78h-48.923c-4.268 0-7.726-3.459-7.726-7.726s3.459-7.726 7.726-7.726h48.923c4.268 0 7.726 3.459 7.726 7.726s-3.458 7.726-7.726 7.726z" fill="#e278b1"/></g><g><path d="m388.064 323.283h-48.923c-4.268 0-7.726-3.459-7.726-7.726s3.459-7.726 7.726-7.726h48.923c4.268 0 7.726 3.459 7.726 7.726s-3.458 7.726-7.726 7.726z" fill="#e278b1"/></g></g><g><g><path d="m295.35 415.709h-78.7c-4.267 0-7.726-3.459-7.726-7.726s3.459-7.726 7.726-7.726h78.7c4.268 0 7.726 3.459 7.726 7.726s-3.459 7.726-7.726 7.726z" fill="#365e7d"/></g><g><path d="m295.35 449.584h-78.7c-4.267 0-7.726-3.459-7.726-7.726s3.459-7.726 7.726-7.726h78.7c4.268 0 7.726 3.459 7.726 7.726s-3.459 7.726-7.726 7.726z" fill="#365e7d"/></g><g><path d="m295.35 483.457h-78.7c-4.267 0-7.726-3.459-7.726-7.726s3.459-7.726 7.726-7.726h78.7c4.268 0 7.726 3.459 7.726 7.726s-3.459 7.726-7.726 7.726z" fill="#365e7d"/></g></g></g></svg>