<svg id="Capa_1" enable-background="new 0 0 512 512" height="512" viewBox="0 0 512 512" width="512" xmlns="http://www.w3.org/2000/svg"><g><circle cx="385.338" cy="370.452" fill="#698ed5" r="126.662"/><g fill="#b3e59f"><path d="m258.675 370.452c0 40.561 19.067 76.666 48.725 99.848 10.902-5.259 19.797-14.122 22.126-26.601 1.842-9.869.093-20.039.527-29.994.202-4.634.58-9.693 2.625-13.923 1.733-3.585 4.795-5.897 7.962-8.143 7.785-5.522 17.879-10.546 23.245-18.696 4.838-7.347 6.078-16.483 6.811-25.06.83-9.708 1.193-19.41-3.802-28.139-4.288-7.495-10.56-13.677-14.486-21.399-8.724-17.16-2.17-35.322 5.421-51.55-56.725 12.562-99.154 63.151-99.154 123.657z"/><path d="m385.338 497.115c38.942 0 73.773-17.579 97.008-45.229-1.424-2.874-2.946-5.68-4.443-8.385-7.481-13.527-19.387-25.764-33.381-32.591-12.738-6.214-27.321-4.547-37.741 5.296-4.903 4.631-7.967 10.341-9.394 16.901-1.467 6.741-2.508 13.837-8.456 18.207-5.656 4.155-11.103 3.07-16.315-.964-6.821-5.28-13.75 1.987-17.641 7.339-5.498 7.562-11.167 21.179-14.896 31.092 14.056 5.378 29.311 8.334 45.259 8.334z"/><path d="m490.105 299.254c-15.376-22.582-37.86-39.937-64.237-48.84-.479 1.958-.947 3.918-1.396 5.883-.74 3.239-2.788 8.321-2.29 11.625.401 2.661 4.223 4.181 6.13 5.945 3.948 3.653 6.748 8.713 6.949 14.155.218 5.907-2.817 11.24-6.177 15.857-3.276 4.503-6.616 8.797-9.067 13.836-2.559 5.262-4.238 10.96-5.363 16.691-1.064 5.416-1.748 11.787 1.004 16.836 2.575 4.723 7.711 6.973 12.716 8.164 5.239 1.247 11.429 1.963 16.708.677 5.401-1.316 9.63-5.147 13.348-9.087 7.911-8.385 14.707-17.863 20.462-27.838 4.409-7.641 8.162-15.637 11.213-23.904z"/></g><g fill="#4073c8"><path d="m426.007 256.323c.377-1.648.411-2.991.81-4.634.077-.316-1.026-.959-.948-1.275-12.725-4.295-26.356-6.624-40.53-6.624-3.689 0-7.339.167-10.948.476 17.742 1.519 34.436 6.702 49.333 14.778.068-.23 1.047-.376 1.111-.6.213-.739 1.028-1.493 1.172-2.121z"/><path d="m490.105 299.255c-.15.408-2.023.042-2.177.448-2.522 6.66-5.42 9.802-8.833 16.059-.21.385 1.213 4.878.999 5.261 6.444 15.187 10.011 31.891 10.011 49.429 0 23.565-6.441 45.623-17.65 64.519.437.601-1.049 2.34-.629 2.95 1.506 2.187 3.211 5.938 4.473 8.22 1.351 2.443 2.413 3.459 3.715 6.042.14.278 2.193-.577 2.331-.298 18.503-22.018 29.655-50.421 29.655-81.433 0-26.398-8.08-50.907-21.895-71.197z"/></g><path d="m480.095 321.022c3.89-6.993 7.242-14.267 10.01-21.768-15.376-22.582-37.86-39.937-64.237-48.84-.479 1.958-.947 3.918-1.396 5.883-.186.814-.454 1.744-.744 2.732 25.126 13.625 45.127 35.5 56.367 61.993z" fill="#95d6a4"/><g><g><g><g><path d="m304.991 103.555h-16.998c-4.268 0-7.726-3.459-7.726-7.726 0-4.268 3.459-7.726 7.726-7.726h16.998c4.268 0 7.726 3.459 7.726 7.726s-3.459 7.726-7.726 7.726z" fill="#2b4d66"/></g><g><path d="m358.166 103.555h-26.588c-4.268 0-7.726-3.459-7.726-7.726 0-4.268 3.459-7.726 7.726-7.726h26.588c4.268 0 7.726 3.459 7.726 7.726s-3.459 7.726-7.726 7.726z" fill="#2b4d66"/></g><g><path d="m401.752 120.553c-4.268 0-7.726-3.459-7.726-7.726v-9.272h-9.272c-4.268 0-7.726-3.459-7.726-7.726 0-4.268 3.459-7.726 7.726-7.726h16.998c4.268 0 7.726 3.459 7.726 7.726v16.998c.001 4.267-3.458 7.726-7.726 7.726z" fill="#2b4d66"/></g><g><path d="m401.752 172.769c-4.268 0-7.726-3.459-7.726-7.726v-26.109c0-4.268 3.459-7.726 7.726-7.726 4.268 0 7.726 3.459 7.726 7.726v26.109c.001 4.267-3.458 7.726-7.726 7.726z" fill="#2b4d66"/></g><g><path d="m401.752 215.876c-4.268 0-7.726-3.459-7.726-7.726v-16.998c0-4.268 3.459-7.726 7.726-7.726 4.268 0 7.726 3.459 7.726 7.726v16.998c.001 4.267-3.458 7.726-7.726 7.726z" fill="#2b4d66"/></g></g></g><g><g><g><path d="m110.248 278.791c-4.268 0-7.726-3.459-7.726-7.726v-16.998c0-4.268 3.459-7.726 7.726-7.726 4.268 0 7.726 3.459 7.726 7.726v16.998c0 4.268-3.458 7.726-7.726 7.726z" fill="#2b4d66"/></g><g><path d="m110.248 331.967c-4.268 0-7.726-3.459-7.726-7.726v-26.588c0-4.268 3.459-7.726 7.726-7.726 4.268 0 7.726 3.459 7.726 7.726v26.588c0 4.268-3.458 7.726-7.726 7.726z" fill="#2b4d66"/></g><g><path d="m127.246 375.554h-16.998c-4.268 0-7.726-3.459-7.726-7.726v-16.998c0-4.268 3.459-7.726 7.726-7.726 4.268 0 7.726 3.459 7.726 7.726v9.272h9.272c4.268 0 7.726 3.459 7.726 7.726s-3.458 7.726-7.726 7.726z" fill="#2b4d66"/></g><g><path d="m179.462 375.554h-26.109c-4.268 0-7.726-3.459-7.726-7.726s3.459-7.726 7.726-7.726h26.109c4.268 0 7.726 3.459 7.726 7.726s-3.458 7.726-7.726 7.726z" fill="#2b4d66"/></g><g><path d="m222.568 375.554h-16.998c-4.268 0-7.726-3.459-7.726-7.726s3.459-7.726 7.726-7.726h16.998c4.268 0 7.726 3.459 7.726 7.726s-3.458 7.726-7.726 7.726z" fill="#2b4d66"/></g></g></g></g><g><path d="m240.46 87.385h-209.271c-2.52 0-4.907-1.131-6.502-3.081l-22.788-27.848c-2.533-3.095-2.533-7.546 0-10.641l22.787-27.848c1.596-1.95 3.983-3.081 6.502-3.081h209.272c2.52 0 4.907 1.131 6.502 3.081l22.787 27.848c2.533 3.095 2.533 7.546 0 10.641l-22.787 27.848c-1.595 1.95-3.982 3.081-6.502 3.081z" fill="#365e7d"/><path d="m269.75 45.814-22.787-27.848c-1.596-1.95-3.983-3.081-6.502-3.081h-24.158c2.52 0 4.907 1.131 6.502 3.081l22.787 27.848c2.532 3.095 2.532 7.546 0 10.641l-22.787 27.848c-1.596 1.95-3.983 3.081-6.502 3.081h24.158c2.52 0 4.907-1.131 6.502-3.081l22.787-27.848c2.532-3.094 2.532-7.546 0-10.641z" fill="#2b4d66"/><path d="m240.46 187.749h-209.271c-2.52 0-4.907-1.131-6.502-3.081l-22.788-27.848c-2.533-3.095-2.533-7.546 0-10.641l22.787-27.848c1.596-1.95 3.983-3.081 6.502-3.081h209.272c2.52 0 4.907 1.131 6.502 3.081l22.787 27.848c2.533 3.095 2.533 7.546 0 10.641l-22.787 27.848c-1.595 1.95-3.982 3.081-6.502 3.081z" fill="#365e7d"/><path d="m269.75 146.179-22.787-27.848c-1.596-1.95-3.983-3.081-6.502-3.081h-24.158c2.52 0 4.907 1.131 6.502 3.081l22.787 27.848c2.532 3.095 2.532 7.546 0 10.641l-22.787 27.848c-1.596 1.95-3.983 3.081-6.502 3.081h24.158c2.52 0 4.907-1.131 6.502-3.081l22.787-27.848c2.532-3.095 2.532-7.546 0-10.641z" fill="#2b4d66"/><path d="m41.54 87.385h188.568v27.865h-188.568z" fill="#d0e2e7"/><path d="m223.141 215.614h-174.633c-3.848 0-6.968-3.12-6.968-6.968v-20.897h188.568v20.897c.001 3.848-3.119 6.968-6.967 6.968z" fill="#d0e2e7"/><g><g><path d="m61.323 58.862h-7.044c-4.268 0-7.726-3.459-7.726-7.726s3.459-7.726 7.726-7.726h7.044c4.268 0 7.726 3.459 7.726 7.726s-3.459 7.726-7.726 7.726z" fill="#95d6a4"/></g><g><path d="m93.963 58.862h-7.044c-4.268 0-7.726-3.459-7.726-7.726s3.459-7.726 7.726-7.726h7.044c4.268 0 7.726 3.459 7.726 7.726s-3.458 7.726-7.726 7.726z" fill="#95d6a4"/></g><g><path d="m126.604 58.862h-7.044c-4.268 0-7.726-3.459-7.726-7.726s3.459-7.726 7.726-7.726h7.044c4.268 0 7.726 3.459 7.726 7.726s-3.458 7.726-7.726 7.726z" fill="#95d6a4"/></g><g><path d="m161.653 95.111c-4.268 0-7.726-3.459-7.726-7.726v-16.4c0-4.268 3.459-7.726 7.726-7.726s7.726 3.459 7.726 7.726v16.399c0 4.268-3.459 7.727-7.726 7.727z" fill="#95d6a4"/></g><g><path d="m189.512 95.111c-4.268 0-7.726-3.459-7.726-7.726v-16.4c0-4.268 3.459-7.726 7.726-7.726 4.268 0 7.726 3.459 7.726 7.726v16.399c0 4.268-3.459 7.727-7.726 7.727z" fill="#95d6a4"/></g><g><path d="m217.371 95.111c-4.268 0-7.726-3.459-7.726-7.726v-16.4c0-4.268 3.459-7.726 7.726-7.726s7.726 3.459 7.726 7.726v16.399c0 4.268-3.459 7.727-7.726 7.727z" fill="#95d6a4"/></g></g><g><g><path d="m61.323 159.226h-7.044c-4.268 0-7.726-3.459-7.726-7.726s3.459-7.726 7.726-7.726h7.044c4.268 0 7.726 3.459 7.726 7.726s-3.459 7.726-7.726 7.726z" fill="#95d6a4"/></g><g><path d="m93.963 159.226h-7.044c-4.268 0-7.726-3.459-7.726-7.726s3.459-7.726 7.726-7.726h7.044c4.268 0 7.726 3.459 7.726 7.726s-3.458 7.726-7.726 7.726z" fill="#95d6a4"/></g><g><path d="m126.604 159.226h-7.044c-4.268 0-7.726-3.459-7.726-7.726s3.459-7.726 7.726-7.726h7.044c4.268 0 7.726 3.459 7.726 7.726s-3.458 7.726-7.726 7.726z" fill="#95d6a4"/></g><g><path d="m161.653 195.475c-4.268 0-7.726-3.459-7.726-7.726v-16.399c0-4.268 3.459-7.726 7.726-7.726s7.726 3.459 7.726 7.726v16.399c0 4.268-3.459 7.726-7.726 7.726z" fill="#95d6a4"/></g><g><path d="m189.512 195.475c-4.268 0-7.726-3.459-7.726-7.726v-16.399c0-4.268 3.459-7.726 7.726-7.726 4.268 0 7.726 3.459 7.726 7.726v16.399c0 4.268-3.459 7.726-7.726 7.726z" fill="#95d6a4"/></g><g><path d="m217.371 195.475c-4.268 0-7.726-3.459-7.726-7.726v-16.399c0-4.268 3.459-7.726 7.726-7.726s7.726 3.459 7.726 7.726v16.399c0 4.268-3.459 7.726-7.726 7.726z" fill="#95d6a4"/></g></g></g><path d="m472.454 434.971c-20.312 34.245-56.294 58.094-98.071 61.669 3.611.31 7.263.475 10.955.475 38.942 0 73.773-17.579 97.008-45.229-1.424-2.874-2.946-5.68-4.443-8.385-1.614-2.92-3.446-5.773-5.449-8.53z" fill="#95d6a4"/></g></svg>