<svg id="Capa_1" enable-background="new 0 0 512 512" height="512" viewBox="0 0 512 512" width="512" xmlns="http://www.w3.org/2000/svg"><g><g><path d="m186.397 75.896h-91.038c-4.204 0-7.611-3.407-7.611-7.612s3.407-7.611 7.611-7.611h91.039c4.204 0 7.611 3.407 7.611 7.611s-3.408 7.612-7.612 7.612z" fill="#e278b1"/></g><g><path d="m416.642 75.896h-91.039c-4.204 0-7.611-3.407-7.611-7.612s3.407-7.611 7.611-7.611h91.039c4.204 0 7.611 3.407 7.611 7.611s-3.407 7.612-7.611 7.612z" fill="#e278b1"/></g><path d="m294.231 441.696-13.886-15.625h-53.661l-8.915 15.625c4.946 24.6-9.076 50.548-26.504 62.693h129.469c-17.427-12.146-31.449-38.093-26.503-62.693z" fill="#365e7d"/><path d="m218.184 460.016h75.633c-.869-6.035-.812-12.219.414-18.32l-13.886-15.625h-53.661l-8.915 15.625c1.227 6.101 1.284 12.284.415 18.32z" fill="#2b4d66"/><g><path d="m351.925 512h-191.85c-4.204 0-7.611-3.407-7.611-7.611s3.407-7.612 7.611-7.612h191.85c4.204 0 7.611 3.407 7.611 7.612s-3.406 7.611-7.611 7.611z" fill="#2b4d66"/></g><g><path d="m256 487.172c-4.204 0-7.611-3.407-7.611-7.612v-7.666c0-4.204 3.407-7.611 7.611-7.611s7.611 3.407 7.611 7.611v7.666c0 4.204-3.407 7.612-7.611 7.612z" fill="#2b4d66"/></g><path d="m450.141 380.153-19.558-15.625h-354.288l-14.436 15.625v34.384c0 14.999 12.159 27.158 27.158 27.158h333.965c14.999 0 27.158-12.159 27.158-27.158v-34.384z" fill="#d0e2e7"/><path d="m430.583 364.528v50.009c0 14.999-12.159 27.158-27.158 27.158h19.558c14.999 0 27.158-12.159 27.158-27.158v-34.384z" fill="#b4d0d5"/><g><path d="m269.784 418.536h-27.567c-4.204 0-7.611-3.407-7.611-7.612s3.407-7.611 7.611-7.611h27.567c4.204 0 7.611 3.407 7.611 7.611s-3.407 7.612-7.611 7.612z" fill="#95d6a4"/></g><path d="m450.141 380.153h-388.282v-209.975c0-14.999 12.159-27.158 27.158-27.158h333.965c14.999 0 27.158 12.159 27.158 27.158v209.975z" fill="#365e7d"/><path d="m422.982 143.02h-19.558c14.999 0 27.158 12.159 27.158 27.158v209.975h19.558v-209.975c.001-14.999-12.158-27.158-27.158-27.158z" fill="#2b4d66"/><path d="m96.274 349.707c-2.191 0-3.968-1.777-3.968-3.968v-168.305c0-2.191 1.777-3.968 3.968-3.968h319.453c2.191 0 3.968 1.777 3.968 3.968v168.305c0 2.191-1.777 3.968-3.968 3.968z" fill="#f6f9f9"/><path d="m415.726 173.466h-21.523c2.191 0 3.968 1.777 3.968 3.968v168.305c0 2.192-1.777 3.968-3.968 3.968h21.523c2.192 0 3.968-1.776 3.968-3.968v-168.305c0-2.191-1.776-3.968-3.968-3.968z" fill="#dfeaef"/><path d="m77.582 84.402-18.77-12.881c-2.272-1.559-2.272-4.912 0-6.471l18.77-12.881c1.338-.918 3.103-.918 4.441 0l23.484 16.117-23.484 16.116c-1.338.919-3.103.919-4.441 0z" fill="#e278b1"/><path d="m434.418 84.402 18.77-12.881c2.272-1.559 2.272-4.912 0-6.471l-18.77-12.881c-1.338-.918-3.103-.918-4.441 0l-23.484 16.117 23.484 16.117c1.338.918 3.103.918 4.441-.001z" fill="#e278b1"/><g><path d="m256 228.273c-4.204 0-7.611-3.407-7.611-7.611v-129.62c0-4.204 3.407-7.611 7.611-7.611s7.611 3.407 7.611 7.611v129.619c0 4.204-3.407 7.612-7.611 7.612z" fill="#2b4d66"/></g><path d="m268.002 319.1c23.526-13.583 38.018-38.684 38.018-65.849v-12.218c0-1.015-.542-1.954-1.421-2.462l-47.178-27.238c-.879-.508-1.963-.508-2.842 0l-47.178 27.238c-.879.508-1.421 1.446-1.421 2.462v12.218c0 27.165 14.492 52.267 38.018 65.849l10.581 6.109c.879.508 1.963.508 2.842 0z" fill="#b3e59f"/><path d="m257.421 211.333c-.879-.508-1.963-.508-2.842 0l-20.118 11.615 36.965 21.341c4.486 2.59 7.25 7.377 7.25 12.558v5.487c0 23.594-10.938 45.627-29.226 59.913l5.13 2.962c.879.508 1.963.508 2.842 0l10.581-6.109c23.526-13.583 38.018-38.684 38.018-65.85v-12.218c0-1.015-.542-1.954-1.421-2.462z" fill="#95d6a4"/><path d="m252.102 0c16.39 0 30.626 9.393 37.609 23.078 1.016 1.992 3.103 3.203 5.336 3.071 21.303-1.255 39.601 15.734 39.706 37.306.101 20.754-17.307 37.734-38.062 37.734h-86.098c-18.195 0-33.275-14.581-33.345-32.776-.065-16.714 12.513-30.973 29.275-32.83 2.307-.256 4.192-1.932 4.785-4.176 4.775-18.057 21.255-31.407 40.794-31.407z" fill="#b1e4f9"/><g><path d="m295.047 26.15c-2.232.132-4.319-1.079-5.336-3.071-6.983-13.686-21.219-23.079-37.609-23.079-15.898 0-29.768 8.838-36.959 21.858 6.702-4.486 14.752-7.108 23.405-7.108 16.39 0 30.626 9.393 37.609 23.078 1.016 1.992 3.103 3.203 5.336 3.071 21.303-1.255 39.601 15.734 39.706 37.306.03 6.119-1.472 11.905-4.124 17.029 10.601-6.722 17.743-18.47 17.678-31.779-.105-21.571-18.403-38.56-39.706-37.305z" fill="#90d8f9"/></g></g></svg>