<svg id="Capa_1" enable-background="new 0 0 512 512" height="512" viewBox="0 0 512 512" width="512" xmlns="http://www.w3.org/2000/svg"><g><path d="m206.329 31.576c45.178 0 84.418 25.89 103.665 63.613 2.801 5.491 8.554 8.829 14.707 8.466 58.72-3.46 109.156 43.368 109.445 102.831.278 57.207-47.706 104.01-104.913 104.01h-237.32c-50.153 0-91.718-40.192-91.913-90.344-.179-46.07 34.491-85.374 80.692-90.491 6.36-.704 11.554-5.325 13.19-11.511 13.166-49.777 58.589-86.574 112.447-86.574z" fill="#b1e4f9"/><g><path d="m328.076 103.511c-8.252.218-15.824-4.342-19.806-11.573-19.803-35.952-58.073-60.362-101.941-60.362-38.689 0-73.004 19.005-94.157 48.153 19.147-13.864 42.661-22.051 68.055-22.051 42.723 0 80.136 23.153 100.353 57.571 5.235 8.913 14.891 14.224 25.227 14.334 55.748.593 102.239 46.263 102.239 103.519 0 21.88-6.844 42.182-18.477 58.917 26.913-18.708 44.578-49.832 44.578-85.019.001-58.563-48.638-105.005-106.071-103.489z" fill="#90d8f9"/></g><path d="m501.034 380.736h-148.84c-6.056 0-10.966-4.909-10.966-10.966v-201.892c0-6.056 4.909-10.966 10.966-10.966h148.84c6.056 0 10.966 4.909 10.966 10.966v201.892c0 6.056-4.909 10.966-10.966 10.966z" fill="#f6f9f9"/><path d="m501.034 156.912h-23.358c6.056 0 10.966 4.909 10.966 10.966v201.892c0 6.056-4.909 10.966-10.966 10.966h23.358c6.056 0 10.966-4.909 10.966-10.966v-201.892c0-6.056-4.909-10.966-10.966-10.966z" fill="#dfeaef"/><g><g><path d="m458.868 198.435h-64.506c-4.268 0-7.726-3.459-7.726-7.726s3.459-7.726 7.726-7.726h64.506c4.268 0 7.726 3.459 7.726 7.726s-3.459 7.726-7.726 7.726z" fill="#2b4d66"/></g><g><path d="m458.868 229.471h-64.506c-4.268 0-7.726-3.459-7.726-7.726s3.459-7.726 7.726-7.726h64.506c4.268 0 7.726 3.459 7.726 7.726s-3.459 7.726-7.726 7.726z" fill="#2b4d66"/></g><g><path d="m458.868 260.507h-64.506c-4.268 0-7.726-3.459-7.726-7.726 0-4.268 3.459-7.726 7.726-7.726h64.506c4.268 0 7.726 3.459 7.726 7.726s-3.459 7.726-7.726 7.726z" fill="#2b4d66"/></g><g><path d="m458.868 291.543h-64.506c-4.268 0-7.726-3.459-7.726-7.726 0-4.268 3.459-7.726 7.726-7.726h64.506c4.268 0 7.726 3.459 7.726 7.726 0 4.268-3.459 7.726-7.726 7.726z" fill="#2b4d66"/></g></g><path d="m456.007 367.697v98.369c0 7.93-6.429 14.359-14.359 14.359h-30.068c-7.93 0-14.359-6.429-14.359-14.359v-98.369c0-3.682-2.985-6.668-6.668-6.668h-9.412c-5.922 0-8.905-7.145-4.741-11.356l38.952-39.39c6.199-6.269 16.324-6.269 22.523 0l38.952 39.39c4.164 4.211 1.181 11.356-4.741 11.356h-9.412c-3.682 0-6.667 2.985-6.667 6.668z" fill="#e278b1"/><path d="m472.087 361.029h-9.412c-3.682 0-6.668 2.985-6.668 6.668v98.369c0 7.93-6.428 14.358-14.358 14.358h-30.068c-.369 0-.731-.028-1.093-.055 7.418-.56 13.266-6.742 13.266-14.303v-95.597c0-5.214 4.226-9.44 9.44-9.44 8.385 0 12.608-10.116 6.712-16.077l-29.418-29.749 4.865-4.919c6.199-6.269 16.324-6.269 22.524 0l38.952 39.39c4.163 4.21 1.18 11.355-4.742 11.355z" fill="#dd5ca2"/></g></svg>