<svg id="Capa_1" enable-background="new 0 0 512 512" height="512" viewBox="0 0 512 512" width="512" xmlns="http://www.w3.org/2000/svg"><g><path d="m427.13 512h-342.26c-6.009 0-10.88-4.871-10.88-10.88v-457.177c0-6.009 4.871-10.88 10.88-10.88h342.26c6.009 0 10.88 4.871 10.88 10.88v457.177c.001 6.009-4.871 10.88-10.88 10.88z" fill="#365e7d"/><path d="m427.13 33.062h-25.622c6.009 0 10.88 4.871 10.88 10.88v457.178c0 6.009-4.871 10.88-10.88 10.88h25.622c6.009 0 10.88-4.871 10.88-10.88v-457.177c.001-6.009-4.871-10.881-10.88-10.881z" fill="#2b4d66"/><path d="m393.472 33.062h-118.534l10.785-23.55c2.654-5.796 8.444-9.512 14.819-9.512h67.327c6.375 0 12.164 3.716 14.818 9.512z" fill="#e278b1"/><path d="m398.717 240.773h-285.434c-2.623 0-4.749-2.126-4.749-4.749v-78.14c0-2.623 2.126-4.749 4.749-4.749h285.434c2.623 0 4.749 2.126 4.749 4.749v78.14c0 2.623-2.126 4.749-4.749 4.749z" fill="#f6f9f9"/><path d="m398.717 153.135h-19.871c2.623 0 4.749 2.126 4.749 4.749v78.14c0 2.623-2.126 4.749-4.749 4.749h19.871c2.623 0 4.749-2.126 4.749-4.749v-78.14c0-2.622-2.126-4.749-4.749-4.749z" fill="#dfeaef"/><path d="m173.441 216.242h-33.022c-1.978 0-3.581-1.603-3.581-3.581v-31.413c0-1.978 1.603-3.581 3.581-3.581h33.022c1.978 0 3.581 1.603 3.581 3.581v31.413c0 1.978-1.604 3.581-3.581 3.581z" fill="#b1e4f9"/><g><g><path d="m217.697 192.485h-12.971c-4.268 0-7.726-3.459-7.726-7.726s3.459-7.726 7.726-7.726h12.971c4.268 0 7.726 3.459 7.726 7.726s-3.459 7.726-7.726 7.726z" fill="#e278b1"/></g><g><path d="m217.697 216.876h-12.971c-4.268 0-7.726-3.459-7.726-7.726 0-4.268 3.459-7.726 7.726-7.726h12.971c4.268 0 7.726 3.459 7.726 7.726s-3.459 7.726-7.726 7.726z" fill="#95d6a4"/></g></g><g><g><path d="m375.163 192.485h-104.35c-4.268 0-7.726-3.459-7.726-7.726s3.459-7.726 7.726-7.726h104.35c4.268 0 7.726 3.459 7.726 7.726s-3.459 7.726-7.726 7.726z" fill="#95d6a4"/></g><g><path d="m375.163 216.876h-104.35c-4.268 0-7.726-3.459-7.726-7.726 0-4.268 3.459-7.726 7.726-7.726h104.35c4.268 0 7.726 3.459 7.726 7.726s-3.459 7.726-7.726 7.726z" fill="#95d6a4"/></g></g><path d="m398.717 358.7h-285.434c-2.623 0-4.749-2.126-4.749-4.749v-78.14c0-2.623 2.126-4.749 4.749-4.749h285.434c2.623 0 4.749 2.126 4.749 4.749v78.14c0 2.623-2.126 4.749-4.749 4.749z" fill="#f6f9f9"/><path d="m398.717 271.063h-19.871c2.623 0 4.749 2.126 4.749 4.749v78.14c0 2.623-2.126 4.749-4.749 4.749h19.871c2.623 0 4.749-2.126 4.749-4.749v-78.14c0-2.623-2.126-4.749-4.749-4.749z" fill="#dfeaef"/><path d="m173.441 334.169h-33.022c-1.978 0-3.581-1.603-3.581-3.581v-31.413c0-1.978 1.603-3.581 3.581-3.581h33.022c1.978 0 3.581 1.603 3.581 3.581v31.413c0 1.978-1.604 3.581-3.581 3.581z" fill="#e278b1"/><g><g><path d="m217.697 310.411h-12.971c-4.268 0-7.726-3.459-7.726-7.726s3.459-7.726 7.726-7.726h12.971c4.268 0 7.726 3.459 7.726 7.726s-3.459 7.726-7.726 7.726z" fill="#e278b1"/></g><g><path d="m217.697 334.804h-12.971c-4.268 0-7.726-3.459-7.726-7.726s3.459-7.726 7.726-7.726h12.971c4.268 0 7.726 3.459 7.726 7.726s-3.459 7.726-7.726 7.726z" fill="#95d6a4"/></g></g><g><g><path d="m375.163 310.411h-104.35c-4.268 0-7.726-3.459-7.726-7.726s3.459-7.726 7.726-7.726h104.35c4.268 0 7.726 3.459 7.726 7.726s-3.459 7.726-7.726 7.726z" fill="#95d6a4"/></g><g><path d="m375.163 334.804h-104.35c-4.268 0-7.726-3.459-7.726-7.726s3.459-7.726 7.726-7.726h104.35c4.268 0 7.726 3.459 7.726 7.726s-3.459 7.726-7.726 7.726z" fill="#95d6a4"/></g></g><path d="m398.717 476.627h-285.434c-2.623 0-4.749-2.126-4.749-4.749v-78.14c0-2.623 2.126-4.749 4.749-4.749h285.434c2.623 0 4.749 2.126 4.749 4.749v78.14c0 2.623-2.126 4.749-4.749 4.749z" fill="#f6f9f9"/><path d="m398.717 388.99h-19.871c2.623 0 4.749 2.126 4.749 4.749v78.14c0 2.623-2.126 4.749-4.749 4.749h19.871c2.623 0 4.749-2.126 4.749-4.749v-78.14c0-2.623-2.126-4.749-4.749-4.749z" fill="#dfeaef"/><path d="m173.441 452.096h-33.022c-1.978 0-3.581-1.603-3.581-3.581v-31.413c0-1.978 1.603-3.581 3.581-3.581h33.022c1.978 0 3.581 1.603 3.581 3.581v31.413c0 1.978-1.604 3.581-3.581 3.581z" fill="#b1e4f9"/><g><g><path d="m217.697 428.339h-12.971c-4.268 0-7.726-3.459-7.726-7.726 0-4.268 3.459-7.726 7.726-7.726h12.971c4.268 0 7.726 3.459 7.726 7.726s-3.459 7.726-7.726 7.726z" fill="#e278b1"/></g><g><path d="m217.697 452.73h-12.971c-4.268 0-7.726-3.459-7.726-7.726s3.459-7.726 7.726-7.726h12.971c4.268 0 7.726 3.459 7.726 7.726s-3.459 7.726-7.726 7.726z" fill="#95d6a4"/></g></g><g><g><path d="m375.163 428.339h-104.35c-4.268 0-7.726-3.459-7.726-7.726 0-4.268 3.459-7.726 7.726-7.726h104.35c4.268 0 7.726 3.459 7.726 7.726s-3.459 7.726-7.726 7.726z" fill="#95d6a4"/></g><g><path d="m375.163 452.73h-104.35c-4.268 0-7.726-3.459-7.726-7.726s3.459-7.726 7.726-7.726h104.35c4.268 0 7.726 3.459 7.726 7.726s-3.459 7.726-7.726 7.726z" fill="#95d6a4"/></g></g><g><g><path d="m361.538 71.913h-211.076c-4.268 0-7.726-3.459-7.726-7.726s3.459-7.726 7.726-7.726h211.075c4.268 0 7.726 3.459 7.726 7.726s-3.458 7.726-7.725 7.726z" fill="#2b4d66"/></g><g><path d="m344.084 100.629h-176.169c-4.268 0-7.726-3.459-7.726-7.726 0-4.268 3.459-7.726 7.726-7.726h176.169c4.268 0 7.726 3.459 7.726 7.726s-3.458 7.726-7.726 7.726z" fill="#2b4d66"/></g><g><path d="m310.761 129.345h-109.523c-4.268 0-7.726-3.459-7.726-7.726 0-4.268 3.459-7.726 7.726-7.726h109.523c4.268 0 7.726 3.459 7.726 7.726.001 4.267-3.458 7.726-7.726 7.726z" fill="#2b4d66"/></g></g></g></svg>