<svg id="Capa_1" enable-background="new 0 0 512 512" height="512" viewBox="0 0 512 512" width="512" xmlns="http://www.w3.org/2000/svg"><g><path d="m151.214 213.829-9.036-10.168h-34.919l-5.801 10.168c2.493 12.4-2.42 25.326-10.032 34.196-2.225 2.593-.357 6.6 3.06 6.6h63.701c3.417 0 5.285-4.007 3.06-6.6-7.613-8.87-12.526-21.796-10.033-34.196z" fill="#2b4d66"/><path d="m252.671 160.507-12.727-10.168h-230.55l-9.394 10.168v35.649c0 9.761 7.912 17.673 17.673 17.673h217.325c9.761 0 17.673-7.912 17.673-17.673z" fill="#d0e2e7"/><path d="m239.943 150.339h-27.693l12.727 10.168v35.649c0 9.761-7.912 17.673-17.673 17.673h27.693c9.76 0 17.673-7.912 17.673-17.673v-35.649z" fill="#b4d0d5"/><path d="m252.671 160.507h-252.671v-123.366c0-9.761 7.912-17.673 17.673-17.673h217.325c9.761 0 17.673 7.912 17.673 17.673z" fill="#f6f9f9"/><path d="m234.998 19.468h-27.693c9.761 0 17.673 7.912 17.673 17.673v123.365h27.693v-123.365c0-9.76-7.913-17.673-17.673-17.673z" fill="#dfeaef"/><path d="m501.698 365.869c0 69.954-46.407 126.662-116.361 126.662s-126.662-56.709-126.662-126.662 56.709-126.662 126.662-126.662 116.361 56.708 116.361 126.662z" fill="#698ed5"/><path d="m258.675 365.869c0 40.561 19.067 76.666 48.725 99.848 10.902-5.259 19.797-14.122 22.126-26.602 1.842-9.869.093-20.039.527-29.994.202-4.634.58-9.693 2.625-13.923 1.733-3.585 4.795-5.897 7.962-8.143 7.785-5.522 17.879-10.546 23.245-18.696 4.838-7.347 6.078-16.483 6.811-25.06.83-9.708 1.193-19.41-3.802-28.139-4.288-7.495-10.56-13.677-14.486-21.399-8.724-17.16-2.17-35.322 5.421-51.55-56.725 12.563-99.154 63.152-99.154 123.658z" fill="#b3e59f"/><path d="m385.338 492.531c38.942 0 73.773-17.579 97.008-45.229-1.424-2.874-2.946-5.68-4.443-8.385-7.481-13.527-19.387-25.764-33.381-32.591-12.738-6.214-27.321-4.547-37.741 5.296-4.903 4.631-7.967 10.341-9.394 16.901-1.467 6.741-2.508 13.837-8.456 18.207-5.656 4.155-11.103 3.07-16.315-.964-6.821-5.28-13.75 1.987-17.641 7.339-5.498 7.562-11.167 21.179-14.896 31.092 14.056 5.379 29.311 8.334 45.259 8.334z" fill="#b3e59f"/><path d="m472.454 430.387c-20.312 34.245-56.294 58.094-98.071 61.669 3.611.31 7.263.475 10.955.475 38.942 0 73.773-17.579 97.008-45.229-1.424-2.874-2.946-5.68-4.443-8.385-1.614-2.919-3.446-5.772-5.449-8.53z" fill="#95d6a4"/><path d="m490.105 294.671c-15.376-22.583-37.86-39.937-64.237-48.84-.479 1.958-.947 3.918-1.396 5.883-.74 3.239-2.788 8.321-2.29 11.625.401 2.661 4.223 4.181 6.13 5.945 3.948 3.653 6.748 8.713 6.949 14.155.218 5.907-2.817 11.24-6.177 15.857-3.276 4.503-6.616 8.797-9.067 13.836-2.559 5.262-4.238 10.96-5.363 16.691-1.064 5.416-1.748 11.787 1.004 16.836 2.575 4.723 7.711 6.973 12.716 8.164 5.239 1.247 11.429 1.963 16.708.677 5.401-1.316 9.63-5.147 13.348-9.087 7.911-8.385 14.707-17.863 20.462-27.838 4.409-7.642 8.163-15.637 11.213-23.904z" fill="#b3e59f"/><path d="m480.095 316.439c.367-.659 2.381-1.143 2.744-1.767 3.334-5.731 4.828-10.3 7.265-16.783.111-.294-.109-2.923 0-3.218-15.376-22.583-37.86-39.937-64.237-48.84-.479 1.958-.947 3.918-1.396 5.883-.186.814-.454 1.744-.744 2.732 25.128 13.624 45.128 35.5 56.368 61.993z" fill="#95d6a4"/><g fill="#4073c8"><path d="m424.472 251.714c.449-1.965.918-3.925 1.396-5.883-12.725-4.295-26.356-6.624-40.53-6.624-3.689 0-7.339.167-10.948.476 17.742 1.519 34.436 6.702 49.333 14.778.291-.994.562-1.929.749-2.747z"/><path d="m490.105 294.671c-2.768 7.501-6.12 14.776-10.011 21.769 6.444 15.187 10.011 31.891 10.011 49.429 0 23.565-6.441 45.623-17.65 64.519 2.003 2.757 3.835 5.61 5.449 8.529 1.496 2.706 3.018 5.511 4.442 8.385 18.503-22.018 29.654-50.421 29.654-81.433 0-26.398-8.079-50.908-21.895-71.198z"/></g><g><path d="m123.856 57.81c10.424 0 19.478 5.973 23.918 14.677.646 1.267 1.974 2.037 3.393 1.953 13.548-.798 25.185 10.006 25.252 23.726.064 13.199-11.007 23.998-24.206 23.998h-54.756c-11.572 0-21.162-9.273-21.207-20.845-.041-10.63 7.958-19.698 18.618-20.879 1.467-.163 2.666-1.229 3.043-2.656 3.038-11.483 13.519-19.974 25.945-19.974z" fill="#b1e4f9"/></g><g><g><g><g><path d="m304.991 98.971h-16.998c-4.268 0-7.726-3.459-7.726-7.726 0-4.268 3.459-7.726 7.726-7.726h16.998c4.268 0 7.726 3.459 7.726 7.726 0 4.268-3.459 7.726-7.726 7.726z" fill="#2b4d66"/></g><g><path d="m358.166 98.971h-26.588c-4.268 0-7.726-3.459-7.726-7.726 0-4.268 3.459-7.726 7.726-7.726h26.588c4.268 0 7.726 3.459 7.726 7.726 0 4.268-3.459 7.726-7.726 7.726z" fill="#2b4d66"/></g><g><path d="m401.752 115.969c-4.268 0-7.726-3.459-7.726-7.726v-9.272h-9.272c-4.268 0-7.726-3.459-7.726-7.726 0-4.268 3.459-7.726 7.726-7.726h16.998c4.268 0 7.726 3.459 7.726 7.726v16.998c.001 4.268-3.458 7.726-7.726 7.726z" fill="#2b4d66"/></g><g><path d="m401.752 168.186c-4.268 0-7.726-3.459-7.726-7.726v-26.109c0-4.268 3.459-7.726 7.726-7.726s7.726 3.459 7.726 7.726v26.109c.001 4.267-3.458 7.726-7.726 7.726z" fill="#2b4d66"/></g><g><path d="m401.752 211.292c-4.268 0-7.726-3.459-7.726-7.726v-16.998c0-4.268 3.459-7.726 7.726-7.726s7.726 3.459 7.726 7.726v16.998c.001 4.268-3.458 7.726-7.726 7.726z" fill="#2b4d66"/></g></g></g><g><g><g><path d="m110.248 315.415c-4.268 0-7.726-3.459-7.726-7.726v-16.998c0-4.268 3.459-7.726 7.726-7.726s7.726 3.459 7.726 7.726v16.998c.001 4.267-3.458 7.726-7.726 7.726z" fill="#2b4d66"/></g><g><path d="m110.248 368.591c-4.268 0-7.726-3.459-7.726-7.726v-26.588c0-4.268 3.459-7.726 7.726-7.726s7.726 3.459 7.726 7.726v26.588c.001 4.267-3.458 7.726-7.726 7.726z" fill="#2b4d66"/></g><g><path d="m127.246 412.178h-16.998c-4.268 0-7.726-3.459-7.726-7.726v-16.998c0-4.268 3.459-7.726 7.726-7.726s7.726 3.459 7.726 7.726v9.272h9.272c4.268 0 7.726 3.459 7.726 7.726.001 4.267-3.458 7.726-7.726 7.726z" fill="#2b4d66"/></g><g><path d="m179.462 412.178h-26.109c-4.268 0-7.726-3.459-7.726-7.726 0-4.268 3.459-7.726 7.726-7.726h26.109c4.268 0 7.726 3.459 7.726 7.726.001 4.267-3.458 7.726-7.726 7.726z" fill="#2b4d66"/></g><g><path d="m222.568 412.178h-16.998c-4.268 0-7.726-3.459-7.726-7.726 0-4.268 3.459-7.726 7.726-7.726h16.998c4.268 0 7.726 3.459 7.726 7.726s-3.458 7.726-7.726 7.726z" fill="#2b4d66"/></g></g></g></g></g></svg>