<svg id="Capa_1" enable-background="new 0 0 512 512" height="512" viewBox="0 0 512 512" width="512" xmlns="http://www.w3.org/2000/svg"><g><g><path d="m256 388.439c-4.267 0-7.726-3.459-7.726-7.726v-143.442c0-4.268 3.459-7.726 7.726-7.726s7.727 3.459 7.727 7.726v143.442c0 4.267-3.46 7.726-7.727 7.726z" fill="#2b4d66"/></g><g><path d="m443.432 388.439c-4.268 0-7.726-3.459-7.726-7.726v-47.256c0-6.536-5.318-11.854-11.855-11.854h-335.702c-6.537 0-11.855 5.318-11.855 11.854v47.256c0 4.268-3.459 7.726-7.726 7.726s-7.726-3.459-7.726-7.726v-47.256c0-15.057 12.25-27.307 27.308-27.307h335.702c15.057 0 27.308 12.25 27.308 27.307v47.256c-.001 4.267-3.46 7.726-7.728 7.726z" fill="#2b4d66"/></g><path d="m231.777 36.27c-3.704 0-7.265-1.429-9.941-3.99l-29.566-28.29c-2.676-2.561-6.237-3.99-9.941-3.99h-92.391c-7.941 0-14.379 6.438-14.379 14.379v229.117c0 7.941 6.438 14.379 14.379 14.379h332.124c7.941 0 14.379-6.438 14.379-14.379v-192.847c0-7.941-6.438-14.379-14.379-14.379z" fill="#ffe07d"/><g fill="#ffd064"><path d="m191.689 32.28c2.676 2.561 6.237 3.99 9.941 3.99h30.147c-3.704 0-7.265-1.429-9.941-3.99l-29.566-28.29c-2.676-2.561-6.237-3.99-9.941-3.99h-30.147c3.704 0 7.265 1.429 9.941 3.99z"/><path d="m422.062 36.27h-30.147c7.941 0 14.379 6.438 14.379 14.379v192.847c0 7.941-6.438 14.379-14.379 14.379h30.147c7.941 0 14.379-6.438 14.379-14.379v-192.847c0-7.942-6.437-14.379-14.379-14.379z"/></g><path d="m63.523 426.893-12.839-12.285c-1.162-1.112-2.709-1.733-4.317-1.733h-40.123c-3.449 0-6.244 2.796-6.244 6.244v86.637c0 3.448 2.796 6.244 6.244 6.244h126.716c3.449 0 6.244-2.796 6.244-6.244v-70.886c0-3.449-2.796-6.244-6.244-6.244h-65.12c-1.609-.001-3.155-.621-4.317-1.733z" fill="#ffe07d"/><path d="m132.96 428.625h-23.383c3.449 0 6.244 2.796 6.244 6.244v70.886c0 3.449-2.796 6.244-6.244 6.244h23.383c3.449 0 6.244-2.796 6.244-6.244v-70.885c.001-3.449-2.795-6.245-6.244-6.245z" fill="#ffd064"/><path d="m249.92 426.893-12.839-12.285c-1.162-1.112-2.709-1.733-4.317-1.733h-40.122c-3.449 0-6.244 2.796-6.244 6.244v86.637c0 3.449 2.796 6.244 6.244 6.244h126.716c3.449 0 6.244-2.796 6.244-6.244v-70.886c0-3.449-2.796-6.244-6.244-6.244h-65.121c-1.608-.001-3.155-.621-4.317-1.733z" fill="#ffe07d"/><path d="m319.358 428.625h-23.383c3.449 0 6.244 2.796 6.244 6.244v70.886c0 3.449-2.796 6.244-6.244 6.244h23.383c3.449 0 6.244-2.796 6.244-6.244v-70.885c0-3.449-2.795-6.245-6.244-6.245z" fill="#ffd064"/><path d="m436.318 426.893-12.839-12.285c-1.162-1.112-2.709-1.733-4.317-1.733h-40.122c-3.449 0-6.244 2.796-6.244 6.244v86.637c0 3.449 2.796 6.244 6.244 6.244h126.716c3.449 0 6.244-2.796 6.244-6.244v-70.886c0-3.449-2.796-6.244-6.244-6.244h-65.121c-1.608-.001-3.155-.621-4.317-1.733z" fill="#ffe07d"/><path d="m505.756 428.625h-23.383c3.449 0 6.244 2.796 6.244 6.244v70.886c0 3.449-2.796 6.244-6.244 6.244h23.383c3.449 0 6.244-2.796 6.244-6.244v-70.885c0-3.449-2.796-6.245-6.244-6.245z" fill="#ffd064"/><path d="m251.369 79.136c20.101 0 37.475 11.893 45.456 29.012.685 1.468 2.22 2.344 3.833 2.187 26.11-2.546 48.894 18.09 48.894 44.403 0 24.594-20.009 44.604-44.604 44.604h-103.41c-21.554 0-39.089-17.535-39.089-39.089 0-20.37 15.806-37.635 36.54-39.002 1.691-.111 3.102-1.322 3.473-2.976 5.018-22.372 25.041-39.139 48.907-39.139z" fill="#b1e4f9"/><g><path d="m300.658 110.335c-1.611.157-3.149-.72-3.833-2.187-7.98-17.119-25.354-29.012-45.456-29.012-18.431 0-34.562 10.005-43.268 24.864 7.419-4.344 16.045-6.842 25.246-6.842 18.445 0 34.594 10.014 43.295 24.891 2.218 3.792 6.348 6.059 10.742 6.097 24.063.211 44.146 19.91 44.146 44.614 0 7.672-1.948 14.896-5.373 21.208 13.922-7.557 23.396-22.308 23.396-39.23-.001-26.313-22.786-46.948-48.895-44.403z" fill="#90d8f9"/></g></g></svg>