<svg id="Capa_1" enable-background="new 0 0 512 512" height="512" viewBox="0 0 512 512" width="512" xmlns="http://www.w3.org/2000/svg"><g><path d="m482.373 383.644h-452.746v-285.155c0-14.185 11.499-25.684 25.684-25.684h401.378c14.185 0 25.684 11.499 25.684 25.684z" fill="#365e7d"/><path d="m456.689 72.805h-26.033c14.185 0 25.684 11.499 25.684 25.684v228.674c0 17.954-14.555 32.509-32.509 32.509h-394.204v23.972h452.746v-285.155c0-14.185-11.499-25.684-25.684-25.684z" fill="#2b4d66"/><path d="m60.533 349.152v-241.854c0-1.981 1.606-3.587 3.587-3.587h383.76c1.981 0 3.587 1.606 3.587 3.587v241.854c0 1.981-1.606 3.587-3.587 3.587h-383.76c-1.981 0-3.587-1.606-3.587-3.587z" fill="#f6f9f9"/><path d="m447.88 103.71h-22.724c1.981 0 3.587 1.606 3.587 3.587v241.854c0 1.981-1.606 3.587-3.587 3.587h22.724c1.981 0 3.587-1.606 3.587-3.587v-241.853c0-1.982-1.605-3.588-3.587-3.588z" fill="#dfeaef"/><path d="m501.736 439.195h-491.472c-5.669 0-10.264-4.595-10.264-10.264v-35.023c0-5.669 4.595-10.264 10.264-10.264h491.472c5.669 0 10.264 4.595 10.264 10.264v35.023c0 5.669-4.595 10.264-10.264 10.264z" fill="#365e7d"/><path d="m501.736 383.644h-23.674c5.669 0 10.264 4.595 10.264 10.264v35.023c0 5.669-4.595 10.264-10.264 10.264h23.674c5.669 0 10.264-4.595 10.264-10.264v-35.023c0-5.669-4.595-10.264-10.264-10.264z" fill="#2b4d66"/><path d="m295.972 411.42h-79.944c-5.505 0-10.607-2.888-13.44-7.608l-12.104-20.167h131.031l-12.104 20.167c-2.832 4.72-7.934 7.608-13.439 7.608z" fill="#d0e2e7"/><g><g><path d="m370.547 308.705c-4.268 0-7.726-3.459-7.726-7.726v-13.001h-213.641v13.001c0 4.268-3.459 7.726-7.726 7.726-4.268 0-7.726-3.459-7.726-7.726v-20.727c0-4.268 3.459-7.726 7.726-7.726h229.094c4.268 0 7.726 3.459 7.726 7.726v20.727c-.001 4.267-3.459 7.726-7.727 7.726z" fill="#2b4d66"/></g><g><path d="m256.001 308.705c-4.268 0-7.726-3.459-7.726-7.726v-35.289c0-4.268 3.459-7.726 7.726-7.726s7.726 3.459 7.726 7.726v35.288c0 4.268-3.459 7.727-7.726 7.727z" fill="#2b4d66"/></g><g><path d="m151.354 333.247h-19.801c-4.268 0-7.726-3.459-7.726-7.726s3.459-7.726 7.726-7.726h19.801c4.268 0 7.726 3.459 7.726 7.726s-3.459 7.726-7.726 7.726z" fill="#90d8f9"/></g><g><path d="m265.901 333.247h-19.802c-4.268 0-7.726-3.459-7.726-7.726s3.459-7.726 7.726-7.726h19.802c4.268 0 7.726 3.459 7.726 7.726s-3.458 7.726-7.726 7.726z" fill="#90d8f9"/></g><g><path d="m380.447 333.247h-19.801c-4.268 0-7.726-3.459-7.726-7.726s3.459-7.726 7.726-7.726h19.801c4.268 0 7.726 3.459 7.726 7.726s-3.458 7.726-7.726 7.726z" fill="#90d8f9"/></g><g><path d="m251.795 130.929c17.683 0 33.043 10.134 40.576 24.899 1.097 2.149 3.348 3.456 5.757 3.314 22.984-1.354 42.726 16.975 42.839 40.25.109 22.392-18.673 40.711-41.065 40.711h-92.892c-19.631 0-35.9-15.732-35.976-35.362-.07-18.033 13.5-33.417 31.584-35.42 2.489-.276 4.523-2.084 5.163-4.506 5.153-19.483 22.933-33.886 44.014-33.886z" fill="#b1e4f9"/><g><path d="m298.128 159.142c-2.409.142-4.66-1.165-5.757-3.314-7.534-14.766-22.893-24.899-40.576-24.899-17.152 0-32.117 9.535-39.876 23.583 7.231-4.84 15.916-7.669 25.252-7.669 17.683 0 33.043 10.134 40.576 24.899 1.097 2.149 3.348 3.456 5.757 3.314 22.984-1.354 42.726 16.975 42.839 40.25.032 6.602-1.588 12.844-4.449 18.373 11.437-7.253 19.143-19.928 19.073-34.287-.114-23.275-19.855-41.604-42.839-40.25z" fill="#90d8f9"/></g></g><g><path d="m260.95 215.304h-9.9c-4.268 0-7.726-3.459-7.726-7.726 0-4.268 3.459-7.726 7.726-7.726h9.9c4.268 0 7.726 3.459 7.726 7.726.001 4.267-3.458 7.726-7.726 7.726z" fill="#90d8f9"/></g></g></g></svg>