<svg id="Capa_1" enable-background="new 0 0 512 512" height="512" viewBox="0 0 512 512" width="512" xmlns="http://www.w3.org/2000/svg"><g><g><g><g><path d="m458.298 483.818 19.053-13.076c2.306-1.582 2.306-4.986 0-6.569l-19.053-13.076c-1.358-.932-3.15-.932-4.508 0l-23.838 16.36 23.838 16.36c1.358.933 3.15.933 4.508.001z" fill="#e278b1"/></g><g><path d="m450.555 475.185h-50.516c-4.268 0-7.726-3.459-7.726-7.726v-149.533c0-4.268 3.459-7.726 7.726-7.726s7.726 3.459 7.726 7.726v141.806h42.79c4.268 0 7.726 3.459 7.726 7.726s-3.458 7.727-7.726 7.727z" fill="#e278b1"/></g><g><path d="m53.702 483.818-19.053-13.076c-2.306-1.582-2.306-4.986 0-6.569l19.053-13.076c1.358-.932 3.15-.932 4.508 0l23.838 16.36-23.838 16.36c-1.358.933-3.15.933-4.508.001z" fill="#e278b1"/></g><g><path d="m111.961 475.185h-50.517c-4.268 0-7.726-3.459-7.726-7.726s3.459-7.726 7.726-7.726h42.791v-141.807c0-4.268 3.459-7.726 7.726-7.726s7.726 3.459 7.726 7.726v149.532c.001 4.268-3.458 7.727-7.726 7.727z" fill="#e278b1"/></g></g><g><g><path d="m155.041 473.384 13.076 19.053c1.582 2.306 4.986 2.306 6.569 0l13.076-19.053c.932-1.358.932-3.15 0-4.508l-16.36-23.838-16.36 23.838c-.933 1.358-.933 3.149-.001 4.508z" fill="#e278b1"/></g><g><path d="m171.401 473.367c-4.268 0-7.726-3.459-7.726-7.726v-147.715c0-4.268 3.459-7.726 7.726-7.726s7.726 3.459 7.726 7.726v147.714c0 4.268-3.458 7.727-7.726 7.727z" fill="#e278b1"/></g><g><path d="m239.64 421.874 13.076 19.053c1.582 2.306 4.986 2.306 6.569 0l13.076-19.053c.932-1.358.932-3.15 0-4.508l-16.361-23.838-16.36 23.839c-.932 1.358-.932 3.149 0 4.507z" fill="#e278b1"/></g><g><path d="m256 421.858c-4.268 0-7.726-3.459-7.726-7.726v-96.205c0-4.268 3.459-7.726 7.726-7.726s7.726 3.459 7.726 7.726v96.205c0 4.267-3.459 7.726-7.726 7.726z" fill="#e278b1"/></g><g><path d="m324.239 473.384 13.076 19.053c1.582 2.306 4.986 2.306 6.569 0l13.076-19.053c.932-1.358.932-3.15 0-4.508l-16.36-23.838-16.36 23.838c-.933 1.358-.933 3.149-.001 4.508z" fill="#e278b1"/></g><g><path d="m340.599 473.367c-4.268 0-7.726-3.459-7.726-7.726v-147.715c0-4.268 3.459-7.726 7.726-7.726s7.726 3.459 7.726 7.726v147.714c.001 4.268-3.458 7.727-7.726 7.727z" fill="#e278b1"/></g></g></g><g><path d="m243.328 17.834c53.279 0 99.556 30.532 122.255 75.021 3.304 6.475 10.087 10.412 17.345 9.984 69.25-4.081 128.73 51.145 129.071 121.271.328 67.465-56.261 122.661-123.727 122.661h-279.877c-59.146 0-108.165-47.399-108.395-106.545-.211-54.331 40.676-100.684 95.162-106.719 7.501-.831 13.626-6.28 15.556-13.575 15.526-58.702 69.095-102.098 132.61-102.098z" fill="#b1e4f9"/><g><path d="m388.021 102.645c-10.225.177-19.808-5.255-24.785-14.19-23.443-42.089-68.404-70.621-119.908-70.621-45.627 0-86.095 22.413-111.041 56.787 22.58-16.351 50.311-26.005 80.259-26.005 50.123 0 94.05 27.023 117.977 67.266 6.414 10.788 18.026 17.359 30.575 17.539 65.543.941 120.12 54.709 120.12 122.077 0 25.804-8.071 49.746-21.79 69.482 31.739-22.063 52.572-58.768 52.572-100.264 0-68.686-56.733-123.234-123.979-122.071z" fill="#90d8f9"/></g></g><g><path d="m298.465 256.481h-84.931c-4.268 0-7.726-3.459-7.726-7.726s3.459-7.726 7.726-7.726h84.931c4.268 0 7.726 3.459 7.726 7.726s-3.458 7.726-7.726 7.726z" fill="#90d8f9"/></g></g></svg>