<svg id="Capa_1" enable-background="new 0 0 512 512" height="512" viewBox="0 0 512 512" width="512" xmlns="http://www.w3.org/2000/svg"><g><g><path d="m256 289.316c-4.268 0-7.726-3.459-7.726-7.726v-76.75c0-4.268 3.459-7.726 7.726-7.726 4.268 0 7.726 3.459 7.726 7.726v76.75c.001 4.267-3.458 7.726-7.726 7.726z" fill="#2b4d66"/></g><g><path d="m417.812 289.316c-4.268 0-7.726-3.459-7.726-7.726v-11.682c0-3.735-4.203-6.891-9.178-6.891h-289.816c-4.975 0-9.178 3.156-9.178 6.891v11.682c0 4.268-3.459 7.726-7.726 7.726-4.268 0-7.726-3.459-7.726-7.726v-11.682c0-12.321 11.049-22.344 24.631-22.344h289.816c13.581 0 24.631 10.023 24.631 22.344v11.682c-.001 4.267-3.46 7.726-7.728 7.726z" fill="#2b4d66"/></g><path d="m249.418 32.945c27.677 0 51.716 15.861 63.507 38.971 1.716 3.364 5.24 5.409 9.01 5.186 35.973-2.12 66.871 26.568 67.048 62.997.17 35.046-29.226 63.718-64.272 63.718h-145.387c-30.725 0-56.188-24.622-56.308-55.347-.11-28.223 21.13-52.302 49.434-55.437 3.896-.432 7.078-3.262 8.081-7.052 8.065-30.493 35.892-53.036 68.887-53.036z" fill="#b1e4f9"/><g><path d="m325.257 76.994c-5.748.038-11.056-2.994-13.903-7.987-12.272-21.521-35.437-36.061-61.936-36.061-23.702 0-44.724 11.643-57.682 29.499 11.73-8.494 26.135-13.509 41.692-13.509 26.037 0 48.856 14.037 61.285 34.942 3.316 5.578 9.327 9.024 15.815 9.11 34.078.453 62.466 28.397 62.466 63.416 0 13.404-4.193 25.842-11.319 36.094 16.488-11.461 27.31-30.528 27.31-52.084-.001-35.45-29.093-63.65-63.728-63.42z" fill="#90d8f9"/></g><g><path d="m276.208 157.274h-40.415c-4.268 0-7.726-3.459-7.726-7.726s3.459-7.726 7.726-7.726h40.415c4.268 0 7.726 3.459 7.726 7.726s-3.459 7.726-7.726 7.726z" fill="#90d8f9"/></g><path d="m304.702 225.444h-97.405c-4.318 0-7.819-3.501-7.819-7.819v-24.735c0-4.318 3.501-7.819 7.819-7.819h97.405c4.318 0 7.819 3.501 7.819 7.819v24.735c0 4.319-3.5 7.819-7.819 7.819z" fill="#e278b1"/><path d="m304.702 185.072h-17.285c4.318 0 7.819 3.501 7.819 7.819v24.735c0 4.318-3.501 7.819-7.819 7.819h17.285c4.318 0 7.819-3.501 7.819-7.819v-24.735c0-4.318-3.5-7.819-7.819-7.819z" fill="#dd5ca2"/><path d="m168.864 441.069h-158.303v-101.651c0-5.057 4.099-9.156 9.156-9.156h139.991c5.057 0 9.156 4.099 9.156 9.156z" fill="#f6f9f9"/><path d="m159.709 330.262h-16.906c5.057 0 9.156 4.099 9.156 9.156v75.162c0 6.4-5.188 11.589-11.589 11.589h-129.809v14.901h158.303v-101.652c0-5.057-4.099-9.156-9.155-9.156z" fill="#dfeaef"/><path d="m175.767 471.328h-172.108c-2.021 0-3.659-1.638-3.659-3.659v-22.941c0-2.021 1.638-3.659 3.659-3.659h172.108c2.021 0 3.659 1.638 3.659 3.659v22.941c0 2.021-1.638 3.659-3.659 3.659z" fill="#365e7d"/><path d="m175.767 441.069h-16.855c2.021 0 3.659 1.638 3.659 3.659v22.941c0 2.021-1.638 3.659-3.659 3.659h16.855c2.021 0 3.659-1.638 3.659-3.659v-22.941c0-2.021-1.638-3.659-3.659-3.659z" fill="#2b4d66"/><path d="m443.541 443.8-6.097-6.861h-23.562l-3.914 6.861c2.172 10.802-3.985 22.195-11.638 27.528h56.849c-7.652-5.333-13.809-16.726-11.638-27.528z" fill="#2b4d66"/><g><path d="m468.875 479.055h-84.24c-4.268 0-7.726-3.459-7.726-7.726s3.459-7.726 7.726-7.726h84.24c4.268 0 7.726 3.459 7.726 7.726s-3.459 7.726-7.726 7.726z" fill="#365e7d"/></g><path d="m512 407.821-8.588-6.861h-155.565l-6.339 6.861v24.055c0 6.586 5.339 11.925 11.925 11.925h146.641c6.586 0 11.925-5.339 11.925-11.925v-24.055z" fill="#d0e2e7"/><path d="m503.412 400.96h-18.686l8.588 6.861v24.055c0 6.586-5.339 11.925-11.925 11.925h18.686c6.586 0 11.925-5.339 11.925-11.925v-24.055z" fill="#b4d0d5"/><path d="m512 407.821h-170.491v-83.242c0-6.586 5.339-11.925 11.925-11.925h146.641c6.586 0 11.925 5.339 11.925 11.925z" fill="#f6f9f9"/><path d="m500.075 312.654h-18.686c6.586 0 11.925 5.339 11.925 11.925v83.242h18.686v-83.242c0-6.586-5.339-11.925-11.925-11.925z" fill="#dfeaef"/><path d="m296.996 436.221h-81.991v-101.265c0-4.691 3.803-8.494 8.494-8.494h65.004c4.691 0 8.494 3.803 8.494 8.494v101.265z" fill="#f6f9f9"/><path d="m288.502 326.462h-20.576c4.691 0 8.494 3.803 8.494 8.494v101.264h20.576v-101.264c0-4.691-3.803-8.494-8.494-8.494z" fill="#dfeaef"/><path d="m296.996 436.221h-81.991v26.614c0 4.691 3.803 8.494 8.494 8.494h65.004c4.691 0 8.494-3.803 8.494-8.494v-26.614z" fill="#365e7d"/><path d="m276.42 436.221v26.614c0 4.691-3.803 8.494-8.494 8.494h20.576c4.691 0 8.494-3.803 8.494-8.494v-26.614z" fill="#2b4d66"/></g></svg>