<svg id="Capa_1" enable-background="new 0 0 512.138 512.138" height="512" viewBox="0 0 512.138 512.138" width="512" xmlns="http://www.w3.org/2000/svg"><g><path d="m151.192.138c33.105 0 61.859 18.971 75.963 46.614 2.053 4.024 6.268 6.469 10.777 6.204 43.029-2.535 79.987 31.779 80.198 75.352.204 41.919-34.958 76.215-76.878 76.215h-173.9c-36.751 0-67.208-29.452-67.351-66.202-.131-33.759 25.274-62.56 59.129-66.31 4.661-.516 8.467-3.902 9.666-8.435 9.646-36.474 42.931-63.438 82.396-63.438z" fill="#b1e4f9"/><g><path d="m239.957 52.864c-5.765.186-11.064-2.97-13.816-8.038-14.438-26.594-42.619-44.687-74.948-44.687-28.35 0-53.495 13.926-68.996 35.285 14.03-10.159 31.261-16.158 49.869-16.158 31.163 0 58.471 16.811 73.332 41.841 3.919 6.6 11.013 10.768 18.689 10.849 40.851.434 74.919 33.9 74.919 75.856 0 16.033-5.015 30.91-13.539 43.173 19.721-13.709 32.666-36.515 32.666-62.299-.001-43.068-35.896-77.189-78.176-75.822z" fill="#90d8f9"/></g><g><path d="m449.739 512h-99.619c-13.742 0-25.264-10.38-26.694-24.047l-19.639-187.709 14.364-6.982h162.573l15.349 6.982-19.639 187.709c-1.43 13.667-12.953 24.047-26.695 24.047z" fill="#d0e2e7"/><path d="m496.073 300.244-15.349-6.982h-19.79-142.783l-14.364 6.982 1.733 16.565h142.151c14.37 0 25.578 12.442 24.082 26.733l-15.109 144.411c-1.43 13.667-12.953 24.047-26.695 24.047h19.79c13.742 0 25.264-10.38 26.694-24.047l17.906-171.144z" fill="#b4d0d5"/><path d="m291.445 300.244h216.969c2.057 0 3.724-1.667 3.724-3.724v-22.283c0-2.057-1.667-3.724-3.724-3.724h-216.969c-2.057 0-3.724 1.667-3.724 3.724v22.283c0 2.057 1.667 3.724 3.724 3.724z" fill="#b3e59f"/><path d="m508.415 270.514h-19.626c2.056 0 3.724 1.667 3.724 3.724v22.282c0 2.057-1.667 3.724-3.724 3.724h19.626c2.056 0 3.724-1.667 3.724-3.724v-22.282c-.001-2.057-1.668-3.724-3.724-3.724z" fill="#95d6a4"/><path d="m440.069 270.514h-80.279l8.043-18.255c1.896-4.304 6.156-7.082 10.86-7.082h42.474c4.704 0 8.963 2.778 10.86 7.082z" fill="#d0e2e7"/><path d="m432.026 252.259c-1.897-4.304-6.156-7.083-10.86-7.083h-19.98c4.704 0 8.963 2.778 10.86 7.083l8.043 18.255h19.98z" fill="#b4d0d5"/><path d="m399.93 454.882c-8.24 0-14.919-6.679-14.919-14.919v-67.682c0-8.239 6.679-14.919 14.919-14.919 8.239 0 14.919 6.679 14.919 14.919v67.682c0 8.239-6.68 14.919-14.919 14.919z" fill="#95d6a4"/></g><g><g><path d="m414.646 194.615c-4.269 0-7.728-3.46-7.728-7.728v-41.715h-50.406c-4.269 0-7.728-3.46-7.728-7.728 0-4.269 3.46-7.728 7.728-7.728h58.134c4.269 0 7.728 3.46 7.728 7.728v49.444c0 4.267-3.459 7.727-7.728 7.727z" fill="#2b4d66"/></g><g><path d="m414.645 206.367c-1.919 0-3.838-.71-5.331-2.133l-18.018-17.167c-3.09-2.943-3.208-7.836-.264-10.926s7.836-3.208 10.927-.264l12.687 12.087 12.689-12.087c3.089-2.944 7.983-2.827 10.925.265 2.944 3.09 2.826 7.982-.265 10.925l-18.019 17.167c-1.493 1.421-3.412 2.133-5.331 2.133z" fill="#2b4d66"/></g><g><g><path d="m248.368 331.178h-58.133c-4.269 0-7.728-3.46-7.728-7.728v-49.444c0-4.269 3.46-7.728 7.728-7.728 4.269 0 7.728 3.46 7.728 7.728v41.715h50.405c4.269 0 7.728 3.46 7.728 7.728s-3.46 7.729-7.728 7.729z" fill="#2b4d66"/></g><g><path d="m208.252 287.149c-1.915 0-3.834-.707-5.329-2.133l-12.689-12.088-12.689 12.088c-3.088 2.946-7.982 2.828-10.925-.265-2.944-3.09-2.826-7.982.265-10.925l18.019-17.167c2.985-2.844 7.676-2.844 10.661 0l18.019 17.167c3.09 2.943 3.209 7.835.265 10.925-1.519 1.595-3.556 2.398-5.597 2.398z" fill="#2b4d66"/></g></g></g><g><g><g><path d="m192.716 108.047c-4.269 0-7.728-3.46-7.728-7.728 0-11.784-9.587-21.371-21.371-21.371s-21.371 9.587-21.371 21.371c0 4.269-3.46 7.728-7.728 7.728-4.269 0-7.728-3.46-7.728-7.728 0-20.307 16.521-36.828 36.828-36.828s36.828 16.521 36.828 36.828c-.002 4.269-3.462 7.728-7.73 7.728z" fill="#f6f9f9"/></g><g><path d="m133.132 114.043c-.646 0-1.295-.081-1.932-.246-2.112-.545-3.895-1.958-4.91-3.889l-7.716-14.692c-1.985-3.779-.53-8.451 3.248-10.435 3.781-1.988 8.452-.531 10.435 3.248l3.752 7.142 5.854-3.851c3.562-2.348 8.356-1.359 10.704 2.209 2.346 3.565 1.357 8.358-2.209 10.704l-12.978 8.539c-1.273.836-2.752 1.271-4.248 1.271z" fill="#f6f9f9"/></g></g><g><g><path d="m154.515 165.902c-20.307 0-36.828-16.521-36.828-36.828 0-4.269 3.46-7.728 7.728-7.728 4.269 0 7.728 3.46 7.728 7.728 0 11.784 9.587 21.371 21.371 21.371s21.371-9.587 21.371-21.371c0-4.269 3.46-7.728 7.728-7.728 4.269 0 7.728 3.46 7.728 7.728.002 20.307-16.518 36.828-36.826 36.828z" fill="#f6f9f9"/></g><g><path d="m192.722 145.501c-2.779 0-5.466-1.504-6.848-4.137l-3.752-7.143-5.854 3.852c-3.565 2.345-8.357 1.358-10.704-2.209-2.346-3.565-1.358-8.357 2.209-10.704l12.978-8.54c1.823-1.2 4.07-1.574 6.18-1.026 2.112.545 3.895 1.958 4.91 3.889l7.716 14.693c1.984 3.779.53 8.451-3.248 10.435-1.147.604-2.376.89-3.587.89z" fill="#f6f9f9"/></g></g></g></g></svg>