<svg id="Capa_1" enable-background="new 0 0 512 512" height="512" viewBox="0 0 512 512" width="512" xmlns="http://www.w3.org/2000/svg"><g><path d="m63.523 426.893-12.839-12.285c-1.162-1.112-2.709-1.733-4.317-1.733h-40.123c-3.449 0-6.244 2.796-6.244 6.244v86.637c0 3.448 2.796 6.244 6.244 6.244h126.716c3.449 0 6.244-2.796 6.244-6.244v-70.886c0-3.449-2.796-6.244-6.244-6.244h-65.12c-1.609-.001-3.155-.621-4.317-1.733z" fill="#ffe07d"/><path d="m132.96 428.625h-23.383c3.449 0 6.244 2.796 6.244 6.244v70.886c0 3.449-2.796 6.244-6.244 6.244h23.383c3.449 0 6.244-2.796 6.244-6.244v-70.885c.001-3.449-2.795-6.245-6.244-6.245z" fill="#ffd064"/><path d="m249.92 426.893-12.839-12.285c-1.162-1.112-2.709-1.733-4.317-1.733h-40.122c-3.449 0-6.244 2.796-6.244 6.244v86.637c0 3.449 2.796 6.244 6.244 6.244h126.716c3.449 0 6.244-2.796 6.244-6.244v-70.886c0-3.449-2.796-6.244-6.244-6.244h-65.121c-1.608-.001-3.154-.621-4.317-1.733z" fill="#ffe07d"/><path d="m319.358 428.625h-23.383c3.449 0 6.244 2.796 6.244 6.244v70.886c0 3.449-2.796 6.244-6.244 6.244h23.383c3.449 0 6.244-2.796 6.244-6.244v-70.885c0-3.449-2.795-6.245-6.244-6.245z" fill="#ffd064"/><path d="m436.318 426.893-12.839-12.285c-1.162-1.112-2.709-1.733-4.317-1.733h-40.122c-3.449 0-6.244 2.796-6.244 6.244v86.637c0 3.449 2.796 6.244 6.244 6.244h126.716c3.449 0 6.244-2.796 6.244-6.244v-70.886c0-3.449-2.796-6.244-6.244-6.244h-65.121c-1.608-.001-3.155-.621-4.317-1.733z" fill="#ffe07d"/><path d="m505.756 428.625h-23.383c3.449 0 6.244 2.796 6.244 6.244v70.886c0 3.449-2.796 6.244-6.244 6.244h23.383c3.449 0 6.244-2.796 6.244-6.244v-70.885c0-3.449-2.796-6.245-6.244-6.245z" fill="#ffd064"/><g><path d="m256 388.439c-4.268 0-7.726-3.459-7.726-7.726v-133.14c0-4.268 3.459-7.726 7.726-7.726s7.726 3.459 7.726 7.726v133.14c0 4.267-3.459 7.726-7.726 7.726z" fill="#2b4d66"/></g><g><path d="m443.432 388.439c-4.268 0-7.726-3.459-7.726-7.726v-47.256c0-6.536-5.318-11.854-11.855-11.854h-335.702c-6.536 0-11.854 5.318-11.854 11.854v47.256c0 4.268-3.459 7.726-7.726 7.726-4.268 0-7.726-3.459-7.726-7.726v-47.256c0-15.057 12.249-27.307 27.307-27.307h335.702c15.057 0 27.308 12.25 27.308 27.307v47.256c-.001 4.267-3.46 7.726-7.728 7.726z" fill="#2b4d66"/></g><path d="m379.268 245.818c0 5.623-4.559 10.182-10.182 10.182h-226.172c-5.623 0-10.182-4.559-10.182-10.182v-235.636c0-5.623 4.558-10.182 10.182-10.182h226.172c5.623 0 10.182 4.559 10.182 10.182z" fill="#365e7d"/><path d="m379.268 10.182c0-5.623-4.558-10.182-10.182-10.182h-21.983c5.623 0 10.182 4.559 10.182 10.182v235.636c0 5.623-4.559 10.182-10.182 10.182h21.983c5.623 0 10.182-4.559 10.182-10.182z" fill="#2b4d66"/><path d="m349.789 130.337c0 1.395-1.131 2.526-2.526 2.526h-182.526c-1.395 0-2.526-1.131-2.526-2.526v-51.565c0-1.395 1.131-2.526 2.526-2.526h182.526c1.395 0 2.526 1.131 2.526 2.526z" fill="#f6f9f9"/><path d="m331.397 76.245v56.618h15.866c1.395 0 2.526-1.131 2.526-2.526v-51.565c0-1.395-1.131-2.526-2.526-2.526h-15.866z" fill="#dfeaef"/><g><g><path d="m192.793 112.281h-6.205c-4.268 0-7.726-3.459-7.726-7.726s3.459-7.726 7.726-7.726h6.205c4.268 0 7.726 3.459 7.726 7.726s-3.458 7.726-7.726 7.726z" fill="#95d6a4"/></g><g><path d="m225.775 112.281h-6.205c-4.268 0-7.726-3.459-7.726-7.726s3.459-7.726 7.726-7.726h6.205c4.268 0 7.726 3.459 7.726 7.726s-3.458 7.726-7.726 7.726z" fill="#95d6a4"/></g><g><g><path d="m267.163 140.59c-4.268 0-7.726-3.459-7.726-7.726v-18.007c0-4.268 3.459-7.726 7.726-7.726s7.726 3.459 7.726 7.726v18.007c0 4.267-3.459 7.726-7.726 7.726z" fill="#95d6a4"/></g><g><path d="m296.287 140.59c-4.268 0-7.726-3.459-7.726-7.726v-18.007c0-4.268 3.459-7.726 7.726-7.726s7.726 3.459 7.726 7.726v18.007c.001 4.267-3.458 7.726-7.726 7.726z" fill="#95d6a4"/></g><g><path d="m325.412 140.59c-4.268 0-7.726-3.459-7.726-7.726v-18.007c0-4.268 3.459-7.726 7.726-7.726s7.726 3.459 7.726 7.726v18.007c0 4.267-3.458 7.726-7.726 7.726z" fill="#95d6a4"/></g></g></g><path d="m349.789 221.152c0 1.395-1.131 2.526-2.526 2.526h-182.526c-1.395 0-2.526-1.131-2.526-2.526v-51.566c0-1.395 1.131-2.526 2.526-2.526h182.526c1.395 0 2.526 1.131 2.526 2.526z" fill="#f6f9f9"/><path d="m331.397 167.06v56.618h15.866c1.395 0 2.526-1.131 2.526-2.526v-51.566c0-1.395-1.131-2.526-2.526-2.526z" fill="#dfeaef"/><g><g><path d="m200.52 195.37c0 4.268-3.459 7.726-7.726 7.726h-6.205c-4.268 0-7.726-3.459-7.726-7.726 0-4.268 3.459-7.726 7.726-7.726h6.205c4.267-.001 7.726 3.458 7.726 7.726z" fill="#95d6a4"/></g><g><path d="m225.775 203.096h-6.205c-4.268 0-7.726-3.459-7.726-7.726 0-4.268 3.459-7.726 7.726-7.726h6.205c4.268 0 7.726 3.459 7.726 7.726.001 4.267-3.458 7.726-7.726 7.726z" fill="#95d6a4"/></g><g><g><path d="m267.163 231.405c-4.268 0-7.726-3.459-7.726-7.726v-18.007c0-4.268 3.459-7.726 7.726-7.726s7.726 3.459 7.726 7.726v18.007c0 4.267-3.459 7.726-7.726 7.726z" fill="#95d6a4"/></g><g><path d="m296.287 231.405c-4.268 0-7.726-3.459-7.726-7.726v-18.007c0-4.268 3.459-7.726 7.726-7.726s7.726 3.459 7.726 7.726v18.007c.001 4.267-3.458 7.726-7.726 7.726z" fill="#95d6a4"/></g><g><path d="m325.412 231.405c-4.268 0-7.726-3.459-7.726-7.726v-18.007c0-4.268 3.459-7.726 7.726-7.726s7.726 3.459 7.726 7.726v18.007c0 4.267-3.458 7.726-7.726 7.726z" fill="#95d6a4"/></g></g></g><g><path d="m198.41 32.593h-21.388c-4.268 0-7.726-3.459-7.726-7.726s3.459-7.726 7.726-7.726h21.388c4.268 0 7.726 3.459 7.726 7.726s-3.458 7.726-7.726 7.726z" fill="#e278b1"/></g><g><path d="m311.73 57.252h-134.708c-4.268 0-7.726-3.459-7.726-7.726s3.459-7.726 7.726-7.726h134.708c4.268 0 7.726 3.459 7.726 7.726s-3.458 7.726-7.726 7.726z" fill="#2b4d66"/></g></g></svg>