<svg id="Capa_1" enable-background="new 0 0 512 512" height="512" viewBox="0 0 512 512" width="512" xmlns="http://www.w3.org/2000/svg"><g><g><g><path d="m174.225 225.269c-2.924 0-5.721-1.668-7.024-4.498l-83.515-181.468c-1.784-3.876-.088-8.465 3.788-10.25 3.876-1.783 8.465-.088 10.249 3.789l83.516 181.468c1.784 3.876.088 8.465-3.788 10.249-1.047.481-2.146.71-3.226.71z" fill="#2b4d66"/></g><g><path d="m337.775 225.269c-1.08 0-2.179-.228-3.225-.709-3.876-1.785-5.572-6.373-3.789-10.249l83.515-181.468c1.784-3.876 6.371-5.571 10.25-3.789 3.876 1.785 5.572 6.373 3.789 10.25l-83.515 181.468c-1.303 2.829-4.101 4.497-7.025 4.497z" fill="#2b4d66"/></g></g><path d="m496.351 436.927h-480.702c-8.643 0-15.649-7.007-15.649-15.65v-125.79c0-8.643 7.006-15.649 15.649-15.649h480.701c8.643 0 15.649 7.006 15.649 15.649v125.79c.001 8.643-7.005 15.65-15.648 15.65z" fill="#365e7d"/><path d="m496.351 279.838h-32.432c8.643 0 15.649 7.006 15.649 15.649v125.79c0 8.643-7.006 15.649-15.649 15.649h32.432c8.643 0 15.649-7.006 15.649-15.649v-125.79c0-8.643-7.006-15.649-15.649-15.649z" fill="#2b4d66"/><path d="m429.654 483.655h-347.308c-2.87 0-5.556-1.415-7.179-3.782l-29.447-42.946h420.56l-29.447 42.947c-1.623 2.367-4.308 3.781-7.179 3.781z" fill="#d0e2e7"/><path d="m433.848 436.927-32.04 46.729h27.846c2.87 0 5.556-1.415 7.179-3.782l29.447-42.947z" fill="#b4d0d5"/><path d="m110.407 203.282h291.186c19.775 0 37.617 11.874 45.251 30.116l19.436 46.44h-420.56l19.436-46.44c7.634-18.242 25.476-30.116 45.251-30.116z" fill="#b3e59f"/><path d="m446.844 233.399c-7.635-18.242-25.476-30.116-45.251-30.116h-31.083c19.775 0 37.617 11.874 45.251 30.116l19.436 46.44h31.082z" fill="#95d6a4"/><g><g><path d="m204.623 109.899c-1.997 0-3.993-.77-5.505-2.305-2.994-3.039-2.957-7.932.082-10.927 15.267-15.037 35.439-23.319 56.8-23.319s41.532 8.282 56.799 23.319c3.04 2.995 3.077 7.886.083 10.927-2.996 3.039-7.886 3.075-10.927.084-12.357-12.174-28.678-18.877-45.955-18.877s-33.598 6.703-45.956 18.876c-1.505 1.482-3.464 2.222-5.421 2.222z" fill="#b1e4f9"/></g><g><path d="m288.432 137.901c-1.958 0-3.916-.739-5.422-2.221-7.265-7.156-16.857-11.097-27.011-11.097-10.153 0-19.745 3.941-27.011 11.097-3.041 2.994-7.933 2.956-10.926-.084-2.994-3.04-2.957-7.932.083-10.927 10.174-10.02 23.617-15.539 37.854-15.539 14.236 0 27.68 5.519 37.854 15.539 3.04 2.995 3.077 7.886.083 10.927-1.511 1.535-3.507 2.305-5.504 2.305z" fill="#b1e4f9"/></g><g><path d="m269.491 165.899c-1.958 0-3.917-.739-5.422-2.221-2.169-2.137-5.034-3.313-8.069-3.313s-5.9 1.176-8.068 3.312c-3.04 2.994-7.934 2.956-10.926-.084-2.994-3.04-2.957-7.932.083-10.927 5.077-5 11.793-7.755 18.911-7.755s13.835 2.755 18.912 7.756c3.04 2.995 3.077 7.886.083 10.927-1.511 1.535-3.507 2.305-5.504 2.305z" fill="#b1e4f9"/></g></g><path d="m66.102 394.358c-13.587 0-24.602-11.015-24.602-24.602v-22.746c0-13.587 11.015-24.602 24.602-24.602 13.587 0 24.602 11.015 24.602 24.602v22.746c0 13.587-11.014 24.602-24.602 24.602z" fill="#b3e59f"/><path d="m66.102 322.407c-4.483 0-8.682 1.205-12.301 3.299 7.351 4.255 12.301 12.198 12.301 21.303v22.746c0 9.105-4.95 17.048-12.301 21.303 3.62 2.095 7.818 3.3 12.301 3.3 13.587 0 24.602-11.015 24.602-24.602v-22.746c0-13.588-11.014-24.603-24.602-24.603z" fill="#95d6a4"/><g><path d="m169.596 366.109h-34.882c-4.267 0-7.726-3.459-7.726-7.726s3.459-7.726 7.726-7.726h34.882c4.267 0 7.726 3.459 7.726 7.726s-3.459 7.726-7.726 7.726z" fill="#2b4d66"/></g><g><g><path d="m296.573 386.941c-4.268 0-7.726-3.459-7.726-7.726v-41.665c0-4.268 3.459-7.726 7.726-7.726s7.726 3.459 7.726 7.726v41.665c0 4.267-3.458 7.726-7.726 7.726z" fill="#d0e2e7"/></g><g><path d="m338.331 386.941c-4.268 0-7.726-3.459-7.726-7.726v-41.665c0-4.268 3.459-7.726 7.726-7.726 4.268 0 7.726 3.459 7.726 7.726v41.665c0 4.267-3.459 7.726-7.726 7.726z" fill="#d0e2e7"/></g><g><path d="m380.088 386.941c-4.268 0-7.726-3.459-7.726-7.726v-41.665c0-4.268 3.459-7.726 7.726-7.726s7.726 3.459 7.726 7.726v41.665c.001 4.267-3.458 7.726-7.726 7.726z" fill="#d0e2e7"/></g><g><path d="m421.846 386.941c-4.268 0-7.726-3.459-7.726-7.726v-41.665c0-4.268 3.459-7.726 7.726-7.726s7.726 3.459 7.726 7.726v41.665c0 4.267-3.459 7.726-7.726 7.726z" fill="#d0e2e7"/></g><g><path d="m463.603 386.941c-4.268 0-7.726-3.459-7.726-7.726v-41.665c0-4.268 3.459-7.726 7.726-7.726s7.726 3.459 7.726 7.726v41.665c.001 4.267-3.458 7.726-7.726 7.726z" fill="#d0e2e7"/></g></g><g><path d="m328.515 249.287h-145.029c-4.267 0-7.726-3.459-7.726-7.726 0-4.268 3.459-7.726 7.726-7.726h145.029c4.268 0 7.726 3.459 7.726 7.726s-3.459 7.726-7.726 7.726z" fill="#95d6a4"/></g></g></svg>