<svg id="Capa_1" enable-background="new 0 0 512 512" height="512" viewBox="0 0 512 512" width="512" xmlns="http://www.w3.org/2000/svg"><g><path d="m155.9 120.425-21.906 21.906c-3.176 3.176-7.91 4.247-12.123 2.689-19.821-7.331-41.997-29.51-49.321-49.319-1.557-4.212-.485-8.945 2.69-12.12l21.907-21.907c5.179-5.179 4.433-13.759-1.54-17.998-15.302-10.858-28.318-23.679-38.861-38.624-4.24-6.01-12.841-6.802-18.042-1.601l-27.168 27.169c-8.13 8.13-12.302 19.407-11.42 30.871.506 6.575 2.667 12.912 6.247 18.45 36.549 56.547 80.397 100.471 131.545 131.77 5.332 3.263 11.359 5.222 17.591 5.702l.583.045c11.464.882 22.741-3.29 30.871-11.42l27.168-27.168c5.201-5.201 4.409-13.802-1.601-18.042-14.945-10.543-27.766-23.559-38.624-38.862-4.237-5.974-12.817-6.72-17.996-1.541z" fill="#b3e59f"/><g fill="#95d6a4"><path d="m38.612 23.187c10.543 14.944 23.559 27.765 38.862 38.623 5.973 4.239 6.72 12.818 1.54 17.998l18.134-18.134c5.179-5.179 4.433-13.759-1.54-17.998-15.303-10.858-28.319-23.679-38.862-38.624-4.24-6.01-12.841-6.802-18.042-1.601l-18.134 18.135c5.201-5.201 13.802-4.41 18.042 1.601z"/><path d="m155.9 120.425-18.134 18.134c5.179-5.179 13.759-4.433 17.998 1.54 10.858 15.303 23.679 28.319 38.624 38.862 6.01 4.24 6.802 12.841 1.601 18.042l18.134-18.134c5.201-5.201 4.409-13.802-1.601-18.042-14.945-10.543-27.766-23.559-38.624-38.862-4.239-5.973-12.819-6.719-17.998-1.54z"/></g><g><g><g><path d="m275.306 118.44h-16.998c-4.267 0-7.726-3.459-7.726-7.726 0-4.268 3.459-7.726 7.726-7.726h16.998c4.268 0 7.726 3.459 7.726 7.726.001 4.267-3.458 7.726-7.726 7.726z" fill="#2b4d66"/></g><g><path d="m349.086 118.44h-36.889c-4.268 0-7.726-3.459-7.726-7.726 0-4.268 3.459-7.726 7.726-7.726h36.889c4.268 0 7.726 3.459 7.726 7.726.001 4.267-3.458 7.726-7.726 7.726z" fill="#2b4d66"/></g><g><path d="m402.974 135.438c-4.268 0-7.726-3.459-7.726-7.726v-9.272h-9.272c-4.268 0-7.726-3.459-7.726-7.726 0-4.268 3.459-7.726 7.726-7.726h16.998c4.268 0 7.726 3.459 7.726 7.726v16.998c.001 4.267-3.458 7.726-7.726 7.726z" fill="#2b4d66"/></g><g><path d="m402.974 249.195c-4.268 0-7.726-3.459-7.726-7.726v-28.44c0-4.268 3.459-7.726 7.726-7.726s7.726 3.459 7.726 7.726v28.44c.001 4.267-3.458 7.726-7.726 7.726zm0-56.878c-4.268 0-7.726-3.459-7.726-7.726v-28.44c0-4.268 3.459-7.726 7.726-7.726s7.726 3.459 7.726 7.726v28.44c.001 4.267-3.458 7.726-7.726 7.726z" fill="#2b4d66"/></g><g><path d="m402.974 294.632c-4.268 0-7.726-3.459-7.726-7.726v-16.998c0-4.268 3.459-7.726 7.726-7.726s7.726 3.459 7.726 7.726v16.998c.001 4.267-3.458 7.726-7.726 7.726z" fill="#2b4d66"/></g></g><g><g><path d="m184.429 374.354h-16.998c-4.267 0-7.726-3.459-7.726-7.726s3.459-7.726 7.726-7.726h16.998c4.267 0 7.726 3.459 7.726 7.726s-3.459 7.726-7.726 7.726z" fill="#2b4d66"/></g><g><path d="m130.541 374.354h-36.89c-4.267 0-7.726-3.459-7.726-7.726s3.459-7.726 7.726-7.726h36.89c4.267 0 7.726 3.459 7.726 7.726s-3.458 7.726-7.726 7.726z" fill="#2b4d66"/></g><g><path d="m56.762 374.354h-16.998c-4.267 0-7.726-3.459-7.726-7.726v-16.998c0-4.268 3.459-7.726 7.726-7.726s7.726 3.459 7.726 7.726v9.272h9.272c4.267 0 7.726 3.459 7.726 7.726s-3.459 7.726-7.726 7.726z" fill="#2b4d66"/></g><g><path d="m39.764 328.917c-4.267 0-7.726-3.459-7.726-7.726v-28.44c0-4.268 3.459-7.726 7.726-7.726s7.726 3.459 7.726 7.726v28.44c0 4.267-3.459 7.726-7.726 7.726zm0-56.879c-4.267 0-7.726-3.459-7.726-7.726v-28.44c0-4.268 3.459-7.726 7.726-7.726s7.726 3.459 7.726 7.726v28.44c0 4.267-3.459 7.726-7.726 7.726z" fill="#2b4d66"/></g><g><path d="m39.764 215.16c-4.267 0-7.726-3.459-7.726-7.726v-16.998c0-4.268 3.459-7.726 7.726-7.726s7.726 3.459 7.726 7.726v16.998c0 4.267-3.459 7.726-7.726 7.726z" fill="#2b4d66"/></g></g></g><path d="m345.106 307.67c33.096 0 61.843 18.966 75.943 46.602 2.052 4.022 6.266 6.468 10.774 6.202 43.017-2.535 79.965 31.771 80.177 75.332.203 41.907-34.949 76.194-76.858 76.194h-173.854c-36.741 0-67.19-29.444-67.333-66.184-.131-33.75 25.267-62.543 59.113-66.292 4.659-.516 8.464-3.901 9.663-8.433 9.644-36.464 42.92-63.421 82.375-63.421z" fill="#b1e4f9"/><g><path d="m424.239 361.299c-12.567-31.396-43.301-53.628-79.134-53.628-28.343 0-53.481 13.923-68.977 35.275 14.026-10.157 31.252-16.154 49.855-16.154 31.136 0 58.422 16.786 73.285 41.785 3.931 6.612 11.018 10.81 18.711 10.891 40.84.434 74.899 33.891 74.899 75.835 0 16.029-5.014 30.901-13.536 43.161 19.717-13.705 32.658-36.505 32.658-62.283 0-46.283-41.47-82.232-87.761-74.882z" fill="#90d8f9"/></g><g><path d="m377.142 454.83h-48.329c-4.268 0-7.726-3.459-7.726-7.726s3.459-7.726 7.726-7.726h48.329c4.268 0 7.726 3.459 7.726 7.726s-3.459 7.726-7.726 7.726z" fill="#90d8f9"/></g></g></svg>