<svg id="Capa_1" enable-background="new 0 0 512 512" height="512" viewBox="0 0 512 512" width="512" xmlns="http://www.w3.org/2000/svg"><g><path d="m306.412 407.724-18.311-20.604h-70.759l-11.755 20.604c6.521 32.438-11.969 66.654-34.949 82.669h170.722c-22.979-16.015-41.469-50.231-34.948-82.669z" fill="#365e7d"/><path d="m205.588 407.724c1.175 5.847 1.527 11.75 1.198 17.595h98.43c-.329-5.845.022-11.748 1.198-17.595l-16.727-20.604h-72.343z" fill="#2b4d66"/><g><path d="m382.49 498.119h-252.98c-4.267 0-7.726-3.459-7.726-7.726s3.459-7.726 7.726-7.726h252.98c4.268 0 7.726 3.459 7.726 7.726s-3.459 7.726-7.726 7.726z" fill="#2b4d66"/></g><g><path d="m256 465.38c-4.267 0-7.726-3.459-7.726-7.726v-16.8c0-4.268 3.459-7.726 7.726-7.726s7.727 3.459 7.727 7.726v16.8c0 4.267-3.46 7.726-7.727 7.726z" fill="#2b4d66"/></g><path d="m512 326.572-25.79-20.604h-467.175l-19.035 20.604v45.34c0 19.778 16.033 35.812 35.812 35.812h440.376c19.778 0 35.812-16.033 35.812-35.812z" fill="#d0e2e7"/><path d="m486.21 305.969v65.944c0 19.778-16.034 35.812-35.812 35.812h25.79c19.778 0 35.812-16.033 35.812-35.812v-45.34z" fill="#b4d0d5"/><g><path d="m274.176 374.875h-36.351c-4.267 0-7.726-3.459-7.726-7.726s3.459-7.726 7.726-7.726h36.351c4.268 0 7.726 3.459 7.726 7.726s-3.459 7.726-7.726 7.726z" fill="#95d6a4"/></g><path d="m512 326.572h-512v-276.879c0-19.778 16.033-35.812 35.812-35.812h440.376c19.778 0 35.812 16.033 35.812 35.812z" fill="#365e7d"/><path d="m476.188 13.881h-25.79c19.778 0 35.812 16.033 35.812 35.812v276.879h25.79v-276.879c0-19.779-16.034-35.812-35.812-35.812z" fill="#2b4d66"/><path d="m30.906 290.441v-240.748c0-2.71 2.197-4.906 4.906-4.906h440.376c2.71 0 4.906 2.197 4.906 4.906v240.748c0 2.886-2.34 5.226-5.226 5.226h-439.736c-2.887 0-5.226-2.34-5.226-5.226z" fill="#f6f9f9"/><path d="m476.188 44.786h-21.266c2.71 0 4.906 2.197 4.906 4.906v240.748c0 2.886-2.34 5.226-5.226 5.226h21.266c2.886 0 5.226-2.34 5.226-5.226v-240.747c0-2.71-2.196-4.907-4.906-4.907z" fill="#dfeaef"/><g><g><g><path d="m147.361 71.416c17.683 0 33.043 10.134 40.576 24.899 1.097 2.149 3.348 3.456 5.757 3.314 22.984-1.354 42.726 16.975 42.839 40.25.109 22.392-18.673 40.711-41.065 40.711h-92.891c-19.631 0-35.9-15.732-35.976-35.362-.07-18.033 13.5-33.417 31.584-35.42 2.489-.276 4.523-2.084 5.163-4.506 5.152-19.483 22.932-33.886 44.013-33.886z" fill="#b1e4f9"/><g><path d="m193.694 99.629c-2.409.142-4.66-1.165-5.757-3.314-7.534-14.766-22.893-24.899-40.576-24.899-17.152 0-32.117 9.535-39.876 23.583 7.231-4.84 15.916-7.669 25.252-7.669 17.683 0 33.043 10.134 40.576 24.899 1.097 2.149 3.348 3.456 5.757 3.314 22.984-1.354 42.726 16.975 42.839 40.25.032 6.602-1.588 12.844-4.449 18.373 11.437-7.253 19.143-19.928 19.073-34.287-.114-23.275-19.855-41.605-42.839-40.25z" fill="#90d8f9"/></g></g><g><path d="m156.517 155.79h-9.901c-4.267 0-7.726-3.459-7.726-7.726s3.459-7.726 7.726-7.726h9.901c4.267 0 7.726 3.459 7.726 7.726s-3.459 7.726-7.726 7.726z" fill="#90d8f9"/></g></g><g><g><path d="m290.713 269.038h-33.31c-1.687 0-3.054-1.367-3.054-3.054v-76.32c0-1.687 1.367-3.054 3.054-3.054h33.31c1.687 0 3.054 1.367 3.054 3.054v76.32c0 1.686-1.368 3.054-3.054 3.054z" fill="#ffe07d"/></g><g><path d="m366.529 269.038h-33.31c-1.687 0-3.054-1.367-3.054-3.054v-107.226c0-1.687 1.367-3.054 3.054-3.054h33.31c1.687 0 3.054 1.367 3.054 3.054v107.225c0 1.687-1.367 3.055-3.054 3.055z" fill="#e278b1"/></g><g><path d="m442.346 269.038h-33.31c-1.687 0-3.054-1.367-3.054-3.054v-158.735c0-1.687 1.367-3.054 3.054-3.054h33.31c1.687 0 3.054 1.367 3.054 3.054v158.734c0 1.687-1.367 3.055-3.054 3.055z" fill="#b3e59f"/></g><g><path d="m280.306 163.431h-12.498c-4.268 0-7.726-3.459-7.726-7.726s3.459-7.726 7.726-7.726h12.498c4.268 0 7.726 3.459 7.726 7.726s-3.458 7.726-7.726 7.726z" fill="#ffe07d"/></g><g><path d="m356.123 133.729h-12.498c-4.268 0-7.726-3.459-7.726-7.726s3.459-7.726 7.726-7.726h12.498c4.268 0 7.726 3.459 7.726 7.726s-3.458 7.726-7.726 7.726z" fill="#e278b1"/></g><g><path d="m431.94 84.454h-12.498c-4.268 0-7.726-3.459-7.726-7.726 0-4.268 3.459-7.726 7.726-7.726h12.498c4.268 0 7.726 3.459 7.726 7.726.001 4.267-3.458 7.726-7.726 7.726z" fill="#b3e59f"/></g></g></g><g><g><path d="m166.819 220.097h-38.408c-4.267 0-7.726-3.459-7.726-7.726s3.459-7.726 7.726-7.726h38.408c4.267 0 7.726 3.459 7.726 7.726s-3.459 7.726-7.726 7.726z" fill="#ffe07d"/></g><g><path d="m187.422 246.297h-59.012c-4.267 0-7.726-3.459-7.726-7.726s3.459-7.726 7.726-7.726h59.012c4.267 0 7.726 3.459 7.726 7.726s-3.459 7.726-7.726 7.726z" fill="#e278b1"/></g><g><path d="m208.026 272.496h-79.615c-4.267 0-7.726-3.459-7.726-7.726s3.459-7.726 7.726-7.726h79.615c4.267 0 7.726 3.459 7.726 7.726s-3.459 7.726-7.726 7.726z" fill="#b3e59f"/></g></g></g></svg>