<svg id="Capa_1" enable-background="new 0 0 512 512" height="512" viewBox="0 0 512 512" width="512" xmlns="http://www.w3.org/2000/svg"><g><g><path d="m478.325 263.726h-70.332c-4.268 0-7.726-3.459-7.726-7.726 0-4.268 3.459-7.726 7.726-7.726h70.332c4.268 0 7.726 3.459 7.726 7.726s-3.459 7.726-7.726 7.726z" fill="#e278b1"/></g><g><path d="m485.292 207.254h-84.564c-4.268 0-7.726-3.459-7.726-7.726 0-4.268 3.459-7.726 7.726-7.726h76.838v-42.792c0-4.268 3.459-7.726 7.726-7.726s7.726 3.459 7.726 7.726v50.517c.001 4.268-3.458 7.727-7.726 7.727z" fill="#e278b1"/></g><g><path d="m485.292 370.716c-4.268 0-7.726-3.459-7.726-7.726v-42.791h-76.838c-4.268 0-7.726-3.459-7.726-7.726 0-4.268 3.459-7.726 7.726-7.726h84.564c4.268 0 7.726 3.459 7.726 7.726v50.517c.001 4.268-3.458 7.726-7.726 7.726z" fill="#e278b1"/></g><g><path d="m104.008 263.726h-75.483c-4.268 0-7.726-3.459-7.726-7.726 0-4.268 3.459-7.726 7.726-7.726h75.483c4.268 0 7.726 3.459 7.726 7.726s-3.459 7.726-7.726 7.726z" fill="#e278b1"/></g><g><path d="m111.272 207.254h-84.564c-4.268 0-7.726-3.459-7.726-7.726v-50.518c0-4.268 3.459-7.726 7.726-7.726s7.726 3.459 7.726 7.726v42.791h76.838c4.268 0 7.726 3.459 7.726 7.726.001 4.268-3.458 7.727-7.726 7.727z" fill="#e278b1"/></g><g><path d="m26.708 370.716c-4.268 0-7.726-3.459-7.726-7.726v-50.517c0-4.268 3.459-7.726 7.726-7.726h84.564c4.268 0 7.726 3.459 7.726 7.726 0 4.268-3.459 7.726-7.726 7.726h-76.838v42.791c0 4.268-3.459 7.726-7.726 7.726z" fill="#e278b1"/></g><path d="m418.596 256c0 95.322-67.274 172.596-162.596 172.596s-172.596-77.274-172.596-172.596 77.274-172.596 172.596-172.596 162.596 77.274 162.596 172.596z" fill="#698ed5"/><g fill="#e278b1"><path d="m491.218 272.36 19.053-13.076c2.306-1.582 2.306-4.986 0-6.569l-19.053-13.076c-1.358-.932-3.15-.932-4.508 0l-23.839 16.361 23.838 16.36c1.359.932 3.151.932 4.509 0z"/><path d="m501.652 141.267-13.076-19.053c-1.582-2.306-4.986-2.306-6.569 0l-13.076 19.053c-.932 1.358-.932 3.15 0 4.508l16.36 23.838 16.36-23.838c.933-1.358.933-3.149.001-4.508z"/><path d="m501.652 370.733-13.076 19.053c-1.582 2.306-4.986 2.306-6.569 0l-13.076-19.053c-.932-1.358-.932-3.15 0-4.508l16.36-23.839 16.36 23.839c.933 1.358.933 3.15.001 4.508z"/><path d="m20.782 272.36-19.053-13.076c-2.306-1.582-2.306-4.986 0-6.569l19.053-13.076c1.358-.932 3.15-.932 4.508 0l23.839 16.361-23.839 16.36c-1.358.932-3.15.932-4.508 0z"/><path d="m10.348 141.267 13.076-19.053c1.582-2.306 4.986-2.306 6.569 0l13.076 19.053c.932 1.358.932 3.15 0 4.508l-16.36 23.838-16.36-23.838c-.933-1.358-.933-3.149-.001-4.508z"/><path d="m10.348 370.733 13.076 19.053c1.582 2.306 4.986 2.306 6.569 0l13.076-19.053c.932-1.358.932-3.15 0-4.508l-16.36-23.839-16.36 23.839c-.933 1.358-.933 3.15-.001 4.508z"/></g><path d="m83.404 256c0 55.27 25.982 104.468 66.395 136.058 14.856-7.166 26.976-19.243 30.151-36.249 2.511-13.447.126-27.306.719-40.871.276-6.314.79-13.207 3.577-18.973 2.361-4.885 6.534-8.035 10.85-11.096 10.609-7.524 24.362-14.37 31.675-25.476 6.593-10.011 8.282-22.46 9.281-34.149 1.131-13.229 1.625-26.449-5.18-38.344-5.843-10.213-14.39-18.637-19.739-29.159-11.887-23.384-2.958-48.132 7.387-70.245-77.301 17.12-135.116 86.055-135.116 168.504z" fill="#b3e59f"/><path d="m256 428.596c53.064 0 100.527-23.954 132.188-61.631-1.941-3.916-4.015-7.739-6.054-11.426-10.194-18.433-26.418-35.108-45.487-44.41-17.358-8.468-37.229-6.196-51.428 7.216-6.681 6.31-10.856 14.091-12.801 23.031-1.998 9.185-3.417 18.854-11.523 24.809-7.707 5.662-15.129 4.184-22.231-1.314-9.295-7.194-18.736 2.708-24.038 10-7.492 10.305-15.216 28.859-20.299 42.367 19.154 7.331 39.942 11.358 61.673 11.358z" fill="#b3e59f"/><path d="m374.708 343.916c-27.678 46.663-76.709 79.161-133.636 84.033 4.921.423 9.897.648 14.928.648 53.064 0 100.527-23.954 132.188-61.631-1.941-3.916-4.015-7.739-6.054-11.426-2.2-3.979-4.696-7.866-7.426-11.624z" fill="#95d6a4"/><path d="m398.761 158.982c-20.953-30.772-51.59-54.42-87.532-66.552-.652 2.668-1.291 5.339-1.903 8.016-1.009 4.413-3.8 11.338-3.121 15.84.547 3.626 5.755 5.697 8.353 8.101 5.38 4.978 9.195 11.872 9.469 19.289.298 8.049-3.838 15.316-8.417 21.608-4.464 6.136-9.016 11.987-12.355 18.853-3.487 7.171-5.775 14.935-7.308 22.744-1.449 7.381-2.382 16.062 1.369 22.941 3.509 6.436 10.507 9.502 17.328 11.125 7.139 1.699 15.574 2.675 22.767.923 7.36-1.793 13.123-7.013 18.189-12.382 10.78-11.425 20.041-24.341 27.883-37.934 6.007-10.412 11.121-21.307 15.278-32.572z" fill="#b3e59f"/><g fill="#4073c8"><path d="m309.326 100.447c.612-2.678 2.664-7.749 3.046-7.617-.435-.15-.706-.252-1.143-.399-17.294-5.819-35.973-9.027-55.228-9.027-5.027 0-10 .228-14.918.649 24.176 2.07 46.924 9.133 67.223 20.138.397-1.356.765-2.63 1.02-3.744z"/><path d="m398.761 158.982c-3.771 10.221-8.34 20.134-13.641 29.664 8.781 20.695 13.641 43.456 13.641 67.354 0 32.111-8.776 62.168-24.051 87.917 2.729 3.758 5.225 7.645 7.425 11.622 2.039 3.687 4.113 7.51 6.053 11.426 25.213-30.004 40.409-68.707 40.409-110.965 0-35.944-10.994-69.318-29.795-96.954z"/></g><path d="m385.121 188.644c5.3-9.529 9.868-19.441 13.64-29.662-20.953-30.772-51.59-54.42-87.532-66.552-.652 2.668-1.291 5.339-1.903 8.016-.254 1.109-.619 2.376-1.014 3.723 34.239 18.566 61.493 48.374 76.809 84.475z" fill="#95d6a4"/></g></svg>