<svg id="Capa_1" enable-background="new 0 0 512 512" height="512" viewBox="0 0 512 512" width="512" xmlns="http://www.w3.org/2000/svg"><g><g><g><path d="m255.999 470.526c-.697 0-1.395-.097-2.07-.291l-114.157-32.79c-3.981-1.144-6.282-5.299-5.139-9.279 1.145-3.982 5.3-6.276 9.279-5.139l112.087 32.195 112.087-32.195c3.979-1.139 8.136 1.156 9.279 5.139 1.144 3.98-1.157 8.136-5.139 9.279l-114.157 32.79c-.675.195-1.372.291-2.07.291z" fill="#365e7d"/></g><g><path d="m255.999 409.083c-.78 0-1.561-.122-2.312-.365l-101.159-32.79c-3.94-1.277-6.1-5.507-4.822-9.447 1.278-3.939 5.509-6.099 9.447-4.822l98.847 32.041 98.848-32.041c3.94-1.275 8.17.882 9.447 4.822s-.882 8.17-4.822 9.447l-101.16 32.79c-.753.243-1.533.365-2.314.365z" fill="#365e7d"/></g><g><path d="m255.999 347.64c-.886 0-1.771-.157-2.614-.471l-88.162-32.79c-3.883-1.443-5.859-5.762-4.415-9.644 1.443-3.882 5.763-5.857 9.644-4.415l85.548 31.817 85.548-31.817c3.881-1.442 8.2.533 9.644 4.415s-.532 8.2-4.415 9.644l-88.162 32.79c-.844.313-1.73.471-2.616.471z" fill="#365e7d"/></g><g><path d="m255.999 286.196c-1.021 0-2.043-.209-2.999-.626l-75.164-32.789c-3.797-1.656-5.531-6.076-3.875-9.873 1.655-3.797 6.076-5.535 9.873-3.875l72.165 31.48 72.166-31.48c3.798-1.658 8.218.078 9.873 3.875 1.656 3.797-.079 8.217-3.875 9.873l-75.165 32.789c-.956.417-1.977.626-2.999.626z" fill="#365e7d"/></g><g><path d="m255.999 224.754c-1.202 0-2.404-.289-3.499-.866l-62.166-32.79c-3.664-1.933-5.067-6.469-3.135-10.133 1.933-3.663 6.47-5.066 10.133-3.135l58.667 30.944 58.668-30.944c3.666-1.934 8.201-.528 10.133 3.135 1.933 3.664.529 8.2-3.135 10.133l-62.167 32.79c-1.094.577-2.296.866-3.499.866z" fill="#365e7d"/></g></g><g><path d="m255.999 512c-4.143 0-7.5-3.357-7.5-7.5v-389.501c0-4.143 3.357-7.5 7.5-7.5s7.5 3.357 7.5 7.5v389.501c.001 4.143-3.357 7.5-7.5 7.5z" fill="#2b4d66"/></g><g><g><path d="m133.37 477.829c-.515 0-1.037-.054-1.56-.164-4.053-.857-6.644-4.838-5.786-8.89l77.221-365.042c.858-4.054 4.846-6.641 8.89-5.786 4.053.857 6.644 4.838 5.786 8.89l-77.221 365.042c-.747 3.529-3.863 5.95-7.33 5.95z" fill="#2b4d66"/></g><g><path d="m378.63 477.829c-3.469 0-6.583-2.42-7.33-5.95l-77.22-365.042c-.857-4.052 1.733-8.032 5.786-8.89 4.041-.856 8.031 1.732 8.89 5.786l77.221 365.042c.857 4.052-1.733 8.032-5.786 8.89-.524.11-1.046.164-1.561.164z" fill="#2b4d66"/></g></g><path d="m341.404 124.999h-170.809c-3.338 0-6.044-2.706-6.044-6.044v-25.189c0-3.338 2.706-6.044 6.044-6.044h170.809c3.338 0 6.044 2.706 6.044 6.044v25.189c0 3.338-2.706 6.044-6.044 6.044z" fill="#365e7d"/><path d="m341.404 87.723h-25.65c3.338 0 6.044 2.706 6.044 6.044v25.189c0 3.338-2.706 6.043-6.044 6.043h25.65c3.338 0 6.044-2.706 6.044-6.043v-25.19c0-3.337-2.706-6.043-6.044-6.043z" fill="#2b4d66"/><path d="m298.074 87.723h-84.148v-20.587c0-23.237 18.837-42.074 42.074-42.074 23.237 0 42.074 18.837 42.074 42.074z" fill="#e278b1"/><path d="m256 25.062c-4.473 0-8.781.704-12.825 1.998 16.964 5.425 29.249 21.313 29.249 40.076v20.587h25.65v-20.587c0-23.237-18.837-42.074-42.074-42.074z" fill="#dd5ca2"/><g><g><g><path d="m93.513 112.785c-1.938 0-3.875-.747-5.344-2.237-14.336-14.556-22.232-33.789-22.232-54.155s7.896-39.6 22.232-54.155c2.906-2.951 7.654-2.987 10.606-.081 2.951 2.907 2.987 7.655.081 10.606-11.556 11.732-17.92 27.227-17.92 43.63s6.364 31.897 17.92 43.63c2.906 2.951 2.87 7.699-.081 10.606-1.46 1.438-3.361 2.156-5.262 2.156z" fill="#b1e4f9"/></g><g><path d="m120.161 94.756c-1.938 0-3.876-.747-5.344-2.237-9.562-9.709-14.829-22.539-14.829-36.126 0-13.588 5.267-26.418 14.83-36.126 2.906-2.951 7.654-2.989 10.605-.08 2.951 2.906 2.987 7.655.08 10.605-6.781 6.885-10.516 15.977-10.516 25.601 0 9.623 3.734 18.715 10.517 25.601 2.906 2.951 2.87 7.699-.081 10.606-1.461 1.438-3.362 2.156-5.262 2.156z" fill="#b1e4f9"/></g><g><path d="m146.804 76.73c-1.938 0-3.876-.747-5.344-2.237-4.786-4.86-7.423-11.288-7.423-18.101s2.637-13.24 7.423-18.101c2.906-2.952 7.655-2.987 10.606-.081 2.951 2.907 2.987 7.655.081 10.606-2.006 2.036-3.11 4.727-3.11 7.575s1.104 5.539 3.11 7.575c2.906 2.951 2.87 7.699-.081 10.606-1.46 1.441-3.361 2.158-5.262 2.158z" fill="#b1e4f9"/></g></g><g><g><path d="m418.487 112.785c-1.9 0-3.802-.718-5.263-2.156-2.951-2.907-2.987-7.655-.081-10.606 11.556-11.732 17.92-27.227 17.92-43.63s-6.364-31.897-17.92-43.63c-2.906-2.951-2.87-7.699.081-10.606 2.951-2.906 7.697-2.87 10.606.081 14.337 14.556 22.232 33.789 22.232 54.155s-7.896 39.6-22.232 54.155c-1.467 1.49-3.405 2.237-5.343 2.237z" fill="#b1e4f9"/></g><g><path d="m391.839 94.756c-1.9 0-3.802-.718-5.263-2.156-2.951-2.907-2.987-7.655-.081-10.606 6.782-6.886 10.517-15.978 10.517-25.601 0-9.624-3.734-18.716-10.516-25.601-2.907-2.95-2.871-7.699.08-10.605 2.948-2.909 7.698-2.871 10.605.08 9.563 9.708 14.83 22.538 14.83 36.126 0 13.587-5.267 26.417-14.829 36.126-1.467 1.49-3.404 2.237-5.343 2.237z" fill="#b1e4f9"/></g><g><path d="m365.196 76.73c-1.9 0-3.802-.718-5.263-2.156-2.951-2.907-2.987-7.655-.081-10.606 2.005-2.036 3.109-4.726 3.109-7.575s-1.104-5.539-3.109-7.574c-2.907-2.95-2.871-7.699.079-10.606 2.949-2.907 7.698-2.872 10.606.079 4.787 4.859 7.424 11.288 7.424 18.102 0 6.812-2.636 13.241-7.422 18.101-1.467 1.488-3.405 2.235-5.343 2.235z" fill="#b1e4f9"/></g></g></g></g></svg>