<svg id="Capa_1" enable-background="new 0 0 512 512" height="512" viewBox="0 0 512 512" width="512" xmlns="http://www.w3.org/2000/svg"><g><path d="m427.791 92.463h-343.582c-3.574 0-6.986-1.488-9.419-4.106l-31.003-33.376c-4.582-4.933-4.582-12.566 0-17.499l31.003-33.376c2.433-2.618 5.845-4.106 9.419-4.106h343.582c3.574 0 6.986 1.488 9.419 4.106l31.004 33.376c4.582 4.933 4.582 12.566 0 17.499l-31.004 33.376c-2.433 2.618-5.845 4.106-9.419 4.106z" fill="#365e7d"/><path d="m468.213 37.482-31.003-33.376c-2.433-2.618-5.845-4.106-9.419-4.106h-30.097c3.574 0 6.986 1.488 9.419 4.106l31.004 33.376c4.582 4.933 4.582 12.566 0 17.499l-31.004 33.376c-2.432 2.618-5.845 4.106-9.419 4.106h30.097c3.574 0 6.986-1.488 9.419-4.106l31.004-33.376c4.582-4.933 4.582-12.566-.001-17.499z" fill="#2b4d66"/><path d="m99.356 92.463h313.288v35.537h-313.288z" fill="#d0e2e7"/><path d="m382.547 92.463h30.097v35.537h-30.097z" fill="#b4d0d5"/><path d="m201.64 63.142h-85.707c-3.889 0-7.041-3.152-7.041-7.041v-19.74c0-3.889 3.152-7.041 7.041-7.041h85.707c3.889 0 7.041 3.152 7.041 7.041v19.74c0 3.889-3.152 7.041-7.041 7.041z" fill="#b1e4f9"/><path d="m427.791 220.463h-343.582c-3.574 0-6.986-1.488-9.419-4.106l-31.004-33.376c-4.582-4.933-4.582-12.566 0-17.499l31.004-33.376c2.432-2.618 5.845-4.106 9.419-4.106h343.582c3.574 0 6.986 1.488 9.419 4.106l31.004 33.376c4.582 4.933 4.582 12.566 0 17.499l-31.004 33.376c-2.433 2.618-5.845 4.106-9.419 4.106z" fill="#365e7d"/><path d="m468.213 165.482-31.004-33.376c-2.432-2.618-5.845-4.106-9.419-4.106h-30.097c3.574 0 6.986 1.488 9.419 4.106l31.004 33.376c4.582 4.933 4.582 12.566 0 17.499l-31.004 33.376c-2.432 2.618-5.845 4.106-9.419 4.106h30.097c3.574 0 6.986-1.488 9.419-4.106l31.004-33.376c4.583-4.933 4.583-12.566 0-17.499z" fill="#2b4d66"/><path d="m99.356 220.463h313.288v35.537h-313.288z" fill="#d0e2e7"/><path d="m382.547 220.463h30.097v35.537h-30.097z" fill="#b4d0d5"/><path d="m201.64 191.142h-85.707c-3.889 0-7.041-3.152-7.041-7.041v-19.74c0-3.889 3.152-7.041 7.041-7.041h85.707c3.889 0 7.041 3.152 7.041 7.041v19.74c0 3.889-3.152 7.041-7.041 7.041z" fill="#b1e4f9"/><path d="m427.791 348.463h-343.582c-3.574 0-6.986-1.488-9.419-4.106l-31.004-33.376c-4.582-4.933-4.582-12.566 0-17.499l31.004-33.376c2.432-2.618 5.845-4.106 9.419-4.106h343.582c3.574 0 6.986 1.488 9.419 4.106l31.004 33.376c4.582 4.933 4.582 12.566 0 17.499l-31.004 33.376c-2.433 2.618-5.845 4.106-9.419 4.106z" fill="#365e7d"/><path d="m468.213 293.482-31.004-33.376c-2.432-2.618-5.845-4.106-9.419-4.106h-30.097c3.574 0 6.986 1.488 9.419 4.106l31.004 33.376c4.582 4.933 4.582 12.566 0 17.499l-31.004 33.376c-2.432 2.618-5.845 4.106-9.419 4.106h30.097c3.574 0 6.986-1.488 9.419-4.106l31.004-33.376c4.583-4.933 4.583-12.566 0-17.499z" fill="#2b4d66"/><path d="m99.356 348.463h313.288v35.537h-313.288z" fill="#d0e2e7"/><path d="m382.547 348.463h30.097v35.537h-30.097z" fill="#b4d0d5"/><path d="m201.64 319.142h-85.707c-3.889 0-7.041-3.152-7.041-7.041v-19.74c0-3.889 3.152-7.041 7.041-7.041h85.707c3.889 0 7.041 3.152 7.041 7.041v19.74c0 3.889-3.152 7.041-7.041 7.041z" fill="#e278b1"/><path d="m427.791 476.463h-343.582c-3.574 0-6.986-1.488-9.419-4.106l-31.004-33.376c-4.582-4.933-4.582-12.566 0-17.499l31.004-33.376c2.432-2.618 5.845-4.106 9.419-4.106h343.582c3.574 0 6.986 1.488 9.419 4.106l31.004 33.376c4.582 4.933 4.582 12.566 0 17.499l-31.004 33.376c-2.433 2.618-5.845 4.106-9.419 4.106z" fill="#365e7d"/><path d="m468.213 421.482-31.004-33.376c-2.432-2.618-5.845-4.106-9.419-4.106h-30.097c3.574 0 6.986 1.488 9.419 4.106l31.004 33.376c4.582 4.933 4.582 12.566 0 17.499l-31.004 33.376c-2.432 2.618-5.845 4.106-9.419 4.106h30.097c3.574 0 6.986-1.488 9.419-4.106l31.004-33.376c4.583-4.933 4.583-12.566 0-17.499z" fill="#2b4d66"/><path d="m405.235 512h-298.471c-4.091 0-7.408-3.317-7.408-7.408v-28.129h313.288v28.129c0 4.091-3.317 7.408-7.409 7.408z" fill="#d0e2e7"/><path d="m382.547 476.463v35.537h22.688c4.091 0 7.408-3.317 7.408-7.408v-28.129z" fill="#b4d0d5"/><path d="m201.64 447.142h-85.707c-3.889 0-7.041-3.152-7.041-7.041v-19.74c0-3.889 3.152-7.041 7.041-7.041h85.707c3.889 0 7.041 3.152 7.041 7.041v19.74c0 3.889-3.152 7.041-7.041 7.041z" fill="#b1e4f9"/><g><g><path d="m249.471 53.958h-10.423c-4.268 0-7.726-3.459-7.726-7.726s3.459-7.726 7.726-7.726h10.423c4.268 0 7.726 3.459 7.726 7.726s-3.458 7.726-7.726 7.726z" fill="#95d6a4"/></g><g><path d="m284.462 53.958h-10.422c-4.268 0-7.726-3.459-7.726-7.726s3.459-7.726 7.726-7.726h10.423c4.268 0 7.726 3.459 7.726 7.726s-3.459 7.726-7.727 7.726z" fill="#95d6a4"/></g><g><path d="m329.14 100.189c-4.268 0-7.726-3.459-7.726-7.726v-17.562c0-4.267 3.459-7.726 7.726-7.726s7.726 3.459 7.726 7.726v17.562c.001 4.267-3.458 7.726-7.726 7.726z" fill="#95d6a4"/></g><g><path d="m361.209 100.189c-4.268 0-7.726-3.459-7.726-7.726v-17.562c0-4.267 3.459-7.726 7.726-7.726s7.726 3.459 7.726 7.726v17.562c0 4.267-3.458 7.726-7.726 7.726z" fill="#95d6a4"/></g><g><path d="m393.278 100.189c-4.268 0-7.726-3.459-7.726-7.726v-17.562c0-4.267 3.459-7.726 7.726-7.726 4.268 0 7.726 3.459 7.726 7.726v17.562c.001 4.267-3.458 7.726-7.726 7.726z" fill="#95d6a4"/></g><g><path d="m249.471 181.958h-10.423c-4.268 0-7.726-3.459-7.726-7.726s3.459-7.726 7.726-7.726h10.423c4.268 0 7.726 3.459 7.726 7.726.001 4.266-3.458 7.726-7.726 7.726z" fill="#95d6a4"/></g><g><path d="m284.462 181.958h-10.422c-4.268 0-7.726-3.459-7.726-7.726s3.459-7.726 7.726-7.726h10.423c4.268 0 7.726 3.459 7.726 7.726 0 4.266-3.459 7.726-7.727 7.726z" fill="#95d6a4"/></g><g><path d="m329.14 228.189c-4.268 0-7.726-3.459-7.726-7.726v-17.562c0-4.267 3.459-7.726 7.726-7.726s7.726 3.459 7.726 7.726v17.562c.001 4.267-3.458 7.726-7.726 7.726z" fill="#95d6a4"/></g><g><path d="m361.209 228.189c-4.268 0-7.726-3.459-7.726-7.726v-17.562c0-4.267 3.459-7.726 7.726-7.726s7.726 3.459 7.726 7.726v17.562c0 4.267-3.458 7.726-7.726 7.726z" fill="#95d6a4"/></g><g><path d="m393.278 228.189c-4.268 0-7.726-3.459-7.726-7.726v-17.562c0-4.267 3.459-7.726 7.726-7.726 4.268 0 7.726 3.459 7.726 7.726v17.562c.001 4.267-3.458 7.726-7.726 7.726z" fill="#95d6a4"/></g><g><path d="m249.471 309.958h-10.423c-4.268 0-7.726-3.459-7.726-7.726s3.459-7.726 7.726-7.726h10.423c4.268 0 7.726 3.459 7.726 7.726s-3.458 7.726-7.726 7.726z" fill="#95d6a4"/></g><g><path d="m284.462 309.958h-10.422c-4.268 0-7.726-3.459-7.726-7.726s3.459-7.726 7.726-7.726h10.423c4.268 0 7.726 3.459 7.726 7.726s-3.459 7.726-7.727 7.726z" fill="#95d6a4"/></g><g><path d="m329.14 356.189c-4.268 0-7.726-3.459-7.726-7.726v-17.562c0-4.268 3.459-7.726 7.726-7.726s7.726 3.459 7.726 7.726v17.562c.001 4.268-3.458 7.726-7.726 7.726z" fill="#95d6a4"/></g><g><path d="m361.209 356.189c-4.268 0-7.726-3.459-7.726-7.726v-17.562c0-4.268 3.459-7.726 7.726-7.726s7.726 3.459 7.726 7.726v17.562c0 4.268-3.458 7.726-7.726 7.726z" fill="#95d6a4"/></g><g><path d="m393.278 356.189c-4.268 0-7.726-3.459-7.726-7.726v-17.562c0-4.268 3.459-7.726 7.726-7.726 4.268 0 7.726 3.459 7.726 7.726v17.562c.001 4.268-3.458 7.726-7.726 7.726z" fill="#95d6a4"/></g><g><path d="m249.471 437.958h-10.423c-4.268 0-7.726-3.459-7.726-7.726 0-4.268 3.459-7.726 7.726-7.726h10.423c4.268 0 7.726 3.459 7.726 7.726.001 4.267-3.458 7.726-7.726 7.726z" fill="#95d6a4"/></g><g><path d="m284.462 437.958h-10.422c-4.268 0-7.726-3.459-7.726-7.726 0-4.268 3.459-7.726 7.726-7.726h10.423c4.268 0 7.726 3.459 7.726 7.726s-3.459 7.726-7.727 7.726z" fill="#95d6a4"/></g><g><path d="m329.14 484.189c-4.268 0-7.726-3.459-7.726-7.726v-17.562c0-4.268 3.459-7.726 7.726-7.726s7.726 3.459 7.726 7.726v17.562c.001 4.268-3.458 7.726-7.726 7.726z" fill="#95d6a4"/></g><g><path d="m361.209 484.189c-4.268 0-7.726-3.459-7.726-7.726v-17.562c0-4.268 3.459-7.726 7.726-7.726s7.726 3.459 7.726 7.726v17.562c0 4.268-3.458 7.726-7.726 7.726z" fill="#95d6a4"/></g><g><path d="m393.278 484.189c-4.268 0-7.726-3.459-7.726-7.726v-17.562c0-4.268 3.459-7.726 7.726-7.726 4.268 0 7.726 3.459 7.726 7.726v17.562c.001 4.268-3.458 7.726-7.726 7.726z" fill="#95d6a4"/></g></g></g></svg>