<svg id="Capa_1" enable-background="new 0 0 512 512" height="512" viewBox="0 0 512 512" width="512" xmlns="http://www.w3.org/2000/svg"><g><g><path d="m256 388.44c-4.268 0-7.726-3.459-7.726-7.726v-143.442c0-4.268 3.459-7.726 7.726-7.726s7.726 3.459 7.726 7.726v143.442c0 4.267-3.459 7.726-7.726 7.726z" fill="#365e7d"/></g><g><path d="m443.432 388.44c-4.268 0-7.726-3.459-7.726-7.726v-47.256c0-6.537-5.318-11.855-11.855-11.855h-335.702c-6.536 0-11.854 5.318-11.854 11.855v47.256c0 4.268-3.459 7.726-7.726 7.726-4.268 0-7.726-3.459-7.726-7.726v-47.256c0-15.057 12.249-27.308 27.307-27.308h335.702c15.057 0 27.308 12.251 27.308 27.308v47.256c-.001 4.267-3.46 7.726-7.728 7.726z" fill="#365e7d"/></g><path d="m247.182 0c37.076 0 69.28 21.247 85.076 52.206 2.299 4.506 7.02 7.245 12.07 6.948 48.191-2.84 89.582 35.591 89.819 84.391.228 46.948-39.151 85.358-86.1 85.358h-194.763c-41.159 0-75.271-32.985-75.431-74.144-.147-37.808 28.306-70.065 66.222-74.264 5.22-.578 9.482-4.37 10.825-9.447 10.804-40.849 48.082-71.048 92.282-71.048z" fill="#b1e4f9"/><g><path d="m335.833 60.078c-14.079-35.172-48.509-60.078-88.651-60.078-31.751 0-59.913 15.597-77.272 39.518 15.713-11.378 35.011-18.097 55.851-18.097 34.88 0 65.448 18.805 82.099 46.81 4.404 7.407 12.344 12.109 20.961 12.201 45.751.486 83.906 37.967 83.906 84.956 0 17.956-5.616 34.618-15.163 48.352 22.087-15.353 36.585-40.896 36.585-69.773-.001-51.85-46.459-92.123-98.316-83.889z" fill="#90d8f9"/></g><g><path d="m283.071 163.929h-54.142c-4.268 0-7.726-3.459-7.726-7.726s3.459-7.726 7.726-7.726h54.142c4.268 0 7.726 3.459 7.726 7.726s-3.458 7.726-7.726 7.726z" fill="#90d8f9"/></g><path d="m321.243 257.875h-130.486c-5.785 0-10.474-4.689-10.474-10.474v-33.135c0-5.785 4.689-10.474 10.474-10.474h130.485c5.785 0 10.474 4.689 10.474 10.474v33.135c.001 5.784-4.689 10.474-10.473 10.474z" fill="#e278b1"/><path d="m321.243 203.792h-23.155c5.785 0 10.474 4.689 10.474 10.474v33.135c0 5.785-4.689 10.474-10.474 10.474h23.155c5.785 0 10.474-4.689 10.474-10.474v-33.135c0-5.785-4.69-10.474-10.474-10.474z" fill="#dd5ca2"/><path d="m63.523 426.893-12.839-12.285c-1.162-1.112-2.709-1.733-4.317-1.733h-40.123c-3.449 0-6.244 2.796-6.244 6.244v86.637c0 3.448 2.796 6.244 6.244 6.244h126.716c3.449 0 6.244-2.796 6.244-6.244v-70.886c0-3.449-2.796-6.244-6.244-6.244h-65.12c-1.609-.001-3.155-.621-4.317-1.733z" fill="#ffe07d"/><path d="m132.96 428.625h-23.383c3.449 0 6.244 2.796 6.244 6.244v70.886c0 3.449-2.796 6.244-6.244 6.244h23.383c3.449 0 6.244-2.796 6.244-6.244v-70.885c.001-3.449-2.795-6.245-6.244-6.245z" fill="#ffd064"/><path d="m249.92 426.893-12.839-12.285c-1.162-1.112-2.709-1.733-4.317-1.733h-40.122c-3.449 0-6.244 2.796-6.244 6.244v86.637c0 3.449 2.796 6.244 6.244 6.244h126.716c3.449 0 6.244-2.796 6.244-6.244v-70.886c0-3.449-2.796-6.244-6.244-6.244h-65.121c-1.608-.001-3.154-.621-4.317-1.733z" fill="#ffe07d"/><path d="m319.358 428.625h-23.383c3.449 0 6.244 2.796 6.244 6.244v70.886c0 3.449-2.796 6.244-6.244 6.244h23.383c3.449 0 6.244-2.796 6.244-6.244v-70.885c0-3.449-2.795-6.245-6.244-6.245z" fill="#ffd064"/><path d="m436.318 426.893-12.839-12.285c-1.162-1.112-2.709-1.733-4.317-1.733h-40.122c-3.449 0-6.244 2.796-6.244 6.244v86.637c0 3.449 2.796 6.244 6.244 6.244h126.716c3.449 0 6.244-2.796 6.244-6.244v-70.886c0-3.449-2.796-6.244-6.244-6.244h-65.121c-1.608-.001-3.155-.621-4.317-1.733z" fill="#ffe07d"/><path d="m505.756 428.625h-23.383c3.449 0 6.244 2.796 6.244 6.244v70.886c0 3.449-2.796 6.244-6.244 6.244h23.383c3.449 0 6.244-2.796 6.244-6.244v-70.885c0-3.449-2.796-6.245-6.244-6.245z" fill="#ffd064"/></g></svg>