<svg id="Capa_1" enable-background="new 0 0 512 512" height="512" viewBox="0 0 512 512" width="512" xmlns="http://www.w3.org/2000/svg"><g><path d="m297.64 436.105-15.125-17.018h-58.445l-9.71 17.018c5.387 26.794-9.886 55.055-28.867 68.284h141.015c-18.982-13.229-34.255-41.49-28.868-68.284z" fill="#365e7d"/><path d="m214.811 456.059h82.378c-.947-6.574-.885-13.309.451-19.954l-15.125-17.019h-58.445l-9.71 17.019c1.336 6.645 1.398 13.38.451 19.954z" fill="#2b4d66"/><g><path d="m360.479 512h-208.958c-4.204 0-7.611-3.407-7.611-7.612s3.407-7.611 7.611-7.611h208.958c4.204 0 7.612 3.407 7.612 7.611s-3.408 7.612-7.612 7.612z" fill="#2b4d66"/></g><g><path d="m255.999 484.957c-4.204 0-7.612-3.407-7.612-7.611v-9.817c0-4.204 3.407-7.612 7.612-7.612s7.611 3.407 7.611 7.612v9.817c.001 4.204-3.406 7.611-7.611 7.611z" fill="#2b4d66"/></g><path d="m467.453 369.074-21.302-17.018h-385.882l-15.723 17.018v37.451c0 16.337 13.243 29.58 29.58 29.58h363.747c16.337 0 29.58-13.243 29.58-29.58z" fill="#d0e2e7"/><path d="m446.151 352.056v54.469c0 16.337-13.244 29.58-29.58 29.58h21.302c16.337 0 29.58-13.243 29.58-29.58v-37.451z" fill="#b4d0d5"/><g><path d="m271.012 410.201h-30.026c-4.204 0-7.611-3.407-7.611-7.611s3.407-7.612 7.611-7.612h30.026c4.204 0 7.611 3.407 7.611 7.612s-3.406 7.611-7.611 7.611z" fill="#95d6a4"/></g><path d="m467.453 369.074h-422.907v-228.7c0-16.337 13.243-29.58 29.58-29.58h363.747c16.337 0 29.58 13.243 29.58 29.58z" fill="#365e7d"/><path d="m437.873 110.794h-21.302c16.337 0 29.58 13.243 29.58 29.58v228.7h21.302v-228.7c0-16.336-13.243-29.58-29.58-29.58z" fill="#2b4d66"/><path d="m77.708 331.591v-183.314c0-2.387 1.935-4.322 4.322-4.322h347.94c2.387 0 4.322 1.935 4.322 4.322v183.314c0 2.387-1.935 4.322-4.322 4.322h-347.94c-2.387 0-4.322-1.935-4.322-4.322z" fill="#f6f9f9"/><path d="m429.97 143.955h-23.442c2.387 0 4.322 1.935 4.322 4.322v183.314c0 2.387-1.935 4.322-4.322 4.322h23.442c2.387 0 4.322-1.935 4.322-4.322v-183.314c0-2.387-1.935-4.322-4.322-4.322z" fill="#dfeaef"/><path d="m248.692 0c30.728 0 57.418 17.609 70.509 43.268 1.905 3.735 5.818 6.005 10.003 5.758 39.94-2.353 74.244 29.498 74.441 69.942.189 38.91-32.448 70.744-71.358 70.744h-161.417c-34.112 0-62.383-27.337-62.516-61.449-.122-31.335 23.459-58.069 54.884-61.549 4.326-.479 7.859-3.622 8.972-7.829 8.954-33.857 39.849-58.885 76.482-58.885z" fill="#b1e4f9"/><g><path d="m329.204 49.026c-4.185.247-8.098-2.024-10.003-5.758-13.091-25.659-39.781-43.268-70.509-43.268-29.805 0-55.81 16.569-69.291 40.98 12.565-8.41 27.657-13.326 43.879-13.326 30.728 0 57.418 17.609 70.509 43.268 1.906 3.735 5.818 6.005 10.003 5.758 39.94-2.353 74.244 29.498 74.441 69.942.056 11.472-2.76 22.319-7.731 31.926 19.875-12.603 33.264-34.628 33.143-59.58-.196-40.445-34.501-72.296-74.441-69.942z" fill="#90d8f9"/></g><g><g><path d="m300.216 88.44c-4.204 0-7.611-3.407-7.611-7.611 0-14.077-11.452-25.529-25.529-25.529s-25.53 11.452-25.53 25.529c0 4.204-3.407 7.611-7.611 7.611s-7.611-3.407-7.611-7.611c0-22.471 18.281-40.752 40.753-40.752 22.471 0 40.752 18.281 40.752 40.752-.002 4.203-3.409 7.611-7.613 7.611z" fill="#f6f9f9"/></g><g><path d="m232.357 95.269c-.636 0-1.275-.079-1.902-.242-2.08-.536-3.837-1.928-4.836-3.831l-8.789-16.732c-1.955-3.722-.522-8.323 3.199-10.278 3.721-1.958 8.322-.523 10.277 3.199l4.883 9.296 7.763-5.109c3.511-2.308 8.232-1.337 10.543 2.174 2.31 3.512 1.337 8.232-2.174 10.543l-14.78 9.725c-1.254.827-2.711 1.255-4.184 1.255z" fill="#f6f9f9"/></g></g><g><g><path d="m244.925 149.636c-22.471 0-40.752-18.281-40.752-40.752 0-4.204 3.407-7.611 7.611-7.611s7.611 3.407 7.611 7.611c0 14.077 11.452 25.529 25.529 25.529s25.529-11.452 25.529-25.529c0-4.204 3.407-7.611 7.612-7.611s7.611 3.407 7.611 7.611c.001 22.47-18.28 40.752-40.751 40.752z" fill="#f6f9f9"/></g><g><path d="m288.437 126.4c-2.737 0-5.383-1.482-6.744-4.074l-4.882-9.296-7.763 5.109c-3.513 2.308-8.232 1.336-10.543-2.174-2.31-3.512-1.337-8.232 2.174-10.543l14.78-9.725c1.797-1.18 4.01-1.549 6.086-1.011 2.081.537 3.837 1.929 4.836 3.831l8.788 16.732c1.954 3.722.522 8.323-3.199 10.278-1.129.591-2.34.873-3.533.873z" fill="#f6f9f9"/></g></g><path d="m318.683 297.425h-125.366c-6.883 0-12.462-5.579-12.462-12.462v-32.566c0-6.883 5.579-12.462 12.462-12.462h125.366c6.883 0 12.462 5.579 12.462 12.462v32.566c0 6.882-5.579 12.462-12.462 12.462z" fill="#b3e59f"/><path d="m318.683 239.934h-22.898c6.882 0 12.462 5.58 12.462 12.462v32.566c0 6.883-5.579 12.462-12.462 12.462h22.898c6.883 0 12.462-5.58 12.462-12.462v-32.566c0-6.882-5.58-12.462-12.462-12.462z" fill="#95d6a4"/></g></svg>