<svg id="Capa_1" enable-background="new 0 0 512 512" height="512" viewBox="0 0 512 512" width="512" xmlns="http://www.w3.org/2000/svg"><g><path d="m469.411 350.865c0 9.712-7.874 17.586-17.586 17.586h-434.239c-9.712 0-17.586-7.874-17.586-17.586v-296.015c0-9.712 7.874-17.586 17.586-17.586h434.239c9.712 0 17.586 7.874 17.586 17.586z" fill="#f6f9f9"/><path d="m469.411 54.85c0-9.712-7.873-17.586-17.586-17.586h-22.695c9.712 0 17.586 7.873 17.586 17.586v296.015c0 9.713-7.873 17.586-17.586 17.586h22.695c9.713 0 17.586-7.874 17.586-17.586z" fill="#dfeaef"/><path d="m142.285 214.308h-53.936c-16.376 5.295-28.223 20.66-28.223 38.799v46.371c0 4.08 3.308 7.388 7.388 7.388h95.607c4.08 0 7.388-3.308 7.388-7.388v-46.371c-.001-18.139-11.848-33.504-28.224-38.799z" fill="#ffe07d"/><path d="m142.285 214.308h-18.071c16.376 5.295 28.223 20.66 28.223 38.799v53.759h10.683c4.08 0 7.388-3.308 7.388-7.388v-46.371c0-18.139-11.848-33.504-28.223-38.799z" fill="#ffd064"/><path d="m130.286 98.849h-29.938c-21.363 0-38.758 20.358-38.932 45.625-.146 21.193-2.328 42.458-9.433 56.418-.38.747-.417 1.621-.101 2.397s.954 1.375 1.747 1.645c36.765 12.497 86.611 12.497 123.376 0 .792-.269 1.428-.87 1.744-1.645s.282-1.651-.098-2.397c-7.105-13.96-9.287-35.226-9.433-56.418-.174-25.266-17.569-45.625-38.932-45.625z" fill="#365e7d"/><path d="m150.369 150.561c.133 21.87 1.956 43.805 7.644 59.5 6.604-1.376 12.975-3.083 18.994-5.127.793-.269 1.43-.87 1.745-1.646s.277-1.651-.103-2.397c-7.104-13.96-9.286-35.224-9.431-56.415-.174-25.267-17.569-45.625-38.932-45.625h-18.849c21.364-.002 38.758 23.072 38.932 51.71z" fill="#2b4d66"/><path d="m153.414 187.4c0 21.04-17.057 38.097-38.097 38.097-21.04 0-38.097-17.057-38.097-38.097v-31.598c0-1.035.88-1.844 1.913-1.772 17.54 1.218 36.789-.866 46.733-7.795.66-.46 1.545-.419 2.156.105 6.006 5.147 12.922 8.651 23.448 7.754 1.042-.089 1.943.722 1.943 1.768z" fill="#ffddce"/><path d="m153.414 155.861c0-1.046-.9-1.857-1.943-1.768-6.084.519-10.958-.439-15.151-2.329v35.636c0 18.1-12.627 33.241-29.55 37.122 2.749.63 5.607.975 8.547.975 21.04 0 38.097-17.056 38.097-38.097z" fill="#ffcbbe"/><g><path d="m234.706 315.907c-4.268 0-7.726-3.459-7.726-7.726v-210.647c0-4.268 3.459-7.726 7.726-7.726 4.268 0 7.726 3.459 7.726 7.726v210.646c0 4.268-3.459 7.727-7.726 7.727z" fill="#dfeaef"/></g><path d="m421.933 134.493h-133.336c-2.949 0-5.339-2.391-5.339-5.339v-31.523c0-2.949 2.391-5.339 5.339-5.339h133.336c2.949 0 5.339 2.391 5.339 5.339v31.522c0 2.949-2.39 5.34-5.339 5.34z" fill="#365e7d"/><path d="m421.933 92.292h-20.29c2.949 0 5.339 2.391 5.339 5.339v31.522c0 2.949-2.39 5.339-5.339 5.339h20.29c2.949 0 5.339-2.391 5.339-5.339v-31.522c0-2.948-2.39-5.339-5.339-5.339z" fill="#2b4d66"/><g><path d="m310.858 183.992h-21.776c-4.268 0-7.726-3.459-7.726-7.726s3.459-7.726 7.726-7.726h21.776c4.268 0 7.726 3.459 7.726 7.726s-3.459 7.726-7.726 7.726z" fill="#95d6a4"/></g><g><path d="m424.287 183.992h-83.587c-4.268 0-7.726-3.459-7.726-7.726s3.459-7.726 7.726-7.726h83.587c4.268 0 7.726 3.459 7.726 7.726s-3.458 7.726-7.726 7.726z" fill="#2b4d66"/></g><g><path d="m310.858 225.764h-21.776c-4.268 0-7.726-3.459-7.726-7.726s3.459-7.726 7.726-7.726h21.776c4.268 0 7.726 3.459 7.726 7.726s-3.459 7.726-7.726 7.726z" fill="#95d6a4"/></g><g><path d="m424.287 225.764h-83.587c-4.268 0-7.726-3.459-7.726-7.726s3.459-7.726 7.726-7.726h83.587c4.268 0 7.726 3.459 7.726 7.726s-3.458 7.726-7.726 7.726z" fill="#2b4d66"/></g><g><path d="m310.858 267.537h-21.776c-4.268 0-7.726-3.459-7.726-7.726 0-4.268 3.459-7.726 7.726-7.726h21.776c4.268 0 7.726 3.459 7.726 7.726s-3.459 7.726-7.726 7.726z" fill="#95d6a4"/></g><g><path d="m424.287 267.537h-83.587c-4.268 0-7.726-3.459-7.726-7.726 0-4.268 3.459-7.726 7.726-7.726h83.587c4.268 0 7.726 3.459 7.726 7.726.001 4.267-3.458 7.726-7.726 7.726z" fill="#2b4d66"/></g><path d="m364.843 294.572c29.182 0 54.529 16.723 66.961 41.09 1.81 3.547 5.525 5.703 9.5 5.468 37.93-2.235 70.508 28.013 70.695 66.422.18 36.952-30.815 67.184-67.767 67.184h-153.294c-32.396 0-59.244-25.962-59.37-58.357-.116-29.758 22.279-55.146 52.122-58.452 4.108-.455 7.463-3.439 8.52-7.435 8.504-32.152 37.845-55.92 72.633-55.92z" fill="#b1e4f9"/><g><path d="m443.599 341.034c-5.327.132-10.3-2.725-12.866-7.395-12.779-23.265-37.523-39.068-65.89-39.068-24.991 0-47.156 12.276-60.819 31.104 12.367-8.956 27.556-14.243 43.959-14.243 27.454 0 51.513 14.801 64.618 36.843 3.466 5.83 9.715 9.531 16.498 9.603 36.01.383 66.041 29.883 66.041 66.867 0 14.133-4.421 27.247-11.935 38.057 17.384-12.085 28.795-32.189 28.795-54.918 0-37.788-31.353-67.764-68.401-66.85z" fill="#90d8f9"/></g></g></svg>