<svg id="Capa_1" enable-background="new 0 0 512 512" height="512" viewBox="0 0 512 512" width="512" xmlns="http://www.w3.org/2000/svg"><g><g><path d="m151.152 0c33.096 0 61.843 18.966 75.943 46.601 2.052 4.022 6.266 6.468 10.774 6.202 43.017-2.535 79.965 31.77 80.177 75.332.204 41.908-34.948 76.195-76.857 76.195h-173.856c-36.741 0-67.19-29.444-67.333-66.184-.131-33.75 25.267-62.543 59.113-66.292 4.659-.516 8.464-3.901 9.663-8.433 9.645-36.464 42.921-63.421 82.376-63.421z" fill="#b1e4f9"/><g><path d="m241.424 52.677c-6.665.081-12.81-3.561-16.097-9.36-14.647-25.842-42.407-43.317-74.175-43.317-28.343 0-53.481 13.923-68.977 35.275 14.026-10.157 31.252-16.154 49.855-16.154 31.155 0 58.455 16.806 73.312 41.83 3.918 6.599 11.01 10.765 18.684 10.846 40.84.434 74.899 33.891 74.899 75.835 0 16.029-5.014 30.901-13.536 43.161 19.716-13.705 32.657-36.505 32.657-62.283 0-42.532-35.022-76.338-76.622-75.833z" fill="#90d8f9"/></g><g><path d="m183.188 147.16h-48.329c-4.268 0-7.726-3.459-7.726-7.726s3.459-7.726 7.726-7.726h48.329c4.268 0 7.726 3.459 7.726 7.726s-3.459 7.726-7.726 7.726z" fill="#90d8f9"/></g></g><g><g><g><g><g><path d="m377.103 148.331h-16.998c-4.268 0-7.726-3.459-7.726-7.726 0-4.268 3.459-7.726 7.726-7.726h16.998c4.268 0 7.726 3.459 7.726 7.726.001 4.267-3.458 7.726-7.726 7.726z" fill="#2b4d66"/></g><g><path d="m422.356 165.329c-4.268 0-7.726-3.459-7.726-7.726v-9.272h-9.272c-4.268 0-7.726-3.459-7.726-7.726 0-4.268 3.459-7.726 7.726-7.726h16.998c4.268 0 7.726 3.459 7.726 7.726v16.998c0 4.267-3.459 7.726-7.726 7.726z" fill="#2b4d66"/></g><g><path d="m422.356 231.281c-4.268 0-7.726-3.459-7.726-7.726v-32.976c0-4.268 3.459-7.726 7.726-7.726s7.726 3.459 7.726 7.726v32.976c0 4.267-3.459 7.726-7.726 7.726z" fill="#2b4d66"/></g><g><path d="m422.356 281.255c-4.268 0-7.726-3.459-7.726-7.726v-16.998c0-4.268 3.459-7.726 7.726-7.726s7.726 3.459 7.726 7.726v16.998c0 4.268-3.459 7.726-7.726 7.726z" fill="#2b4d66"/></g></g></g></g><g><g><g><g><path d="m197.109 383.954h-16.998c-4.268 0-7.726-3.459-7.726-7.726s3.459-7.726 7.726-7.726h16.998c4.268 0 7.726 3.459 7.726 7.726s-3.458 7.726-7.726 7.726z" fill="#2b4d66"/></g><g><path d="m151.856 383.954h-16.998c-4.268 0-7.726-3.459-7.726-7.726v-16.998c0-4.268 3.459-7.726 7.726-7.726s7.726 3.459 7.726 7.726v9.272h9.272c4.268 0 7.726 3.459 7.726 7.726s-3.459 7.726-7.726 7.726z" fill="#2b4d66"/></g><g><path d="m134.858 333.98c-4.268 0-7.726-3.459-7.726-7.726v-32.976c0-4.268 3.459-7.726 7.726-7.726s7.726 3.459 7.726 7.726v32.976c0 4.267-3.459 7.726-7.726 7.726z" fill="#2b4d66"/></g><g><path d="m134.858 268.028c-4.268 0-7.726-3.459-7.726-7.726v-16.998c0-4.268 3.459-7.726 7.726-7.726s7.726 3.459 7.726 7.726v16.998c0 4.267-3.459 7.726-7.726 7.726z" fill="#2b4d66"/></g></g></g></g></g><g><path d="m480.811 383.771h-209.271c-2.52 0-4.907-1.131-6.502-3.081l-22.787-27.848c-2.533-3.095-2.533-7.546 0-10.641l22.787-27.848c1.596-1.95 3.982-3.081 6.502-3.081h209.272c2.52 0 4.907 1.131 6.502 3.081l22.787 27.848c2.533 3.095 2.533 7.546 0 10.641l-22.787 27.848c-1.596 1.95-3.983 3.081-6.503 3.081z" fill="#365e7d"/><path d="m510.101 342.201-22.787-27.848c-1.596-1.95-3.983-3.081-6.502-3.081h-24.158c2.52 0 4.907 1.131 6.502 3.081l22.787 27.848c2.532 3.095 2.532 7.546 0 10.641l-22.787 27.848c-1.596 1.95-3.983 3.081-6.502 3.081h24.158c2.52 0 4.907-1.131 6.502-3.081l22.787-27.848c2.532-3.095 2.532-7.546 0-10.641z" fill="#2b4d66"/><path d="m480.811 484.135h-209.271c-2.52 0-4.907-1.131-6.502-3.081l-22.787-27.848c-2.533-3.095-2.533-7.546 0-10.641l22.787-27.848c1.596-1.95 3.982-3.081 6.502-3.081h209.272c2.52 0 4.907 1.131 6.502 3.081l22.787 27.848c2.533 3.095 2.533 7.546 0 10.641l-22.787 27.848c-1.596 1.95-3.983 3.081-6.503 3.081z" fill="#365e7d"/><path d="m510.101 442.565-22.787-27.848c-1.596-1.95-3.983-3.081-6.502-3.081h-24.158c2.52 0 4.907 1.131 6.502 3.081l22.787 27.848c2.532 3.095 2.532 7.546 0 10.641l-22.787 27.848c-1.596 1.95-3.983 3.081-6.502 3.081h24.158c2.52 0 4.907-1.131 6.502-3.081l22.787-27.848c2.532-3.095 2.532-7.546 0-10.641z" fill="#2b4d66"/><path d="m281.891 383.771h188.568v27.865h-188.568z" fill="#d0e2e7"/><path d="m463.635 512h-174.919c-3.769 0-6.825-3.055-6.825-6.825v-21.04h188.569v21.04c0 3.77-3.056 6.825-6.825 6.825z" fill="#d0e2e7"/><g><g><path d="m301.674 355.247h-7.044c-4.268 0-7.726-3.459-7.726-7.726s3.459-7.726 7.726-7.726h7.044c4.268 0 7.726 3.459 7.726 7.726s-3.459 7.726-7.726 7.726z" fill="#95d6a4"/></g><g><path d="m334.315 355.247h-7.044c-4.268 0-7.726-3.459-7.726-7.726s3.459-7.726 7.726-7.726h7.044c4.268 0 7.726 3.459 7.726 7.726s-3.459 7.726-7.726 7.726z" fill="#95d6a4"/></g><g><path d="m366.955 355.247h-7.044c-4.268 0-7.726-3.459-7.726-7.726s3.459-7.726 7.726-7.726h7.044c4.268 0 7.726 3.459 7.726 7.726s-3.458 7.726-7.726 7.726z" fill="#95d6a4"/></g><g><path d="m402.004 391.498c-4.268 0-7.726-3.459-7.726-7.726v-16.4c0-4.268 3.459-7.726 7.726-7.726s7.726 3.459 7.726 7.726v16.4c0 4.267-3.459 7.726-7.726 7.726z" fill="#95d6a4"/></g><g><path d="m429.863 391.498c-4.268 0-7.726-3.459-7.726-7.726v-16.4c0-4.268 3.459-7.726 7.726-7.726s7.726 3.459 7.726 7.726v16.4c0 4.267-3.459 7.726-7.726 7.726z" fill="#95d6a4"/></g><g><path d="m457.722 391.498c-4.268 0-7.726-3.459-7.726-7.726v-16.4c0-4.268 3.459-7.726 7.726-7.726 4.268 0 7.726 3.459 7.726 7.726v16.4c0 4.267-3.458 7.726-7.726 7.726z" fill="#95d6a4"/></g></g><g><g><path d="m301.674 455.612h-7.044c-4.268 0-7.726-3.459-7.726-7.726s3.459-7.726 7.726-7.726h7.044c4.268 0 7.726 3.459 7.726 7.726s-3.459 7.726-7.726 7.726z" fill="#95d6a4"/></g><g><path d="m334.315 455.612h-7.044c-4.268 0-7.726-3.459-7.726-7.726s3.459-7.726 7.726-7.726h7.044c4.268 0 7.726 3.459 7.726 7.726s-3.459 7.726-7.726 7.726z" fill="#95d6a4"/></g><g><path d="m366.955 455.612h-7.044c-4.268 0-7.726-3.459-7.726-7.726s3.459-7.726 7.726-7.726h7.044c4.268 0 7.726 3.459 7.726 7.726s-3.458 7.726-7.726 7.726z" fill="#95d6a4"/></g><g><path d="m402.004 491.862c-4.268 0-7.726-3.459-7.726-7.726v-16.4c0-4.268 3.459-7.726 7.726-7.726s7.726 3.459 7.726 7.726v16.4c0 4.267-3.459 7.726-7.726 7.726z" fill="#95d6a4"/></g><g><path d="m429.863 491.862c-4.268 0-7.726-3.459-7.726-7.726v-16.4c0-4.268 3.459-7.726 7.726-7.726s7.726 3.459 7.726 7.726v16.4c0 4.267-3.459 7.726-7.726 7.726z" fill="#95d6a4"/></g><g><path d="m457.722 491.862c-4.268 0-7.726-3.459-7.726-7.726v-16.4c0-4.268 3.459-7.726 7.726-7.726 4.268 0 7.726 3.459 7.726 7.726v16.4c0 4.267-3.458 7.726-7.726 7.726z" fill="#95d6a4"/></g></g></g></g></svg>