<svg id="Capa_1" enable-background="new 0 0 512 512" height="512" viewBox="0 0 512 512" width="512" xmlns="http://www.w3.org/2000/svg"><g><path d="m209.256 7.5h93.489c2.016 0 3.65 1.634 3.65 3.65v190.807c0 2.016 1.634 3.65 3.65 3.65h190.807c2.016 0 3.65 1.634 3.65 3.65v93.489c0 2.016-1.634 3.65-3.65 3.65h-190.808c-2.016 0-3.65 1.634-3.65 3.65v190.804c0 2.016-1.634 3.65-3.65 3.65h-93.489c-2.016 0-3.65-1.634-3.65-3.65v-190.806c0-2.016-1.634-3.65-3.65-3.65h-190.805c-2.016 0-3.65-1.634-3.65-3.65v-93.489c0-2.016 1.634-3.65 3.65-3.65h190.807c2.016 0 3.65-1.634 3.65-3.65v-190.806c-.001-2.015 1.633-3.649 3.649-3.649z" fill="#365e7d"/><path d="m251.036 290.711-22.749-31.078c-1.584-2.164-1.584-5.104 0-7.268l22.749-31.078c2.458-3.358 7.471-3.358 9.929 0l22.749 31.078c1.584 2.164 1.584 5.104 0 7.268l-22.749 31.078c-2.458 3.358-7.471 3.358-9.929 0z" fill="#e278b1"/><path d="m283.714 252.366-22.749-31.078c-2.458-3.358-7.471-3.358-9.929 0l-6.236 8.519 16.513 22.559c1.584 2.164 1.584 5.104 0 7.268l-16.513 22.558 6.236 8.519c2.458 3.358 7.471 3.358 9.929 0l22.749-31.078c1.584-2.163 1.584-5.104 0-7.267z" fill="#dd5ca2"/><g><g><path d="m162.018 49.633-12.693-18.495c-1.536-2.238-4.84-2.238-6.376 0l-12.693 18.495c-.905 1.318-.905 3.058 0 4.376l15.881 23.14 15.881-23.14c.904-1.319.904-3.058 0-4.376z" fill="#e278b1"/></g><g><path d="m381.744 49.633-12.692-18.495c-1.536-2.238-4.84-2.238-6.376 0l-12.693 18.495c-.905 1.318-.905 3.058 0 4.376l15.881 23.14 15.881-23.14c.904-1.319.904-3.058-.001-4.376z" fill="#e278b1"/></g></g><g><g><g><path d="m462.367 162.017 18.495-12.692c2.238-1.536 2.238-4.84 0-6.376l-18.495-12.693c-1.318-.905-3.058-.905-4.376 0l-23.14 15.881 23.14 15.881c1.319.904 3.058.904 4.376-.001z" fill="#e278b1"/></g><g><path d="m454.852 153.637h-88.988c-4.143 0-7.5-3.357-7.5-7.5v-88.989c0-4.143 3.357-7.5 7.5-7.5s7.5 3.357 7.5 7.5v81.488h81.488c4.143 0 7.5 3.357 7.5 7.5s-3.358 7.501-7.5 7.501z" fill="#e278b1"/></g></g><g><g><path d="m462.367 381.744 18.495-12.693c2.238-1.536 2.238-4.84 0-6.376l-18.495-12.693c-1.318-.905-3.058-.905-4.376 0l-23.14 15.881 23.14 15.881c1.319.904 3.058.904 4.376 0z" fill="#e278b1"/></g></g></g><g><g><g><path d="m349.983 462.367 12.693 18.495c1.536 2.238 4.84 2.238 6.376 0l12.692-18.495c.905-1.318.905-3.057 0-4.376l-15.881-23.14-15.881 23.14c-.904 1.318-.904 3.057.001 4.376z" fill="#e278b1"/></g><g><path d="m365.863 462.351c-4.143 0-7.5-3.357-7.5-7.5v-88.987c0-4.143 3.357-7.5 7.5-7.5h88.988c4.143 0 7.5 3.357 7.5 7.5s-3.357 7.5-7.5 7.5h-81.488v81.487c0 4.142-3.357 7.5-7.5 7.5z" fill="#e278b1"/></g></g><g><g><path d="m130.256 462.367 12.693 18.495c1.536 2.238 4.84 2.238 6.376 0l12.693-18.495c.905-1.318.905-3.057 0-4.376l-15.881-23.14-15.881 23.14c-.904 1.318-.904 3.057 0 4.376z" fill="#e278b1"/></g></g></g><g><g><g><path d="m256 26c-4.143 0-7.5-3.357-7.5-7.5v-11c0-4.143 3.357-7.5 7.5-7.5s7.5 3.357 7.5 7.5v11c0 4.143-3.357 7.5-7.5 7.5z" fill="#2b4d66"/></g><g><path d="m256 162.662c-4.143 0-7.5-3.357-7.5-7.5v-22.777c0-4.143 3.357-7.5 7.5-7.5s7.5 3.357 7.5 7.5v22.777c0 4.143-3.357 7.5-7.5 7.5zm0-45.554c-4.143 0-7.5-3.357-7.5-7.5v-22.777c0-4.143 3.357-7.5 7.5-7.5s7.5 3.357 7.5 7.5v22.777c0 4.143-3.357 7.5-7.5 7.5zm0-45.553c-4.143 0-7.5-3.357-7.5-7.5v-22.778c0-4.143 3.357-7.5 7.5-7.5s7.5 3.357 7.5 7.5v22.777c0 4.143-3.357 7.501-7.5 7.501z" fill="#2b4d66"/></g><g><path d="m256 196.438c-4.143 0-7.5-3.357-7.5-7.5v-11c0-4.143 3.357-7.5 7.5-7.5s7.5 3.357 7.5 7.5v11c0 4.142-3.357 7.5-7.5 7.5z" fill="#2b4d66"/></g></g><g><g><path d="m504.5 263.5h-11c-4.143 0-7.5-3.357-7.5-7.5s3.357-7.5 7.5-7.5h11c4.143 0 7.5 3.357 7.5 7.5s-3.357 7.5-7.5 7.5z" fill="#2b4d66"/></g><g><path d="m470.724 263.5h-22.777c-4.143 0-7.5-3.357-7.5-7.5s3.357-7.5 7.5-7.5h22.777c4.143 0 7.5 3.357 7.5 7.5s-3.358 7.5-7.5 7.5zm-45.554 0h-22.777c-4.143 0-7.5-3.357-7.5-7.5s3.357-7.5 7.5-7.5h22.777c4.143 0 7.5 3.357 7.5 7.5s-3.358 7.5-7.5 7.5zm-45.554 0h-22.777c-4.143 0-7.5-3.357-7.5-7.5s3.357-7.5 7.5-7.5h22.777c4.143 0 7.5 3.357 7.5 7.5s-3.357 7.5-7.5 7.5z" fill="#2b4d66"/></g><g><path d="m334.062 263.5h-11c-4.143 0-7.5-3.357-7.5-7.5s3.357-7.5 7.5-7.5h11c4.143 0 7.5 3.357 7.5 7.5s-3.357 7.5-7.5 7.5z" fill="#2b4d66"/></g></g><g><g><path d="m256 512c-4.143 0-7.5-3.357-7.5-7.5v-11c0-4.143 3.357-7.5 7.5-7.5s7.5 3.357 7.5 7.5v11c0 4.143-3.357 7.5-7.5 7.5z" fill="#2b4d66"/></g><g><path d="m256 478.223c-4.143 0-7.5-3.357-7.5-7.5v-22.777c0-4.143 3.357-7.5 7.5-7.5s7.5 3.357 7.5 7.5v22.777c0 4.142-3.357 7.5-7.5 7.5zm0-45.554c-4.143 0-7.5-3.357-7.5-7.5v-22.777c0-4.143 3.357-7.5 7.5-7.5s7.5 3.357 7.5 7.5v22.777c0 4.143-3.357 7.5-7.5 7.5zm0-45.554c-4.143 0-7.5-3.357-7.5-7.5v-22.777c0-4.143 3.357-7.5 7.5-7.5s7.5 3.357 7.5 7.5v22.777c0 4.143-3.357 7.5-7.5 7.5z" fill="#2b4d66"/></g><g><path d="m256 341.562c-4.143 0-7.5-3.357-7.5-7.5v-11c0-4.143 3.357-7.5 7.5-7.5s7.5 3.357 7.5 7.5v11c0 4.142-3.357 7.5-7.5 7.5z" fill="#2b4d66"/></g></g><g><g><path d="m18.5 263.5h-11c-4.143 0-7.5-3.357-7.5-7.5s3.357-7.5 7.5-7.5h11c4.143 0 7.5 3.357 7.5 7.5s-3.357 7.5-7.5 7.5z" fill="#2b4d66"/></g><g><path d="m155.162 263.5h-22.777c-4.143 0-7.5-3.357-7.5-7.5s3.357-7.5 7.5-7.5h22.777c4.143 0 7.5 3.357 7.5 7.5s-3.357 7.5-7.5 7.5zm-45.554 0h-22.777c-4.143 0-7.5-3.357-7.5-7.5s3.357-7.5 7.5-7.5h22.777c4.143 0 7.5 3.357 7.5 7.5s-3.357 7.5-7.5 7.5zm-45.553 0h-22.778c-4.143 0-7.5-3.357-7.5-7.5s3.357-7.5 7.5-7.5h22.777c4.143 0 7.5 3.357 7.5 7.5s-3.357 7.5-7.499 7.5z" fill="#2b4d66"/></g><g><path d="m188.938 263.5h-11c-4.143 0-7.5-3.357-7.5-7.5s3.357-7.5 7.5-7.5h11c4.143 0 7.5 3.357 7.5 7.5s-3.357 7.5-7.5 7.5z" fill="#2b4d66"/></g></g></g><g><g><g><path d="m49.633 349.982-18.495 12.693c-2.238 1.536-2.238 4.84 0 6.376l18.495 12.693c1.318.905 3.058.905 4.376 0l23.14-15.881-23.14-15.881c-1.318-.904-3.057-.904-4.376 0z" fill="#e278b1"/></g><g><path d="m146.137 462.351c-4.143 0-7.5-3.357-7.5-7.5v-81.487h-81.488c-4.143 0-7.5-3.357-7.5-7.5s3.357-7.5 7.5-7.5h88.987c4.143 0 7.5 3.357 7.5 7.5v88.987c.001 4.142-3.357 7.5-7.499 7.5z" fill="#e278b1"/></g></g><g><g><path d="m49.633 130.256-18.495 12.693c-2.238 1.536-2.238 4.84 0 6.376l18.495 12.692c1.318.905 3.058.905 4.376 0l23.14-15.881-23.14-15.881c-1.318-.904-3.057-.904-4.376.001z" fill="#e278b1"/></g><g><path d="m146.137 153.637h-88.988c-4.143 0-7.5-3.357-7.5-7.5s3.357-7.5 7.5-7.5h81.487v-81.489c0-4.143 3.357-7.5 7.5-7.5s7.5 3.357 7.5 7.5v88.988c.001 4.143-3.357 7.501-7.499 7.501z" fill="#e278b1"/></g></g></g></g></svg>