<svg id="Capa_1" enable-background="new 0 0 512 512" height="512" viewBox="0 0 512 512" width="512" xmlns="http://www.w3.org/2000/svg"><g><path d="m400.795 512h-289.59c-10.298 0-18.645-8.348-18.645-18.645v-474.71c0-10.297 8.347-18.645 18.645-18.645h289.59c10.298 0 18.645 8.348 18.645 18.645v474.709c0 10.298-8.347 18.646-18.645 18.646z" fill="#365e7d"/><path d="m400.795 0h-30.906c10.298 0 18.645 8.348 18.645 18.645v474.709c0 10.298-8.348 18.645-18.645 18.645h30.906c10.298 0 18.645-8.348 18.645-18.645v-474.709c0-10.297-8.347-18.645-18.645-18.645z" fill="#2b4d66"/><path d="m123.465 448.746v-411.426c0-3.542 2.872-6.414 6.414-6.414h252.241c3.542 0 6.414 2.872 6.414 6.414v411.427c0 3.542-2.872 6.414-6.414 6.414h-252.241c-3.542 0-6.414-2.872-6.414-6.415z" fill="#f6f9f9"/><path d="m382.121 30.906h-28.845c3.542 0 6.414 2.872 6.414 6.414v411.427c0 3.542-2.872 6.414-6.414 6.414h28.845c3.543 0 6.414-2.872 6.414-6.414v-411.427c0-3.543-2.872-6.414-6.414-6.414z" fill="#dfeaef"/><g><g><path d="m356.733 275.434c-4.268 0-7.726-3.459-7.726-7.726v-10.501h-186.014v10.501c0 4.268-3.459 7.726-7.726 7.726-4.268 0-7.726-3.459-7.726-7.726v-18.228c0-4.268 3.459-7.726 7.726-7.726h201.467c4.268 0 7.726 3.459 7.726 7.726v18.227c-.001 4.268-3.459 7.727-7.727 7.727z" fill="#2b4d66"/></g><g><path d="m256 275.434c-4.268 0-7.726-3.459-7.726-7.726v-31.032c0-4.268 3.459-7.726 7.726-7.726s7.726 3.459 7.726 7.726v31.032c0 4.267-3.459 7.726-7.726 7.726z" fill="#2b4d66"/></g><g><path d="m163.973 297.016h-17.413c-4.268 0-7.726-3.459-7.726-7.726s3.459-7.726 7.726-7.726h17.413c4.268 0 7.726 3.459 7.726 7.726s-3.458 7.726-7.726 7.726z" fill="#90d8f9"/></g><g><path d="m264.707 297.016h-17.413c-4.268 0-7.726-3.459-7.726-7.726s3.459-7.726 7.726-7.726h17.413c4.268 0 7.726 3.459 7.726 7.726s-3.459 7.726-7.726 7.726z" fill="#90d8f9"/></g><g><path d="m365.44 297.016h-17.413c-4.268 0-7.726-3.459-7.726-7.726s3.459-7.726 7.726-7.726h17.413c4.268 0 7.726 3.459 7.726 7.726s-3.458 7.726-7.726 7.726z" fill="#90d8f9"/></g><g><path d="m252.302 118.165c15.551 0 29.058 8.912 35.683 21.897.964 1.89 2.944 3.039 5.062 2.914 20.213-1.191 37.573 14.928 37.673 35.396.096 19.691-16.421 35.802-36.113 35.802h-81.69c-17.263 0-31.571-13.835-31.638-31.098-.062-15.858 11.872-29.387 27.776-31.149 2.189-.242 3.977-1.833 4.54-3.962 4.532-17.134 20.168-29.8 38.707-29.8z" fill="#b1e4f9"/><g><path d="m293.047 142.976c-2.118.125-4.098-1.024-5.062-2.914-6.625-12.985-20.132-21.897-35.683-21.897-15.084 0-28.244 8.385-35.067 20.739 6.359-4.256 13.997-6.744 22.206-6.744 15.551 0 29.058 8.912 35.683 21.897.964 1.89 2.944 3.039 5.062 2.914 20.213-1.191 37.573 14.928 37.673 35.396.028 5.806-1.397 11.295-3.912 16.157 10.058-6.378 16.834-17.525 16.773-30.152-.099-20.468-17.46-36.587-37.673-35.396z" fill="#90d8f9"/></g></g><g><path d="m260.354 193.297h-8.707c-4.268 0-7.726-3.459-7.726-7.726s3.459-7.726 7.726-7.726h8.707c4.268 0 7.726 3.459 7.726 7.726s-3.459 7.726-7.726 7.726z" fill="#90d8f9"/></g></g><g><path d="m269.342 490.87h-26.684c-4.268 0-7.726-3.459-7.726-7.726s3.459-7.726 7.726-7.726h26.684c4.268 0 7.726 3.459 7.726 7.726s-3.459 7.726-7.726 7.726z" fill="#2b4d66"/></g></g></svg>