<?xml version="1.0" encoding="UTF-8"?> <svg xmlns="http://www.w3.org/2000/svg" width="260" height="260" viewBox="0 0 260 260" fill="none"> <rect width="260" height="260" fill="white"></rect> <path d="M26.26 249.819C13.2054 237.763 6.91855 217.14 21.008 203.279C24.4946 199.852 28.7144 197.299 33.228 195.479C33.4074 195.414 33.5842 195.341 33.7636 195.276" stroke="#FFDF05" stroke-width="1.0998" stroke-miterlimit="10"></path> <path d="M109.72 147.535C122.84 148.653 127.847 154.594 134.126 162.405C134.646 163.052 135.148 163.705 135.642 164.357C141.258 171.765 145.462 183.433 156.816 181.983C165.688 180.846 173.282 175.241 181.23 171.611C194.332 165.631 210.09 159.724 224.175 166.06C239.27 172.849 246.709 191.358 247 206.971C247.283 222.667 240.622 242.737 225.347 249.819" stroke="#FFDF05" stroke-width="1.0998" stroke-miterlimit="10"></path> <path d="M118.729 178.205C118.552 185.199 116.198 191.964 111.995 197.557C111.985 197.565 111.977 197.576 111.971 197.588C111.574 198.017 111.168 198.446 110.755 198.859C107.455 202.172 103.532 204.8 99.213 206.592C94.8936 208.383 90.2627 209.303 85.5866 209.298H85.4904C80.0928 209.298 74.6978 209.316 69.308 209.316C65.0544 209.316 60.7514 209.576 56.5394 208.96C55.1848 208.765 53.9056 208.336 52.5198 208.399C47.2366 208.643 43.607 213.643 41.1032 217.686C41.0702 217.738 41.0258 217.783 40.9732 217.816C40.9545 217.77 40.9457 217.72 40.9472 217.67C41.28 211.576 39.9592 205.273 36.9198 199.964C36.8652 199.86 36.808 199.761 36.7508 199.665C35.0582 196.805 32.804 194.348 31.3532 191.345C28.8424 186.125 27.7156 180.346 28.0806 174.565C28.4457 168.784 30.2906 163.193 33.4382 158.33C36.586 153.467 40.9306 149.494 46.0555 146.793C51.1803 144.093 56.9131 142.755 62.704 142.907L85.87 143.531C94.825 143.773 103.318 147.561 109.48 154.064C115.642 160.566 118.969 169.25 118.729 178.205Z" fill="#FFDF05"></path> <path d="M121.176 173.702C121.188 182.519 117.915 191.024 111.995 197.557C111.985 197.566 111.977 197.577 111.972 197.588C111.574 198.017 111.168 198.446 110.755 198.86C107.455 202.173 103.532 204.8 99.2131 206.592C94.8937 208.383 90.2629 209.303 85.5868 209.299H85.4906C80.093 209.299 74.698 209.317 69.3082 209.317C65.0546 209.317 60.7516 209.577 56.5396 208.961C55.185 208.766 53.9058 208.337 52.52 208.399C47.2368 208.643 43.6072 213.643 41.1034 217.686C41.0703 217.739 41.0259 217.783 40.9734 217.816C40.9138 217.853 40.8452 217.874 40.775 217.875C40.7048 217.877 40.6356 217.859 40.5748 217.824C40.5139 217.789 40.4638 217.738 40.4294 217.677C40.3951 217.615 40.3782 217.546 40.3806 217.476C40.56 211.041 38.987 204.447 35.633 198.935C35.5758 198.831 35.5108 198.724 35.4458 198.628C33.5816 195.669 31.1428 193.142 29.5308 190.022C26.7313 184.596 25.3749 178.541 25.5915 172.439C25.8081 166.337 27.5906 160.394 30.7676 155.18C33.9448 149.966 38.4095 145.656 43.7327 142.666C49.0562 139.676 55.0591 138.105 61.165 138.105H85.5868C90.2608 138.106 94.8893 139.027 99.2074 140.816C103.525 142.605 107.449 145.227 110.754 148.533C114.059 151.838 116.68 155.762 118.468 160.081C120.256 164.399 121.176 169.028 121.176 173.702Z" stroke="#2E2E2E" stroke-width="1.0998" stroke-miterlimit="10"></path> <path d="M99.7776 154.759H79.56C76.1454 154.759 73.3772 157.527 73.3772 160.942V188.252C73.3772 191.667 76.1454 194.435 79.56 194.435H99.7776C103.192 194.435 105.96 191.667 105.96 188.252V160.942C105.96 157.527 103.192 154.759 99.7776 154.759Z" fill="#2E2E2E"></path> <path d="M89.8506 165.767C91.2349 165.767 92.357 164.645 92.357 163.26C92.357 161.876 91.2349 160.754 89.8506 160.754C88.4664 160.754 87.3442 161.876 87.3442 163.26C87.3442 164.645 88.4664 165.767 89.8506 165.767Z" fill="white"></path> <path d="M82.8489 174.598C82.8489 172.74 83.5865 170.96 84.8998 169.646C86.2128 168.333 87.9938 167.596 89.8507 167.596C91.7076 167.596 93.4886 168.333 94.8016 169.646C96.1149 170.96 96.8525 172.74 96.8525 174.598H82.8489Z" fill="white"></path> <path d="M95.8543 180.574H83.4809C81.722 180.574 80.2959 182 80.2959 183.759V185.322C80.2959 187.081 81.722 188.507 83.4809 188.507H95.8543C97.6135 188.507 99.0393 187.081 99.0393 185.322V183.759C99.0393 182 97.6135 180.574 95.8543 180.574Z" fill="#FFDF05"></path> <path d="M63.2163 172.092H43.5369" stroke="white" stroke-width="1.0998" stroke-linecap="round" stroke-linejoin="round"></path> <path d="M63.2163 176.695H43.5369" stroke="white" stroke-width="1.0998" stroke-linecap="round" stroke-linejoin="round"></path> <path d="M63.2163 180.802H43.5369" stroke="white" stroke-width="1.0998" stroke-linecap="round" stroke-linejoin="round"></path> <path d="M63.2163 185.405H43.5369" stroke="white" stroke-width="1.0998" stroke-linecap="round" stroke-linejoin="round"></path> <path d="M63.2163 167.985H43.5369" stroke="white" stroke-width="1.0998" stroke-linecap="round" stroke-linejoin="round"></path> <path d="M63.2163 189.516H43.5369" stroke="white" stroke-width="1.0998" stroke-linecap="round" stroke-linejoin="round"></path> <path d="M68.7153 214.702C68.7153 214.702 59.6023 213.821 60.5877 204.562C61.5731 195.303 63.3645 195.722 71.5493 191.871C71.5493 191.871 78.2339 191.84 80.0981 193.845C81.9623 195.849 83.0439 191.879 83.0439 191.879C83.0439 191.879 91.7539 180.923 102.627 183.226C113.5 185.53 94.1407 194.25 94.1407 194.25C94.1407 194.25 81.6477 194.422 84.8795 199.058C84.8795 199.058 86.7593 202.544 85.6777 205.449C84.5961 208.353 84.6091 213.012 83.8941 213.147C83.1791 213.282 72.5113 215.607 72.5113 215.607L68.7153 214.702Z" fill="white"></path> <path d="M153.865 249.823H128.552C124.36 249.829 120.207 249.009 116.332 247.409C112.457 245.809 108.935 243.461 105.968 240.5C105.966 241.117 105.901 241.733 105.773 242.338V225.474C97.4532 215.758 87.7604 220.701 86.4578 221.431C85.8806 215.911 85.371 211.551 85.371 211.551C85.371 211.551 83.9696 199.711 94.9416 195.377C95.03 195.338 95.1184 195.304 95.2016 195.273C100.337 193.336 104.988 194.292 108.87 196.196C108.935 196.235 109 196.261 109.065 196.3C113.165 198.359 116.381 201.455 118.368 203.262C118.578 203.447 118.773 203.626 118.958 203.782C121.001 205.566 126.331 210.834 132.319 215.079L132.418 215.152C136.817 218.254 141.565 220.807 145.618 221.026C145.626 221.041 155.891 231.366 153.865 249.823Z" fill="#2E2E2E"></path> <path d="M151.791 219.517C149.432 220.45 147.407 220.975 145.439 221.04C144.409 221.074 143.379 220.973 142.376 220.739C139.425 220.091 136.331 218.308 132.236 215.156L132.14 215.084C128.606 212.377 124.34 208.656 118.776 203.787C118.591 203.625 118.396 203.446 118.186 203.267C117.642 202.796 117.083 202.31 116.516 201.808C114.171 199.707 111.611 197.861 108.878 196.299C108.813 196.26 108.748 196.234 108.683 196.195C108.423 196.041 108.15 195.903 107.882 195.766C107.28 195.455 106.657 195.187 106.018 194.962C104.451 194.402 102.803 194.104 101.14 194.081L100.118 194.107C86.944 194.494 84.0424 197.557 84.0424 197.557C85.3827 199.385 86.2053 201.541 86.424 203.797C85.3372 203.62 84.253 203.958 84.0658 205.159C83.8396 206.634 83.499 207.986 82.1288 208.854C81.2934 209.342 80.3059 209.501 79.3598 209.299C79.3598 209.299 79.3416 209.299 79.3338 209.299C79.0582 209.218 78.7904 209.153 78.5538 209.104C78.4485 209.079 78.3452 209.047 78.2444 209.007C75.4832 208.001 73.8712 208.391 74.3964 211.347C75.0126 214.824 70.4756 215.279 67.4856 214.743C62.2102 212.369 60.7672 203.108 64.948 197.404C65.0546 197.258 65.1742 197.105 65.2964 196.949C65.4186 196.793 65.5564 196.65 65.6786 196.504C65.9906 196.165 66.3231 195.846 66.6744 195.547C66.7966 195.443 66.9188 195.337 67.0462 195.24C67.1736 195.144 67.3556 195.004 67.509 194.892C67.6582 194.773 67.8155 194.665 67.9796 194.567C69.3942 193.636 70.9839 193.003 72.651 192.706C74.3184 192.41 76.0284 192.455 77.6776 192.841C79.0075 193.313 80.2565 193.988 81.38 194.843C81.38 194.843 81.484 194.681 81.6946 194.39C82.1836 194.68 82.6542 194.999 83.1038 195.347C83.1038 195.347 91.0208 183.273 102.502 183.41C103.427 183.418 104.349 183.527 105.251 183.735C114.205 186.902 120.281 198.311 125.759 200.061C126.175 200.193 126.596 200.304 127.023 200.394C131.261 201.301 136.001 200.313 140.208 200.045C142.979 199.868 145.824 199.933 148.504 200.677C148.837 200.768 149.178 200.88 149.51 201.002H149.526C153.27 202.346 156.957 205.328 157.872 209.291C158.899 213.682 155.558 217.79 151.791 219.517Z" fill="#FFDF05"></path> <path d="M230.376 183.82C230.262 184.281 230.045 184.712 229.742 185.078C229.439 185.444 229.056 185.736 228.623 185.933L221.33 189.41L205.085 195.366L206.645 189.945C207.13 189.235 207.82 188.691 208.624 188.385L222.734 182.98L226.2 181.628C226.889 181.377 227.642 181.371 228.334 181.612C229.027 181.853 229.614 182.325 229.999 182.949C230.168 183.218 230.296 183.512 230.376 183.82Z" fill="#FFDF05"></path> <path d="M222.742 181.432L226.213 180.067C226.984 179.784 227.835 179.811 228.587 180.143C229.339 180.474 229.933 181.083 230.245 181.843C230.557 182.603 230.563 183.454 230.261 184.218C229.959 184.982 229.373 185.599 228.626 185.94L221.333 189.414L210.491 241.934C209.881 244.197 208.543 246.197 206.683 247.623C204.822 249.049 202.544 249.822 200.2 249.822H128.357C124.165 249.829 120.012 249.008 116.137 247.409C112.262 245.809 108.74 243.461 105.773 240.499" stroke="#2E2E2E" stroke-width="1.0998" stroke-miterlimit="10"></path> <path d="M197.694 214.567L197.468 215.191C193.352 226.187 192.881 232.611 192.881 232.611" stroke="#2E2E2E" stroke-width="1.0998" stroke-miterlimit="10"></path> <path d="M88.3764 242.626L85.1758 209.973C85.1734 206.873 86.0782 203.84 87.7789 201.248C89.4796 198.656 91.9017 196.619 94.7464 195.387C96.8253 194.464 99.085 194.02 101.358 194.088C103.632 194.155 105.861 194.733 107.882 195.777C108.142 195.915 108.415 196.053 108.682 196.206C108.747 196.248 108.812 196.271 108.877 196.31C111.609 197.87 114.168 199.715 116.511 201.814C117.078 202.316 117.637 202.802 118.18 203.273C118.391 203.457 118.586 203.637 118.77 203.793C124.329 208.663 128.601 212.373 132.134 215.09L132.231 215.163C137.756 219.408 141.453 221.166 145.431 221.036C147.942 220.955 150.561 220.113 153.816 218.67C165.971 213.272 186.399 216.798 193.416 230.305" stroke="#2E2E2E" stroke-width="1.0998" stroke-miterlimit="10"></path> <path d="M96.4314 249.807C96.603 249.807 96.7642 249.822 96.9254 249.822C99.2698 249.822 101.519 248.891 103.176 247.233C104.834 245.575 105.765 243.327 105.765 240.982V215.799" stroke="#2E2E2E" stroke-width="1.0998" stroke-miterlimit="10"></path> <path d="M86.4164 203.797C85.4674 194.211 74.2146 188.782 66.256 194.042C66.126 194.115 65.996 194.203 65.8764 194.302L65.7776 194.375C65.6242 194.489 65.4708 194.603 65.3174 194.723C64.8283 195.109 64.3702 195.532 63.9472 195.989C63.8172 196.135 63.6872 196.288 63.565 196.434C63.4428 196.579 63.3232 196.743 63.2166 196.889" stroke="#2E2E2E" stroke-width="1.0998" stroke-miterlimit="10"></path> <path d="M67.5039 214.72C68.9732 216.185 70.7045 217.361 72.6077 218.188C80.2413 221.267 83.9463 215.45 83.9463 215.45" stroke="#2E2E2E" stroke-width="1.0998" stroke-miterlimit="10"></path> <path d="M149.677 220.305C149.911 220.222 150.148 220.141 150.374 220.069L150.447 220.045C150.508 220.027 150.567 220.005 150.626 219.98C150.826 219.915 151.021 219.842 151.224 219.762L151.606 219.609C155.446 217.926 158.917 213.759 157.883 209.289C156.879 204.973 152.592 201.817 148.523 200.678C145.842 199.934 142.998 199.869 140.226 200.046C135.59 200.337 130.315 201.512 125.77 200.062C119.426 198.036 112.271 183.047 100.789 182.902C89.3075 182.756 81.3801 194.841 81.3801 194.841" stroke="#2E2E2E" stroke-width="1.0998" stroke-miterlimit="10"></path> <path d="M84.0398 197.563C84.0398 197.563 86.4162 194.344 100.464 194.084" stroke="#2E2E2E" stroke-width="1.0998" stroke-miterlimit="10"></path> <path d="M197.467 215.19L204.435 195.605L204.979 194.073L206.721 189.172C206.854 188.799 207.042 188.449 207.28 188.132C207.765 187.423 208.455 186.879 209.258 186.572L222.742 181.427" stroke="#2E2E2E" stroke-width="1.0998" stroke-miterlimit="10"></path> <path d="M190.84 182.901L187.161 189.019L177.559 201.936L176.28 196.06C176.3 195.206 176.577 194.379 177.076 193.686L185.487 181.952L186.394 180.818C186.829 180.227 187.455 179.805 188.166 179.623C188.877 179.441 189.629 179.51 190.294 179.82C190.649 179.984 190.969 180.215 191.235 180.501C191.33 180.908 191.344 181.329 191.277 181.74C191.209 182.152 191.061 182.547 190.84 182.901Z" fill="#FFDF05"></path> <path d="M198.83 211.378L187.166 189.018L190.84 182.898C191.163 182.38 191.33 181.78 191.321 181.169C191.312 180.559 191.128 179.964 190.791 179.456C190.47 178.969 190.02 178.581 189.491 178.338C188.826 178.029 188.075 177.959 187.365 178.139C186.655 178.319 186.028 178.738 185.591 179.326L184.681 180.47" stroke="#2E2E2E" stroke-width="1.0998" stroke-miterlimit="10"></path> <path d="M184.673 180.47L176.262 192.193C175.768 192.891 175.496 193.722 175.482 194.577C175.462 194.975 175.499 195.373 175.593 195.76L176.841 200.807L177.231 202.388L181.454 219.47" stroke="#2E2E2E" stroke-width="1.0998" stroke-miterlimit="10"></path> <path d="M66.2534 194.037C58.599 198.785 59.4752 211.457 65.8036 214.244C68.2216 215.31 75.1636 215.57 74.3836 211.322C73.8636 208.376 75.473 207.986 78.2368 208.982C83.0182 210.714 84.0296 206.086 84.0296 205.766" stroke="#2E2E2E" stroke-width="1.0998" stroke-miterlimit="10"></path> <path d="M82.5266 216.992L85.6544 217.923" stroke="#2E2E2E" stroke-width="1.0998" stroke-miterlimit="10"></path> <path d="M57.8551 231.498L54.8599 237.678C54.6506 238.109 54.2838 238.443 53.8353 238.611C53.3868 238.78 52.8909 238.769 52.4497 238.583C52.2064 238.48 51.9874 238.326 51.8078 238.133C51.6281 237.939 51.4916 237.709 51.4074 237.459C51.3231 237.208 51.293 236.943 51.3187 236.68C51.3447 236.417 51.4264 236.162 51.5579 235.933L52.1403 234.917C52.1588 234.864 52.1804 234.813 52.2053 234.763L52.6083 233.949L56.0351 227.044C56.4501 226.197 57.0707 225.468 57.84 224.923C58.6094 224.378 59.5033 224.034 60.4395 223.924H60.5175" stroke="#2E2E2E" stroke-width="1.0998" stroke-miterlimit="10"></path> <path d="M64.48 231.013L60.06 232.292C59.8106 232.365 59.5493 232.387 59.2912 232.359C59.033 232.33 58.7831 232.251 58.5556 232.126C58.3281 232 58.1277 231.831 57.9654 231.628C57.8034 231.425 57.6828 231.193 57.6108 230.943C57.5385 230.694 57.5159 230.432 57.5445 230.174C57.5731 229.916 57.6524 229.666 57.7777 229.439C57.903 229.211 58.072 229.011 58.2748 228.848C58.4779 228.686 58.7106 228.566 58.9602 228.494L65.2314 226.674" stroke="#2E2E2E" stroke-width="1.0998" stroke-miterlimit="10"></path> <path d="M61.0713 231.994C61.2377 232.665 61.134 233.375 60.7827 233.97C59.9559 235.325 57.8629 235.79 56.2275 235.515" stroke="#2E2E2E" stroke-width="1.0998" stroke-miterlimit="10"></path> <path d="M52.6032 233.95C50.8924 232.783 50.544 230.627 51.0718 228.732C53.2194 220.888 62.1816 222.752 68.1278 224.13C71.6716 224.972 75.1481 226.077 78.5278 227.435C81.3254 228.553 84.0632 230.053 87.0766 230.466" stroke="#2E2E2E" stroke-width="1.0998" stroke-miterlimit="10"></path> <path d="M60.7854 233.972C60.7854 233.972 61.4016 234.19 62.4546 234.603C67.0101 236.393 71.344 238.702 75.3714 241.483C77.35 242.845 79.9006 243.768 82.771 244.385" stroke="#2E2E2E" stroke-width="1.0998" stroke-miterlimit="10"></path> <path d="M87.807 238.507C86.8726 238.349 85.9116 238.506 85.077 238.955C84.2422 239.405 83.5815 240.12 83.1998 240.988C81.554 244.368 83.8524 248.369 87.5704 248.941C90.6673 249.444 93.7943 249.739 96.9304 249.823" stroke="#2E2E2E" stroke-width="1.0998" stroke-miterlimit="10"></path> <path d="M86.4654 221.55L86.3198 221.519C86.3198 221.519 86.3666 221.488 86.4654 221.431C86.4576 221.47 86.4654 221.519 86.4654 221.55Z" fill="#2E2E2E"></path> <path d="M74.99 245.844L38.1597 238.845C37.2287 238.668 36.3306 239.279 36.1536 240.21L35.9963 241.038C35.8195 241.969 36.4307 242.867 37.3618 243.044L74.1921 250.043C75.1231 250.22 76.0214 249.609 76.1982 248.678L76.3555 247.85C76.5326 246.919 75.9211 246.021 74.99 245.844Z" stroke="#2E2E2E" stroke-width="1.0998" stroke-miterlimit="10"></path> <path d="M41.8679 243.902V249.823" stroke="#2E2E2E" stroke-width="1.0998" stroke-miterlimit="10"></path> <path d="M14.4377 249.822H235.391" stroke="#2E2E2E" stroke-width="1.0998" stroke-miterlimit="10"></path> <path d="M45.4097 161.918V162.671H43.1089V158.948H43.9158V161.918H45.4097ZM45.766 160.146H46.5416V162.67H45.766V160.146ZM46.1539 158.892C46.2732 158.892 46.3876 158.94 46.4719 159.025C46.5563 159.11 46.6037 159.226 46.6038 159.346C46.6038 159.597 46.4022 159.801 46.1538 159.801C45.9054 159.801 45.7042 159.597 45.7042 159.346C45.7043 159.226 45.7516 159.11 45.8359 159.025C45.9202 158.94 46.0347 158.892 46.1539 158.892ZM51.437 160.145H52.3865L51.3685 161.313L52.3653 162.67H51.3916L50.5687 161.423H50.5587V162.67H49.7834V158.947H50.5587V161.173L51.437 160.145ZM46.9706 160.147H47.715V160.493H47.7252C47.8286 160.294 48.082 160.085 48.4592 160.085C49.2452 160.085 49.3899 160.608 49.3899 161.287V162.67H48.6145V161.443C48.6145 161.15 48.6092 160.774 48.211 160.774C47.8079 160.774 47.746 161.093 47.746 161.422V162.67H46.9705V160.147H46.9706ZM54.0199 161.115C54.0251 160.854 53.8234 160.634 53.544 160.634C53.2029 160.634 53.0167 160.869 52.9962 161.115H54.0199ZM54.6764 162.233C54.4283 162.552 54.02 162.735 53.6157 162.735C52.8403 162.735 52.2199 162.212 52.2199 161.402C52.2199 160.592 52.8403 160.07 53.6157 160.07C54.34 160.07 54.7945 160.593 54.7945 161.402V161.647H52.9953C53.0569 161.945 53.2796 162.139 53.5796 162.139C53.8329 162.139 54.0034 162.009 54.1328 161.83L54.6764 162.233ZM56.4104 160.757C56.0229 160.757 55.7904 161.018 55.7904 161.399C55.7904 161.781 56.023 162.042 56.4104 162.042C56.7984 162.042 57.0312 161.781 57.0312 161.399C57.0311 161.018 56.7985 160.757 56.4104 160.757ZM57.7448 162.669H57.0312V162.335H57.0212C56.9018 162.518 56.6022 162.732 56.2506 162.732C55.5058 162.732 55.0148 162.189 55.0148 161.42C55.0148 160.715 55.449 160.067 56.1625 160.067C56.4833 160.067 56.7831 160.156 56.958 160.401H56.9681V158.947H57.744L57.7448 162.669Z" fill="#2E2E2E"></path> <path d="M63.364 158.166H58.9066C58.6927 158.166 58.5205 158.337 58.5205 158.547V163.071C58.5205 163.282 58.6936 163.453 58.9066 163.453H63.364C63.5773 163.453 63.7511 163.282 63.7511 163.071V158.547C63.7512 158.337 63.5774 158.166 63.364 158.166Z" fill="#2E2E2E"></path> <path d="M59.2957 160.148H60.0716V162.671H59.2957V160.148ZM59.6838 158.894C59.8031 158.894 59.9174 158.942 60.0016 159.027C60.0859 159.112 60.1333 159.228 60.1334 159.348C60.1334 159.469 60.086 159.584 60.0017 159.669C59.9174 159.755 59.8031 159.803 59.6838 159.803C59.5645 159.803 59.4501 159.755 59.3657 159.67C59.2813 159.584 59.2339 159.469 59.2339 159.348C59.234 159.228 59.2814 159.112 59.3658 159.027C59.4501 158.941 59.5646 158.894 59.6838 158.894ZM60.5581 160.148H61.3022V160.492H61.3124C61.4151 160.293 61.6691 160.084 62.0464 160.084C62.832 160.084 62.9771 160.607 62.9771 161.286V162.67H62.202V161.442C62.202 161.149 62.1967 160.773 61.7988 160.773C61.3951 160.773 61.3332 161.092 61.3332 161.421V162.669H60.5582V160.146L60.5581 160.148Z" fill="white"></path> </svg> 