<?xml version="1.0" encoding="UTF-8"?> <!-- Generator: Adobe Illustrator 21.1.0, SVG Export Plug-In . SVG Version: 6.00 Build 0) --> <svg xmlns="http://www.w3.org/2000/svg" xmlns:xlink="http://www.w3.org/1999/xlink" id="Слой_1" x="0px" y="0px" viewBox="0 0 1020 1020" style="enable-background:new 0 0 1020 1020;" xml:space="preserve"> <style type="text/css"> .st0{fill:#FBDC0C;} .st1{fill:#191919;} .st2{fill:#FFFFFF;stroke:#191919;stroke-width:2;stroke-linecap:round;stroke-linejoin:round;} .st3{fill:none;stroke:#191919;stroke-width:2;stroke-linecap:round;stroke-miterlimit:10;} .st4{fill:#FBDC0C;stroke:#FBDC0C;stroke-miterlimit:10;} .st5{fill:none;stroke:#191919;stroke-width:2;stroke-linecap:round;stroke-linejoin:round;} </style> <title>Монтажная область 2</title> <g id="Слой_7"> <path class="st0" d="M581.2,590.2c0,0,2.5,15.9,0,28.1c0,0-33.6-3.7-55,14.4s-50.6,52.9-50.6,52.9l35.5,40.3l20-15.2 c0,0,7.8,37.7,7.8,62.8s-7.4,40.3-9.8,59.5h145.4c0,0-8.1-18.1-7.4-42.9s4.9-36.2,6.4-48.4l46.1-6.3c0,0-10.3-73.2-32.5-90.6 s-57.3-19.2-57.3-19.2s-10.1-2.9-6.7-35.5L581.2,590.2z"></path> <path class="st1" d="M608.6,468.4c0,0-23.6-11.5-42,3.1s-32.6,35.3-33.9,66.4s-3,74.1,48.5,80.5l48.5,7.4c0,0,40.9-16.6,41.2-67.8 s-23.3-82.5-34.6-88S608.6,468.4,608.6,468.4z"></path> <path class="st2" d="M561.9,536.7c0,0-7-3.1-10.2,2.4s3.7,17.9,7.8,22.1c1.5,1.5,7,4.7,7,4.7l-1.3-24.1L561.9,536.7z"></path> <path class="st2" d="M637.8,535.9c0,0,7.7-7,9.9,1.7s-2.8,17-7.1,20.1c-1.5,0.8-3.1,1.4-4.7,1.9c0,0-4.8-4.9-4.8-5.5 S637.8,535.9,637.8,535.9z"></path> <path class="st2" d="M622.5,608.8c-0.4-6.2-0.3-12.4,0.5-18.6h-41.8c0.6,6.7,0.8,13.4,0.6,20.1c-0.1,4.4-3.8,7.8-8.1,7.6 c0,0,0,0,0,0l0,0c0.2,9.3,3.5,29.3,28,32c32,3.5,38.5-23.1,38.5-23.1l0,0C630.7,625.8,623.3,618.2,622.5,608.8z"></path> <path class="st2" d="M605.2,490.9c-5.4,8.3-17.2,23.3-38.5,36.2c-3.3,2-5.2,5.7-4.8,9.6l1.3,13.5c1.6,16.8,9.4,32.4,21.7,43.8 c1.5,1.4,3,2.7,4.5,4c8.2,7.1,20.4,6.5,27.9-1.2l0.2-0.2c11.2-11.6,17.9-26.7,19-42.8l1.5-21c0.3-4.4-1.3-8.6-4.3-11.8 c-6.4-6.7-17.6-19.1-22.5-29.8c-0.8-1.7-2.8-2.4-4.5-1.6C606.1,489.9,605.6,490.3,605.2,490.9z"></path> <path class="st2" d="M508.6,723.1l-39.2,29.3c-5,3.8-12.2,2.7-15.9-2.3c-0.2-0.2-0.3-0.4-0.5-0.7l-75.7-117.8l-22.5-15.3 l-10.5-19.8l-1.5-19.9c-0.1-1.4,0.9-2.5,2.3-2.6c0.4,0,0.8,0,1.1,0.2c2,0.7,3.6,2.2,4.4,4.2c1.5,4.5,4.2,16.5,4.2,16.5l5.4,6.9 l26.3,3.9l9.2-14.9c3-4.9,7.9-8.4,13.5-9.9l0,0c1.3-0.3,2.7,0.5,3,1.8c0.2,0.6,0.1,1.3-0.2,1.8l-4.5,8l-1.3,10.4 c-0.1,0.9,0,1.9,0.3,2.8c1.1,3.4,3.6,13.1-0.5,22.7l57.8,77.2l17.3-13.7"></path> <path class="st2" d="M344.4,596.7l-20.1-9.4c-3-1.4-6.6-1.5-9.7-0.2l0,0c-1.3,0.5-1.8,2-1.3,3.2c0.2,0.5,0.5,0.9,1,1.1l40.5,25 L344.4,596.7z"></path> <path class="st3" d="M372.5,613.1c0,0,18,2.4,21.5,15.6"></path> <polyline class="st2" points="713.3,736.3 724.3,833 688.9,832.9 674.4,741.7 "></polyline> <path class="st3" d="M597.5,662.4c37,4.1,52.9-26.7,54.5-33.2"></path> <path class="st3" d="M561.8,618.7c0,0-1.2,33.8,27.9,42.2"></path> <line class="st3" x1="483.9" y1="675.8" x2="521.5" y2="717.9"></line> <line class="st3" x1="675.5" y1="730.3" x2="717.1" y2="724.7"></line> <path class="st4" d="M330.6,373.3H144.3c0-66.6,35.5-128.1,93.2-161.4L330.6,373.3z"></path> <circle class="st4" cx="578" cy="276.7" r="18.5"></circle> <circle class="st2" cx="578" cy="344.8" r="18.5"></circle> <path d="M631.2,268.8c0.2,0.2,0.4,0.6,0.4,0.9s-0.1,0.7-0.4,0.9c-0.2,0.2-0.6,0.4-0.9,0.4h-5.8v17.1c0,0.4-0.1,0.7-0.4,1 c-0.3,0.3-0.6,0.4-1,0.4c-0.4,0-0.7-0.1-1-0.4c-0.3-0.3-0.4-0.6-0.4-1v-17.1h-5.8c-0.4,0-0.7-0.1-0.9-0.4s-0.4-0.6-0.4-0.9 s0.1-0.7,0.4-0.9s0.6-0.4,0.9-0.4h14.4C630.6,268.5,630.9,268.6,631.2,268.8z M643.2,282.8c-0.2,0.2-0.5,0.3-0.9,0.3h-10.3 c0.2,1.3,0.8,2.3,1.7,3.1c0.9,0.8,2.1,1.2,3.5,1.2c0.5,0,1.1-0.1,1.7-0.3s1.1-0.4,1.4-0.7c0.3-0.2,0.5-0.3,0.9-0.3 c0.3,0,0.6,0.1,0.8,0.3c0.3,0.3,0.5,0.6,0.5,0.9c0,0.3-0.1,0.6-0.4,0.8c-0.6,0.5-1.4,0.9-2.3,1.2c-0.9,0.3-1.8,0.5-2.6,0.5 c-1.5,0-2.8-0.3-4-1c-1.2-0.6-2.1-1.5-2.7-2.7c-0.7-1.1-1-2.4-1-3.9c0-1.4,0.3-2.7,0.9-3.9c0.6-1.1,1.5-2,2.6-2.7 c1.1-0.6,2.4-1,3.8-1c1.4,0,2.6,0.3,3.6,0.9c1,0.6,1.8,1.5,2.3,2.6c0.5,1.1,0.8,2.4,0.8,3.8C643.6,282.3,643.5,282.6,643.2,282.8z M633.6,278.1c-0.8,0.7-1.3,1.7-1.6,2.9h9c-0.2-1.2-0.6-2.2-1.3-2.9c-0.7-0.7-1.7-1.1-2.9-1.1C635.5,277,634.5,277.4,633.6,278.1z M657,275.7c1.1,0.6,2,1.5,2.6,2.7s1,2.4,1,3.9c0,1.4-0.3,2.7-0.9,3.9s-1.5,2-2.6,2.7c-1.1,0.6-2.4,1-3.8,1c-1.4,0-2.7-0.3-3.9-1 c-1.1-0.6-2-1.5-2.6-2.7c-0.6-1.1-0.9-2.4-0.9-3.9c0-1.5,0.3-2.8,0.9-3.9c0.6-1.1,1.5-2,2.6-2.7c1.1-0.6,2.4-1,3.9-1 C654.6,274.7,655.9,275,657,275.7z M650.8,277.8c-0.7,0.4-1.3,1-1.7,1.8c-0.4,0.8-0.6,1.6-0.6,2.6s0.2,1.8,0.6,2.6 c0.4,0.8,1,1.4,1.7,1.8c0.7,0.4,1.6,0.6,2.5,0.6s1.7-0.2,2.5-0.6c0.7-0.4,1.3-1,1.7-1.8c0.4-0.8,0.6-1.6,0.6-2.6s-0.2-1.8-0.6-2.6 c-0.4-0.8-1-1.4-1.7-1.8c-0.7-0.4-1.6-0.6-2.5-0.6S651.5,277.3,650.8,277.8z M676,275.7c1.1,0.7,2,1.6,2.7,2.7c0.6,1.1,1,2.4,1,3.8 s-0.3,2.7-0.9,3.8c-0.6,1.1-1.4,2-2.5,2.7c-1.1,0.6-2.2,1-3.5,1c-1,0-2-0.2-2.9-0.6c-0.9-0.4-1.7-1-2.3-1.8v7.3 c0,0.4-0.1,0.7-0.4,1c-0.3,0.3-0.6,0.4-1,0.4c-0.4,0-0.7-0.1-1-0.4c-0.3-0.3-0.4-0.6-0.4-1v-12.3c0-1.4,0.3-2.7,1-3.8 c0.7-1.1,1.5-2,2.7-2.7s2.4-1,3.8-1C673.6,274.7,674.8,275,676,275.7z M674.6,286.6c0.7-0.4,1.3-1,1.7-1.8c0.4-0.8,0.6-1.6,0.6-2.6 s-0.2-1.8-0.6-2.6c-0.4-0.8-1-1.4-1.7-1.8s-1.5-0.7-2.4-0.7s-1.7,0.2-2.4,0.7s-1.3,1-1.7,1.8c-0.4,0.8-0.6,1.6-0.6,2.6 s0.2,1.8,0.6,2.6c0.4,0.8,1,1.4,1.7,1.8s1.5,0.7,2.4,0.7S673.9,287,674.6,286.6z M696.9,275.2c0.3,0.3,0.4,0.6,0.4,1v12 c0,0.4-0.1,0.7-0.4,1c-0.3,0.3-0.6,0.4-1,0.4c-0.4,0-0.7-0.1-1-0.4c-0.3-0.3-0.4-0.6-0.4-1v-0.3c-0.6,0.6-1.3,1-2.1,1.3 c-0.8,0.3-1.6,0.5-2.5,0.5c-1.2,0-2.4-0.3-3.3-0.8s-1.8-1.3-2.3-2.4s-0.8-2.3-0.8-3.7v-6.6c0-0.4,0.1-0.7,0.4-1 c0.3-0.3,0.6-0.4,1-0.4s0.7,0.1,1,0.4c0.3,0.3,0.4,0.6,0.4,1v6.6c0,1.5,0.4,2.6,1.2,3.3c0.8,0.7,1.8,1.1,3.1,1.1 c0.8,0,1.4-0.2,2.1-0.5c0.6-0.3,1.1-0.7,1.5-1.2c0.4-0.5,0.5-1.1,0.5-1.8v-7.6c0-0.4,0.1-0.7,0.4-1c0.3-0.3,0.6-0.4,1-0.4 C696.3,274.8,696.7,274.9,696.9,275.2z M712.5,275.2c0.3,0.3,0.4,0.6,0.4,1v12c0,0.4-0.2,0.7-0.4,1c-0.2,0.3-0.6,0.4-1,0.4 c-0.4,0-0.7-0.1-0.9-0.4c-0.3-0.3-0.4-0.6-0.4-1v-3.6h-2.5l-3.5,4.4c-0.3,0.4-0.7,0.6-1.2,0.6c-0.4,0-0.7-0.1-1-0.4 c-0.3-0.3-0.4-0.5-0.4-0.8c0-0.3,0.1-0.6,0.3-0.8l2.7-3.6c-0.9-0.3-1.7-0.8-2.2-1.6c-0.6-0.7-0.8-1.6-0.8-2.6c0-1,0.2-1.8,0.7-2.6 c0.5-0.8,1.1-1.4,1.9-1.8s1.7-0.7,2.8-0.7h4.7C711.9,274.8,712.2,274.9,712.5,275.2z M710.2,277.4h-3.3c-0.7,0-1.4,0.2-1.9,0.7 c-0.5,0.5-0.8,1.1-0.8,1.8c0,0.7,0.3,1.3,0.8,1.8c0.5,0.5,1.2,0.7,1.9,0.7h3.3V277.4z"></path> <path d="M619.2,357c-0.3,0.3-0.6,0.4-1,0.4c-0.4,0-0.7-0.1-1-0.4c-0.3-0.3-0.4-0.6-0.4-1v-18.3c0-0.4,0.1-0.8,0.4-1 c0.3-0.3,0.6-0.4,1-0.4h14.4c0.4,0,0.8,0.1,1,0.4c0.3,0.3,0.4,0.6,0.4,1V356c0,0.4-0.1,0.7-0.4,1c-0.3,0.3-0.6,0.4-1,0.4 c-0.4,0-0.7-0.1-1-0.4c-0.3-0.3-0.4-0.6-0.4-1v-17.2h-11.6V356C619.6,356.4,619.5,356.7,619.2,357z M650.3,343.5 c1.1,0.7,2,1.6,2.7,2.7c0.6,1.1,1,2.4,1,3.8s-0.3,2.7-0.9,3.8c-0.6,1.1-1.4,2-2.5,2.7c-1.1,0.6-2.2,1-3.5,1c-1,0-2-0.2-2.9-0.6 s-1.7-1-2.3-1.8v7.3c0,0.4-0.1,0.7-0.4,1c-0.3,0.3-0.6,0.4-1,0.4c-0.4,0-0.7-0.1-1-0.4c-0.3-0.3-0.4-0.6-0.4-1V350 c0-1.4,0.3-2.7,1-3.8c0.7-1.1,1.5-2,2.7-2.7s2.4-1,3.8-1S649.2,342.8,650.3,343.5z M649,354.4c0.7-0.4,1.3-1,1.7-1.8 c0.4-0.8,0.6-1.6,0.6-2.6s-0.2-1.8-0.6-2.6c-0.4-0.8-1-1.4-1.7-1.8s-1.5-0.7-2.4-0.7c-0.9,0-1.7,0.2-2.4,0.7s-1.3,1-1.7,1.8 c-0.4,0.8-0.6,1.6-0.6,2.6s0.2,1.8,0.6,2.6c0.4,0.8,1,1.4,1.7,1.8s1.5,0.7,2.4,0.7C647.4,355.1,648.2,354.8,649,354.4z M668.5,343.5c1.1,0.7,2,1.6,2.7,2.7c0.7,1.1,1,2.4,1,3.8v6c0,0.4-0.1,0.7-0.4,1c-0.3,0.3-0.6,0.4-1,0.4s-0.7-0.1-1-0.4 s-0.4-0.6-0.4-1v-1c-0.6,0.8-1.4,1.4-2.3,1.8s-1.9,0.6-2.9,0.6c-1.3,0-2.5-0.3-3.5-1c-1.1-0.6-1.9-1.5-2.5-2.7 c-0.6-1.1-0.9-2.4-0.9-3.8s0.3-2.7,1-3.8c0.6-1.1,1.5-2,2.7-2.7c1.1-0.7,2.4-1,3.8-1S667.4,342.8,668.5,343.5z M667.2,354.4 c0.7-0.4,1.3-1,1.7-1.8c0.4-0.8,0.6-1.6,0.6-2.6s-0.2-1.8-0.6-2.6c-0.4-0.8-1-1.4-1.7-1.8s-1.5-0.7-2.4-0.7c-0.9,0-1.7,0.2-2.4,0.7 s-1.3,1-1.7,1.8c-0.4,0.8-0.6,1.6-0.6,2.6s0.2,1.8,0.6,2.6c0.4,0.8,1,1.4,1.7,1.8s1.5,0.7,2.4,0.7 C665.7,355.1,666.5,354.8,667.2,354.4z M688.7,356.2c0,0.3-0.1,0.6-0.4,0.9c-0.2,0.2-0.6,0.3-1,0.3s-0.7-0.1-1-0.4l-5.6-6H679v5 c0,0.4-0.1,0.7-0.4,1s-0.6,0.4-1,0.4c-0.4,0-0.7-0.1-0.9-0.4c-0.2-0.3-0.4-0.6-0.4-1v-12c0-0.4,0.1-0.7,0.4-1 c0.2-0.3,0.5-0.4,0.9-0.4c0.4,0,0.8,0.1,1,0.4c0.3,0.3,0.4,0.6,0.4,1v4.5h2.1l4.9-5.5c0.3-0.3,0.6-0.4,1.1-0.4 c0.4,0,0.7,0.1,0.8,0.3c0.3,0.3,0.5,0.6,0.5,1c0,0.3-0.1,0.5-0.3,0.7l-4.9,5.2l5.2,5.6C688.6,355.7,688.7,355.9,688.7,356.2z M711.4,344c1,1,1.4,2.5,1.4,4.3v7.7c0,0.4-0.1,0.7-0.4,1s-0.6,0.4-1,0.4c-0.4,0-0.7-0.1-1-0.4c-0.3-0.3-0.4-0.6-0.4-1v-7.7 c0-1.1-0.3-1.9-0.8-2.5c-0.5-0.6-1.3-0.9-2.2-0.9c-0.9,0-1.7,0.3-2.3,1c-0.6,0.6-0.9,1.5-0.9,2.5v7.6c0,0.4-0.1,0.7-0.4,1 s-0.6,0.4-1,0.4c-0.4,0-0.7-0.1-1-0.4c-0.3-0.3-0.4-0.6-0.4-1v-7.7c0-1.1-0.3-1.9-0.8-2.5c-0.5-0.6-1.3-0.9-2.2-0.9 c-1,0-1.7,0.3-2.3,1c-0.6,0.6-0.9,1.5-0.9,2.5v7.6c0,0.4-0.1,0.7-0.4,1c-0.3,0.3-0.6,0.4-1,0.4c-0.4,0-0.7-0.1-1-0.4 s-0.4-0.6-0.4-1v-12c0-0.4,0.1-0.7,0.4-1c0.3-0.3,0.6-0.4,1-0.4s0.7,0.1,1,0.4c0.3,0.2,0.4,0.6,0.4,1c0.5-0.5,1-0.8,1.7-1.1 c0.6-0.3,1.4-0.4,2.1-0.4c0.9,0,1.7,0.2,2.5,0.6c0.7,0.4,1.3,0.9,1.8,1.6c0.5-0.7,1.2-1.2,2-1.6s1.7-0.6,2.7-0.6 C709.2,342.5,710.4,343,711.4,344z M730.6,343c0.3,0.3,0.4,0.6,0.4,1v12c0,0.4-0.1,0.7-0.4,1c-0.3,0.3-0.6,0.4-1,0.4 c-0.4,0-0.7-0.1-1-0.4c-0.3-0.3-0.4-0.6-0.4-1v-0.3c-0.6,0.6-1.3,1-2.1,1.3c-0.8,0.3-1.6,0.5-2.5,0.5c-1.2,0-2.4-0.3-3.3-0.8 s-1.8-1.3-2.3-2.4c-0.6-1-0.8-2.3-0.8-3.7V344c0-0.4,0.1-0.7,0.4-1c0.3-0.3,0.6-0.4,1-0.4c0.4,0,0.7,0.1,1,0.4s0.4,0.6,0.4,1v6.6 c0,1.5,0.4,2.6,1.2,3.3c0.8,0.7,1.8,1.1,3.1,1.1c0.8,0,1.4-0.2,2.1-0.5c0.6-0.3,1.1-0.7,1.5-1.2s0.5-1.1,0.5-1.8V344 c0-0.4,0.1-0.7,0.4-1c0.3-0.3,0.6-0.4,1-0.4C730,342.6,730.3,342.7,730.6,343z M748.2,356.2c0,0.3-0.1,0.6-0.4,0.9 c-0.2,0.2-0.6,0.3-1,0.3s-0.7-0.1-1-0.4l-5.6-6h-1.8v5c0,0.4-0.1,0.7-0.4,1s-0.6,0.4-1,0.4c-0.4,0-0.7-0.1-0.9-0.4 c-0.2-0.3-0.4-0.6-0.4-1v-12c0-0.4,0.1-0.7,0.4-1c0.2-0.3,0.5-0.4,0.9-0.4c0.4,0,0.8,0.1,1,0.4c0.3,0.3,0.4,0.6,0.4,1v4.5h2.1 l4.9-5.5c0.3-0.3,0.6-0.4,1.1-0.4c0.4,0,0.7,0.1,0.8,0.3c0.3,0.3,0.5,0.6,0.5,1c0,0.3-0.1,0.5-0.3,0.7l-4.9,5.2l5.2,5.6 C748.1,355.7,748.2,355.9,748.2,356.2z M760.7,343.5c1.1,0.7,2,1.6,2.7,2.7c0.7,1.1,1,2.4,1,3.8v6c0,0.4-0.1,0.7-0.4,1 c-0.3,0.3-0.6,0.4-1,0.4c-0.4,0-0.7-0.1-1-0.4s-0.4-0.6-0.4-1v-1c-0.6,0.8-1.4,1.4-2.3,1.8s-1.9,0.6-2.9,0.6c-1.3,0-2.5-0.3-3.5-1 c-1.1-0.6-1.9-1.5-2.5-2.7c-0.6-1.1-0.9-2.4-0.9-3.8s0.3-2.7,1-3.8c0.6-1.1,1.5-2,2.7-2.7c1.1-0.7,2.4-1,3.8-1 S759.6,342.8,760.7,343.5z M759.4,354.4c0.7-0.4,1.3-1,1.7-1.8c0.4-0.8,0.6-1.6,0.6-2.6s-0.2-1.8-0.6-2.6c-0.4-0.8-1-1.4-1.7-1.8 c-0.7-0.4-1.5-0.7-2.4-0.7s-1.7,0.2-2.4,0.7c-0.7,0.4-1.3,1-1.7,1.8c-0.4,0.8-0.6,1.6-0.6,2.6s0.2,1.8,0.6,2.6 c0.4,0.8,1,1.4,1.7,1.8c0.7,0.4,1.5,0.7,2.4,0.7S758.7,354.8,759.4,354.4z"></path> <line class="st5" x1="214" y1="832.9" x2="875.7" y2="832.9"></line> <path class="st5" d="M674.4,833c0,0-8.1-18.1-7.4-42.9c0.2-9.1,1.2-18.2,3-27.1c2.9-14.9,4.8-29.9,5.5-45.1l0,0"></path> <path class="st5" d="M526.9,696.8l4,13.8c0,0,7.8,37.7,7.8,62.8"></path> <path class="st2" d="M330.6,373.3l-93.2-161.4c28.3-16.4,60.5-25,93.2-25c102.2,0,186.3,84.1,186.3,186.3s-84.1,186.4-186.3,186.4 s-186.3-84.1-186.3-186.3H330.6z"></path> <path d="M382.7,420.7c1.2,1.9,1.7,4,1.7,6.4c0,2.4-0.5,4.7-1.6,6.6c-1.1,2-2.6,3.5-4.5,4.7c-1.9,1.2-4.1,1.7-6.4,1.7 c-2.4,0-4.5-0.6-6.5-1.7c-1.9-1.1-3.4-2.7-4.5-4.6c-1.1-2-1.6-4.1-1.6-6.6c0-2.4,0.6-4.6,1.8-6.5c1.2-1.9,2.7-3.4,4.7-4.5 c-1.3-0.9-2.4-2.1-3.1-3.6s-1.1-3.1-1.1-4.8c0-1.9,0.5-3.6,1.4-5.2c0.9-1.6,2.2-2.8,3.8-3.7c1.6-0.9,3.4-1.3,5.4-1.3 c1.9,0,3.7,0.4,5.3,1.3c1.6,0.9,2.8,2.1,3.7,3.6c0.9,1.5,1.3,3.2,1.3,5.2c0,1.8-0.4,3.4-1.1,4.9c-0.8,1.5-1.8,2.7-3.1,3.6 C380,417.4,381.6,418.8,382.7,420.7z M379.2,422.8c-0.7-1.3-1.7-2.3-3-3.1c-1.3-0.8-2.7-1.1-4.2-1.1c-1.6,0-3,0.4-4.3,1.2 c-1.3,0.8-2.3,1.8-3,3.2c-0.7,1.3-1.1,2.8-1.1,4.5c0,1.7,0.4,3.2,1.1,4.6c0.7,1.4,1.7,2.5,3,3.3c1.3,0.8,2.7,1.2,4.3,1.2 c1.6,0,3-0.4,4.3-1.2c1.3-0.8,2.3-1.9,3-3.3c0.7-1.4,1.1-3,1.1-4.7C380.3,425.6,379.9,424.1,379.2,422.8z M367.3,412.7 c1.2,1.3,2.8,1.9,4.6,1.9s3.4-0.7,4.6-2c1.2-1.3,1.8-2.9,1.8-4.9c0-1.8-0.6-3.2-1.8-4.4c-1.2-1.2-2.7-1.8-4.5-1.8 c-1.8,0-3.4,0.6-4.6,1.8c-1.2,1.2-1.8,2.8-1.8,4.6C365.5,409.8,366.1,411.4,367.3,412.7z M412,414.4c2.1,1.2,3.8,2.9,4.9,4.9 s1.8,4.4,1.8,7c0,2.6-0.6,4.9-1.8,7c-1.2,2.1-2.8,3.8-4.9,4.9c-2.1,1.2-4.4,1.8-7,1.8c-2.6,0-4.9-0.6-7-1.8 c-2.1-1.2-3.7-2.8-4.9-4.9c-1.2-2.1-1.8-4.4-1.8-7c0-0.6,0.2-1.1,0.6-1.5c0.4-0.4,0.9-0.6,1.5-0.6c0.6,0,1.1,0.2,1.5,0.6 c0.4,0.4,0.6,0.9,0.6,1.5c0,1.8,0.4,3.4,1.2,4.8c0.8,1.5,2,2.6,3.4,3.4c1.4,0.8,3,1.2,4.8,1.2c1.8,0,3.4-0.4,4.8-1.2 c1.5-0.8,2.6-2,3.4-3.4c0.8-1.5,1.2-3.1,1.2-4.8s-0.4-3.4-1.2-4.8c-0.8-1.5-2-2.6-3.4-3.4s-3.1-1.2-4.8-1.2h-9.4 c-0.6,0-1.1-0.2-1.5-0.6c-0.4-0.4-0.6-0.9-0.6-1.5v-14.8c0-0.6,0.2-1.1,0.6-1.5c0.4-0.4,0.9-0.6,1.5-0.6h19c0.6,0,1.1,0.2,1.5,0.6 c0.4,0.4,0.6,0.9,0.6,1.5c0,0.6-0.2,1.1-0.6,1.5c-0.4,0.4-0.9,0.6-1.5,0.6h-16.9v10.6h7.4C407.6,412.5,409.9,413.2,412,414.4z M439.5,399.2c1.6,1,2.9,2.2,3.9,3.9c1,1.6,1.4,3.4,1.4,5.3s-0.5,3.7-1.4,5.3c-1,1.6-2.2,2.9-3.8,3.8c-1.6,1-3.4,1.4-5.3,1.4 c-1.9,0-3.7-0.5-5.3-1.4c-1.6-1-2.9-2.2-3.9-3.8c-1-1.6-1.4-3.4-1.4-5.3s0.5-3.7,1.4-5.3c1-1.6,2.2-2.9,3.9-3.9 c1.6-1,3.4-1.4,5.3-1.4C436.1,397.8,437.9,398.2,439.5,399.2z M431,402.7c-1,0.6-1.8,1.4-2.4,2.4c-0.6,1-0.9,2.1-0.9,3.2 s0.3,2.2,0.9,3.2c0.6,1,1.4,1.8,2.4,2.3c1,0.6,2.1,0.9,3.2,0.9c1.2,0,2.2-0.3,3.2-0.9c1-0.6,1.8-1.4,2.3-2.3c0.6-1,0.9-2,0.9-3.2 s-0.3-2.2-0.9-3.2c-0.6-1-1.4-1.8-2.4-2.4c-1-0.6-2-0.9-3.2-0.9C433.1,401.9,432,402.2,431,402.7z M460.1,397.8 c0.6,0,1.1,0.2,1.5,0.6c0.4,0.4,0.6,0.9,0.6,1.5c0,0.5-0.1,0.9-0.4,1.2l-29.9,38.1c-0.5,0.5-1,0.7-1.6,0.7c-0.6,0-1.1-0.2-1.5-0.6 c-0.4-0.4-0.6-0.9-0.6-1.5c0-0.5,0.2-1,0.5-1.4l29.6-37.9C458.9,398,459.5,397.8,460.1,397.8z M461.4,420.3 c1.6,0.9,2.9,2.2,3.9,3.8c1,1.6,1.4,3.4,1.4,5.3c0,1.9-0.5,3.7-1.4,5.3c-1,1.6-2.2,2.9-3.9,3.8c-1.6,0.9-3.4,1.4-5.3,1.4 c-1.9,0-3.7-0.5-5.3-1.4c-1.6-1-2.9-2.2-3.8-3.8c-1-1.6-1.4-3.4-1.4-5.3c0-1.9,0.5-3.7,1.4-5.3c1-1.6,2.2-2.9,3.8-3.8 c1.6-1,3.4-1.4,5.3-1.4C458,418.9,459.8,419.4,461.4,420.3z M451.6,424.9c-1.3,1.3-1.9,2.8-1.9,4.5c0,1.8,0.6,3.3,1.9,4.5 c1.3,1.3,2.8,1.9,4.5,1.9c1.2,0,2.2-0.3,3.2-0.9c1-0.6,1.8-1.4,2.4-2.4c0.6-1,0.9-2,0.9-3.2c0-1.1-0.3-2.2-0.9-3.2 c-0.6-1-1.4-1.8-2.4-2.4c-1-0.6-2.1-0.9-3.2-0.9C454.4,423,452.9,423.7,451.6,424.9z"></path> <path d="M200.4,307.3c-0.4,0-0.7-0.1-1-0.4c-0.3-0.3-0.4-0.6-0.4-1c0-0.3,0.1-0.6,0.2-0.8c0.1-0.2,0.4-0.4,0.7-0.5l4.2-1.5 c0.2-0.1,0.4-0.1,0.5-0.1c0.4,0,0.7,0.1,1,0.4c0.3,0.3,0.4,0.6,0.4,1v18.3c0,0.4-0.1,0.7-0.4,1c-0.3,0.3-0.6,0.4-1,0.4 c-0.4,0-0.7-0.1-0.9-0.4c-0.3-0.3-0.4-0.6-0.4-1v-16.5l-2,0.8C201,307.3,200.7,307.3,200.4,307.3z M220.8,311.3 c1.1,0.6,1.9,1.4,2.5,2.5c0.6,1.1,0.9,2.2,0.9,3.5s-0.3,2.4-0.9,3.5s-1.4,1.9-2.5,2.5c-1.1,0.6-2.2,0.9-3.5,0.9s-2.4-0.3-3.5-0.9 c-1.1-0.6-1.9-1.4-2.5-2.5s-0.9-2.2-0.9-3.5c0-0.4,0.1-0.7,0.4-1s0.6-0.4,1-0.4c0.4,0,0.7,0.1,1,0.4s0.4,0.6,0.4,1 c0,0.8,0.2,1.5,0.5,2.1c0.4,0.6,0.9,1.1,1.5,1.5s1.3,0.5,2.1,0.5s1.5-0.2,2.1-0.5c0.6-0.4,1.1-0.9,1.5-1.5c0.4-0.6,0.5-1.3,0.5-2.1 c0-0.8-0.2-1.5-0.5-2.1c-0.4-0.6-0.9-1.1-1.5-1.5c-0.6-0.4-1.3-0.5-2.1-0.5h-4.5c-0.4,0-0.7-0.1-1-0.4s-0.4-0.6-0.4-1v-7.3 c0-0.4,0.1-0.7,0.4-1c0.3-0.3,0.6-0.4,1-0.4h9c0.4,0,0.7,0.1,1,0.4c0.3,0.3,0.4,0.6,0.4,1c0,0.4-0.1,0.7-0.4,0.9 c-0.3,0.3-0.6,0.4-1,0.4h-7.6v4.6h3.1C218.6,310.4,219.8,310.7,220.8,311.3z M234.5,303.8c0.8,0.5,1.5,1.2,2,2 c0.5,0.8,0.7,1.7,0.7,2.7s-0.2,1.8-0.7,2.7s-1.1,1.5-2,2c-0.8,0.5-1.7,0.7-2.7,0.7c-1,0-1.9-0.2-2.7-0.7c-0.8-0.5-1.5-1.1-2-2 s-0.7-1.7-0.7-2.7s0.2-1.8,0.7-2.7c0.5-0.8,1.1-1.5,2-2c0.8-0.5,1.7-0.7,2.7-0.7C232.8,303.1,233.7,303.3,234.5,303.8z M244.4,303.1c0.4,0,0.7,0.1,1,0.4c0.3,0.3,0.4,0.6,0.4,1c0,0.3-0.1,0.6-0.3,0.8l-14.3,18.4c-0.3,0.3-0.6,0.4-1,0.4 c-0.4,0-0.7-0.1-1-0.4c-0.3-0.3-0.4-0.6-0.4-1s0.1-0.7,0.3-0.9l14.2-18.3C243.7,303.2,244,303.1,244.4,303.1z M229.9,306.6 c-0.5,0.5-0.8,1.1-0.8,1.9s0.3,1.3,0.8,1.8c0.5,0.5,1.1,0.8,1.9,0.8c0.7,0,1.3-0.3,1.8-0.8c0.5-0.5,0.8-1.1,0.8-1.8 s-0.3-1.3-0.8-1.9s-1.1-0.8-1.8-0.8C231.1,305.8,230.4,306.1,229.9,306.6z M245.4,314.1c0.8,0.5,1.5,1.1,2,2 c0.5,0.8,0.7,1.7,0.7,2.7s-0.2,1.9-0.7,2.7c-0.5,0.8-1.1,1.5-2,2c-0.8,0.5-1.7,0.7-2.7,0.7c-1,0-1.9-0.2-2.7-0.7 c-0.8-0.5-1.5-1.1-2-2c-0.5-0.8-0.7-1.7-0.7-2.7s0.2-1.9,0.7-2.7c0.5-0.8,1.1-1.5,2-2c0.8-0.5,1.7-0.7,2.7-0.7 C243.7,313.4,244.6,313.6,245.4,314.1z M240.9,316.9c-0.5,0.5-0.8,1.1-0.8,1.8s0.3,1.3,0.8,1.8c0.5,0.5,1.1,0.8,1.8,0.8 s1.3-0.3,1.9-0.8c0.5-0.5,0.8-1.1,0.8-1.8s-0.3-1.3-0.8-1.8c-0.5-0.5-1.1-0.8-1.9-0.8S241.4,316.4,240.9,316.9z"></path> </g> </svg> 