<?xml version="1.0" encoding="UTF-8"?> <svg xmlns="http://www.w3.org/2000/svg" viewBox="0 0 1020 1020"> <title>Монтажная область 5</title> <g id="Слой_7" data-name="Слой 7"> <rect x="171.44" y="320.27" width="404.4" height="291.01" fill="#fff" stroke="#191919" stroke-linecap="round" stroke-linejoin="round" stroke-width="2"></rect> <rect x="240.77" y="449.99" width="265.73" height="161.29" fill="#191919"></rect> <rect x="211.99" y="651.86" width="346.89" height="81.24" fill="#fbdc0c"></rect> <rect x="618.07" y="202.98" width="97.84" height="188.95" fill="#fbdc0c"></rect> <line x1="240.77" y1="418.61" x2="385.43" y2="418.61" fill="none" stroke="#191919" stroke-linecap="round" stroke-linejoin="round" stroke-width="2"></line> <line x1="240.77" y1="383.18" x2="506.5" y2="383.18" fill="none" stroke="#191919" stroke-linecap="round" stroke-linejoin="round" stroke-width="2"></line> <circle cx="203.02" cy="350.76" r="7.42" fill="#191919"></circle> <circle cx="239.19" cy="350.76" r="7.42" fill="#191919"></circle> <circle cx="275.35" cy="350.76" r="7.42" fill="#191919"></circle> <circle cx="267.93" cy="694" r="7.42" fill="none" stroke="#191919" stroke-linecap="round" stroke-linejoin="round" stroke-width="2"></circle> <circle cx="313.1" cy="694" r="7.42" fill="none" stroke="#191919" stroke-linecap="round" stroke-linejoin="round" stroke-width="2"></circle> <circle cx="358.27" cy="694" r="7.42" fill="none" stroke="#191919" stroke-linecap="round" stroke-linejoin="round" stroke-width="2"></circle> <rect x="633.73" y="237.73" width="66.53" height="77.1" fill="none" stroke="#191919" stroke-linecap="round" stroke-linejoin="round" stroke-width="2"></rect> <line x1="633.73" y1="338.17" x2="687.01" y2="338.17" fill="none" stroke="#191919" stroke-linecap="round" stroke-linejoin="round" stroke-width="2"></line> <line x1="633.73" y1="363.16" x2="667.27" y2="363.16" fill="none" stroke="#191919" stroke-linecap="round" stroke-linejoin="round" stroke-width="2"></line> <path d="M695.76,488.89,683,507.43l4.14,11.06-6,8.35S673,540,677.2,556l22.39,30.31v17.19l62.24-19.66-12-93.33S718.3,473.06,717,473.37,695.76,488.89,695.76,488.89Z" fill="#fff" stroke="#191919" stroke-linecap="round" stroke-linejoin="round" stroke-width="2"></path> <path d="M699.59,586.36V570.78s12-.55,21.29-27.3,15.57-30.33,22.93-26.21c5.39,3,5.37,17.56-17,29l-2.25,12.06a11.52,11.52,0,0,0,6.86,12.74l30.43,12.78s41.95-48.41,35.4-77.89c-6.4-28.78-21.23-49.74-81.66-53.11a46.46,46.46,0,0,0-15.27,1.61c-6.39,1.81-13.63,5.4-15.64,12.46-5,17.65,11.1,21.93,11.1,21.93s31.67-9.28,34.4,4.91-7.1,33.3-22.93,44.22L691.4,548.94,677.2,556S668,586.36,699.59,586.36Z" fill="#191919" stroke="#191919" stroke-miterlimit="10" stroke-width="2"></path> <line x1="675.96" y1="517.5" x2="724.31" y2="519.58" fill="none" stroke="#191919" stroke-linecap="round" stroke-linejoin="round" stroke-width="2"></line> <line x1="676" y1="508" x2="673.44" y2="528.02" fill="none" stroke="#191919" stroke-linecap="round" stroke-linejoin="round" stroke-width="2"></line> <path d="M623.89,713.6l-47.06-50.08L579,634.67a28.25,28.25,0,0,0-7.49-21.41L558.29,599a14.7,14.7,0,0,0-9.67-4.64l-20-1.5a.78.78,0,0,0-.84.78h0a5.72,5.72,0,0,0,4.23,5.53l8.17,1.47a10.6,10.6,0,0,1,5,2.33l8.13,6.85-5.87,1.68a5.68,5.68,0,0,0-3.52,2.92l-.85,1.71h-1.16a4.3,4.3,0,0,0-4.11,3l-.64,2.09-3.5.82a4.43,4.43,0,0,0-3.41,4l-.45,7.14a6.5,6.5,0,0,0,1.08,4l10.61,15.95.19,3.09a9.19,9.19,0,0,0,2.33,5.56l14.82,16.54L608,755.23" fill="#fff" stroke="#191919" stroke-linecap="round" stroke-linejoin="round" stroke-width="2"></path> <path d="M679.61,621.56s-18.82,12.3-18.82,20.26,5.07,76.71-4,81.05-11,4.34-31.5-13l-22.77,60.07s18.81,30.21,57.5,23.22l2.28,23.45H833s-2.84-173.06-28.45-190.7c0,0,6.26-5.1,6-13.35s-10.9-30.93-20.91-33.87-61.56,4.42-97.19,26.21S679.61,621.56,679.61,621.56Z" fill="#fbdc0c"></path> <path d="M602.54,769.91a40.82,40.82,0,0,0,7.6,9c29.85,27.83,78.44,16.23,93.34-21.76,5.56-14.16,8.34-32.49,5-56" fill="none" stroke="#191919" stroke-linecap="round" stroke-linejoin="round" stroke-width="2"></path> <path d="M656.82,722.87c-6,2.88-8.9,3.85-16.14-.89" fill="none" stroke="#191919" stroke-linecap="round" stroke-linejoin="round" stroke-width="2"></path> <path d="M702.23,618.6c11-1,34.71,7.29,34.71,7.29,58.69,15.29,67.63,0,67.63,0s6.26-5.1,6-13.35-10.9-30.93-20.91-33.87-61.56,4.42-97.19,26.21-12.81,16.66-12.81,16.66l10.29-3" fill="none" stroke="#191919" stroke-linecap="round" stroke-linejoin="round" stroke-width="2"></path> <line x1="640.68" y1="721.98" x2="621.13" y2="775.39" fill="none" stroke="#191919" stroke-linecap="round" stroke-linejoin="round" stroke-width="2"></line> <line x1="647.17" y1="725.06" x2="647.17" y2="741.11" fill="none" stroke="#191919" stroke-linecap="round" stroke-linejoin="round" stroke-width="2"></line> <line x1="656.99" y1="722.93" x2="661.27" y2="737.98" fill="none" stroke="#191919" stroke-linecap="round" stroke-linejoin="round" stroke-width="2"></line> <path d="M777,590.82s-22,3.1-49.7,4" fill="none" stroke="#191919" stroke-linecap="round" stroke-linejoin="round" stroke-width="2"></path> <line x1="541.45" y1="653.21" x2="544.33" y2="636.42" fill="none" stroke="#191919" stroke-linecap="round" stroke-linejoin="round" stroke-width="2"></line> <line x1="538.81" y1="637.42" x2="543.17" y2="643.19" fill="none" stroke="#191919" stroke-linecap="round" stroke-linejoin="round" stroke-width="2"></line> <line x1="553.27" y1="609.83" x2="558.88" y2="614.08" fill="none" stroke="#191919" stroke-linecap="round" stroke-linejoin="round" stroke-width="2"></line> <line x1="186.84" y1="817.02" x2="848.56" y2="817.02" fill="#fbdc0c" stroke="#191919" stroke-linecap="round" stroke-linejoin="round" stroke-width="2"></line> </g> </svg> 