<?xml version="1.0" encoding="UTF-8"?> <svg xmlns="http://www.w3.org/2000/svg" width="260" height="260" viewBox="0 0 260 260" fill="none"> <rect width="260" height="260" fill="white"></rect> <path d="M59.7999 110.286C59.7999 110.286 45.8041 68.8735 94.6217 73.9279C143.439 78.9823 120.115 60.6523 138.562 49.2773C157.009 37.9023 211.362 73.2909 188.622 107.424C165.883 141.556 224.962 110.333 237.286 161.662C244.891 193.338 226.023 216.652 210.457 229.868" stroke="#FFDF05" stroke-width="1.4222" stroke-miterlimit="10"></path> <path d="M215.218 190.294C211.549 169.05 198.559 150.039 177.455 143.234C172.057 141.504 166.536 140.178 160.94 139.269V139.298C160.648 141.062 159.957 142.735 158.92 144.191C156.72 147.205 153.689 149.68 150.179 150.969C146.596 152.295 142.158 152.467 138.832 150.382C136.83 149.129 134.888 146.921 134.537 144.54C134.137 141.856 135.504 139.316 137.428 137.543C121.121 137.676 105.781 140.359 93.4883 143.414C93.9144 145.198 94.5043 146.938 95.251 148.614C96.296 150.949 97.7725 153.067 99.6034 154.854C101.887 152.591 103.886 150.06 105.557 147.314C107.156 147.837 108.566 148.819 109.611 150.137C110.656 151.455 111.291 153.05 111.436 154.726V154.812C112.081 160.899 106.22 165.472 101.296 168.285C95.6073 171.556 89.2658 174.005 83.0362 176.041C80.4674 176.884 77.129 177.601 74.4172 176.722C74.1253 176.629 73.8403 176.515 73.5644 176.382C70.8604 175.056 69.0508 172.276 67.639 169.736C63.6168 162.521 61.0013 154.656 59.2281 146.583C46.9223 148.156 45.5131 139.823 44.7825 137.78L34.2551 167.209C33.7028 169.324 33.6433 171.538 34.0803 173.68C34.5177 175.823 35.4404 177.836 36.7776 179.566C38.1145 181.296 39.8305 182.696 41.7932 183.659C43.7562 184.622 45.9137 185.122 48.1 185.12H91.6812L111.478 235.898L117.088 250.31H149.136C146.536 250.31 145.114 249.676 144.082 248.641C143.016 247.574 142.416 246.129 142.412 244.621C142.412 241.501 144.973 238.943 149.136 238.943H149.43C149.115 238.943 148.814 238.914 148.499 238.886C148.694 238.865 148.887 238.832 149.079 238.79C148.873 238.785 148.667 238.769 148.463 238.743C150.34 238.521 152.08 237.647 153.378 236.272C154.676 234.898 155.449 233.111 155.563 231.224C155.568 231.126 155.568 231.028 155.563 230.93V230.779C155.519 228.844 154.779 226.99 153.48 225.556C152.181 224.121 150.409 223.202 148.489 222.966C148.707 222.948 148.915 222.93 149.126 222.93C148.936 222.883 148.725 222.854 148.528 222.826C148.84 222.797 149.154 222.776 149.456 222.776L172.903 222.901L177.216 222.919H182.335C182.572 222.919 182.811 222.919 183.037 222.948L190.642 222.987L195.723 223.015C197.846 223.033 199.876 223.891 201.368 225.402C202.861 226.912 203.694 228.952 203.687 231.075C203.684 232.276 203.406 233.46 202.873 234.536C205.053 234.257 207.074 233.249 208.608 231.676C212.267 227.94 213.842 222.347 214.932 217.376C216.858 208.52 216.744 199.189 215.218 190.294ZM155.979 190.892C151.562 197.691 144.04 197.08 144.04 197.08C144.04 197.08 143.416 197.689 141.96 195.099C140.504 192.51 136.357 190.739 136.357 190.739C136.027 193.339 135.343 197.291 128.557 192.169C121.771 187.047 123.817 179.58 124.397 175.636C124.977 171.691 127.288 170.384 127.288 170.384L130.018 168.943C130.018 168.943 122.122 166.913 121.742 166.837C121.363 166.762 114.33 160.873 121.467 159.318C128.604 157.763 139.729 163.946 141.879 165.168C144.03 166.39 156.595 177.019 156.595 177.019C156.595 177.019 160.42 184.104 155.979 190.892Z" fill="#2E2E2E"></path> <path d="M59.2175 146.588C59.2175 146.588 65.1689 145.866 67.3971 141.617L65.4549 152.514C65.4549 152.514 89.1305 144.454 93.4725 143.414C93.4725 143.414 94.8713 152.433 100.441 154.854L106.187 147.548C106.187 147.548 113.391 149.368 111.42 159.185C109.45 169.003 82.1911 177.209 77.5683 177.019C72.9455 176.829 67.9691 173.985 62.8731 158.699L59.2175 146.588Z" fill="#2E2E2E"></path> <path d="M68.9129 122.314C70.4209 124.769 71.9367 127.218 73.5019 129.636C74.4665 131.126 76.2241 133.25 74.3547 134.807C73.7463 135.274 73.0115 135.546 72.2461 135.587C71.0449 135.694 69.7839 135.405 69.0533 134.373L65.4133 128.341C64.6879 127.138 63.5358 126.253 62.187 125.86C60.8378 125.468 59.3907 125.599 58.1333 126.225" stroke="#2E2E2E" stroke-width="1.4222" stroke-miterlimit="10"></path> <path d="M82.68 130.259C83.6316 132.521 82.9868 133.979 81.874 134.713C80.054 135.906 77.6178 135.334 76.3282 133.592L68.926 122.326" stroke="#2E2E2E" stroke-width="1.4222" stroke-miterlimit="10"></path> <path d="M75.179 119.038C77.8726 122.314 81.2708 128.398 83.1506 130.938C85.0304 133.478 87.9372 131.947 87.9372 131.947C90.298 130.676 89.8976 128.567 88.8654 126.006C86.3226 119.719 82.6931 115.538 78.6449 112.798C66.0999 104.312 53.2298 110.572 49.4 125.221L34.2551 167.208C33.7028 169.324 33.6433 171.538 34.0803 173.68C34.5177 175.822 35.4404 177.836 36.7776 179.565C38.1145 181.295 39.8305 182.695 41.7932 183.658C43.7562 184.621 45.9137 185.121 48.1 185.12H91.6812L117.096 250.312" stroke="#2E2E2E" stroke-width="1.4222" stroke-miterlimit="10"></path> <path d="M90.74 123.122C93.86 122.041 93.717 117.064 89.2892 115.385C84.3986 113.528 75.7146 110.902 73.5332 110.247C73.5197 110.237 73.5033 110.23 73.4864 110.229C73.333 110.182 73.2264 110.143 73.1432 110.125L73.021 110.086" stroke="#2E2E2E" stroke-width="1.4222" stroke-miterlimit="10"></path> <path d="M136.838 172.879C134.108 169.598 126.635 167.739 121.758 166.84C120.938 166.686 120.191 166.269 119.628 165.654C119.065 165.038 118.718 164.256 118.638 163.426C118.581 162.866 118.646 162.3 118.828 161.767C119.118 160.949 119.675 160.252 120.409 159.788C121.143 159.324 122.012 159.12 122.876 159.209C131.196 160.051 139.776 162.669 146.122 168.309C146.122 168.309 176.888 191.787 180.562 194.072C182.078 194.992 183.492 193.906 182.465 192.46L182.143 191.909C180.335 188.805 178.194 185.908 175.76 183.266" stroke="#2E2E2E" stroke-width="1.4222" stroke-miterlimit="10"></path> <path d="M137.407 137.54C98.714 137.863 65.4548 152.511 65.4548 152.511L68.775 133.9" stroke="#2E2E2E" stroke-width="1.4222" stroke-miterlimit="10"></path> <path d="M197.504 238.828C197.504 238.828 193.289 237.873 192.169 241.248C191.048 244.623 189.878 249.992 197.936 250.309C205.993 250.626 201.261 249.043 200.796 246.435C200.33 243.827 197.504 238.828 197.504 238.828Z" fill="#FFDF05"></path> <path d="M133.12 177.161C133.12 177.161 128.573 173.713 124.478 177.208C124.305 177.36 124.155 177.535 124.031 177.728" stroke="#2E2E2E" stroke-width="1.4222" stroke-miterlimit="10"></path> <path opacity="0.77" d="M76.3125 133.58C77.6125 135.325 80.0461 135.894 81.8583 134.698C82.9581 133.97 83.6029 132.519 82.6747 130.278C82.8437 130.525 82.9971 130.743 83.1479 130.944C85.0251 133.494 87.9345 131.958 87.9345 131.958C90.2953 130.686 89.8975 128.578 88.8653 126.014C87.8552 123.475 86.53 121.073 84.9211 118.864C85.9741 117.879 87.2247 116.883 88.5429 117.32C89.9651 117.793 90.3629 119.576 90.5241 121.064C90.5995 121.755 90.6749 122.439 90.7503 123.131L91.8891 133.312C92.2687 136.692 92.6483 140.122 93.4725 143.421C93.8987 145.205 94.4886 146.946 95.2353 148.621C96.2803 150.957 97.7568 153.074 99.5877 154.861C101.871 152.599 103.871 150.067 105.542 147.321C107.14 147.844 108.55 148.826 109.595 150.144C110.64 151.462 111.275 153.058 111.42 154.734V154.819C112.065 160.906 106.205 165.479 101.28 168.293C95.5915 171.563 89.2501 174.013 83.0205 176.048C80.4517 176.891 77.1133 177.608 74.4015 176.73C74.1095 176.636 73.8246 176.523 73.5487 176.389C70.8447 175.063 69.0351 172.284 67.6233 169.743C60.8633 157.588 58.0553 143.632 56.5759 129.81C59.5347 129.402 62.4831 128.947 65.3951 128.32C65.3951 128.32 65.3951 128.341 65.4133 128.349L68.7699 133.915L69.0455 134.378C69.7735 135.418 71.0345 135.696 72.2383 135.592C73.0038 135.554 73.739 135.282 74.3443 134.812C76.2111 133.252 74.4587 131.136 73.4915 129.646" fill="white"></path> <path opacity="0.77" d="M76.3125 133.58C77.6125 135.325 80.0461 135.894 81.8583 134.698C82.9581 133.97 83.6029 132.519 82.6747 130.278C82.8437 130.525 82.9971 130.743 83.1479 130.944C85.0251 133.494 87.9345 131.958 87.9345 131.958C90.2953 130.686 89.8975 128.578 88.8653 126.014C87.8552 123.475 86.53 121.073 84.9211 118.864C85.9741 117.879 87.2247 116.883 88.5429 117.32C89.9651 117.793 90.3629 119.576 90.5241 121.064C90.5995 121.755 90.6749 122.439 90.7503 123.131L91.8891 133.312C92.2687 136.692 92.6483 140.122 93.4725 143.421C93.8987 145.205 94.4886 146.946 95.2353 148.621C96.2803 150.957 97.7568 153.074 99.5877 154.861C101.871 152.599 103.871 150.067 105.542 147.321C107.14 147.844 108.55 148.826 109.595 150.144C110.64 151.462 111.275 153.058 111.42 154.734V154.819C112.065 160.906 106.205 165.479 101.28 168.293C95.5915 171.563 89.2501 174.013 83.0205 176.048C80.4517 176.891 77.1133 177.608 74.4015 176.73C74.1095 176.636 73.8246 176.523 73.5487 176.389C70.8447 175.063 69.0351 172.284 67.6233 169.743C60.8633 157.588 58.0553 143.632 56.5759 129.81C59.5347 129.402 62.4831 128.947 65.3951 128.32C65.3951 128.32 65.3951 128.341 65.4133 128.349L68.7699 133.915L69.0455 134.378C69.7735 135.418 71.0345 135.696 72.2383 135.592C73.0038 135.554 73.739 135.282 74.3443 134.812C76.2111 133.252 74.4587 131.136 73.4915 129.646" fill="#FFDF05"></path> <path opacity="0.77" d="M77.1108 134.404C78.2626 135.964 80.2308 135.767 81.8584 134.698C82.8412 134.048 83.6472 134.238 82.8178 132.233C82.9712 132.452 82.992 131.713 83.1272 131.877C84.8042 134.155 83.148 130.936 83.148 130.936C85.488 133.892 90.5814 131.107 89.648 128.822C88.66 126.36 87.62 122.72 86.3018 120.9C87.3418 119.917 87.1416 120.063 88.465 120.845C88.8204 121.073 89.1181 121.382 89.3342 121.745C89.5505 122.108 89.6792 122.516 89.7104 122.938C89.817 123.929 89.9236 124.878 90.0302 125.845L91.0442 134.945C91.3848 137.969 91.7228 141.024 92.4586 143.967C92.839 145.558 93.3665 147.111 94.0342 148.605C94.965 150.662 97.955 154.086 99.5878 155.654C101.618 153.639 104.052 149.934 105.542 147.472C108.402 148.351 108.277 151.086 108.48 154.073V154.151C109.057 159.583 103.826 163.662 99.4422 166.176C94.3618 169.096 88.7016 171.28 83.1402 173.1C80.847 173.854 77.8674 174.504 75.4468 173.708C75.1858 173.626 74.931 173.524 74.685 173.404C72.2722 172.219 70.655 169.741 69.394 167.471C63.8742 157.557 61.3132 146.302 59.904 135.018C59.8005 134.173 60.0291 133.322 60.5413 132.643C61.0535 131.964 61.8093 131.51 62.6496 131.378C64.233 131.118 65.8112 130.858 67.379 130.509L67.4232 130.53L70.4184 135.499C71.071 136.422 71.1776 135.699 72.2514 135.605C72.93 135.546 74.2456 135.413 74.7708 134.974C76.4374 133.585 75.4962 133.011 74.633 131.682" fill="#FFDF05"></path> <path d="M132.571 182.18C132.571 182.18 123.937 179.341 123.807 184.114" stroke="#2E2E2E" stroke-width="1.4222" stroke-miterlimit="10"></path> <path opacity="0.54" d="M55.2812 230.806L38.3474 187.422C38.1376 186.583 38.122 185.707 38.3014 184.86C38.481 184.014 38.8513 183.219 39.3837 182.537C39.9165 181.855 40.5974 181.303 41.3753 180.924C42.153 180.545 43.0071 180.348 43.8724 180.348H111.134C112.645 180.347 114.111 180.856 115.297 181.791C116.484 182.725 117.321 184.032 117.673 185.501L136.211 228.874C136.412 229.711 136.42 230.582 136.235 231.422C136.05 232.263 135.678 233.05 135.145 233.726C134.612 234.401 133.934 234.947 133.159 235.323C132.385 235.699 131.536 235.894 130.676 235.894H61.8046C60.3054 235.895 58.8491 235.395 57.6672 234.473C56.4852 233.551 55.6454 232.26 55.2812 230.806Z" fill="white"></path> <path d="M135.382 189.498C135.382 189.498 136.784 190.782 136.251 192.618C135.855 193.977 134.503 194.835 133.164 194.37C128.9 192.896 125.06 190.392 124.124 186.136C123.682 183.981 123.586 181.769 123.841 179.584C124.046 177.558 124.345 175.372 125.026 173.445C126.066 170.486 129.251 168.425 132.343 169.849" stroke="#2E2E2E" stroke-width="1.4222" stroke-miterlimit="10"></path> <path d="M55.2812 230.806L38.3474 187.422C38.1376 186.583 38.122 185.707 38.3014 184.86C38.481 184.014 38.8513 183.219 39.3837 182.537C39.9165 181.855 40.5974 181.303 41.3753 180.924C42.153 180.545 43.0071 180.348 43.8724 180.348H111.134C112.645 180.347 114.111 180.856 115.297 181.791C116.484 182.725 117.321 184.032 117.673 185.501L136.211 228.874C136.412 229.711 136.42 230.582 136.235 231.422C136.05 232.263 135.678 233.05 135.145 233.726C134.612 234.401 133.934 234.947 133.159 235.323C132.385 235.699 131.536 235.894 130.676 235.894H61.8046C60.3054 235.895 58.8491 235.395 57.6672 234.473C56.4852 233.551 55.6454 232.26 55.2812 230.806Z" fill="#FFDF05"></path> <path d="M55.2812 230.806L38.3474 187.422C38.1376 186.583 38.122 185.707 38.3014 184.86C38.481 184.014 38.8513 183.219 39.3837 182.537C39.9165 181.855 40.5974 181.303 41.3753 180.924C42.153 180.545 43.0071 180.348 43.8724 180.348H111.134C112.645 180.347 114.111 180.856 115.297 181.791C116.484 182.725 117.321 184.032 117.673 185.501L136.211 228.874C136.412 229.711 136.42 230.582 136.235 231.422C136.05 232.263 135.678 233.05 135.145 233.726C134.612 234.401 133.934 234.947 133.159 235.323C132.385 235.699 131.536 235.894 130.676 235.894H61.8046C60.3054 235.895 58.8492 235.395 57.6672 234.473C56.4852 233.551 55.6454 232.26 55.2812 230.806Z" stroke="#2E2E2E" stroke-width="1.4222" stroke-linecap="square" stroke-linejoin="round"></path> <path d="M57.759 229.058L42.1356 189.018C41.9424 188.244 41.9284 187.435 42.0943 186.655C42.2602 185.874 42.6018 185.141 43.0935 184.512C43.5849 183.883 44.2133 183.374 44.9306 183.024C45.6482 182.674 46.436 182.492 47.2342 182.492H109.286C110.679 182.492 112.032 182.96 113.126 183.823C114.22 184.685 114.993 185.89 115.318 187.245L132.423 227.262C132.608 228.034 132.615 228.838 132.445 229.613C132.274 230.388 131.93 231.115 131.438 231.738C130.947 232.361 130.32 232.865 129.606 233.211C128.892 233.558 128.108 233.738 127.314 233.738H63.7754C62.3945 233.739 61.053 233.28 59.9633 232.432C58.8734 231.584 58.0978 230.397 57.759 229.058Z" fill="#FFDF05"></path> <path d="M190.559 222.777L202.457 250.309" stroke="#2E2E2E" stroke-width="1.4222" stroke-miterlimit="10"></path> <path d="M247 250.31H13" stroke="#2E2E2E" stroke-width="1.4222" stroke-miterlimit="10"></path> <path d="M136.336 126.049C134.407 127.955 131.526 127.952 129.885 126.189" stroke="#2E2E2E" stroke-width="1.4222" stroke-miterlimit="10"></path> <path d="M84.9214 118.856C85.9744 117.871 87.225 116.875 88.5432 117.312C89.9654 117.785 90.3632 119.569 90.5244 121.056C90.9802 125.143 91.4352 129.226 91.8894 133.305C92.4666 138.505 93.075 143.829 95.2356 148.608C96.2805 150.944 97.7571 153.061 99.588 154.848" stroke="#2E2E2E" stroke-width="1.4222" stroke-miterlimit="10"></path> <path d="M111.421 154.817V154.731C111.275 153.055 110.64 151.459 109.595 150.141C108.55 148.823 107.14 147.842 105.542 147.318C103.871 150.064 101.871 152.596 99.5879 154.858C93.6009 160.812 85.9098 164.754 77.5815 166.14C77.9819 167.734 78.8061 169.184 79.3755 170.718C79.9449 172.252 80.2283 174.028 79.5367 175.508C78.6631 177.395 76.1567 177.148 74.4147 176.73C74.3965 176.73 74.3861 176.73 74.3679 176.73" stroke="#2E2E2E" stroke-width="1.4222" stroke-miterlimit="10"></path> <path d="M65.4003 128.317C62.4883 128.944 59.5399 129.399 56.5811 129.807C58.0605 143.629 60.8581 157.586 67.6285 169.741C69.0403 172.281 70.8499 175.06 73.5539 176.386C73.8297 176.52 74.1147 176.634 74.4067 176.727C77.1185 177.619 80.4569 176.888 83.0257 176.046C89.2657 174.007 95.5967 171.561 101.285 168.29C106.197 165.474 112.057 160.903 111.425 154.817C111.364 154.146 111.227 153.485 111.017 152.846" stroke="#2E2E2E" stroke-width="1.4222" stroke-miterlimit="10"></path> <path d="M114.093 100.746C114.53 102.565 115.526 104.201 116.941 105.424C118.357 106.648 120.121 107.396 121.984 107.563C122.139 106.812 122.475 106.111 122.962 105.519C125.042 103.068 125.928 107.667 132.582 104.365C141.801 99.7786 145.301 102.41 145.301 102.41C145.608 102.639 145.561 104.75 145.613 105.134C145.873 107.326 146.107 109.508 146.364 111.697C146.52 113.033 146.674 114.359 146.819 115.685C146.945 115.46 147.084 115.242 147.235 115.033C148.075 112.061 149.575 108.551 152.81 110.062C153.465 110.381 154.035 110.85 154.474 111.432C156.619 114.25 154.994 116.972 152.75 118.987C152.188 119.612 151.559 120.175 150.875 120.664C151.245 121.429 152.753 124.463 152.753 124.473C152.909 124.78 158.179 118.816 158.571 118.166C159.158 116.573 159.473 114.894 159.502 113.197C159.588 106.221 156.749 98.1013 151.099 94.0999C149.698 93.1093 150.145 92.1551 150.059 90.8083C150.053 90.7355 150.025 90.6663 149.979 90.6097C149.933 90.553 149.871 90.5116 149.801 90.4911C149.73 90.4706 149.656 90.4719 149.586 90.4945C149.517 90.5174 149.456 90.5605 149.412 90.6188C147.641 92.6572 143.257 92.4544 143.257 92.4544C128.042 88.6428 122.928 95.408 119.857 96.6144C118.605 97.0889 117.225 97.1117 115.957 96.6794C115.883 97.099 115.695 97.4903 115.414 97.8111C115.133 98.132 114.77 98.3699 114.364 98.4994L114.442 99.2037C114.508 99.7427 114.385 100.288 114.093 100.746Z" fill="#FFDF05"></path> <path d="M121.995 107.576C120.131 107.408 118.367 106.661 116.952 105.438C115.536 104.215 114.54 102.578 114.104 100.759C113.933 100.061 113.825 99.3489 113.781 98.6318L113.901 98.6189C114.064 98.6066 114.225 98.5715 114.379 98.5149C114.786 98.3854 115.149 98.1475 115.43 97.8266C115.71 97.5061 115.898 97.1145 115.973 96.6949C116.021 96.4622 116.03 96.2232 116.002 95.9877L115.612 92.5452C115.612 92.5452 118.362 94.5915 121.415 93.3955C124.467 92.1995 129.592 85.4343 144.815 89.2355C144.815 89.2355 148.252 89.4383 150.015 87.3999C150.059 87.3416 150.12 87.2984 150.19 87.2758C150.259 87.2529 150.334 87.2519 150.404 87.2724C150.474 87.293 150.536 87.3343 150.582 87.3908C150.628 87.4474 150.656 87.5168 150.662 87.5896C150.753 88.939 151.252 89.8932 152.656 90.8812C158.306 94.8852 161.145 103.002 161.057 109.978C161.031 112.872 160.069 115.729 158.584 118.181C158.192 118.831 152.922 124.796 152.766 124.489C152.766 124.489 151.258 121.444 150.888 120.68L150.8 120.511L150.969 120.399C151.597 119.973 152.196 119.506 152.763 119.003C155.004 116.988 156.632 114.266 154.487 111.447C154.048 110.866 153.478 110.396 152.823 110.077C149.578 108.566 148.088 112.076 147.248 115.048C147.085 115.616 146.985 116.2 146.949 116.79C146.91 116.426 146.871 116.075 146.832 115.711C146.687 114.385 146.533 113.059 146.377 111.723C146.117 109.534 145.873 107.352 145.626 105.16C145.587 104.786 145.626 102.664 145.314 102.436C145.314 102.436 141.812 99.8045 132.595 104.391C125.941 107.693 125.055 103.091 122.975 105.545C122.488 106.137 122.152 106.838 121.997 107.589C121.95 107.83 121.919 108.074 121.906 108.319C121.901 108.351 121.901 108.384 121.906 108.416C121.875 108.954 121.865 109.489 121.852 110.015C121.802 115.082 122.359 120.376 124.348 125.082C126.766 130.786 133.164 136.412 139.818 133.753C141.898 132.918 143.762 131.574 145.467 130.146" stroke="#2E2E2E" stroke-width="1.4222" stroke-miterlimit="10"></path> <path d="M126.548 119.934C127.209 119.712 127.529 118.884 127.261 118.083C126.993 117.282 126.239 116.813 125.577 117.034C124.916 117.256 124.596 118.084 124.864 118.885C125.132 119.686 125.886 120.155 126.548 119.934Z" fill="#2E2E2E"></path> <path d="M136.447 119.616C137.109 119.395 137.428 118.567 137.161 117.766C136.893 116.965 136.139 116.495 135.477 116.717C134.815 116.938 134.496 117.767 134.764 118.568C135.032 119.368 135.785 119.838 136.447 119.616Z" fill="#2E2E2E"></path> <path d="M132.662 121.332C132.662 121.332 129.368 123.201 129.168 121.261C129.106 120.663 128.3 114.806 128.3 114.806C128.3 114.806 125.637 111.985 121.558 114.07" stroke="#2E2E2E" stroke-width="1.4222" stroke-miterlimit="10"></path> <path d="M131.921 113.165C131.921 113.165 137.241 110.508 140.761 114.338" stroke="#2E2E2E" stroke-width="1.4222" stroke-miterlimit="10"></path> <path d="M136.799 134.403L137.41 137.539C135.483 139.315 134.121 141.86 134.519 144.541C134.872 146.917 136.817 149.13 138.811 150.375C142.145 152.455 146.578 152.291 150.166 150.968C153.673 149.668 156.707 147.201 158.907 144.19C159.943 142.734 160.633 141.062 160.924 139.299V139.268" stroke="#2E2E2E" stroke-width="1.4222" stroke-miterlimit="10"></path> <path d="M137.41 137.539L138.601 143.202" stroke="#2E2E2E" stroke-width="1.4222" stroke-miterlimit="10"></path> <path d="M154.25 123.122L156.049 135.069C156.227 136.239 156.818 137.306 157.716 138.076C158.613 138.847 159.757 139.27 160.94 139.268C166.54 140.175 172.063 141.5 177.466 143.23C198.57 150.037 211.559 169.048 215.228 190.29C216.754 199.185 216.869 208.514 214.952 217.359C213.863 222.338 212.287 227.931 208.629 231.659C203.879 236.521 196.589 234.519 190.975 232.322C173.547 225.544 159.052 213.485 146.536 199.679C139.844 192.295 131.196 186.377 131.196 186.377" stroke="#2E2E2E" stroke-width="1.4222" stroke-miterlimit="10"></path> <path d="M63.5179 220.099C61.5627 220.08 59.8597 218.502 59.4203 216.305C58.5519 211.984 58.3231 205.302 64.6593 203.844C72.5763 202.024 78.6655 210.645 81.6503 216.095C82.6539 217.915 81.5177 220.255 79.6483 220.255L63.5179 220.099Z" fill="#2E2E2E"></path> <path d="M66.1317 200.174C67.8124 199.056 67.8384 196.14 66.1892 193.662C64.5403 191.184 61.841 190.081 60.1601 191.2C58.4792 192.318 58.4534 195.234 60.1023 197.712C61.7515 200.19 64.4508 201.293 66.1317 200.174Z" fill="#2E2E2E"></path> <path d="M196.24 238.97C196.118 238.988 195.98 239.006 195.861 239.035H195.814L177.32 238.939L149.57 238.796C149.464 238.796 149.36 238.796 149.256 238.796C149.049 238.791 148.844 238.775 148.639 238.749C150.519 238.53 152.262 237.656 153.561 236.279C154.86 234.902 155.632 233.111 155.74 231.222C155.745 231.124 155.745 231.026 155.74 230.928V230.777C155.732 228.928 155.088 227.139 153.916 225.709C152.743 224.279 151.114 223.297 149.302 222.928C149.113 222.881 148.905 222.852 148.704 222.824C149.019 222.795 149.331 222.774 149.635 222.774L173.079 222.899L177.395 222.917L183.217 222.946C185.21 223.128 187.064 224.047 188.416 225.523C189.767 226.999 190.519 228.927 190.525 230.928C190.526 231.306 190.497 231.683 190.44 232.056C190.162 233.962 189.211 235.705 187.757 236.968C186.304 238.231 184.446 238.93 182.52 238.939H196.607C195.796 238.939 196.022 238.939 196.24 238.97Z" fill="white"></path> <path d="M158.727 248.64C159.255 249.172 159.884 249.593 160.576 249.879C161.268 250.166 162.011 250.312 162.76 250.31H149.141C146.541 250.31 145.121 249.675 144.087 248.64C143.023 247.572 142.424 246.128 142.42 244.621C142.42 241.501 144.978 238.942 149.141 238.942H162.76C161.635 238.941 160.536 239.273 159.6 239.897C158.665 240.52 157.936 241.408 157.505 242.446C157.075 243.485 156.962 244.628 157.182 245.731C157.402 246.834 157.944 247.846 158.74 248.64H158.727Z" fill="#2E2E2E"></path> <path d="M203.705 231.071C203.701 232.272 203.422 233.456 202.888 234.532C202.507 235.345 201.984 236.084 201.344 236.713C200.288 237.76 198.962 238.491 197.514 238.827C196.917 238.965 196.307 239.035 195.694 239.035C195.819 239.006 195.954 238.988 196.074 238.97C195.855 238.949 195.629 238.941 196.443 238.941H182.354C184.28 238.934 186.14 238.235 187.595 236.971C189.049 235.708 190.002 233.964 190.278 232.057C190.336 231.683 190.364 231.306 190.364 230.928C190.358 228.927 189.605 226.999 188.253 225.523C186.901 224.046 185.047 223.128 183.053 222.946L190.658 222.985L195.738 223.014C197.861 223.032 199.891 223.889 201.384 225.399C202.877 226.909 203.711 228.948 203.705 231.071Z" fill="#FFDF05"></path> <path d="M203.705 231.069C203.689 233.193 202.832 235.225 201.321 236.718C199.811 238.212 197.77 239.046 195.645 239.038L149.386 238.799C149.076 238.799 148.767 238.775 148.455 238.744C150.405 238.523 152.206 237.595 153.517 236.134C154.828 234.674 155.558 232.784 155.568 230.821C155.579 228.859 154.869 226.961 153.573 225.487C152.277 224.013 150.486 223.065 148.538 222.824C148.847 222.792 149.158 222.776 149.469 222.777L195.728 223.017C197.852 223.031 199.884 223.887 201.379 225.396C202.874 226.905 203.711 228.945 203.705 231.069Z" stroke="#2E2E2E" stroke-width="1.4222" stroke-linecap="square" stroke-linejoin="round"></path> <path d="M190.359 230.927C190.355 233.051 189.509 235.087 188.007 236.588C186.505 238.09 184.47 238.936 182.346 238.94H149.432C149.121 238.938 148.811 238.921 148.501 238.888C150.45 238.657 152.246 237.719 153.549 236.252C154.852 234.785 155.572 232.89 155.572 230.928C155.572 228.966 154.852 227.072 153.549 225.605C152.246 224.138 150.45 223.2 148.501 222.968C148.811 222.94 149.123 222.919 149.432 222.919H182.346C184.469 222.924 186.503 223.769 188.005 225.269C189.506 226.77 190.353 228.804 190.359 230.927Z" stroke="#2E2E2E" stroke-width="1.4222" stroke-linecap="square" stroke-linejoin="round"></path> <path d="M142.42 244.622C142.42 245.367 142.567 246.106 142.852 246.795C143.138 247.484 143.556 248.109 144.084 248.636C145.124 249.676 146.536 250.308 149.138 250.308H196.44C195.626 250.308 195.847 250.292 196.068 250.272C194.684 250.109 193.408 249.443 192.482 248.402C191.556 247.361 191.045 246.015 191.045 244.622C191.045 243.228 191.556 241.883 192.482 240.842C193.408 239.8 194.684 239.135 196.068 238.972C195.847 238.951 195.626 238.936 196.44 238.936H149.138C144.973 238.938 142.42 241.497 142.42 244.622Z" stroke="#2E2E2E" stroke-width="1.4222" stroke-linecap="square" stroke-linejoin="round"></path> <path d="M157.058 244.622C157.061 246.129 157.662 247.573 158.727 248.639C159.793 249.704 161.237 250.305 162.744 250.308H195.408C195.627 250.308 195.847 250.292 196.068 250.272C194.685 250.109 193.408 249.443 192.482 248.402C191.556 247.361 191.045 246.015 191.045 244.622C191.045 243.228 191.556 241.883 192.482 240.842C193.408 239.8 194.685 239.135 196.068 238.972C195.847 238.951 195.627 238.936 195.408 238.936H162.744C161.238 238.94 159.794 239.54 158.728 240.606C157.663 241.671 157.062 243.115 157.058 244.622Z" stroke="#2E2E2E" stroke-width="1.4222" stroke-linecap="square" stroke-linejoin="round"></path> <path d="M104.109 201.24H89.5181C88.8504 201.239 88.1976 201.043 87.6391 200.678C87.0806 200.312 86.6404 199.792 86.3721 199.181C86.2686 198.953 86.2241 198.703 86.2434 198.454C86.2624 198.204 86.3443 197.964 86.4813 197.755C86.6183 197.546 86.806 197.375 87.027 197.258C87.248 197.141 87.4948 197.081 87.7449 197.085H103.256C102.526 198.315 102.898 200.023 104.109 201.24Z" fill="#2E2E2E"></path> <path d="M113.545 199.736C113.544 200.134 113.386 200.515 113.104 200.796C112.823 201.077 112.442 201.236 112.044 201.236H104.109C102.898 200.022 102.526 198.314 103.256 197.076H110.263C110.93 197.076 111.583 197.27 112.142 197.634C112.7 197.997 113.142 198.516 113.412 199.125C113.496 199.318 113.541 199.526 113.545 199.736Z" fill="#FFDF05"></path> <path d="M109.894 201.239C109.853 201.318 109.805 201.394 109.751 201.465C108.711 202.887 106.452 203.025 104.697 201.74C104.489 201.587 104.293 201.42 104.109 201.239C102.898 200.024 102.526 198.316 103.256 197.079C103.297 196.999 103.345 196.924 103.399 196.852C104.439 195.42 106.688 195.292 108.443 196.566C108.655 196.724 108.854 196.898 109.039 197.086C110.24 198.295 110.614 199.993 109.894 201.239Z" fill="white"></path> <path d="M117.213 208.896C117.21 209.294 117.05 209.675 116.768 209.955C116.485 210.236 116.103 210.393 115.705 210.393H100.394C101.132 209.151 100.763 207.455 99.5488 206.233H113.932C114.6 206.234 115.253 206.428 115.812 206.793C116.371 207.158 116.812 207.678 117.081 208.29C117.166 208.481 117.211 208.687 117.213 208.896Z" fill="#FFDF05"></path> <path d="M100.394 210.393H93.1892C92.5223 210.394 91.8694 210.201 91.3104 209.837C90.7514 209.473 90.3102 208.955 90.0406 208.345C89.9555 208.154 89.9106 207.948 89.908 207.739C89.9077 207.542 89.9462 207.347 90.0213 207.165C90.0965 206.984 90.2067 206.818 90.3458 206.679C90.4849 206.54 90.6503 206.43 90.832 206.355C91.014 206.279 91.2087 206.241 91.4056 206.241H99.5488C100.763 207.455 101.14 209.151 100.394 210.393Z" fill="#2E2E2E"></path> <path d="M100.394 210.395C100.36 210.476 100.315 210.553 100.261 210.624C99.2213 212.054 96.9697 212.184 95.2173 210.907C95.0052 210.749 94.8055 210.575 94.6193 210.387C93.4155 209.173 93.0463 207.478 93.7665 206.227C93.8081 206.147 93.856 206.07 93.9095 205.998C94.9495 204.576 97.2089 204.438 98.9613 205.725C99.1701 205.877 99.3664 206.044 99.5489 206.227C100.763 207.457 101.14 209.152 100.394 210.395Z" fill="white"></path> <path d="M105.495 219.486H96.3273C95.6607 219.486 95.0086 219.292 94.4499 218.928C93.8909 218.564 93.4494 218.047 93.1787 217.437C93.0755 217.209 93.0316 216.959 93.0508 216.709C93.0703 216.459 93.1522 216.218 93.2892 216.009C93.4265 215.799 93.6142 215.627 93.8352 215.509C94.0565 215.391 94.3035 215.331 94.5541 215.334H104.642C103.919 216.579 104.291 218.272 105.495 219.486Z" fill="#FFDF05"></path> <path d="M120.351 218C120.349 218.395 120.19 218.774 119.91 219.053C119.629 219.332 119.249 219.488 118.854 219.487H105.495C104.291 218.273 103.919 216.578 104.642 215.327H117.07C117.738 215.327 118.391 215.522 118.95 215.887C119.509 216.252 119.95 216.772 120.219 217.384C120.304 217.578 120.349 217.788 120.351 218Z" fill="#2E2E2E"></path> <path d="M111.28 219.486C111.238 219.566 111.191 219.642 111.137 219.715C110.097 221.145 107.848 221.275 106.093 219.998C105.882 219.839 105.683 219.666 105.498 219.478C104.294 218.264 103.922 216.569 104.645 215.318C104.685 215.238 104.731 215.161 104.785 215.09C105.825 213.667 108.085 213.545 109.84 214.817C110.048 214.968 110.245 215.136 110.427 215.318C111.639 216.548 112.008 218.254 111.28 219.486Z" fill="white"></path> <path d="M42.0186 136.596L42.2474 136.661L42.1616 136.994C42.1072 136.864 42.0594 136.731 42.0186 136.596Z" fill="#2E2E2E"></path> <path d="M82.7076 157.397C86.1302 156.393 87.9284 152.253 86.7243 148.151C85.5203 144.05 81.7698 141.539 78.3474 142.544C74.9248 143.548 73.1266 147.688 74.3307 151.79C75.5347 155.891 79.2852 158.402 82.7076 157.397Z" fill="#2E2E2E"></path> </svg> 