<?xml version="1.0" encoding="UTF-8"?> <svg xmlns="http://www.w3.org/2000/svg" width="260" height="260" viewBox="0 0 260 260" fill="none"> <rect width="260" height="260" fill="white"></rect> <path d="M46.0747 118.936C54.6313 106.976 67.4545 101.555 67.4545 101.555C67.8731 101.381 66.0895 84.996 66.0531 83.8338C65.5123 64.6926 68.6869 44.7766 83.0753 30.955C101.062 13.6883 133.697 10.1107 154.331 24.6577C154.071 24.4653 161.119 18.9091 161.715 18.5529C165.566 16.2288 169.911 14.847 174.398 14.5203C192.452 13.2203 209.009 27.406 215.782 44.566C222.555 61.726 221 100.825 208.575 112.101" stroke="#FFDF05" stroke-width="1.313" stroke-miterlimit="10"></path> <path d="M38.3606 139.684C38.8055 134.974 40.0165 130.367 41.946 126.047C42.1298 125.636 42.3222 125.234 42.5232 124.841" stroke="#FFDF05" stroke-width="1.313" stroke-miterlimit="10"></path> <path d="M60.6736 189.459C58.5936 187.568 56.667 185.644 54.9016 183.71" stroke="#FFDF05" stroke-width="1.313" stroke-miterlimit="10"></path> <path d="M234 133.244C234.015 134.544 234 135.87 233.937 137.199C233.568 145.417 231.808 153.912 227.409 160.833C226.608 162.11 225.715 163.326 224.736 164.473C215.376 163.238 213.98 153.691 203.156 148.293C190.19 141.811 168.958 144.133 168.958 144.133L179.418 134.484C178.859 105.427 157.526 107.21 157.526 107.21L156.442 109.865C157.265 107.461 158.098 105.219 158.94 103.139L158.987 103.03C168.867 78.4907 179.103 75.4487 187.067 71.9049C188.97 71.453 190.918 71.2209 192.873 71.2133C213.234 71.1041 225.183 91.8391 230.409 108.531C231.709 112.691 233.709 121.588 233.976 131.593C233.982 132.129 234 132.688 234 133.244Z" fill="#2E2E2E"></path> <path d="M245.44 242.152C243.859 244.329 241.252 245.514 238.563 245.514H207.675C206.488 245.531 205.311 245.299 204.219 244.834C203.126 244.369 202.144 243.68 201.334 242.813C201.224 242.702 201.121 242.584 201.027 242.459C200.059 241.26 199.454 239.81 199.282 238.278C199.126 236.872 200.172 235.621 201.586 235.678C202.122 235.699 202.632 235.913 203.022 236.281C203.412 236.65 203.656 237.146 203.708 237.68C203.708 237.792 203.731 237.901 203.747 238.011C203.861 238.645 204.14 239.239 204.555 239.732C204.922 240.166 205.384 240.511 205.904 240.741C206.424 240.971 206.99 241.08 207.558 241.06H238.696C239.253 241.07 239.806 240.959 240.316 240.734C240.827 240.51 241.282 240.177 241.652 239.76C242.069 239.278 242.353 238.695 242.477 238.07C242.601 237.445 242.56 236.798 242.359 236.193L228.452 194.84C228.338 194.523 228.204 194.214 228.049 193.915C227.232 192.19 225.938 190.736 224.32 189.725C222.702 188.714 220.828 188.188 218.92 188.21C213.065 188.28 205.632 188.296 204.932 188.296C189.35 188.239 182.26 188.239 178.36 188.343C178.628 187.384 179.112 186.5 179.775 185.758C179.775 185.758 179.79 185.743 179.79 185.735C180.741 184.721 182.043 184.108 183.43 184.022C189.207 183.548 194.927 182.685 200.484 181.177C210.288 178.52 219.64 173.962 226.138 166.633C229.3 163.085 231.691 158.918 233.158 154.397C234.296 150.807 235.013 147.097 235.295 143.342C235.396 142.156 235.458 140.962 235.482 139.759V139.705C235.482 139.429 235.498 139.146 235.498 138.87C235.533 137.157 235.455 135.443 235.264 133.74C236.962 133.753 238.588 134.427 239.798 135.617C239.904 135.897 239.983 136.188 240.032 136.483C240.079 136.763 240.103 137.047 240.102 137.331V170.962C240.105 173.259 239.652 175.534 238.769 177.654C237.885 179.775 236.59 181.699 234.957 183.314C232.253 185.992 231.483 190.056 232.765 193.631L246.587 234.758C247.004 235.992 247.118 237.308 246.918 238.595C246.719 239.883 246.212 241.103 245.44 242.152Z" fill="#FFDF05"></path> <path d="M54.9043 241.116V146.832H60.6737V241.155L54.9043 241.116Z" fill="#2E2E2E"></path> <path d="M168.961 144.12C173.092 143.68 177.871 143.16 182.46 143.264" stroke="#2E2E2E" stroke-width="1.313" stroke-miterlimit="10"></path> <path d="M146.455 148.285C139.139 150.131 132.02 152.796 125.947 157.227C115.755 164.652 111.095 178.505 115.261 190.507C115.261 190.522 131.641 237.772 131.641 237.772H127.33C126.401 237.772 125.481 237.955 124.623 238.312C123.766 238.669 122.987 239.193 122.333 239.852C121.051 241.126 120.419 243.25 120.419 245.2H159.219L144.474 196.97C144.107 195.781 144.024 194.523 144.233 193.296C144.442 192.069 144.937 190.909 145.678 189.909C146.418 188.909 147.384 188.097 148.497 187.54C149.609 186.983 150.837 186.695 152.082 186.7C160.482 186.937 168.285 187.259 176.782 186.89" stroke="#2E2E2E" stroke-width="1.313" stroke-miterlimit="10"></path> <path d="M234.06 137.591V137.539C233.683 127.399 233.173 117.395 230.399 108.523C225.173 91.8313 213.223 71.0963 192.863 71.2055C190.907 71.213 188.959 71.4452 187.057 71.8971C173.636 75.0873 164.315 88.8387 158.977 103.022L158.93 103.131C158.42 104.491 157.949 105.849 157.516 107.203C157.222 108.114 156.859 109.001 156.431 109.857C154.796 113.152 152.204 115.877 148.995 117.675C145.786 119.472 142.109 120.259 138.445 119.932C113.797 117.691 81.3123 116.412 71.0813 133.73" stroke="#2E2E2E" stroke-width="1.313" stroke-miterlimit="10"></path> <path d="M193.726 118.73C190.138 123.062 186.36 127.245 182.455 131.291C174.46 139.58 167.562 148.383 155.155 148.971C145.257 149.447 135.834 145.648 126.474 143.014C116.462 140.199 111.394 137.947 102.063 135.103C99.3755 134.287 96.5876 133.849 93.7793 133.803L84.3855 133.875" stroke="#2E2E2E" stroke-width="1.313" stroke-miterlimit="10"></path> <path d="M157.087 238.381C157.981 237.98 158.951 237.774 159.931 237.778H164.252C164.252 237.778 155.22 220.22 147.997 208.533" stroke="#2E2E2E" stroke-width="1.313" stroke-miterlimit="10"></path> <path d="M163.02 186.929L193.232 245.515H159.058H152.859" stroke="#2E2E2E" stroke-width="1.313" stroke-miterlimit="10"></path> <path d="M245.44 242.153C243.859 244.329 241.251 245.514 238.563 245.514H207.675C205.114 245.514 202.615 244.454 201.019 242.452C200.051 241.253 199.446 239.802 199.274 238.271C199.118 236.864 200.164 235.614 201.578 235.671C202.114 235.691 202.624 235.906 203.014 236.274C203.404 236.642 203.648 237.139 203.7 237.673C203.763 238.428 204.059 239.145 204.547 239.724C204.92 240.152 205.382 240.492 205.901 240.722C206.42 240.951 206.983 241.064 207.55 241.053H238.696C239.253 241.062 239.806 240.951 240.316 240.727C240.826 240.502 241.282 240.17 241.652 239.753C242.069 239.27 242.353 238.688 242.477 238.063C242.601 237.437 242.56 236.79 242.359 236.186L228.452 194.84C227.747 192.883 226.451 191.193 224.743 190.005C223.035 188.817 221 188.19 218.92 188.21C213.065 188.281 205.631 188.296 204.932 188.296C187.582 188.242 180.752 188.242 177.133 188.374C177.076 188.374 177.021 188.362 176.969 188.34C176.917 188.319 176.87 188.287 176.83 188.247C176.791 188.207 176.759 188.159 176.738 188.107C176.717 188.055 176.706 187.999 176.706 187.943C176.701 186.337 177.29 184.787 178.36 183.59C178.364 183.587 178.368 183.583 178.37 183.579C178.373 183.574 178.375 183.569 178.376 183.564C179.328 182.553 180.629 181.941 182.016 181.853C187.793 181.38 193.513 180.517 199.069 179.009C208.874 176.352 218.226 171.794 224.723 164.465C227.886 160.917 230.276 156.75 231.743 152.229C232.878 148.641 233.593 144.932 233.873 141.179C233.975 139.99 234.037 138.796 234.06 137.596V137.539C234.06 137.266 234.075 136.983 234.075 136.707C234.111 134.994 234.032 133.28 233.841 131.577C236.67 131.562 239.522 133.618 240.016 136.489C240.063 136.769 240.087 137.052 240.087 137.336V170.962C240.089 173.259 239.636 175.534 238.752 177.654C237.869 179.775 236.574 181.699 234.941 183.315C232.237 185.993 231.468 190.056 232.749 193.631L246.571 234.758C246.991 235.991 247.107 237.306 246.91 238.594C246.713 239.881 246.209 241.102 245.44 242.153Z" stroke="#2E2E2E" stroke-width="1.313" stroke-miterlimit="10"></path> <path d="M97.0424 139.688H16.5698C14.5982 139.688 13 141.286 13 143.257V143.26C13 145.231 14.5982 146.83 16.5698 146.83H97.0424C99.014 146.83 100.612 145.231 100.612 143.26V143.257C100.612 141.286 99.014 139.688 97.0424 139.688Z" stroke="#2E2E2E" stroke-width="1.313" stroke-miterlimit="10"></path> <path d="M74.2532 241.563H41.7142C40.61 241.563 39.7148 242.459 39.7148 243.563C39.7148 244.667 40.61 245.562 41.7142 245.562H74.2532C75.3575 245.562 76.2526 244.667 76.2526 243.563C76.2526 242.459 75.3575 241.563 74.2532 241.563Z" stroke="#2E2E2E" stroke-width="1.313" stroke-miterlimit="10"></path> <path d="M50.4036 136.483V136.841C50.4556 139.309 52.7774 139.686 54.7794 139.701L93.483 139.675C95.1782 139.675 96.577 138.375 96.5796 136.779V136.711C96.5484 135.151 95.186 133.88 93.5116 133.877C93.5116 133.877 71.8588 133.799 55.0888 133.75C54.7872 134.629 54.0228 135.31 53.0686 135.866C52.2477 136.297 51.3299 136.509 50.4036 136.483Z" stroke="#2E2E2E" stroke-width="1.313" stroke-miterlimit="10"></path> <path d="M29.1201 101.719C29.1281 102.13 29.2456 102.531 29.4607 102.882L47.4007 133.013C47.6328 133.375 47.9376 133.686 48.2953 133.925C48.6534 134.163 49.0569 134.326 49.4807 134.401C50.1975 134.543 50.9403 134.462 51.6101 134.17C52.7099 133.681 53.3443 132.696 53.3235 131.697C53.3196 131.572 53.3066 131.446 53.2845 131.323C53.2293 131.048 53.1272 130.784 52.9829 130.543L35.0429 100.412C34.2629 99.0934 32.3545 98.576 30.8205 99.2546C29.7259 99.733 29.0915 100.718 29.1201 101.719Z" stroke="#2E2E2E" stroke-width="1.313" stroke-miterlimit="10"></path> <path d="M77.6309 133.877C77.6309 133.877 79.7915 131.82 84.7601 128.555" stroke="#2E2E2E" stroke-width="1.313" stroke-miterlimit="10"></path> <path d="M95.2486 100.076L87.3732 108.809C86.8249 109.418 86.0636 109.792 85.2469 109.856C84.43 109.919 83.6201 109.667 82.9844 109.15C82.6332 108.865 82.3466 108.508 82.1433 108.104C81.94 107.7 81.8246 107.258 81.8051 106.806C81.7853 106.354 81.8617 105.903 82.0292 105.483C82.1966 105.063 82.4514 104.683 82.7764 104.368L84.2168 102.975C84.2714 102.897 84.3338 102.827 84.3962 102.754L85.4362 101.607L94.3802 91.8885C95.4657 90.6953 96.8328 89.7934 98.3564 89.2648C99.8803 88.736 101.512 88.5977 103.103 88.8621L103.236 88.8855" stroke="#2E2E2E" stroke-width="1.313" stroke-miterlimit="10"></path> <path d="M106.34 102.44H98.462C97.5656 102.44 96.706 102.083 96.0721 101.45C95.4382 100.816 95.082 99.9562 95.082 99.0597C95.082 98.1632 95.4382 97.3037 96.0721 96.6698C96.706 96.0359 97.5656 95.6797 98.462 95.6797H109.642" stroke="#2E2E2E" stroke-width="1.313" stroke-miterlimit="10"></path> <path d="M100.3 102.439C100.191 103.82 99.6632 104.842 98.8858 105.559C96.8838 107.379 93.2126 107.179 90.6594 105.929" stroke="#2E2E2E" stroke-width="1.313" stroke-miterlimit="10"></path> <path d="M85.449 101.603C83.1844 98.8754 83.6498 95.1678 85.41 92.3C92.677 80.4336 106.53 87.7422 115.638 92.8564C121.059 95.9153 126.242 99.3798 131.141 103.22C135.478 106.6 139.493 110.646 144.703 112.679C147.823 113.898 151.507 114.189 154.612 112.783" stroke="#2E2E2E" stroke-width="1.313" stroke-miterlimit="10"></path> <path d="M98.886 105.539C104.382 109.595 109.629 113.977 114.6 118.661" stroke="#2E2E2E" stroke-width="1.313" stroke-miterlimit="10"></path> <path d="M165.752 41.7501C167.068 42.9513 169.088 43.0163 170.76 42.8551C172.897 42.6601 175.014 42.1427 177.107 41.7059L178.378 41.6409H178.396C178.64 41.6435 178.881 41.6937 179.105 41.7893C179.33 41.8848 179.533 42.0236 179.704 42.1975C179.874 42.3717 180.009 42.5777 180.1 42.8039C180.191 43.0301 180.237 43.2719 180.234 43.5155C180.264 46.2595 179.99 48.9984 179.418 51.6821L181.854 53.0003C182.169 52.1215 181.815 50.8553 182.561 50.7591C183.04 49.8673 183.752 49.2875 184.87 49.9505C187.059 51.2505 187.923 55.0699 185.814 56.8197L187.166 59.3469C187.637 60.233 188.402 60.9277 189.328 61.3127C190.255 61.6978 191.286 61.7493 192.246 61.4581L190.866 58.4057C194.105 58.9803 196.373 54.9373 195.385 52.4699C194.711 50.7747 194.745 49.4565 195.645 47.8081C195.704 47.6963 195.093 47.5481 195.145 47.4337C195.177 46.2247 194.841 44.9299 194.259 44.3137C193.234 43.2113 191.173 43.0137 191.594 41.3393C191.781 40.6108 191.85 39.8568 191.799 39.1059C191.689 38.1244 191.371 37.1777 190.864 36.3299C190.358 35.4817 189.676 34.7519 188.864 34.1893C187.158 33.0687 185.25 34.0853 183.427 34.0567C181.215 34.0333 179.629 32.1561 177.309 32.1275C176.155 32.1093 175.229 32.5591 174.241 33.1181C173.415 33.5939 172.601 34.0905 171.81 34.6287C171.02 35.1669 170.318 35.6323 169.374 35.6349C168.144 35.6505 166.956 34.8705 165.719 35.2345C165.093 35.403 164.543 35.7789 164.159 36.3005C163.766 38.2193 164.476 40.5931 165.752 41.7501Z" fill="#FFDF05"></path> <path d="M181.865 52.7145C182.024 52.0372 182.257 51.3796 182.562 50.7541C183.04 49.8623 183.755 49.2825 184.871 49.9455C187.06 51.2455 187.923 55.0649 185.814 56.8147L187.166 59.3419C187.638 60.2277 188.402 60.9227 189.328 61.3077C190.255 61.6928 191.287 61.744 192.247 61.4531" stroke="#2E2E2E" stroke-width="1.313" stroke-linecap="round" stroke-linejoin="round"></path> <path d="M190.866 58.4014L192.241 61.459C192.587 62.1896 193.578 64.436 194.615 66.7708C195.354 68.4426 196.123 70.1638 196.695 71.43" stroke="#2E2E2E" stroke-width="1.313" stroke-linecap="round" stroke-linejoin="round"></path> <path d="M168.587 47.4212C168.587 47.4212 172.64 46.4123 174.411 49.4855" stroke="#2E2E2E" stroke-width="1.313" stroke-miterlimit="10"></path> <path d="M169.78 56.5969C168.688 56.8959 167.219 57.1637 166.377 56.2121L168.212 52.3485C168.658 51.4011 168.768 50.3301 168.524 49.3117C168.124 47.5983 167.123 44.9957 168.197 42.7363" stroke="#2E2E2E" stroke-width="1.313" stroke-miterlimit="10"></path> <path d="M172.508 51.4185C172.815 50.9081 172.578 50.2012 171.978 49.8395C171.378 49.4778 170.642 49.5982 170.334 50.1086C170.026 50.619 170.264 51.3259 170.864 51.6876C171.464 52.0495 172.2 51.9289 172.508 51.4185Z" fill="#2E2E2E"></path> <path d="M178.422 75.744L177.46 65.0684" stroke="#2E2E2E" stroke-width="1.313" stroke-miterlimit="10"></path> <path d="M181.854 52.9952C181.854 52.9016 181.854 52.8054 181.854 52.7118C181.859 52.6114 181.859 52.5108 181.854 52.4102" stroke="#2E2E2E" stroke-width="1.313" stroke-linecap="round" stroke-linejoin="round"></path> <path d="M181.857 52.9985L181.02 52.5487L179.418 51.6777" stroke="#2E2E2E" stroke-width="1.313" stroke-linecap="round" stroke-linejoin="round"></path> <path d="M175.154 56.8711C175.154 56.8711 175.074 59.5751 171.982 60.6879" stroke="#2E2E2E" stroke-width="1.313" stroke-miterlimit="10"></path> <path d="M190.866 58.4005C194.106 58.9751 196.373 54.9321 195.385 52.4647C194.712 50.7695 194.745 49.4513 195.645 47.8029C195.705 47.6911 195.754 47.5819 195.806 47.4727C196.474 45.9985 196.238 44.5373 195.187 43.2841C194.192 42.0985 192.691 41.6825 193.123 39.9535C193.317 39.2029 193.389 38.426 193.336 37.6525C193.224 36.643 192.897 35.6693 192.377 34.797C191.856 33.9247 191.155 33.174 190.32 32.5955C188.568 31.4333 186.594 32.4863 184.707 32.4577C182.434 32.4239 180.794 30.4895 178.41 30.4609C177.216 30.4609 176.254 30.9055 175.24 31.4827C174.387 31.9741 173.542 32.4915 172.736 33.0427C171.93 33.5939 171.176 34.0827 170.22 34.0827C168.951 34.0827 167.726 33.3027 166.457 33.6667C165.189 34.0307 164.435 35.0811 164.185 36.2979C163.779 38.2063 164.489 40.5905 165.766 41.7579C167.081 42.9591 169.102 43.0241 170.773 42.8629C172.911 42.6679 175.027 42.1505 177.12 41.7137L178.391 41.6487H178.41C178.653 41.6511 178.894 41.7015 179.119 41.7969C179.343 41.8926 179.546 42.0312 179.717 42.2054C179.888 42.3793 180.022 42.5855 180.114 42.8115C180.205 43.0377 180.25 43.2795 180.248 43.5233C180.277 46.2674 180.003 49.006 179.431 51.6899" stroke="#2E2E2E" stroke-width="1.313" stroke-miterlimit="10"></path> <path d="M182.346 61.3598C182.346 61.3598 177.515 67.7766 173.222 66.3388C168.93 64.901 168.711 56.958 168.711 56.958" stroke="#2E2E2E" stroke-width="1.313" stroke-linecap="round" stroke-linejoin="round"></path> <path d="M54.9043 241.116V146.832H60.6737V241.155" stroke="#2E2E2E" stroke-width="1.313" stroke-miterlimit="10"></path> <path d="M60.2133 91.9692C65.3569 91.9692 69.5265 87.7996 69.5265 82.656C69.5265 77.5124 65.3569 73.3428 60.2133 73.3428C55.0698 73.3428 50.9001 77.5124 50.9001 82.656C50.9001 87.7996 55.0698 91.9692 60.2133 91.9692Z" fill="#FFDF05"></path> <path d="M56.571 85.0585C56.2985 84.8723 56.0567 84.6451 55.8534 84.3851C55.4938 83.94 55.31 83.3786 55.3362 82.8071C55.3625 82.2357 55.5975 81.6936 55.9964 81.2833C56.2566 81.0155 56.5754 80.8114 56.9277 80.6874C57.28 80.5633 57.6562 80.5225 58.027 80.5683C57.9448 80.0527 58.0327 79.5241 58.2776 79.0629C58.5223 78.6016 58.9107 78.2324 59.3836 78.0114C59.8568 77.7904 60.3891 77.7291 60.8997 77.8372C61.4106 77.9454 61.8726 78.2168 62.2156 78.6105C62.941 79.4321 63.2816 80.6541 63.409 81.7305C63.4747 82.2923 63.4836 82.8597 63.435 83.4231C63.4116 83.7065 63.3102 85.3419 63.045 85.4459C61.2926 86.1167 58.3052 86.2623 56.571 85.0585Z" fill="white"></path> <path d="M125.923 89.7711C128.68 89.7711 130.915 87.5362 130.915 84.7791C130.915 82.0221 128.68 79.7871 125.923 79.7871C123.166 79.7871 120.931 82.0221 120.931 84.7791C120.931 87.5362 123.166 89.7711 125.923 89.7711Z" fill="#FFDF05"></path> <path d="M125.58 82.4672C125.732 82.3754 125.898 82.3096 126.072 82.2722C126.37 82.2004 126.684 82.2402 126.955 82.3837C127.226 82.5275 127.435 82.7652 127.543 83.0522C127.614 83.2397 127.64 83.4412 127.619 83.6406C127.599 83.8397 127.533 84.0319 127.426 84.2014C127.689 84.2849 127.919 84.45 128.082 84.6728C128.244 84.8956 128.332 85.1642 128.332 85.4403C128.332 85.7162 128.244 85.985 128.082 86.2078C127.919 86.4304 127.689 86.5955 127.426 86.6792C126.831 86.8095 126.21 86.7642 125.64 86.5492C125.353 86.4522 125.075 86.3269 124.813 86.1748C124.681 86.0994 123.908 85.6782 123.921 85.5248C123.997 84.516 124.608 83.034 125.58 82.4672Z" fill="white"></path> <path d="M87.2172 79.0868C87.7767 79.5537 88.4012 79.9364 89.071 80.223C90.3044 80.7378 91.6504 80.9234 92.9772 80.7617C94.304 80.6 95.566 80.0963 96.6396 79.3C97.4716 78.6656 98.1996 77.7894 99.0602 77.1524C99.6605 76.682 100.381 76.39 101.14 76.31C101.392 76.3172 101.643 76.2645 101.871 76.1566C102.448 75.7978 101.767 75.2024 101.707 74.7812C101.627 74.1075 101.796 73.4279 102.183 72.8702C103.17 71.3975 103.618 69.6285 103.45 67.8631C103.282 66.0979 102.509 64.4451 101.261 63.1852C100.013 61.9252 98.3678 61.1356 96.6045 60.9502C94.8409 60.7651 93.0674 61.1956 91.5852 62.1686C90.1214 63.128 89.0346 64.5502 87.9322 65.91C86.9598 67.1086 85.9432 68.289 85.2308 69.6592C83.5564 72.8806 84.534 76.8482 87.2172 79.0868Z" fill="#FFDF05"></path> <path d="M97.1463 68.468C98.0667 68.468 98.8129 67.7218 98.8129 66.8014C98.8129 65.8807 98.0667 65.1348 97.1463 65.1348C96.2259 65.1348 95.4797 65.8807 95.4797 66.8014C95.4797 67.7218 96.2259 68.468 97.1463 68.468Z" fill="white"></path> <path d="M93.9225 72.4094C94.8429 72.4094 95.5891 71.6632 95.5891 70.7428C95.5891 69.8224 94.8429 69.0762 93.9225 69.0762C93.0021 69.0762 92.2559 69.8224 92.2559 70.7428C92.2559 71.6632 93.0021 72.4094 93.9225 72.4094Z" fill="white"></path> <path d="M90.8985 76.1096C91.8189 76.1096 92.5651 75.3634 92.5651 74.443C92.5651 73.5226 91.8189 72.7764 90.8985 72.7764C89.9781 72.7764 89.2319 73.5226 89.2319 74.443C89.2319 75.3634 89.9781 76.1096 90.8985 76.1096Z" fill="white"></path> <g opacity="0.46"> <path opacity="0.46" d="M139.1 58.8349C138.97 59.4877 138.695 60.1029 138.297 60.6361C137.898 61.1691 137.385 61.6065 136.796 61.9159L122.897 69.2999C122.372 69.5796 121.798 69.753 121.207 69.8105C120.615 69.8677 120.018 69.8076 119.45 69.6337C118.882 69.4598 118.354 69.1756 117.896 68.797C117.438 68.4185 117.059 67.9531 116.781 67.4279L105.703 46.5681C105.141 45.5101 105.023 44.2728 105.374 43.1275C105.724 41.9824 106.515 41.023 107.572 40.4607L121.482 33.0793C123.575 31.9665 126.464 32.8193 127.587 34.9487L138.668 55.8007C139.167 56.7291 139.32 57.8042 139.1 58.8349Z" fill="#FFDF05"></path> </g> <path d="M134.974 57.2546L121.42 52.0884C121.247 52.0214 121.104 51.895 121.016 51.7322C120.928 51.5692 120.9 51.3802 120.939 51.1992L124.082 36.7406C124.118 36.5867 124.199 36.4474 124.316 36.341C124.433 36.2344 124.579 36.1658 124.735 36.1442C124.891 36.1224 125.051 36.1486 125.192 36.2193C125.333 36.2901 125.449 36.4021 125.525 36.5404L135.936 56.16C136.009 56.2997 136.039 56.4585 136.02 56.6153C136.001 56.7721 135.936 56.9198 135.831 57.0383C135.727 57.1569 135.589 57.2411 135.436 57.2799C135.283 57.3183 135.122 57.3095 134.974 57.2546Z" fill="white"></path> <g opacity="0.46"> <path opacity="0.46" d="M155.22 73.3506C155.504 73.5544 155.739 73.8196 155.908 74.1267C156.076 74.4335 156.173 74.7743 156.192 75.1238L156.712 83.3892C156.732 83.7012 156.69 84.014 156.589 84.3096C156.487 84.6055 156.329 84.8782 156.122 85.1124C155.915 85.3467 155.664 85.5378 155.382 85.6748C155.101 85.8118 154.796 85.8922 154.484 85.9112L142.08 86.6756C141.451 86.7133 140.833 86.5001 140.361 86.0828C139.889 85.6657 139.602 85.0784 139.563 84.45L139.056 76.1794C139.033 75.5548 139.252 74.9457 139.665 74.4774C140.079 74.0091 140.656 73.7174 141.279 73.6626L153.681 72.8826C154.233 72.8516 154.778 73.0175 155.22 73.3506Z" fill="#FFDF05"></path> </g> <path d="M153.571 74.9831L148.143 80.3573C148.074 80.4225 147.984 80.462 147.889 80.4685C147.795 80.4753 147.7 80.4488 147.623 80.3937L141.383 75.7397C141.316 75.6895 141.266 75.6201 141.241 75.5408C141.215 75.4615 141.214 75.3759 141.238 75.2961C141.262 75.2163 141.31 75.1458 141.375 75.0938C141.441 75.0421 141.52 75.0117 141.604 75.0065L153.272 74.2863C153.354 74.2842 153.434 74.3066 153.503 74.3508C153.572 74.3947 153.626 74.4584 153.658 74.5335C153.69 74.6084 153.699 74.6913 153.684 74.7717C153.668 74.8518 153.629 74.9253 153.571 74.9831Z" fill="white"></path> <g opacity="0.46"> <path opacity="0.46" d="M70.9802 118.769C70.1661 118.903 69.3429 118.973 68.518 118.977C60.6192 118.977 60.8844 111.653 60.8844 111.653L67.4286 113.068C67.1813 112.462 67.0867 111.804 67.153 111.153C67.219 110.502 67.4441 109.878 67.8081 109.334C69.3057 107.145 72.7846 108.271 72.7846 108.271L74.9478 106.877L74.4798 109.477L77.3787 108.988L75.889 110.712C77.891 112.636 80.4416 118.494 74.29 121.538C68.1384 124.583 65.4838 120.935 65.4838 120.935L68.518 118.98L70.9802 118.769Z" fill="#FFDF05"></path> </g> <path d="M70.85 111.607C71.3726 111.607 71.7964 111.183 71.7964 110.66C71.7964 110.138 71.3726 109.714 70.85 109.714C70.3274 109.714 69.9036 110.138 69.9036 110.66C69.9036 111.183 70.3274 111.607 70.85 111.607Z" fill="white"></path> <path d="M87.3469 245.515H195.577" stroke="#2E2E2E" stroke-width="0.819" stroke-miterlimit="10"></path> </svg> 